<svg width="32" height="36" viewBox="0 0 32 36" fill="none" xmlns="http://www.w3.org/2000/svg">
<path d="M31.6662 23.6223C31.5036 23.3366 31.2867 23.0862 31.028 22.8854C30.7693 22.6847 30.4738 22.5376 30.1587 22.4527C29.8435 22.3677 29.5148 22.3465 29.1915 22.3903C28.8682 22.4342 28.5567 22.5421 28.2748 22.708L21.1865 26.9199C21.0439 26.5869 20.8319 26.2889 20.5649 26.0461C20.298 25.8034 19.9824 25.6217 19.6397 25.5133L12.4006 23.0988L12.0138 22.9737C8.72299 21.8719 8.23187 21.8016 4.92168 24.1459C4.72656 23.7807 4.41615 23.4919 4.03985 23.3255C3.66355 23.1591 3.24298 23.1247 2.84507 23.2277L1.36786 23.6184C1.1337 23.6815 0.914141 23.7905 0.721719 23.9394C0.529296 24.0882 0.367785 24.2739 0.246413 24.4858C0.00373355 24.9145 -0.0629073 25.4223 0.0607943 25.9001L2.38103 34.6091C2.44161 34.8464 2.54794 35.0694 2.69392 35.2651C2.83991 35.4609 3.02268 35.6256 3.23178 35.7499C3.51321 35.9128 3.83169 35.999 4.156 36C4.31658 36.0004 4.47651 35.9794 4.63165 35.9375L6.10886 35.5468C6.54509 35.4272 6.92254 35.1497 7.16929 34.7671C7.41604 34.3845 7.51484 33.9236 7.44686 33.4721C8.83127 32.847 10.9659 33.4135 13.0309 33.9644C14.3766 34.3238 15.6759 34.6677 16.7626 34.6677C17.3259 34.695 17.8853 34.5595 18.3751 34.277L30.7497 27.0527C31.0336 26.8891 31.2827 26.6703 31.4825 26.409C31.6824 26.1477 31.8292 25.849 31.9143 25.5302C31.9995 25.2113 32.0215 24.8786 31.9789 24.5512C31.9363 24.2238 31.83 23.9081 31.6662 23.6223ZM6.32542 34.1558C6.27124 34.252 6.19847 34.3361 6.11144 34.4032C6.02441 34.4704 5.9249 34.5191 5.81883 34.5466L4.34549 34.9373C4.1312 34.9936 3.9036 34.9624 3.71185 34.8506C3.52011 34.7387 3.37961 34.5551 3.32072 34.3395L1.00049 25.6306C0.944631 25.4146 0.974927 25.1851 1.08486 24.9914C1.19479 24.7978 1.37556 24.6555 1.58828 24.5952L3.06549 24.2045C3.17163 24.1755 3.28238 24.1681 3.39138 24.1825C3.50039 24.1969 3.60551 24.2329 3.70071 24.2884C3.79592 24.3439 3.87934 24.4179 3.94618 24.5061C4.01303 24.5943 4.06199 24.6949 4.09026 24.8023L6.41049 33.5112C6.4401 33.6189 6.44782 33.7315 6.4332 33.8423C6.41858 33.9531 6.38191 34.0597 6.32542 34.1558ZM30.2547 26.1619L17.8802 33.3901C17.0217 33.9488 15.1423 33.4487 13.3248 32.9642C11.1554 32.3898 8.92408 31.7921 7.23031 32.4484L5.29678 25.1461C8.49483 22.8526 8.59924 22.8761 11.747 23.931L19.3458 26.4706C19.5728 26.5333 19.7815 26.6507 19.9539 26.8126C20.1263 26.9745 20.2573 27.1762 20.3357 27.4005C20.3688 27.5183 20.3933 27.6385 20.4092 27.7599C20.4475 27.9327 20.4436 28.1122 20.3977 28.2831C20.3519 28.454 20.2656 28.611 20.1463 28.7406C19.9507 28.896 19.7224 29.004 19.4791 29.0562C19.2357 29.1083 18.9837 29.1033 18.7425 29.0415L12.0912 26.7792C11.9615 26.7357 11.8199 26.7461 11.6977 26.808C11.5755 26.8699 11.4827 26.9783 11.4396 27.1094C11.3965 27.2405 11.4067 27.3835 11.468 27.5069C11.5293 27.6304 11.6366 27.7242 11.7664 27.7677L18.3751 30.0378C18.6069 30.1009 18.8471 30.1259 19.0867 30.112C19.7096 30.1157 20.3132 29.894 20.7882 29.4869C20.9919 29.2963 21.1526 29.0637 21.2593 28.8048C21.3661 28.5459 21.4164 28.2668 21.4069 27.9865L28.7891 23.5871C28.9532 23.4899 29.1349 23.4266 29.3234 23.4011C29.512 23.3756 29.7037 23.3884 29.8874 23.4387C30.0767 23.4872 30.2544 23.5739 30.4099 23.6933C30.5653 23.8128 30.6954 23.9627 30.7922 24.1341C30.986 24.4753 31.0382 24.8801 30.9375 25.2601C30.8368 25.64 30.5913 25.9642 30.2547 26.1619ZM5.26198 32.9212C5.29435 33.0428 5.29032 33.1714 5.25039 33.2906C5.21047 33.4099 5.13645 33.5146 5.03768 33.5913C4.93891 33.6681 4.81983 33.7136 4.69549 33.722C4.57114 33.7305 4.44712 33.7015 4.33908 33.6387C4.23104 33.5759 4.14385 33.4822 4.08851 33.3694C4.03317 33.2566 4.01217 33.1297 4.02817 33.0049C4.04417 32.88 4.09644 32.7627 4.17839 32.6678C4.26033 32.573 4.36827 32.5048 4.48857 32.4719C4.56856 32.4495 4.65216 32.4433 4.73451 32.4538C4.81687 32.4644 4.89633 32.4913 4.96829 32.5331C5.04025 32.5749 5.10327 32.6307 5.15369 32.6974C5.20411 32.764 5.24092 32.8401 5.26198 32.9212ZM20.4556 24.0521C22.3037 24.0535 24.1184 23.5547 25.711 22.6075C27.3036 21.6603 28.616 20.2993 29.5116 18.6661C30.4073 17.0328 30.8536 15.187 30.8041 13.3205C30.7545 11.4539 30.211 9.63492 29.23 8.05253L30.189 7.08357C30.3023 6.96958 30.3922 6.8341 30.4535 6.68492C30.5149 6.53574 30.5465 6.37578 30.5465 6.21424C30.5465 6.05269 30.5149 5.89274 30.4535 5.74355C30.3922 5.59437 30.3023 5.4589 30.189 5.34491L28.6422 3.78207C28.5293 3.6676 28.3953 3.57677 28.2476 3.51479C28.1 3.45281 27.9416 3.42091 27.7818 3.42091C27.6219 3.42091 27.4635 3.45281 27.3159 3.51479C27.1682 3.57677 27.0342 3.6676 26.9213 3.78207L25.9391 4.71587C24.9669 4.10133 23.9006 3.65376 22.7836 3.39136V1.22683C22.7826 0.901095 22.6538 0.589055 22.4254 0.359092C22.1971 0.129128 21.8879 -1.64139e-06 21.5655 0H19.3496C19.0273 -1.64139e-06 18.718 0.129128 18.4897 0.359092C18.2613 0.589055 18.1325 0.901095 18.1315 1.22683V3.40699C17.0144 3.66515 15.947 4.10736 14.9721 4.71587L14.0131 3.74691C13.9003 3.63244 13.7662 3.5416 13.6186 3.47963C13.4709 3.41765 13.3126 3.38574 13.1527 3.38574C12.9928 3.38574 12.8345 3.41765 12.6868 3.47963C12.5392 3.5416 12.4051 3.63244 12.2923 3.74691L10.7455 5.30975C10.6322 5.42373 10.5423 5.55921 10.4809 5.70839C10.4196 5.85757 10.388 6.01753 10.388 6.17907C10.388 6.34062 10.4196 6.50058 10.4809 6.64976C10.5423 6.79894 10.6322 6.93441 10.7455 7.0484L11.7045 8.01736C10.7186 9.59982 10.171 11.4205 10.1187 13.2896C10.0664 15.1587 10.5113 17.0078 11.4071 18.644C12.303 20.2802 13.6168 21.6436 15.2118 22.5921C16.8067 23.5406 18.6243 24.0394 20.475 24.0365L20.4556 24.0521ZM20.4556 23.0323C18.6078 23.0323 16.8015 22.4787 15.265 21.4415C13.7286 20.4043 12.5311 18.93 11.824 17.2052C11.1169 15.4803 10.9319 13.5823 11.2923 11.7512C11.6528 9.92013 12.5427 8.23817 13.8493 6.91802C15.1559 5.59788 16.8206 4.69885 18.6329 4.33462C20.4453 3.9704 22.3238 4.15733 24.031 4.87179C25.7381 5.58624 27.1973 6.79613 28.2239 8.34846C29.2505 9.90079 29.7984 11.7258 29.7984 13.5928C29.7953 16.0954 28.81 18.4945 27.0586 20.2641C25.3071 22.0337 22.9325 23.0292 20.4556 23.0323ZM27.6174 4.48144C27.6563 4.44348 27.7083 4.42227 27.7624 4.42227C27.8165 4.42227 27.8685 4.44348 27.9074 4.48144L29.4775 6.06772C29.515 6.10705 29.536 6.15958 29.536 6.21424C29.536 6.2689 29.515 6.32142 29.4775 6.36075L28.6422 7.20469C28.103 6.50153 27.4781 5.87008 26.7821 5.32537L27.6174 4.48144ZM19.1408 1.22683C19.1418 1.17155 19.1643 1.11889 19.2033 1.08016C19.2424 1.04143 19.2949 1.01974 19.3496 1.01975H21.5655C21.6202 1.01974 21.6727 1.04143 21.7118 1.08016C21.7508 1.11889 21.7733 1.17155 21.7743 1.22683V3.22336C20.9001 3.10875 20.015 3.10875 19.1408 3.22336V1.22683ZM11.4377 6.36075C11.4001 6.32142 11.3791 6.2689 11.3791 6.21424C11.3791 6.15958 11.4001 6.10705 11.4377 6.06772L13.0077 4.48144C13.0466 4.44348 13.0986 4.42227 13.1527 4.42227C13.2068 4.42227 13.2588 4.44348 13.2977 4.48144L14.133 5.32537C13.437 5.87008 12.8121 6.50153 12.2729 7.20469L11.4377 6.36075ZM20.4556 5.80595C18.9304 5.80595 17.4394 6.26297 16.1713 7.1192C14.9031 7.97543 13.9148 9.19241 13.3313 10.6162C12.7478 12.04 12.5953 13.6067 12.8932 15.118C13.191 16.6294 13.9258 18.0176 15.0046 19.107C16.0833 20.1964 17.4577 20.9381 18.9537 21.2382C20.4497 21.5384 22.0002 21.3836 23.4091 20.7933C24.8181 20.203 26.0221 19.2039 26.8689 17.9222C27.7157 16.6405 28.1673 15.1338 28.1665 13.5928C28.1594 11.5291 27.3446 9.55212 25.8999 8.09325C24.4553 6.63438 22.4981 5.81213 20.4556 5.80595ZM20.4556 20.3638C19.1302 20.3638 17.8345 19.9667 16.7324 19.2227C15.6303 18.4787 14.7714 17.4212 14.2642 16.1839C13.7569 14.9467 13.6242 13.5853 13.8828 12.2718C14.1414 10.9584 14.7796 9.75191 15.7169 8.80497C16.6541 7.85803 17.8482 7.21316 19.1482 6.95189C20.4482 6.69063 21.7957 6.82472 23.0202 7.3372C24.2448 7.84968 25.2914 8.71754 26.0278 9.83103C26.7642 10.9445 27.1572 12.2536 27.1572 13.5928C27.1562 15.3883 26.4498 17.1099 25.1932 18.3795C23.9367 19.6491 22.2327 20.3628 20.4556 20.3638ZM20.9622 10.0139V13.5928C20.962 13.6829 20.9394 13.7716 20.8965 13.8507L19.5894 16.1363C19.5446 16.2132 19.4807 16.2771 19.4041 16.3216C19.3275 16.3661 19.2408 16.3898 19.1524 16.3903C19.0639 16.39 18.9771 16.3657 18.9011 16.3199C18.8422 16.2881 18.7903 16.2447 18.7483 16.1923C18.7062 16.1399 18.6749 16.0795 18.6562 16.0148C18.6375 15.9501 18.6317 15.8822 18.6392 15.8152C18.6468 15.7482 18.6674 15.6833 18.7 15.6245L19.9374 13.456V10.0139C19.9485 9.88637 20.0065 9.76766 20.0999 9.68118C20.1933 9.59471 20.3154 9.54674 20.4421 9.54674C20.5688 9.54674 20.6909 9.59471 20.7843 9.68118C20.8777 9.76766 20.9357 9.88637 20.9467 10.0139H20.9622ZM2.72519 11.483C2.72468 11.4154 2.73741 11.3484 2.76264 11.2859C2.78787 11.2233 2.8251 11.1665 2.87219 11.1185C2.91929 11.0706 2.9753 11.0325 3.03702 11.0066C3.09873 10.9806 3.16492 10.9672 3.23178 10.9672H7.66728C7.73727 10.961 7.80776 10.9696 7.87429 10.9924C7.94082 11.0152 8.00192 11.0518 8.05372 11.0997C8.10552 11.1477 8.14688 11.206 8.17518 11.2709C8.20347 11.3359 8.21809 11.4061 8.21809 11.4771C8.21809 11.5481 8.20347 11.6183 8.17518 11.6833C8.14688 11.7482 8.10552 11.8065 8.05372 11.8545C8.00192 11.9024 7.94082 11.939 7.87429 11.9618C7.80776 11.9846 7.73727 11.9932 7.66728 11.987H3.23178C3.16576 11.9875 3.10029 11.9749 3.0391 11.9498C2.97791 11.9248 2.92221 11.8878 2.87516 11.841C2.82812 11.7942 2.79067 11.7385 2.76494 11.677C2.7392 11.6156 2.7257 11.5497 2.72519 11.483ZM4.65872 14.4992H9.10969C9.17968 14.493 9.25017 14.5016 9.3167 14.5244C9.38323 14.5472 9.44433 14.5838 9.49613 14.6317C9.54793 14.6797 9.58929 14.738 9.61759 14.803C9.64588 14.8679 9.6605 14.9381 9.6605 15.0091C9.6605 15.0801 9.64588 15.1503 9.61759 15.2153C9.58929 15.2802 9.54793 15.3385 9.49613 15.3865C9.44433 15.4344 9.38323 15.471 9.3167 15.4938C9.25017 15.5166 9.17968 15.5252 9.10969 15.519H4.67032C4.5441 15.5078 4.42661 15.4493 4.34102 15.3549C4.25543 15.2605 4.20795 15.1371 4.20795 15.0091C4.20795 14.8811 4.25543 14.7577 4.34102 14.6634C4.42661 14.569 4.5441 14.5104 4.67032 14.4992H4.65872ZM2.18767 18.5353C2.18767 18.4682 2.2008 18.4019 2.22631 18.34C2.25181 18.2781 2.28919 18.2219 2.33628 18.1747C2.38337 18.1275 2.43925 18.0902 2.50069 18.0649C2.56213 18.0396 2.62791 18.0268 2.69426 18.0273H7.12976C7.19975 18.0212 7.27024 18.0297 7.33677 18.0525C7.4033 18.0753 7.4644 18.1119 7.5162 18.1598C7.568 18.2078 7.60936 18.2661 7.63766 18.3311C7.66595 18.396 7.68057 18.4662 7.68057 18.5372C7.68057 18.6082 7.66595 18.6784 7.63766 18.7434C7.60936 18.8083 7.568 18.8667 7.5162 18.9146C7.4644 18.9626 7.4033 18.9991 7.33677 19.0219C7.27024 19.0447 7.19975 19.0533 7.12976 19.0471H2.69426C2.5599 19.0471 2.43105 18.9932 2.33605 18.8972C2.24104 18.8012 2.18767 18.671 2.18767 18.5353Z" fill="black"/>
</svg>
