<svg width="37" height="36" viewBox="0 0 37 36" fill="none" xmlns="http://www.w3.org/2000/svg">
<path d="M35.7801 29.5452L26.6894 21.2529C26.3606 20.9552 25.8657 20.9552 25.5388 21.2529L21.5849 17.3267C22.7499 15.5366 23.3785 13.438 23.3785 11.2426C23.3785 10.274 23.2575 9.33236 23.0173 8.41943V8.41405L27.5256 3.83665V8.65796C27.5256 9.00234 27.8074 9.28216 28.1542 9.28216C28.501 9.28216 28.7828 9.00235 28.7828 8.65796V2.30301C28.7828 2.17028 28.7467 2.05549 28.6762 1.95325C28.6076 1.84742 28.5046 1.76491 28.3854 1.72904C28.3114 1.69317 28.2337 1.67882 28.1542 1.67882H21.7509C21.3987 1.67882 21.1224 1.95504 21.1224 2.30302C21.1224 2.6474 21.4005 2.92722 21.7509 2.92722H26.6621L22.5691 7.07773C22.5547 7.03109 22.5366 6.98625 22.5185 6.93962C21.9586 5.58901 21.1259 4.35498 20.0584 3.29314C17.9217 1.17126 15.0784 0 12.0548 0C9.03479 0 6.1953 1.16589 4.05486 3.29314C0.276189 7.04546 -0.263846 12.8067 2.41838 17.1363L0.180472 19.4465C-0.0651767 19.6904 -0.0597574 20.0886 0.194922 20.329C0.315941 20.4491 0.473082 20.5029 0.630228 20.5029C0.801819 20.5029 0.962576 20.4384 1.08359 20.3092L3.15897 18.1748C3.4263 18.5335 3.73156 18.8689 4.05667 19.1936C6.26208 21.3837 9.16108 22.476 12.0566 22.476C14.188 22.476 16.3194 21.8841 18.1741 20.6949L22.128 24.6212C21.8318 24.9476 21.8318 25.4481 22.1334 25.7691L30.4839 34.7965C31.1829 35.5534 32.1384 35.9767 33.1698 36H33.2528C34.2517 36 35.1909 35.6144 35.9026 34.9077C36.6323 34.183 37.0225 33.2216 36.999 32.1993C36.9773 31.1805 36.542 30.2335 35.7798 29.5447L35.7801 29.5452ZM4.94234 4.18136C6.84252 2.28906 9.36762 1.25234 12.0536 1.25234C13.3992 1.25234 14.7033 1.50883 15.9099 2.00924C17.1164 2.50069 18.2218 3.2361 19.1737 4.18136C20.2936 5.29343 21.1118 6.61534 21.6013 8.06637L18.1659 11.5514L13.3722 6.78381C13.2512 6.66364 13.1049 6.61342 12.9188 6.60445C12.7472 6.60445 12.5901 6.67261 12.4709 6.79278L3.32926 16.2058C1.12746 12.3907 1.66944 7.43689 4.94234 4.18136ZM4.94234 18.3046C4.60999 17.9746 4.30835 17.6302 4.03563 17.2661L12.9275 8.10972L17.7268 12.8755C17.8478 12.9956 18.0049 13.0638 18.1747 13.0638C18.3463 13.0584 18.5071 12.9956 18.6227 12.8755L21.9606 9.48728C22.0672 10.0612 22.1178 10.6495 22.1178 11.2415C22.1178 13.9086 21.0719 16.4163 19.1772 18.3031C15.2486 22.2043 8.86902 22.204 4.94234 18.3046ZM19.2115 19.9637C19.5077 19.7198 19.7895 19.4633 20.0622 19.196C20.3295 18.9306 20.5896 18.64 20.8353 18.3458L24.6446 22.1286L23.0172 23.7411L19.2115 19.9637ZM35.7385 32.3003C35.7385 32.9568 35.4802 33.572 35.0088 34.0366C34.5229 34.5191 33.8763 34.7845 33.1953 34.7612C32.5107 34.7468 31.8731 34.4634 31.4107 33.963L23.3225 25.2066L26.1203 22.4282L34.9295 30.4637C35.4389 30.9283 35.7206 31.5525 35.7333 32.2323V32.3004L35.7385 32.3003Z" fill="black"/>
</svg>
