<svg width="50" height="34" viewBox="0 0 50 34" fill="none" xmlns="http://www.w3.org/2000/svg">
<path d="M27.8843 17.9441C27.8843 17.4247 28.317 16.9997 28.8458 16.9997H41.3455C41.8744 16.9997 42.3071 17.4247 42.3071 17.9441C42.3071 18.4636 41.8744 18.8886 41.3455 18.8886H28.8458C28.317 18.8886 27.8843 18.4636 27.8843 17.9441ZM50 5.66667V28.3333C50 31.4595 47.4135 34 44.2308 34H5.76923C2.58652 34 0 31.4595 0 28.3333V5.66667C0 2.54054 2.58652 0 5.76923 0H44.2308C47.4135 0 50 2.54054 50 5.66667ZM2.05785 4.72222H13.4615C13.9904 4.72222 14.4231 5.14722 14.4231 5.66667C14.4231 6.18611 13.9904 6.61111 13.4615 6.61111H1.92308V9.44444H48.0769V5.66667C48.0769 3.57946 46.3558 1.88889 44.2308 1.88889H5.76923C3.9808 1.88889 2.49052 3.09778 2.05785 4.72222ZM48.0769 28.333V11.333H1.92308V28.333C1.92308 30.4202 3.64425 32.1108 5.76923 32.1108H44.2308C46.3558 32.1108 48.0769 30.4202 48.0769 28.333ZM41.3459 24.5553H13.4615C12.9327 24.5553 12.5 24.9802 12.5 25.4997C12.5 26.0191 12.9327 26.4441 13.4615 26.4441H41.3459C41.8747 26.4441 42.3074 26.0191 42.3074 25.4997C42.3074 24.9802 41.8747 24.5553 41.3459 24.5553Z" fill="black"/>
</svg>
