<svg width="37" height="37" viewBox="0 0 37 37" fill="none" xmlns="http://www.w3.org/2000/svg">
<path d="M36.3393 0H9.91056C9.54551 0 9.24984 0.295672 9.24984 0.660718V19.8213H0.660718C0.295672 19.8213 0 20.117 0 20.482V36.3393C0 36.7043 0.295672 37 0.660718 37H16.518C16.883 37 17.1787 36.7043 17.1787 36.3393V27.7502H36.3393C36.7043 27.7502 37 27.4545 37 27.0894V0.660718C37 0.295672 36.7043 0 36.3393 0ZM15.8568 35.6788H1.32101V21.143H9.24963V27.0892C9.24963 27.4543 9.5453 27.7499 9.91035 27.7499H15.8566L15.8568 35.6788ZM35.6784 26.4287H10.5711V1.32144H35.6784V26.4287Z" fill="black"/>
<path d="M12.9603 24.395C13.0413 24.4281 13.1272 24.4462 13.2131 24.4462H18.8193C19.1844 24.4462 19.4801 24.1506 19.4801 23.7855C19.4801 23.4205 19.1844 23.1248 18.8193 23.1248H14.8071L21.1551 16.7768C21.4128 16.5192 21.4128 16.1012 21.1551 15.8419C20.8974 15.5843 20.4795 15.5843 20.2202 15.8419L13.8722 22.1899V18.1777C13.859 17.3121 12.5657 17.3072 12.5508 18.1777V23.784C12.5491 24.0449 12.716 24.296 12.9588 24.3935L12.9603 24.395Z" fill="black"/>
<path d="M25.5599 12.0993C25.7283 12.0993 25.8985 12.0349 26.0273 11.9061L32.3753 5.5581V9.57031C32.3753 9.93536 32.671 10.231 33.036 10.231C33.4011 10.231 33.6967 9.93536 33.6967 9.57031V3.96404C33.7033 3.61056 33.3895 3.29673 33.036 3.30332H27.4297C27.0647 3.30332 26.769 3.599 26.769 3.96404C26.769 4.32909 27.0647 4.62476 27.4297 4.62476H31.442L25.094 10.9727C24.6744 11.3642 24.9949 12.1207 25.5615 12.1009L25.5599 12.0993Z" fill="black"/>
</svg>
