<svg width="36" height="36" viewBox="0 0 36 36" fill="none" xmlns="http://www.w3.org/2000/svg">
<path d="M33.5683 7.54951V7.46101C33.5683 4.68753 31.3123 2.43145 28.5387 2.43145H5.96998C5.69698 1.04696 4.476 0 3.01201 0C1.35152 0 0 1.35297 0 3.01497C0 4.67544 1.35148 6.02694 3.01201 6.02694C4.476 6.02694 5.69999 4.97845 5.96998 3.5925H28.5387C30.6717 3.5925 32.4056 5.32796 32.4056 7.45932V7.54782C31.0196 7.81931 29.9711 9.04179 29.9711 10.5058C29.9711 11.9682 31.0196 13.1907 32.4056 13.4622V13.5507C32.4056 15.0207 31.5431 16.3887 30.2081 17.0367C29.9201 17.1761 29.7986 17.5241 29.9396 17.8121C30.0401 18.0191 30.2471 18.1391 30.4631 18.1391C30.5486 18.1391 30.6341 18.1211 30.7166 18.0806C32.4491 17.2406 33.5681 15.4632 33.5681 13.5506V13.4621C34.9526 13.1906 35.9995 11.9682 35.9995 10.5057C35.9995 9.04172 34.9525 7.81923 33.5681 7.54775L33.5683 7.54951ZM3.01204 4.86604C1.99207 4.86604 1.16106 4.03504 1.16106 3.01507C1.16106 1.99357 1.99207 1.16111 3.01204 1.16111C4.02453 1.16111 4.84955 1.9771 4.86453 2.98658C4.86453 2.99558 4.86303 3.00458 4.86303 3.01358C4.86303 3.02258 4.86453 3.03158 4.86453 3.04208C4.85103 4.05156 4.02453 4.86755 3.01204 4.86755V4.86604ZM32.9877 12.3585C31.9662 12.3585 31.1352 11.5275 31.1352 10.5076C31.1352 9.48607 31.9662 8.65361 32.9877 8.65361C34.0092 8.65361 34.8387 9.48461 34.8387 10.5076C34.8387 11.5291 34.0077 12.3585 32.9877 12.3585ZM9.94936 16.488C9.71686 16.5705 9.56087 16.7895 9.56087 17.0355V18.963C9.56087 19.209 9.71536 19.4279 9.94786 19.5105L11.1343 19.9305C11.2873 20.475 11.5033 20.997 11.7808 21.489L11.2363 22.6259C11.1298 22.8479 11.1748 23.1134 11.3503 23.2874L12.7138 24.6494C12.8878 24.8234 13.1533 24.8684 13.3753 24.7619L14.5123 24.2189C15.0058 24.4949 15.5278 24.7109 16.0693 24.8639L16.4893 26.0534C16.5718 26.2859 16.7908 26.4404 17.0368 26.4404H18.9643C19.2103 26.4404 19.4293 26.2844 19.5118 26.0534L19.9318 24.8654C20.4703 24.7154 20.9923 24.4979 21.4888 24.2204L22.6258 24.7634C22.8478 24.8699 23.1118 24.8249 23.2873 24.6509L24.6508 23.2889C24.8248 23.1149 24.8713 22.8495 24.7648 22.6274L24.2203 21.4905C24.4978 20.9985 24.7138 20.4765 24.8668 19.932L26.0548 19.512C26.2873 19.4295 26.4418 19.2105 26.4418 18.9645V17.037C26.4418 16.791 26.2858 16.5705 26.0533 16.4895L24.8669 16.0725C24.7139 15.5295 24.4979 15.0076 24.2204 14.5141L24.7649 13.3786C24.8714 13.1566 24.8264 12.8911 24.6509 12.7171L23.2874 11.3551C23.1134 11.1811 22.8479 11.1361 22.6259 11.2426L21.4904 11.7856C20.9969 11.5081 20.4749 11.2921 19.9334 11.1391L19.5134 9.9511C19.4309 9.7186 19.2119 9.56411 18.9659 9.56411H17.0384C16.7924 9.56411 16.5734 9.7186 16.4909 9.9511L16.0709 11.1391C15.5278 11.2921 15.0059 11.5081 14.5139 11.7856L13.3784 11.2426C13.1564 11.1361 12.8924 11.1811 12.7169 11.3551L11.3534 12.7171C11.1794 12.8911 11.1329 13.1566 11.2394 13.3786L11.7839 14.5141C11.5064 15.0076 11.2904 15.5295 11.1374 16.0725L9.95089 16.4895L9.94936 16.488ZM11.8139 17.064C12.0014 16.998 12.1424 16.8405 12.1874 16.647C12.3344 16.0111 12.5864 15.405 12.9329 14.8485C13.0379 14.6806 13.0499 14.4691 12.9644 14.2906L12.4634 13.2466L13.2464 12.4651L14.2919 12.9646C14.4704 13.0501 14.6804 13.0381 14.8499 12.9331C15.4064 12.5851 16.0123 12.3346 16.6469 12.1876C16.8404 12.1426 16.9964 12.0031 17.0623 11.8156L17.4478 10.7236H18.5548L18.9403 11.8156C19.0063 12.0031 19.1638 12.1426 19.3558 12.1876C19.9918 12.3361 20.5963 12.5866 21.1528 12.9331C21.3208 13.0381 21.5308 13.0501 21.7108 12.9646L22.7563 12.4651L23.5378 13.2466L23.0368 14.2906C22.9513 14.4691 22.9618 14.6806 23.0668 14.8485C23.4148 15.4065 23.6653 16.011 23.8123 16.647C23.8573 16.8405 23.9983 16.998 24.1858 17.064L25.2778 17.448V18.5535L24.1858 18.939C23.9983 19.005 23.8588 19.1625 23.8138 19.3545C23.6653 19.9935 23.4148 20.5979 23.0683 21.1514C22.9633 21.3194 22.9513 21.5309 23.0368 21.7094L23.5378 22.7564L22.7548 23.5379L21.7093 23.0384C21.5308 22.9529 21.3208 22.9649 21.1528 23.0684C20.5888 23.4179 19.9843 23.6684 19.3558 23.8124C19.1623 23.8574 19.0048 23.9969 18.9388 24.1859L18.5533 25.2794H17.4478L17.0623 24.1859C16.9963 23.9984 16.8388 23.8589 16.6469 23.8139C16.0124 23.6669 15.4079 23.4164 14.8484 23.0684C14.6804 22.9634 14.4704 22.9529 14.2919 23.0384L13.2464 23.5379L12.4634 22.7564L12.9644 21.7094C13.0499 21.5294 13.0379 21.3194 12.9329 21.1499C12.5864 20.5949 12.3359 19.9905 12.1874 19.353C12.1424 19.1595 12.0029 19.002 11.8154 18.936L10.7233 18.5505V17.445L11.8154 17.061L11.8139 17.064ZM8.35788 21.6374L10.1024 22.1069C10.4114 22.1909 10.5959 22.5089 10.5119 22.8179C10.4294 23.1269 10.1099 23.3114 9.80087 23.2274L9.38538 23.1164C11.1749 26.1299 14.433 28.0185 17.9985 28.0185C23.523 28.0185 28.0185 23.5246 28.0185 18.0016C28.0185 17.3341 27.9525 16.6666 27.822 16.0171C27.759 15.7021 27.963 15.3961 28.2765 15.3331C28.59 15.2701 28.8975 15.4741 28.9605 15.7876C29.106 16.5121 29.1795 17.2576 29.1795 18.0001C29.1795 24.1636 24.1637 29.1778 17.9986 29.1778C14.0265 29.1778 10.3966 27.0778 8.39865 23.7254L8.29965 24.0944C8.23065 24.3539 7.99516 24.5249 7.73867 24.5249C7.68917 24.5249 7.63817 24.5189 7.58717 24.5054C7.27817 24.4229 7.09366 24.1034 7.17768 23.7944L7.64719 22.0484C7.68769 21.8999 7.78519 21.7724 7.91869 21.6959C8.05219 21.6194 8.21119 21.5984 8.35967 21.6389L8.35788 21.6374ZM17.9982 22.6349C20.5541 22.6349 22.6345 20.5559 22.6345 18.0016C22.6345 15.4473 20.5555 13.3683 17.9982 13.3683C15.4437 13.3683 13.3648 15.4473 13.3648 18.0016C13.3648 20.5559 15.4438 22.6349 17.9982 22.6349ZM17.9982 14.5291C19.9137 14.5291 21.4721 16.0861 21.4721 18.0016C21.4721 19.9156 19.9137 21.4741 17.9982 21.4741C16.0827 21.4741 14.5257 19.9171 14.5257 18.0016C14.5257 16.0861 16.0842 14.5291 17.9982 14.5291ZM35.9935 32.9067C35.992 32.8962 35.9905 32.8842 35.989 32.8737C35.9875 32.8647 35.9845 32.8557 35.983 32.8467C35.98 32.8377 35.9785 32.8272 35.9755 32.8182C35.9725 32.8092 35.9695 32.8017 35.9665 32.7927C35.9635 32.7837 35.9605 32.7747 35.956 32.7642C35.953 32.7567 35.9485 32.7492 35.9455 32.7417C35.941 32.7327 35.9365 32.7222 35.932 32.7132C35.9275 32.7057 35.9245 32.6997 35.92 32.6922C35.914 32.6832 35.9095 32.6727 35.9035 32.6637C35.899 32.6562 35.893 32.6502 35.8885 32.6427C35.8825 32.6337 35.8765 32.6262 35.8705 32.6172C35.8615 32.6067 35.8525 32.5977 35.8435 32.5872C35.839 32.5827 35.836 32.5782 35.8315 32.5752L33.4 30.1438C33.1735 29.9173 32.806 29.9173 32.5795 30.1438C32.353 30.3703 32.353 30.7378 32.5795 30.9643L34.0195 32.4042L7.46064 32.4072C5.32764 32.4072 3.59377 30.6718 3.59377 28.5404V28.4519C4.97978 28.1804 6.02824 26.9579 6.02824 25.4955C6.02824 24.033 4.97974 22.8105 3.59377 22.539V22.4505C3.59377 20.9791 4.45477 19.6111 5.78825 18.9661C6.07624 18.8266 6.19774 18.4786 6.05824 18.1906C5.91874 17.9026 5.57076 17.7811 5.28276 17.9206C3.55177 18.7591 2.43276 20.5366 2.43276 22.4506V22.5391C1.04826 22.8106 0.00128448 24.0331 0.00128448 25.4955C0.00128448 26.958 1.04829 28.1805 2.43276 28.452V28.5405C2.43276 31.314 4.68875 33.57 7.46237 33.57H34.0182L32.5782 35.01C32.3517 35.2365 32.3517 35.604 32.5782 35.8305C32.6922 35.9445 32.8407 36 32.9892 36C33.1377 36 33.2862 35.943 33.4001 35.8305L35.8316 33.399C35.8361 33.3945 35.8391 33.39 35.8436 33.387C35.8526 33.378 35.8616 33.3675 35.8706 33.357C35.8766 33.3495 35.8826 33.3405 35.8886 33.3315C35.8931 33.324 35.8991 33.3181 35.9036 33.3106C35.9096 33.3015 35.9156 33.2925 35.9201 33.2821C35.9246 33.2745 35.9291 33.2686 35.9321 33.2611C35.9366 33.252 35.9411 33.2416 35.9456 33.2326C35.9486 33.2251 35.9531 33.2175 35.9561 33.21C35.9606 33.201 35.9636 33.1921 35.9666 33.1815C35.9696 33.1726 35.9726 33.1651 35.9756 33.1561C35.9786 33.1471 35.9801 33.1366 35.9831 33.1276C35.9846 33.1186 35.9876 33.1096 35.9891 33.1006C35.9906 33.0901 35.9921 33.0781 35.9936 33.0676C35.9951 33.0601 35.9966 33.0526 35.9966 33.0451C36.0011 33.0076 36.0011 32.9686 35.9966 32.9296C35.9951 32.9221 35.9935 32.9142 35.9935 32.9067ZM1.1606 25.4937C1.1606 24.4722 1.99161 23.6427 3.01158 23.6427C4.0331 23.6427 4.86557 24.4738 4.86557 25.4937C4.86557 26.5152 4.03455 27.3447 3.01158 27.3447C1.99161 27.3447 1.1606 26.5137 1.1606 25.4937ZM28.8219 12.2056L28.3524 13.9531C28.2834 14.2126 28.0479 14.3836 27.7914 14.3836C27.7419 14.3836 27.6909 14.3776 27.6414 14.3641L27.5994 14.3521C27.5829 14.3491 27.5679 14.3446 27.5514 14.3386L25.8954 13.8961C25.5849 13.8136 25.4019 13.4956 25.4844 13.1851C25.5669 12.8746 25.8849 12.6916 26.1954 12.7741L26.6139 12.8866C24.8244 9.87313 21.5663 7.98453 17.9978 7.98453C12.4747 7.98453 7.98079 12.4784 7.98079 18.0014C7.98079 18.6659 8.04679 19.3334 8.17729 19.9859C8.24029 20.3009 8.03629 20.6069 7.72129 20.6699C7.68229 20.6774 7.64479 20.6819 7.60729 20.6819C7.33579 20.6819 7.09431 20.4914 7.03878 20.2154C6.89328 19.4879 6.81978 18.7439 6.81978 18.0029C6.81978 11.8394 11.8344 6.82523 17.9976 6.82523C21.9712 6.82523 25.6011 8.92522 27.6006 12.276L27.6996 11.907C27.7836 11.598 28.1016 11.4135 28.4106 11.4975C28.7196 11.58 28.9041 11.8995 28.8201 12.2085L28.8219 12.2056Z" fill="black"/>
</svg>
