<svg width="37" height="37" viewBox="0 0 37 37" fill="none" xmlns="http://www.w3.org/2000/svg">
<path d="M36.3393 0H9.91056C9.54551 0 9.24984 0.295672 9.24984 0.660718V19.8213H0.660718C0.295672 19.8213 0 20.117 0 20.482V36.3393C0 36.7043 0.295672 37 0.660718 37H16.518C16.883 37 17.1787 36.7043 17.1787 36.3393V27.7502H36.3393C36.7043 27.7502 37 27.4545 37 27.0894V0.660718C37 0.295672 36.7043 0 36.3393 0ZM15.8568 35.6788H1.32101V21.143H9.24963V27.0892C9.24963 27.4543 9.5453 27.7499 9.91035 27.7499H15.8566L15.8568 35.6788ZM35.6784 26.4287H10.5711V1.32144H35.6784V26.4287Z" fill="black"/>
<path d="M12.9643 24.395C13.0452 24.4281 13.1311 24.4462 13.217 24.4462H18.8233C19.1883 24.4462 19.484 24.1506 19.484 23.7855C19.484 23.4205 19.1883 23.1248 18.8233 23.1248H14.811L21.159 16.7768C21.4167 16.5192 21.4167 16.1012 21.159 15.8419C20.9013 15.5843 20.4834 15.5843 20.2241 15.8419L13.8761 22.1899V18.1777C13.8629 17.3121 12.5696 17.3072 12.5547 18.1777V23.784C12.553 24.0449 12.7199 24.296 12.9627 24.3935L12.9643 24.395Z" fill="black"/>
<path d="M25.5638 12.0993C25.7322 12.0993 25.9024 12.0349 26.0312 11.9061L32.3792 5.5581V9.57031C32.3792 9.93536 32.6749 10.231 33.0399 10.231C33.405 10.231 33.7006 9.93536 33.7006 9.57031V3.96404C33.7072 3.61056 33.3934 3.29673 33.0399 3.30332H27.4336C27.0686 3.30332 26.7729 3.599 26.7729 3.96404C26.7729 4.32909 27.0686 4.62476 27.4336 4.62476H31.4459L25.0979 10.9727C24.6783 11.3642 24.9988 12.1207 25.5654 12.1009L25.5638 12.0993Z" fill="black"/>
</svg>
