<svg width="35" height="34" viewBox="0 0 35 34" fill="none" xmlns="http://www.w3.org/2000/svg">
<path d="M33.439 22.0881C32.7699 21.3747 31.7409 21.1475 30.8256 21.501C29.7713 21.905 28.572 22.6057 27.2715 23.5842C26.7097 24.0071 25.9964 24.3164 25.2136 24.5437C25.3588 23.7925 25.1946 22.7951 24.475 22.2459C24.1972 22.0376 23.869 21.9176 23.4776 21.8797C21.527 21.7093 18.7115 20.9139 15.5424 19.6451C11.3823 17.9848 6.62264 21.8924 6.42063 22.0628C6.38276 22.0944 6.35751 22.1386 6.33226 22.1765L5.98506 21.5767C5.90299 21.4315 5.76411 21.3242 5.59998 21.28C5.44217 21.2359 5.26542 21.2611 5.12022 21.3432L0.316124 24.1207C0.013116 24.2975 -0.0878867 24.6826 0.0825576 24.9856L5.10765 33.6843C5.18971 33.8295 5.32859 33.9368 5.49272 33.981C5.54322 33.9937 5.60003 34 5.65685 34C5.76416 34 5.8778 33.9684 5.97248 33.9179L10.7766 31.1403C11.0796 30.9636 11.1806 30.5785 11.0101 30.2755L10.6188 29.5937C12.1654 28.9751 14.0403 29.2844 16.3444 29.6695C17.9731 29.9409 19.7533 30.244 21.704 30.244C22.4047 30.244 23.1244 30.2061 23.8693 30.1114C28.0039 29.6001 31.2865 27.3212 33.3195 25.4903C33.8119 25.0358 34.096 24.3982 34.096 23.7291C34.096 23.1104 33.8624 22.5296 33.4395 22.0878L33.439 22.0881ZM5.89033 32.5039L1.49671 24.8971L5.20856 22.7508L9.17922 29.6255V29.6444L9.19185 29.6571L9.59586 30.3578L5.88401 32.5041L5.89033 32.5039ZM32.473 24.5562C30.9265 25.9513 27.7324 28.3564 23.7173 28.8552C21.0912 29.1835 18.6797 28.7795 16.5586 28.4197C14.0778 28.0031 11.9 27.6432 9.987 28.4828L6.91272 23.1547C7.03266 23.1421 7.14629 23.1042 7.24098 23.0221C7.28517 22.9843 11.6281 19.4302 15.0812 20.8127C18.3575 22.1257 21.3054 22.9464 23.376 23.1295C23.4328 23.1295 23.5906 23.1484 23.7169 23.2431C23.9567 23.4261 24.0704 23.9059 23.9757 24.3289C23.9757 24.3352 23.9757 24.3478 23.9694 24.3541C23.9062 24.5877 23.7232 24.7897 23.477 24.9033C20.6741 25.3136 17.7448 24.998 17.7008 24.998C17.3473 24.9665 17.0443 25.2126 17.0064 25.5535C16.9685 25.9007 17.2147 26.21 17.5619 26.2479C17.7197 26.2669 19.7587 26.4815 22.126 26.3111H22.1323C24.2029 26.1596 26.5134 25.7177 28.0285 24.5814C29.5309 23.4514 30.623 22.9149 31.2795 22.6687C31.7151 22.4982 32.2011 22.6055 32.5231 22.9464C32.7251 23.1547 32.8324 23.4325 32.8324 23.7229C32.8324 24.0385 32.6998 24.3352 32.4726 24.5499L32.473 24.5562Z" fill="black"/>
<path d="M17.0507 8.32021C19.3422 8.32021 21.2108 6.45796 21.2108 4.1601C21.2108 1.86225 19.3486 0 17.0507 0C14.7529 0 12.8906 1.86225 12.8906 4.1601C12.8906 6.45796 14.7529 8.32021 17.0507 8.32021ZM17.0507 1.269C18.6478 1.269 19.9483 2.56943 19.9483 4.16653C19.9483 5.76362 18.6478 7.06405 17.0507 7.06405C15.4536 7.06405 14.1532 5.76362 14.1532 4.16653C14.1532 2.56943 15.4536 1.269 17.0507 1.269Z" fill="black"/>
<path d="M9.99845 18.3132C10.3457 18.3132 10.6297 18.0291 10.6297 17.6819C10.6297 14.1405 13.5083 11.2618 17.0499 11.2618C20.5914 11.2618 23.47 14.1404 23.47 17.6819C23.47 18.0291 23.7541 18.3132 24.1013 18.3132C24.4485 18.3132 24.7325 18.0291 24.7325 17.6819C24.7325 13.4463 21.2858 9.99927 17.0499 9.99927C12.8139 9.99927 9.36719 13.446 9.36719 17.6819C9.36719 18.0291 9.65126 18.3132 9.99845 18.3132Z" fill="black"/>
<path d="M7.64331 9.27319C9.61286 9.27319 11.2163 7.66975 11.2163 5.7002C11.2163 3.73064 9.61286 2.13354 7.64331 2.13354C5.67375 2.13354 4.07031 3.73698 4.07031 5.7002C4.07031 7.66341 5.67375 9.27319 7.64331 9.27319ZM7.64331 3.39604C8.91845 3.39604 9.95377 4.43132 9.95377 5.70016C9.95377 6.96899 8.91849 8.01062 7.64331 8.01062C6.36813 8.01062 5.33285 6.97534 5.33285 5.70016C5.33285 4.42497 6.36813 3.39604 7.64331 3.39604Z" fill="black"/>
<path d="M1.76559 17.5997C2.11279 17.5997 2.39686 17.3156 2.39686 16.9684C2.39686 14.0772 4.75147 11.7227 7.64254 11.7227C8.30536 11.7227 8.94927 11.8427 9.56159 12.0826C9.88985 12.2088 10.2497 12.051 10.3822 11.729C10.5085 11.4071 10.3507 11.041 10.0287 10.9084C9.27119 10.6117 8.46947 10.4602 7.64884 10.4602C4.05694 10.4602 1.14062 13.383 1.14062 16.9684C1.14062 17.3156 1.42469 17.5997 1.77189 17.5997L1.76559 17.5997Z" fill="black"/>
<path d="M26.4558 9.27319C28.4254 9.27319 30.0288 7.66975 30.0288 5.7002C30.0288 3.73064 28.4254 2.13354 26.4558 2.13354C24.4863 2.13354 22.8828 3.73698 22.8828 5.7002C22.8828 7.66341 24.4863 9.27319 26.4558 9.27319ZM26.4558 3.39604C27.7309 3.39604 28.7663 4.43132 28.7663 5.70016C28.7663 6.96899 27.731 8.01062 26.4558 8.01062C25.1806 8.01062 24.1453 6.97534 24.1453 5.70016C24.1453 4.42497 25.1806 3.39604 26.4558 3.39604Z" fill="black"/>
<path d="M24.0715 10.9084C23.7495 11.0347 23.5854 11.4008 23.718 11.7291C23.8505 12.0573 24.2104 12.2151 24.5386 12.0826C25.1509 11.8427 25.7948 11.7227 26.4577 11.7227C29.3488 11.7227 31.7033 14.0774 31.7033 16.9684C31.7033 17.3156 31.9874 17.5997 32.3346 17.5997C32.6818 17.5997 32.9659 17.3156 32.9659 16.9684C32.9659 13.3765 30.0431 10.4602 26.4577 10.4602C25.637 10.4602 24.8353 10.6117 24.0778 10.9084L24.0715 10.9084Z" fill="black"/>
</svg>
