<svg width="46" height="46" viewBox="0 0 46 46" fill="none" xmlns="http://www.w3.org/2000/svg">
<path d="M19.7275 0.000342591C19.3915 0.000342591 19.0994 0.233262 19.0269 0.561625L18.3319 3.6736C16.3234 4.16044 14.4028 4.95848 12.6389 6.03716L9.94501 4.32462C9.66054 4.14516 9.28822 4.18525 9.05152 4.4239L4.42359 9.05179C4.18494 9.28853 4.14485 9.66082 4.32431 9.94528L6.03686 12.6391C4.95818 14.4032 4.16014 16.3239 3.67329 18.3321L0.561287 19.0271C0.232902 19.0996 0 19.3917 0 19.7277V26.2726C0 26.6086 0.232921 26.9007 0.561287 26.9733L3.67329 27.6682C4.16013 29.6767 4.95818 31.5974 6.03686 33.3612L4.32431 36.0551C4.14484 36.3395 4.18494 36.7118 4.42359 36.9486L9.05152 41.5764C9.28826 41.8151 9.66055 41.8552 9.94501 41.6757L12.6389 39.9632C14.403 41.0419 16.3237 41.8399 18.3319 42.3267L19.0269 45.4387C19.0994 45.7671 19.3915 46 19.7275 46H26.2725C26.6085 46 26.9006 45.7671 26.9731 45.4387L27.6681 42.3267C29.6766 41.8399 31.5973 41.0419 33.3611 39.9632L36.0569 41.6757H36.055C36.3395 41.8552 36.7118 41.8151 36.9485 41.5764L41.5764 36.9486C41.8151 36.7118 41.8552 36.3395 41.6757 36.0551L39.9651 33.3612C41.0437 31.5971 41.8418 29.6765 42.3286 27.6682L45.4406 26.9733H45.4387C45.7671 26.9007 46 26.6086 46 26.2726V19.7277C46 19.3917 45.7671 19.0996 45.4368 19.0271L42.3305 18.3359C41.8456 16.3217 41.0494 14.3973 39.9689 12.6293L41.6738 9.94684L41.6757 9.94493C41.8552 9.66046 41.8151 9.28815 41.5764 9.05144L36.9485 4.42355C36.7117 4.18491 36.3395 4.14481 36.055 4.32427L33.3726 6.02919C31.6046 4.95051 29.6783 4.15248 27.6659 3.66754L26.9747 0.561279L26.9728 0.563188C26.9002 0.2329 26.6081 0 26.2721 0L19.7275 0.000342591ZM20.3041 1.43796H25.6956L26.3619 4.42393H26.36C26.4211 4.69695 26.6368 4.91078 26.9098 4.96997C29.0692 5.43772 31.1273 6.28921 32.987 7.48435C33.2219 7.63517 33.5235 7.63517 33.7602 7.48626L36.3396 5.84816L40.1522 9.66081L38.5141 12.2401C38.3633 12.4749 38.3652 12.7785 38.516 13.0133C39.7112 14.871 40.5627 16.9309 41.0304 19.0904C41.0896 19.3635 41.3034 19.5792 41.5765 19.6403L44.5625 20.3047V25.6961L41.5707 26.3643C41.2977 26.4254 41.0858 26.6393 41.0266 26.9123C40.5569 29.0678 39.7055 31.1201 38.5103 32.9738C38.3576 33.2105 38.3576 33.5122 38.5065 33.7489L40.1522 36.3397L36.3395 40.1523L33.7487 38.5066C33.512 38.3577 33.2103 38.3577 32.9736 38.5104C31.1198 39.7055 29.0655 40.557 26.9121 41.0267C26.6391 41.0859 26.4252 41.2978 26.3641 41.5708L25.6959 44.5625H20.3045L19.6362 41.5708C19.5751 41.2978 19.3613 41.0859 19.0883 41.0267C16.9328 40.557 14.8804 39.7036 13.0268 38.5104C12.79 38.3577 12.4883 38.3577 12.2516 38.5066L9.66084 40.1523L5.84816 36.3397L7.4939 33.7489C7.64282 33.5121 7.64281 33.2105 7.49008 32.9738C6.29492 31.1199 5.44342 29.0657 4.97377 26.9123C4.91459 26.6393 4.70076 26.4254 4.42773 26.3643L1.43601 25.6961V20.3047L4.42773 19.6365C4.70075 19.5754 4.91458 19.3616 4.97377 19.0885C5.44343 16.933 6.29683 14.8807 7.49008 13.027C7.64281 12.7903 7.64281 12.4886 7.4939 12.2519L5.84816 9.66115L9.66084 5.8485L12.2516 7.49423C12.4884 7.64314 12.79 7.64314 13.0268 7.49041C14.8806 6.29526 16.9349 5.44376 19.0883 4.97412C19.3613 4.91494 19.5751 4.70111 19.6362 4.42809L20.3041 1.43796ZM22.9999 9.83862C19.5099 9.83862 16.1612 11.2247 13.6925 13.6933C11.2238 16.1618 9.83788 19.5084 9.83788 23.0005C9.83788 26.4905 11.2239 29.8392 13.6925 32.3078C16.1611 34.7765 19.5078 36.1625 22.9999 36.1625C26.4899 36.1625 29.8386 34.7764 32.3073 32.3078C34.776 29.8393 36.1619 26.4927 36.1619 23.0005C36.1619 19.5106 34.7759 16.1619 32.3073 13.6933C29.8387 11.2246 26.4921 9.83862 22.9999 9.83862ZM22.9999 11.2762C26.11 11.2762 29.0903 12.5115 31.2897 14.7108C33.4891 16.9102 34.7243 19.8906 34.7243 23.0005C34.7243 26.1105 33.4891 29.0909 31.2897 31.2903C29.0903 33.4896 26.1099 34.7249 22.9999 34.7249C19.89 34.7249 16.9095 33.4896 14.7101 31.2903C12.5107 29.0909 11.2755 26.1105 11.2755 23.0005C11.2755 19.8906 12.5107 16.9102 14.7101 14.7108C16.9095 12.5115 19.89 11.2762 22.9999 11.2762ZM28.5253 18.823C28.3344 18.823 28.1511 18.8975 28.0174 19.0331L21.6084 25.4421L17.9847 21.8184H17.9828C17.7021 21.5377 17.2477 21.5377 16.9671 21.8184C16.8315 21.9539 16.7571 22.1372 16.7571 22.3282C16.7571 22.5172 16.8315 22.7005 16.9671 22.836L21.0986 26.9675C21.3792 27.2481 21.8336 27.2481 22.1143 26.9675L29.0331 20.0487C29.1686 19.9151 29.2431 19.7318 29.2431 19.5409C29.2431 19.3499 29.1687 19.1686 29.0331 19.033C28.8975 18.8975 28.7162 18.823 28.5253 18.823Z" fill="black"/>
</svg>
