<svg width="46" height="48" viewBox="0 0 46 48" fill="none" xmlns="http://www.w3.org/2000/svg">
<path d="M6.10971 23.1762C5.94319 23.1762 5.78349 23.109 5.66574 22.9895C5.548 22.8699 5.48185 22.7078 5.48185 22.5388C5.48185 22.3697 5.548 22.2076 5.66574 22.0881C5.78349 21.9685 5.94319 21.9014 6.10971 21.9014H22.52C22.6865 21.9014 22.8462 21.9685 22.964 22.0881C23.0817 22.2076 23.1479 22.3697 23.1479 22.5388C23.1479 22.7078 23.0817 22.8699 22.964 22.9895C22.8462 23.109 22.6865 23.1762 22.52 23.1762H6.10971ZM13.0878 12.0964C12.972 11.9774 12.9069 11.8169 12.9067 11.6497C12.9065 11.4824 12.9711 11.3217 13.0867 11.2024C13.2022 11.0831 13.3593 11.0147 13.5241 11.0121C13.6889 11.0094 13.848 11.0727 13.9672 11.1882L14.6904 11.9073L16.9534 9.46301C17.0095 9.40016 17.0774 9.3493 17.1531 9.3134C17.2288 9.27749 17.3107 9.25727 17.3942 9.25392C17.4777 9.25056 17.561 9.26414 17.6392 9.29385C17.7175 9.32356 17.7891 9.36882 17.8499 9.42697C17.9108 9.48512 17.9595 9.55499 17.9934 9.63251C18.0273 9.71003 18.0457 9.79363 18.0473 9.87842C18.049 9.96321 18.0341 10.0475 18.0033 10.1263C17.9725 10.2052 17.9266 10.277 17.8681 10.3376L15.1624 13.2547C15.1052 13.3161 15.0365 13.3653 14.9603 13.3995C14.8842 13.4336 14.8021 13.4521 14.7188 13.4538C14.6356 13.4555 14.5529 13.4404 14.4754 13.4093C14.398 13.3783 14.3274 13.3319 14.2677 13.2729L13.0878 12.0964ZM14.5556 18.8363C9.49061 15.5334 9.47008 15.3635 8.63433 8.34104C8.59117 7.9553 8.54012 7.54445 8.46644 6.92629C8.44719 6.76146 8.49166 6.59547 8.59051 6.46324C8.68935 6.33101 8.83486 6.24286 8.99642 6.21732L14.7672 4.89072C14.8612 4.86987 14.9585 4.86987 15.0525 4.89072L20.8559 6.2264C21.0071 6.26211 21.14 6.3531 21.2293 6.48201C21.3186 6.61091 21.3581 6.76869 21.34 6.92523H21.3427C21.2664 7.54338 21.2179 7.95423 21.1722 8.33997C20.3364 15.3667 20.3185 15.5323 15.2435 18.8405C15.1409 18.9082 15.0211 18.9437 14.8988 18.9427C14.7765 18.9418 14.6572 18.9044 14.5556 18.8352V18.8363ZM9.88532 8.19091C10.6311 14.4707 10.6674 14.7758 14.9046 17.5481C19.1412 14.7758 19.177 14.4707 19.9238 8.19091L20.0254 7.34249L14.9046 6.16709L9.78375 7.34249L9.88532 8.19091ZM12.9736 42.7139H14.7314V41.9483H4.02823V44.3664H12.3436V43.3513C12.3433 43.2672 12.3595 43.1838 12.3912 43.106C12.4229 43.0283 12.4694 42.9576 12.5281 42.8983C12.5869 42.8389 12.6566 42.7919 12.7334 42.7601C12.8101 42.7283 12.8923 42.7122 12.9752 42.7129L12.9736 42.7139ZM28.545 42.7139H30.3033C30.3861 42.7135 30.4682 42.7297 30.5449 42.7616C30.6215 42.7935 30.6912 42.8405 30.7499 42.8998C30.8086 42.9591 30.8551 43.0297 30.8869 43.1073C30.9186 43.185 30.9349 43.2683 30.9349 43.3524V44.3675H32.7437V32.4458L31.9106 31.6775C31.7097 31.8049 31.4754 31.8672 31.2388 31.8561C31.0021 31.845 30.7744 31.7611 30.5859 31.6155L29.8881 31.07L29.6712 31.3542L30.0991 31.6882C30.2309 31.7918 30.3167 31.9442 30.3377 32.112C30.3587 32.2799 30.3132 32.4493 30.2112 32.5831L28.4944 34.8484C28.3923 34.9818 28.2424 35.0689 28.0773 35.0907C27.9122 35.1125 27.7453 35.0673 27.6129 34.9649L20.0433 29.0499C19.9122 28.9458 19.8269 28.7935 19.8059 28.6259C19.785 28.4583 19.83 28.2891 19.9312 28.155L21.6511 25.8892C21.7012 25.8228 21.7637 25.7672 21.835 25.7254C21.9063 25.6836 21.9851 25.6566 22.0667 25.6457C22.1484 25.6349 22.2313 25.6406 22.3108 25.6624C22.3903 25.6841 22.4648 25.7216 22.53 25.7727L22.9552 26.1066L27.3908 20.2564L26.9629 19.9224C26.8318 19.819 26.7464 19.667 26.7254 19.4998C26.7044 19.3326 26.7495 19.1638 26.8508 19.0302L28.5708 16.7622C28.6208 16.6958 28.6834 16.6401 28.7548 16.5984C28.8262 16.5566 28.9051 16.5297 28.9868 16.5191C29.0686 16.5085 29.1516 16.5145 29.231 16.5367C29.3104 16.5589 29.3848 16.5969 29.4497 16.6484L32.7411 19.2193V5.43087H28.3729L31.038 8.39447C31.0983 8.45403 31.1462 8.52521 31.179 8.60384C31.2118 8.68246 31.2289 8.76695 31.2291 8.85234V15.0937C31.2362 15.182 31.2252 15.2709 31.1968 15.3546C31.1684 15.4384 31.1232 15.5153 31.064 15.5805C31.0049 15.6456 30.9331 15.6976 30.8532 15.7332C30.7732 15.7688 30.6869 15.7871 30.5996 15.7871C30.5123 15.7871 30.426 15.7688 30.3461 15.7332C30.2661 15.6976 30.1943 15.6456 30.1352 15.5805C30.076 15.5153 30.0308 15.4384 30.0024 15.3546C29.974 15.2709 29.963 15.182 29.9702 15.0937V9.48919H23.2231C23.0556 9.48919 22.895 9.42165 22.7765 9.30141C22.6581 9.18118 22.5916 9.0181 22.5916 8.84807V1.28011H1.25626V40.6693H14.7293V39.3464C14.7287 39.2621 14.7447 39.1784 14.7762 39.1004C14.8078 39.0224 14.8543 38.9514 14.913 38.8918C14.9718 38.8321 15.0416 38.785 15.1185 38.7529C15.1954 38.7209 15.2778 38.7047 15.3609 38.7053H27.9161C28.0831 38.706 28.2431 38.7738 28.3609 38.894C28.4788 39.0142 28.545 39.1768 28.545 39.3464V40.6693H29.9717V35.1898C29.9847 35.0293 30.0566 34.8797 30.1732 34.7706C30.2898 34.6615 30.4426 34.601 30.6012 34.601C30.7598 34.601 30.9125 34.6615 31.0292 34.7706C31.1458 34.8797 31.2177 35.0293 31.2306 35.1898V41.3104C31.2306 41.4804 31.1641 41.6435 31.0457 41.7637C30.9272 41.884 30.7666 41.9515 30.5991 41.9515H28.545V42.7139ZM30.9322 45.6439V47.3589C30.9322 47.5289 30.8657 47.692 30.7473 47.8122C30.6288 47.9325 30.4682 48 30.3007 48H12.9736C12.8061 48 12.6455 47.9325 12.527 47.8122C12.4086 47.692 12.3421 47.5289 12.3421 47.3589V45.6439H3.3951C3.22852 45.6432 3.06895 45.5757 2.95116 45.4561C2.83336 45.3365 2.76688 45.1745 2.76619 45.0054V41.9483H0.626813C0.460683 41.947 0.301734 41.8794 0.184407 41.76C0.0670802 41.6406 0.000826014 41.479 0 41.3104V0.641126C-1.45e-06 0.47155 0.066175 0.308881 0.184045 0.188723C0.301915 0.0685655 0.461877 0.000706686 0.628918 1.22028e-07H23.2231C23.317 -5.8948e-05 23.4097 0.0213282 23.4943 0.0625767C23.579 0.103825 23.6534 0.163878 23.712 0.238285L27.2303 4.15396H33.3705C33.4534 4.15367 33.5354 4.17009 33.612 4.20225C33.6885 4.23442 33.758 4.28169 33.8164 4.34133C33.8748 4.40097 33.921 4.47179 33.9522 4.54968C33.9835 4.62758 33.9992 4.71099 33.9984 4.79508V20.2019L37.0172 22.5633C37.0826 22.6142 37.1375 22.6776 37.1787 22.75C37.2199 22.8224 37.2466 22.9023 37.2572 22.9853C37.2679 23.0682 37.2623 23.1524 37.2408 23.2331C37.2193 23.3138 37.1823 23.3894 37.1319 23.4556L35.4141 25.7236C35.3121 25.8567 35.1623 25.9434 34.9975 25.9647C34.8327 25.9861 34.6663 25.9403 34.5347 25.8374L34.1068 25.504L33.8905 25.7909L34.591 26.3369C34.7776 26.4844 34.9154 26.6862 34.9859 26.9154C35.0565 27.1445 35.0564 27.3901 34.9857 27.6192L44.3232 33.7366C46.1705 34.9467 46.5499 37.5977 45.1689 39.1327C44.5119 39.8185 43.6172 40.2171 42.6751 40.2437C41.733 40.2702 40.8179 39.9226 40.1244 39.2748L33.9984 33.6094V45.0054C33.9977 45.175 33.9309 45.3374 33.8125 45.457C33.6941 45.5767 33.5339 45.6439 33.3668 45.6439H30.9322ZM29.6739 43.9914H13.5999V46.7199H29.6739V43.9914ZM27.2866 39.9843H15.9898V42.7155H27.2866V39.9843ZM35.7599 23.1831L29.1823 18.045L28.2266 19.3016L34.8026 24.4408L35.7599 23.1831ZM28.8355 32.3085L22.2621 27.1698L21.3069 28.4291L27.8855 33.5683L28.8355 32.3085ZM33.7453 27.2863L33.1258 26.8001L30.6522 30.0592L31.2712 30.5454C32.0971 29.459 32.9221 28.3727 33.7453 27.2863ZM32.7311 30.711L40.9707 38.3324C41.2084 38.5594 41.4905 38.7332 41.7987 38.8424C42.1069 38.9516 42.4342 38.9938 42.7595 38.9663C43.0848 38.9387 43.4007 38.842 43.6868 38.6825C43.9728 38.5229 44.2227 38.304 44.42 38.0401C44.7056 37.564 44.8072 36.9973 44.7053 36.4496C44.6514 36.1163 44.5293 35.7981 44.3468 35.5157C44.1643 35.2333 43.9255 34.9928 43.6458 34.8099L34.2779 28.6722L32.7311 30.711ZM29.2765 29.7878L33.1132 24.7287L28.3845 21.0327L23.9489 26.8851L28.6776 30.5812L29.2765 29.7878ZM23.852 2.28882V8.21122H29.177C27.3989 6.23512 25.6239 4.26099 23.852 2.28882ZM6.10971 36.9096C5.95166 36.8965 5.80426 36.8235 5.6968 36.7051C5.58934 36.5867 5.52969 36.4316 5.52969 36.2706C5.52969 36.1096 5.58934 35.9545 5.6968 35.8362C5.80426 35.7178 5.95166 35.6448 6.10971 35.6316H22.7289C22.887 35.6448 23.0344 35.7178 23.1418 35.8362C23.2493 35.9545 23.309 36.1096 23.309 36.2706C23.309 36.4316 23.2493 36.5867 23.1418 36.7051C23.0344 36.8235 22.887 36.8965 22.7289 36.9096H6.10971ZM6.10971 30.0426C5.95166 30.0295 5.80426 29.9565 5.6968 29.8381C5.58934 29.7197 5.52969 29.5646 5.52969 29.4036C5.52969 29.2426 5.58934 29.0875 5.6968 28.9692C5.80426 28.8508 5.95166 28.7778 6.10971 28.7646H18.0997C18.2577 28.7778 18.4051 28.8508 18.5126 28.9692C18.62 29.0875 18.6797 29.2426 18.6797 29.4036C18.6797 29.5646 18.62 29.7197 18.5126 29.8381C18.4051 29.9565 18.2577 30.0295 18.0997 30.0426H6.10971Z" fill="black"/>
</svg>
