<svg width="45" height="45" viewBox="0 0 45 45" fill="none" xmlns="http://www.w3.org/2000/svg">
<path fill-rule="evenodd" clip-rule="evenodd" d="M7.4348 41.0903V41.2859C7.4348 42.4735 6.47023 43.438 5.28262 43.438H2.15218C0.962621 43.438 0 42.4735 0 41.2859V24.069C0 22.8795 0.964574 21.9169 2.15218 21.9169H5.28262C6.47218 21.9169 7.4348 22.8795 7.4348 24.069V24.2647H14.0868V19.3696C14.0868 19.0448 14.349 18.7827 14.6738 18.7827H19.3695C19.6942 18.7827 19.9564 19.0448 19.9564 19.3696V26.2994L25.0433 29.2361V13.8954C25.0433 13.5707 25.3054 13.3085 25.6302 13.3085H30.3259C30.6507 13.3085 30.9128 13.5706 30.9128 13.8954V33.6086L35.9997 30.6719V8.41342C35.9997 8.09061 36.2618 7.82647 36.5866 7.82647H41.2823C41.6071 7.82647 41.8693 8.08864 41.8693 8.41342V27.9157C42.9473 27.9822 43.9745 28.5692 44.5536 29.5748C44.9958 30.3378 45.1151 31.2456 44.8862 32.0986C44.6573 32.9516 44.0997 33.6775 43.3366 34.1177L27.0389 43.5262C23.9495 45.3105 20.189 45.4847 16.9488 43.9938L11.4493 41.4641C10.9113 41.2176 10.3243 41.0885 9.73147 41.0885H7.43453L7.4348 41.0903ZM40.6955 28.0565V9.0005H37.1738V29.9933L40.0108 28.3558C40.2319 28.2267 40.4607 28.1289 40.6955 28.0565ZM6.26077 41.2861V24.0692C6.26077 23.5292 5.8225 23.091 5.28252 23.091H2.15208C1.6121 23.091 1.17384 23.5292 1.17384 24.0692V41.2861C1.17384 41.8261 1.6121 42.2643 2.15208 42.2643H5.28252C5.8225 42.2643 6.26077 41.8261 6.26077 41.2861ZM29.739 34.2877V14.4824H26.2173V29.9132L27.5243 30.6684C28.9114 31.4705 29.5884 33.0318 29.3282 34.5246L29.7371 34.2878L29.739 34.2877ZM18.7825 25.6204V19.9562H15.2608V24.2683C16.104 24.3074 16.9258 24.548 17.6575 24.9706L18.7825 25.6204ZM15.0162 25.4384H7.43455V39.9161H9.73149C10.4945 39.9161 11.2478 40.0805 11.9384 40.3994L17.438 42.9291C20.3316 44.2594 23.6928 44.1049 26.4516 42.5124L42.7494 33.1038C43.2444 32.8182 43.6044 32.3486 43.7531 31.7969C43.9018 31.2451 43.8235 30.6582 43.5379 30.1652C42.9431 29.1361 41.6283 28.7839 40.5972 29.3787L28.3805 36.4317C27.909 36.9365 27.3044 37.3024 26.6275 37.4843C25.6747 37.7387 24.6612 37.6056 23.8062 37.1126L17.5102 33.4775C17.2305 33.3151 17.1326 32.9571 17.295 32.6753C17.4574 32.3955 17.8155 32.2977 18.0972 32.4601L24.3931 36.0952C24.9782 36.4317 25.6708 36.5237 26.3223 36.3495C26.9738 36.1735 27.5295 35.747 27.866 35.1639C28.5683 33.947 28.1516 32.3916 26.9347 31.6892L17.068 25.994C16.4439 25.634 15.7356 25.4423 15.0137 25.4423L15.0162 25.4384ZM38.3477 2.00392L29.1758 11.1756C28.9899 11.3614 28.7043 11.4006 28.4754 11.2734L21.8193 7.57568L15.8715 13.5233C15.6426 13.7522 15.2709 13.7522 15.042 13.5233C14.8131 13.2944 14.813 12.9227 15.042 12.6938L21.3028 6.43313C21.4887 6.24727 21.7743 6.20814 22.0032 6.33531L28.6593 10.033L37.5187 1.1739H34.5076C34.1828 1.1739 33.9206 0.911736 33.9206 0.586952C33.9206 0.262167 34.1828 0 34.5076 0H38.9352C39.0917 0 39.2404 0.0606485 39.3499 0.172169C39.4595 0.281731 39.5221 0.430419 39.5221 0.586937V5.01439C39.5221 5.33917 39.2599 5.60134 38.9352 5.60134C38.6104 5.60134 38.3482 5.33918 38.3482 5.01439L38.3477 2.00392Z" fill="black"/>
</svg>
