<svg width="49" height="45" viewBox="0 0 49 45" fill="none" xmlns="http://www.w3.org/2000/svg">
<mask id="path-1-inside-1_3921_111" fill="white">
<path d="M29.5291 26.9735C29.5291 27.3703 29.2073 27.6903 28.8084 27.6903H24.7048C24.3058 27.6903 23.9841 27.3682 23.9841 26.9735C23.9841 26.5789 24.3058 26.2567 24.7048 26.2567H28.8084C29.2073 26.2567 29.5291 26.5789 29.5291 26.9735ZM37.9271 22.5789C37.9271 22.1821 37.6053 21.8621 37.2063 21.8621H15.6867C15.2877 21.8621 14.9659 22.1842 14.9659 22.5789C14.9659 22.9736 15.2877 23.2957 15.6867 23.2957H37.2063C37.6053 23.2957 37.9271 22.9736 37.9271 22.5789ZM15.6892 18.901H37.2088C37.6078 18.901 37.9296 18.5789 37.9296 18.1843C37.9296 17.7896 37.6078 17.4675 37.2088 17.4675H15.6892C15.2902 17.4675 14.9684 17.7896 14.9684 18.1843C14.9684 18.5789 15.2902 18.901 15.6892 18.901ZM26.4918 35.0479H24.705C24.306 35.0479 23.9842 35.3679 23.9842 35.7647C23.9842 36.1615 24.306 36.4815 24.705 36.4815H26.4918C26.8908 36.4815 27.2126 36.1615 27.2126 35.7647C27.2126 35.3679 26.8908 35.0479 26.4918 35.0479ZM26.8072 30.6532H24.705C24.306 30.6532 23.9842 30.9754 23.9842 31.37C23.9842 31.7647 24.306 32.0868 24.705 32.0868H26.8072C27.2061 32.0868 27.5279 31.7647 27.5279 31.37C27.5279 30.9754 27.2061 30.6532 26.8072 30.6532ZM10.998 38.6V40.8784C10.998 41.4544 10.5282 41.9216 9.94902 41.9216H4.14682C3.56765 41.9216 3.09786 41.4544 3.09786 40.8784V38.6C3.09786 38.024 3.56763 37.5567 4.14682 37.5567H9.94902C10.5282 37.5567 10.998 38.0239 10.998 38.6ZM9.5565 38.9882H4.53704V40.4879H9.5565V38.9882ZM17.8128 15.9121C17.6755 15.7414 17.624 15.5174 17.6734 15.3062L18.5593 11.4471C18.8038 10.3826 19.4838 9.53349 20.4727 9.05989L21.3093 8.65882C20.8631 8.0423 20.5971 7.28711 20.5971 6.47005C20.5971 4.40284 22.2895 2.71968 24.3681 2.71968C26.4489 2.71968 28.1392 4.40284 28.1392 6.47005C28.1392 7.28498 27.8753 8.0423 27.427 8.65882L28.2636 9.05989C29.2525 9.53348 29.9325 10.3826 30.177 11.4471L31.0629 15.3062C31.1123 15.5196 31.0608 15.7414 30.9235 15.9121C30.7862 16.0828 30.5781 16.1809 30.3594 16.1809H18.3684C18.1496 16.1809 17.9415 16.0806 17.8042 15.9121H17.8128ZM22.0407 6.47009C22.0407 7.74792 23.0854 8.78688 24.3724 8.78688C25.6573 8.78688 26.7041 7.74798 26.7041 6.47009C26.7041 5.19226 25.6595 4.15331 24.3724 4.15331C23.0876 4.15331 22.0407 5.19221 22.0407 6.47009ZM19.2801 14.7472H29.4649L28.7806 11.7649C28.6326 11.1163 28.2508 10.6406 27.6459 10.3505L26.2881 9.69984C25.7261 10.0305 25.0718 10.2204 24.3725 10.2204C23.6732 10.2204 23.019 10.0305 22.4569 9.69984L21.0991 10.3505C20.4963 10.6385 20.1145 11.1163 19.9643 11.7649L19.2801 14.7472ZM49 34.2265C49 39.8391 44.4074 44.4069 38.7635 44.4069C35.2885 44.4069 32.2123 42.6746 30.3611 40.0358H22.5425V42.7643C22.5425 43.9973 21.5343 45 20.2944 45H2.24807C1.00822 45 0 43.9974 0 42.7643V26.8413C0 25.6083 1.00816 24.6056 2.24807 24.6056H11.0793L11.0815 3.10398C11.0815 1.39306 12.4822 0 14.2025 0H32.4356C33.5039 0 34.4305 0.381864 35.1856 1.13278L40.6748 6.59193C41.4299 7.34286 41.8139 8.26445 41.8139 9.32684V24.5076C45.9731 25.8004 49 29.6676 49 34.2265ZM34.4692 2.44676V7.30643H39.3557L34.4692 2.44676ZM8.74756 29.5358C8.74756 29.5614 8.76901 29.5828 8.79476 29.5828H13.752C13.7777 29.5828 13.7992 29.5614 13.7992 29.5358V26.0393H8.74969V29.5358H8.74756ZM21.1032 26.8414C21.1032 26.3999 20.7407 26.0393 20.2966 26.0393H15.2386V29.5358C15.2386 30.3507 14.5715 31.0163 13.7499 31.0163H8.79265C7.97322 31.0163 7.30399 30.3528 7.30399 29.5358V26.0393H2.24592C1.80189 26.0393 1.43935 26.3998 1.43935 26.8414V42.7644C1.43935 43.206 1.80187 43.5665 2.24592 43.5665H20.2923C20.7363 43.5665 21.0989 43.206 21.0989 42.7644V26.8414H21.1032ZM29.5226 38.6023C28.8855 37.2754 28.5273 35.7928 28.5273 34.2269C28.5273 28.6143 33.1199 24.0465 38.7638 24.0465C39.3108 24.0465 39.8492 24.0892 40.3726 24.1724V9.32644C40.3726 9.1195 40.3511 8.92324 40.3061 8.73766H33.7466C33.3476 8.73766 33.0259 8.41553 33.0259 8.02086V1.49736C32.8393 1.45469 32.6419 1.43123 32.4339 1.43123L14.203 1.43336C13.2763 1.43336 12.5234 2.18216 12.5234 3.10375V24.6054H20.297C21.5369 24.6054 22.5451 25.608 22.5451 26.8411V38.602H29.5252L29.5226 38.6023ZM47.5607 34.2269C47.5607 29.4035 43.6159 25.4801 38.7657 25.4801C33.9157 25.4801 29.9707 29.4033 29.9707 34.2269C29.9707 39.0503 33.9155 42.9737 38.7657 42.9737C43.6157 42.9737 47.5607 39.0505 47.5607 34.2269ZM46.3552 34.2269C46.3552 38.389 42.951 41.7744 38.7661 41.7744C34.581 41.7744 31.177 38.3888 31.177 34.2269C31.177 30.065 34.5812 26.6794 38.7661 26.6794C42.9511 26.6794 46.3552 30.065 46.3552 34.2269ZM44.9137 34.2269C44.9137 30.8541 42.1551 28.113 38.7661 28.113C35.3747 28.113 32.6185 30.8564 32.6185 34.2269C32.6185 37.5997 35.377 40.3408 38.7661 40.3408C42.1575 40.3408 44.9137 37.5974 44.9137 34.2269ZM40.615 34.2653C41.1191 34.7624 41.3979 35.4237 41.3979 36.1277C41.3979 37.3224 40.5871 38.3336 39.4867 38.645V39.044C39.4867 39.4408 39.1649 39.7608 38.7659 39.7608C38.3669 39.7608 38.0452 39.4408 38.0452 39.044V38.645C37.614 38.5234 37.2172 38.2909 36.8911 37.9624C36.3934 37.4632 36.1253 36.8082 36.1317 36.1192C36.136 35.7224 36.4642 35.4088 36.8611 35.4109C37.26 35.4152 37.5775 35.7395 37.5732 36.1362C37.5689 36.4392 37.6912 36.7293 37.9143 36.9554C37.9551 36.996 37.998 37.0322 38.043 37.0664V34.8456C37.6204 34.7282 37.2343 34.5042 36.9126 34.1885C36.4085 33.6915 36.1296 33.0301 36.1296 32.3261C36.1296 31.1315 36.9404 30.1203 38.0409 29.8088V29.4099C38.0409 29.0131 38.3626 28.6931 38.7616 28.6931C39.1606 28.6931 39.4824 29.0152 39.4824 29.4099V29.8088C39.9135 29.9304 40.3104 30.1629 40.6364 30.4915C41.1341 30.9907 41.4022 31.6456 41.3958 32.3346C41.3915 32.7272 41.0697 33.0429 40.675 33.0429H40.6665C40.2675 33.0387 39.95 32.7144 39.9543 32.3176C39.9586 32.0147 39.8363 31.7246 39.6132 31.4984C39.5725 31.4579 39.5296 31.4216 39.4845 31.3875V33.6083C39.9071 33.7256 40.2932 33.9496 40.615 34.2653ZM38.043 33.2712V31.3854C37.7577 31.603 37.5711 31.9421 37.5711 32.3262C37.5711 32.6462 37.6977 32.947 37.9272 33.1731C37.9637 33.2094 38.0023 33.2413 38.043 33.2712ZM39.9565 36.1298C39.9565 35.8098 39.8299 35.5091 39.6004 35.2829C39.5639 35.2466 39.5253 35.2146 39.4845 35.1826V37.0685C39.7698 36.8509 39.9565 36.5117 39.9565 36.1277V36.1298Z"/>
</mask>
<path d="M29.5291 26.9735C29.5291 27.3703 29.2073 27.6903 28.8084 27.6903H24.7048C24.3058 27.6903 23.9841 27.3682 23.9841 26.9735C23.9841 26.5789 24.3058 26.2567 24.7048 26.2567H28.8084C29.2073 26.2567 29.5291 26.5789 29.5291 26.9735ZM37.9271 22.5789C37.9271 22.1821 37.6053 21.8621 37.2063 21.8621H15.6867C15.2877 21.8621 14.9659 22.1842 14.9659 22.5789C14.9659 22.9736 15.2877 23.2957 15.6867 23.2957H37.2063C37.6053 23.2957 37.9271 22.9736 37.9271 22.5789ZM15.6892 18.901H37.2088C37.6078 18.901 37.9296 18.5789 37.9296 18.1843C37.9296 17.7896 37.6078 17.4675 37.2088 17.4675H15.6892C15.2902 17.4675 14.9684 17.7896 14.9684 18.1843C14.9684 18.5789 15.2902 18.901 15.6892 18.901ZM26.4918 35.0479H24.705C24.306 35.0479 23.9842 35.3679 23.9842 35.7647C23.9842 36.1615 24.306 36.4815 24.705 36.4815H26.4918C26.8908 36.4815 27.2126 36.1615 27.2126 35.7647C27.2126 35.3679 26.8908 35.0479 26.4918 35.0479ZM26.8072 30.6532H24.705C24.306 30.6532 23.9842 30.9754 23.9842 31.37C23.9842 31.7647 24.306 32.0868 24.705 32.0868H26.8072C27.2061 32.0868 27.5279 31.7647 27.5279 31.37C27.5279 30.9754 27.2061 30.6532 26.8072 30.6532ZM10.998 38.6V40.8784C10.998 41.4544 10.5282 41.9216 9.94902 41.9216H4.14682C3.56765 41.9216 3.09786 41.4544 3.09786 40.8784V38.6C3.09786 38.024 3.56763 37.5567 4.14682 37.5567H9.94902C10.5282 37.5567 10.998 38.0239 10.998 38.6ZM9.5565 38.9882H4.53704V40.4879H9.5565V38.9882ZM17.8128 15.9121C17.6755 15.7414 17.624 15.5174 17.6734 15.3062L18.5593 11.4471C18.8038 10.3826 19.4838 9.53349 20.4727 9.05989L21.3093 8.65882C20.8631 8.0423 20.5971 7.28711 20.5971 6.47005C20.5971 4.40284 22.2895 2.71968 24.3681 2.71968C26.4489 2.71968 28.1392 4.40284 28.1392 6.47005C28.1392 7.28498 27.8753 8.0423 27.427 8.65882L28.2636 9.05989C29.2525 9.53348 29.9325 10.3826 30.177 11.4471L31.0629 15.3062C31.1123 15.5196 31.0608 15.7414 30.9235 15.9121C30.7862 16.0828 30.5781 16.1809 30.3594 16.1809H18.3684C18.1496 16.1809 17.9415 16.0806 17.8042 15.9121H17.8128ZM22.0407 6.47009C22.0407 7.74792 23.0854 8.78688 24.3724 8.78688C25.6573 8.78688 26.7041 7.74798 26.7041 6.47009C26.7041 5.19226 25.6595 4.15331 24.3724 4.15331C23.0876 4.15331 22.0407 5.19221 22.0407 6.47009ZM19.2801 14.7472H29.4649L28.7806 11.7649C28.6326 11.1163 28.2508 10.6406 27.6459 10.3505L26.2881 9.69984C25.7261 10.0305 25.0718 10.2204 24.3725 10.2204C23.6732 10.2204 23.019 10.0305 22.4569 9.69984L21.0991 10.3505C20.4963 10.6385 20.1145 11.1163 19.9643 11.7649L19.2801 14.7472ZM49 34.2265C49 39.8391 44.4074 44.4069 38.7635 44.4069C35.2885 44.4069 32.2123 42.6746 30.3611 40.0358H22.5425V42.7643C22.5425 43.9973 21.5343 45 20.2944 45H2.24807C1.00822 45 0 43.9974 0 42.7643V26.8413C0 25.6083 1.00816 24.6056 2.24807 24.6056H11.0793L11.0815 3.10398C11.0815 1.39306 12.4822 0 14.2025 0H32.4356C33.5039 0 34.4305 0.381864 35.1856 1.13278L40.6748 6.59193C41.4299 7.34286 41.8139 8.26445 41.8139 9.32684V24.5076C45.9731 25.8004 49 29.6676 49 34.2265ZM34.4692 2.44676V7.30643H39.3557L34.4692 2.44676ZM8.74756 29.5358C8.74756 29.5614 8.76901 29.5828 8.79476 29.5828H13.752C13.7777 29.5828 13.7992 29.5614 13.7992 29.5358V26.0393H8.74969V29.5358H8.74756ZM21.1032 26.8414C21.1032 26.3999 20.7407 26.0393 20.2966 26.0393H15.2386V29.5358C15.2386 30.3507 14.5715 31.0163 13.7499 31.0163H8.79265C7.97322 31.0163 7.30399 30.3528 7.30399 29.5358V26.0393H2.24592C1.80189 26.0393 1.43935 26.3998 1.43935 26.8414V42.7644C1.43935 43.206 1.80187 43.5665 2.24592 43.5665H20.2923C20.7363 43.5665 21.0989 43.206 21.0989 42.7644V26.8414H21.1032ZM29.5226 38.6023C28.8855 37.2754 28.5273 35.7928 28.5273 34.2269C28.5273 28.6143 33.1199 24.0465 38.7638 24.0465C39.3108 24.0465 39.8492 24.0892 40.3726 24.1724V9.32644C40.3726 9.1195 40.3511 8.92324 40.3061 8.73766H33.7466C33.3476 8.73766 33.0259 8.41553 33.0259 8.02086V1.49736C32.8393 1.45469 32.6419 1.43123 32.4339 1.43123L14.203 1.43336C13.2763 1.43336 12.5234 2.18216 12.5234 3.10375V24.6054H20.297C21.5369 24.6054 22.5451 25.608 22.5451 26.8411V38.602H29.5252L29.5226 38.6023ZM47.5607 34.2269C47.5607 29.4035 43.6159 25.4801 38.7657 25.4801C33.9157 25.4801 29.9707 29.4033 29.9707 34.2269C29.9707 39.0503 33.9155 42.9737 38.7657 42.9737C43.6157 42.9737 47.5607 39.0505 47.5607 34.2269ZM46.3552 34.2269C46.3552 38.389 42.951 41.7744 38.7661 41.7744C34.581 41.7744 31.177 38.3888 31.177 34.2269C31.177 30.065 34.5812 26.6794 38.7661 26.6794C42.9511 26.6794 46.3552 30.065 46.3552 34.2269ZM44.9137 34.2269C44.9137 30.8541 42.1551 28.113 38.7661 28.113C35.3747 28.113 32.6185 30.8564 32.6185 34.2269C32.6185 37.5997 35.377 40.3408 38.7661 40.3408C42.1575 40.3408 44.9137 37.5974 44.9137 34.2269ZM40.615 34.2653C41.1191 34.7624 41.3979 35.4237 41.3979 36.1277C41.3979 37.3224 40.5871 38.3336 39.4867 38.645V39.044C39.4867 39.4408 39.1649 39.7608 38.7659 39.7608C38.3669 39.7608 38.0452 39.4408 38.0452 39.044V38.645C37.614 38.5234 37.2172 38.2909 36.8911 37.9624C36.3934 37.4632 36.1253 36.8082 36.1317 36.1192C36.136 35.7224 36.4642 35.4088 36.8611 35.4109C37.26 35.4152 37.5775 35.7395 37.5732 36.1362C37.5689 36.4392 37.6912 36.7293 37.9143 36.9554C37.9551 36.996 37.998 37.0322 38.043 37.0664V34.8456C37.6204 34.7282 37.2343 34.5042 36.9126 34.1885C36.4085 33.6915 36.1296 33.0301 36.1296 32.3261C36.1296 31.1315 36.9404 30.1203 38.0409 29.8088V29.4099C38.0409 29.0131 38.3626 28.6931 38.7616 28.6931C39.1606 28.6931 39.4824 29.0152 39.4824 29.4099V29.8088C39.9135 29.9304 40.3104 30.1629 40.6364 30.4915C41.1341 30.9907 41.4022 31.6456 41.3958 32.3346C41.3915 32.7272 41.0697 33.0429 40.675 33.0429H40.6665C40.2675 33.0387 39.95 32.7144 39.9543 32.3176C39.9586 32.0147 39.8363 31.7246 39.6132 31.4984C39.5725 31.4579 39.5296 31.4216 39.4845 31.3875V33.6083C39.9071 33.7256 40.2932 33.9496 40.615 34.2653ZM38.043 33.2712V31.3854C37.7577 31.603 37.5711 31.9421 37.5711 32.3262C37.5711 32.6462 37.6977 32.947 37.9272 33.1731C37.9637 33.2094 38.0023 33.2413 38.043 33.2712ZM39.9565 36.1298C39.9565 35.8098 39.8299 35.5091 39.6004 35.2829C39.5639 35.2466 39.5253 35.2146 39.4845 35.1826V37.0685C39.7698 36.8509 39.9565 36.5117 39.9565 36.1277V36.1298Z" fill="black" stroke="#F5FBFD" stroke-width="0.6" mask="url(#path-1-inside-1_3921_111)"/>
</svg>
