<svg width="56" height="46" viewBox="0 0 56 46" fill="none" xmlns="http://www.w3.org/2000/svg">
<path d="M9.80024 34.8586C9.17134 34.5794 8.40026 34.5794 7.77139 34.8586C6.44253 35.4198 5.74254 36.961 6.30029 38.3626C6.57919 38.9922 7.0714 39.5534 7.77139 39.8354C8.12138 39.975 8.47138 40.0462 8.82137 40.0462C9.17137 40.0462 9.52136 39.975 9.87136 39.8354C10.5003 39.5562 11.0608 39.0634 11.3425 38.3626C11.6214 37.733 11.6214 36.961 11.3425 36.3314C10.9897 35.6306 10.4291 35.1406 9.80024 34.8586ZM10.2186 37.9437C10.0791 38.2941 9.79751 38.6445 9.37917 38.7841C8.95808 38.9237 8.53974 38.9237 8.18974 38.7841C7.83975 38.6445 7.48975 38.3626 7.35031 37.9437C7.21086 37.5222 7.21086 37.1033 7.35031 36.7529C7.48977 36.4026 7.83976 36.0522 8.18974 35.9126C8.40029 35.8414 8.61083 35.7729 8.75028 35.7729C8.96082 35.7729 9.17137 35.8441 9.31082 35.9126C9.66081 36.0522 10.0108 36.4026 10.1502 36.7529C10.3581 37.1006 10.358 37.5222 10.2186 37.9437ZM55.4394 35.2802H51.9394V14.6755C51.9394 14.3962 51.6605 14.1143 51.3789 14.1143H44.5895C44.3106 14.1143 44.029 14.3935 44.029 14.6755V35.2802H41.7185V18.2502C41.7185 17.971 41.4396 17.689 41.1579 17.689H34.3686C34.0897 17.689 33.808 17.9682 33.808 18.2502V35.2802H31.5002V21.7542C31.5002 21.4749 31.2213 21.193 30.9397 21.193H24.1504C23.8715 21.193 23.5898 21.4722 23.5898 21.7542V35.2802H21.3504V25.2581C21.3504 24.9789 21.0715 24.697 20.7899 24.697H14.0005C13.7216 24.697 13.44 24.9762 13.44 25.2581V30.0241C13.3689 29.6025 13.1611 29.2521 12.74 29.1125L11.69 28.6225C11.4111 28.4829 11.0611 28.5513 10.7795 28.6225V4.79554C10.7795 4.51632 10.5006 4.23436 10.2189 4.23436H7.27953C7.00063 4.23436 6.71899 4.51358 6.71899 4.79554V28.6225C6.44009 28.4829 6.09009 28.4829 5.80845 28.6225L4.68734 29.1125C4.1268 29.3233 3.84791 30.0241 3.98735 30.7249L4.54789 32.9668C4.4768 33.038 4.40844 33.1065 4.40844 33.1065L2.16903 32.5453C1.46904 32.3345 0.769049 32.6165 0.558492 33.2461L0.0690446 34.3685C-0.141498 34.9296 0.140136 35.6304 0.769035 35.9808L2.72957 37.1716V37.4509L0.769035 38.6416C0.140136 38.992 -0.141512 39.6928 0.0690446 40.254L0.558492 41.3764C0.769035 41.8664 1.18739 42.0772 1.74792 42.0772C1.88737 42.0772 2.02682 42.0772 2.169 42.006L4.40841 41.4449L4.54786 41.5845L3.98732 43.8264C3.77678 44.5272 4.05842 45.228 4.68731 45.4388L5.80842 45.9288C5.94787 46 6.08732 46 6.2295 46C6.65059 46 7.14005 45.7208 7.41893 45.228L8.60835 43.2652H8.7478H8.88726L10.0767 45.228C10.3556 45.718 10.8478 46 11.2661 46C11.4056 46 11.545 46 11.6872 45.9288L12.8083 45.4388C13.3688 45.228 13.6477 44.5272 13.5083 43.8264L12.9477 41.5845C13.0188 41.5133 13.0872 41.4449 13.0872 41.4449L15.3266 42.006C15.4661 42.0772 15.6055 42.0772 15.7477 42.0772C16.3082 42.0772 16.7266 41.798 16.9371 41.3764L17.4266 40.254C17.566 39.9748 17.566 39.6244 17.4266 39.3424H55.4367C55.7211 39.3452 56 39.0632 56 38.784V35.8412C56 35.5593 55.721 35.2802 55.4394 35.2802ZM45.1502 15.2361H50.8212V35.2802H45.1502V15.2361ZM35.0004 18.8113H40.6714V35.2799H35.0004V18.8113ZM24.8505 22.3152H30.5215V35.2799H24.8505V22.3152ZM20.3006 25.8192V35.2799H17.4295C17.5689 35.0007 17.5689 34.6503 17.4295 34.3683L16.94 33.2459C16.7295 32.6847 16.0295 32.4055 15.3295 32.5451L14.6295 32.7559V25.8192L20.3006 25.8192ZM13.5112 30.7247V30.5851V33.0379L13.1612 33.1091C13.0901 33.0379 13.0218 32.9695 13.0218 32.8983L13.5112 30.7247ZM9.72965 5.35395V29.8845L8.89022 31.2149H8.67968L7.90857 29.8845V5.35395H9.72965ZM15.9612 40.9577C15.9612 40.9577 15.8217 41.0289 15.6112 40.9577L13.0901 40.3281H13.019H12.8085C12.7374 40.3281 12.669 40.3993 12.669 40.3993C12.669 40.3993 12.5979 40.3993 12.5979 40.4704C12.4585 40.6812 12.2479 40.8208 12.0374 41.0316C12.0374 41.0316 12.0374 41.1028 11.9663 41.1028C11.8952 41.2424 11.8952 41.3136 11.8952 41.382C11.8952 41.4532 11.8241 41.5216 11.8952 41.5928V41.664L12.5241 44.1879C12.5952 44.3987 12.5241 44.5383 12.5241 44.5383L11.403 45.0283C11.403 45.0283 11.2635 44.9572 11.1241 44.8176L9.79523 42.5756C9.79523 42.5756 9.72414 42.5756 9.72414 42.5044C9.65304 42.4332 9.58468 42.4332 9.51359 42.3648C9.4425 42.3648 9.37414 42.2936 9.30305 42.2936H9.23196H8.46085H8.38976C8.31867 42.2936 8.25031 42.2936 8.17922 42.3648C8.10812 42.3648 8.03976 42.436 8.03976 42.5044C8.03976 42.5044 7.96867 42.5044 7.96867 42.5756L6.63981 44.8176C6.56872 44.9572 6.42927 45.0283 6.42927 45.0283L5.30816 44.5383C5.30816 44.5383 5.23707 44.3987 5.30816 44.1879L5.93706 41.664V41.5928V41.382C5.93706 41.3108 5.86597 41.2424 5.86597 41.1712C5.86597 41.1712 5.86597 41.1 5.79488 41.1C5.58434 40.9604 5.44489 40.7496 5.23434 40.5389C5.23434 40.5389 5.16325 40.5389 5.16325 40.4677C5.09216 40.3965 5.0238 40.3965 4.95271 40.3965C4.88162 40.3965 4.81326 40.3253 4.74217 40.3965H4.67107L2.14999 41.0261C1.93945 41.0973 1.79999 41.0261 1.79999 41.0261L1.1 39.8354C1.1 39.8354 1.1711 39.6957 1.31055 39.5561L3.54996 38.2257C3.54996 38.2257 3.54996 38.1546 3.62105 38.1546L3.7605 38.015C3.7605 37.9438 3.83159 37.8754 3.83159 37.8042V37.733V36.961V36.8898C3.83159 36.8187 3.83159 36.7502 3.7605 36.6791C3.7605 36.6079 3.68941 36.5394 3.62105 36.5394C3.62105 36.5394 3.62105 36.4683 3.54996 36.4683L1.31055 35.1379C1.1711 34.9983 1.1 34.9271 1.1 34.9271L1.58945 33.8047C1.58945 33.8047 1.7289 33.7335 1.93945 33.8047L4.46053 34.4343H4.60271C4.6738 34.4343 4.6738 34.3632 4.74217 34.3632C4.81326 34.3632 4.88162 34.292 4.95271 34.2235H5.0238C5.16325 34.0128 5.37379 33.8732 5.58434 33.6624C5.58434 33.6624 5.58434 33.5912 5.65543 33.5912C5.72652 33.52 5.72652 33.4516 5.72652 33.3804C5.72652 33.3092 5.79761 33.2408 5.72652 33.1696V33.0985L5.09762 30.5745C5.02653 30.3637 5.09762 30.2953 5.09762 30.2241L6.21872 29.7341C6.21872 29.7341 6.35818 29.8053 6.49763 29.9449L7.82649 32.1868C7.82649 32.1868 7.89758 32.1868 7.89758 32.258C7.96867 32.3292 8.03703 32.3292 8.10812 32.3976C8.17922 32.3976 8.24758 32.4688 8.24758 32.4688H8.31867H8.38976H9.16087L9.24016 32.477C9.31125 32.477 9.37961 32.477 9.45071 32.4058C9.5218 32.4058 9.59016 32.3347 9.59016 32.2662C9.59016 32.2662 9.66125 32.2662 9.66125 32.195L10.9901 29.9531C11.0612 29.8135 11.2007 29.7423 11.2007 29.7423L12.3218 30.2323C12.3218 30.2323 12.3928 30.3719 12.3218 30.5827L11.6929 33.1067V33.1778V33.3886C11.6929 33.4598 11.7639 33.5282 11.7639 33.5994C11.7639 33.5994 11.7639 33.6706 11.835 33.6706C12.0456 33.8102 12.185 34.021 12.3956 34.2318H12.4667C12.5378 34.3029 12.6061 34.3029 12.6772 34.3714C12.7483 34.3714 12.7483 34.4425 12.8167 34.4425H12.9588L15.4799 33.8129C15.6905 33.7418 15.7588 33.8129 15.8299 33.8129L16.3194 34.9353C16.3194 34.9353 16.2483 35.0749 16.1088 35.2145L14.0089 36.4053C14.0089 36.4053 14.0089 36.4765 13.9378 36.4765C13.8667 36.5477 13.8667 36.5477 13.7983 36.6161C13.7983 36.6873 13.7272 36.7557 13.7272 36.8269V36.8981V37.6701V37.7412C13.7272 37.8124 13.7272 37.8808 13.7983 37.952C13.7983 38.0232 13.8694 38.0916 13.9378 38.0916C13.9378 38.0916 13.9378 38.1628 14.0089 38.1628L16.2483 39.4932C16.3877 39.5644 16.4588 39.704 16.4588 39.704L15.9612 40.9577ZM54.8792 38.223H16.1691L14.8402 37.451V37.2402L16.1691 36.4682H54.8078V38.2202L54.8792 38.223ZM13.5798 16.7774V16.8485C13.5798 16.9197 13.6509 16.9197 13.6509 16.9881C13.6509 17.0593 13.722 17.0593 13.722 17.1277C13.7931 17.1989 13.8614 17.2674 14.0009 17.2674L14.072 17.3385C15.6825 17.4781 17.2219 17.5493 18.693 17.5493C28.5643 17.5493 36.3321 14.3246 42.282 7.87768L44.032 10.6097C44.1031 10.7493 44.3109 10.8889 44.5214 10.8889H44.5925C44.8031 10.8177 45.0136 10.6781 45.0136 10.4673L46.553 2.96953C46.6241 2.6903 46.4136 2.40835 46.1319 2.33991L38.3607 0.0267324C38.1501 -0.0444401 37.8712 0.0267333 37.7318 0.237518C37.5923 0.448302 37.5923 0.659086 37.7318 0.867137L39.9028 4.2315C33.6029 10.6782 23.5924 13.5527 13.9318 16.2844C13.8607 16.2844 13.8607 16.3556 13.8607 16.3556C13.7896 16.4268 13.7213 16.4268 13.6502 16.4952C13.5791 16.5664 13.5791 16.5664 13.5791 16.6348C13.5791 16.706 13.508 16.706 13.508 16.7744C13.5107 16.7087 13.5791 16.7772 13.5791 16.7772L13.5798 16.7774ZM45.3608 3.18338L44.1713 8.78972L42.7714 6.61614C42.7714 6.61614 42.7003 6.61614 42.7003 6.54497C42.7003 6.54497 42.7003 6.4738 42.6292 6.4738C42.5581 6.4738 42.5581 6.4738 42.4897 6.40263C42.4186 6.40263 42.3503 6.33145 42.2792 6.33145H42.0686H41.9292C41.9292 6.33145 41.9292 6.40263 41.8581 6.40263C41.8581 6.40263 41.787 6.40263 41.787 6.4738C35.9082 13.4105 27.8586 16.5638 17.498 16.3564C26.4586 13.764 35.2792 10.75 41.087 4.65384C41.1581 4.58267 41.087 4.58267 41.1581 4.51423C41.1581 4.44306 41.2292 4.37462 41.2292 4.30344C41.2292 4.23227 41.2292 4.16383 41.1581 4.09266V3.95305L39.5476 1.42908L45.3608 3.18338Z" fill="black"/>
</svg>
