<svg width="43" height="45" viewBox="0 0 43 45" fill="none" xmlns="http://www.w3.org/2000/svg">
<path fill-rule="evenodd" clip-rule="evenodd" d="M1.75233 29.77H6.80115C7.28376 29.77 7.71998 29.9658 8.03782 30.2815C8.34873 30.5902 8.54363 31.0142 8.55291 31.4796C9.51581 30.9819 10.5414 30.6502 11.5878 30.4796C11.5646 30.4243 11.5437 30.369 11.5228 30.316C11.4138 30.0396 11.314 29.7561 11.2258 29.4635L11.2142 29.4175C10.836 27.6226 10.7966 25.9544 11.0913 24.413C11.3882 22.8577 12.0263 21.4384 13.0032 20.1574L13.038 20.1159C15.2445 17.6874 17.4301 15.1829 19.6899 12.8095L19.8176 12.6759C19.7247 12.6067 19.6343 12.5284 19.553 12.4478L19.5229 12.4155C19.0983 11.9777 18.8337 11.3833 18.8337 10.7312C18.8337 10.063 19.1099 9.45472 19.553 9.01464C19.85 8.71971 20.2212 8.50083 20.6389 8.38793L17.778 3.46178C17.5692 3.10234 17.5205 2.69451 17.611 2.32126H17.6086C17.6991 1.94569 17.9288 1.60236 18.2792 1.37656L19.8709 0.344337C20.1887 0.136971 20.5414 0.0240691 20.9011 0.0033361C21.2607 -0.0150965 21.6226 0.0586338 21.9614 0.229134L24.0473 1.27977L26.1332 0.229134C26.4743 0.0586338 26.8362 -0.0174028 27.1936 0.0033361H27.2075C27.5648 0.0263766 27.9105 0.139278 28.226 0.344337L29.8177 1.37656C30.1658 1.60236 30.3955 1.94567 30.486 2.32126H30.4883C30.5764 2.69452 30.5277 3.10233 30.3189 3.46178L27.4557 8.38793C27.8711 8.50083 28.2423 8.71971 28.5393 9.01464H28.5416C28.9848 9.45471 29.2608 10.063 29.2608 10.7312C29.2608 11.3994 28.9847 12.0054 28.5416 12.4454L28.5393 12.4477C28.4557 12.5307 28.3676 12.6067 28.2748 12.6758L28.4557 12.8671C30.6994 15.2218 32.8712 17.7149 35.0614 20.1251L35.0892 20.1596C36.066 21.4407 36.7041 22.86 37.0011 24.4153C37.2958 25.9544 37.2564 27.6225 36.8782 29.4197L36.8619 29.4796C36.5487 30.4888 36.1148 31.4335 35.5556 32.3137C35.3654 32.6132 35.1635 32.9035 34.9455 33.1869L39.7646 31.4934L39.8272 31.475C40.405 31.3229 40.999 31.3805 41.514 31.6132C42.0384 31.8483 42.4815 32.2607 42.7484 32.8067C43.0129 33.3528 43.0639 33.9542 42.9247 34.5071C42.7855 35.0601 42.4537 35.567 41.9595 35.9241C41.934 35.9425 41.9061 35.9587 41.8783 35.9725L28.7294 43.4747C28.6365 43.5277 28.5345 43.5485 28.437 43.5439L8.55235 42.4494V43.2604C8.55235 43.7374 8.35513 44.1706 8.03725 44.4862L8.03493 44.4885C7.71474 44.8042 7.27856 45 6.80059 45H1.75176C1.26915 45 0.830615 44.8042 0.515093 44.4885C0.197219 44.1728 0 43.7374 0 43.2604V31.5096C0 31.0326 0.197219 30.5971 0.515093 30.2838L0.517414 30.2815C0.832966 29.9658 1.27203 29.77 1.75233 29.77ZM23.5092 17.7083V18.7797C23.1496 18.8327 22.8131 18.9548 22.5161 19.1276C22.1054 19.3672 21.7667 19.7036 21.53 20.0953C21.291 20.4939 21.1564 20.9501 21.1564 21.4224C21.1588 21.8418 21.2678 22.2703 21.5068 22.6758C21.95 23.4246 22.8804 23.8624 23.8131 24.3002C24.5973 24.6689 25.3839 25.0375 25.6577 25.503C25.7969 25.7403 25.8619 25.9891 25.8619 26.2288C25.8619 26.5053 25.783 26.7748 25.6391 27.0121C25.493 27.2564 25.2818 27.466 25.0266 27.6135C24.7784 27.7563 24.4907 27.8439 24.1774 27.8462L24.1055 27.8439C24.0893 27.8439 24.0661 27.8416 24.0405 27.8416H24.022C23.4535 27.8093 23.0335 27.6503 22.7574 27.3693C22.4489 27.0559 22.2841 26.5628 22.2539 25.8969C22.2423 25.6066 21.9964 25.3808 21.7041 25.3923C21.4117 25.4039 21.1843 25.6481 21.1959 25.9384C21.2354 26.8738 21.4976 27.5974 21.9964 28.1043C22.3769 28.4913 22.8781 28.7379 23.5092 28.8416V29.9429C23.5092 30.2332 23.7482 30.4706 24.0406 30.4706C24.3329 30.4706 24.5719 30.2355 24.5719 29.9429V28.8715C24.9315 28.8185 25.268 28.6964 25.565 28.5236C25.9757 28.284 26.3144 27.9476 26.5511 27.5559C26.7901 27.1573 26.9247 26.7011 26.9223 26.2288C26.92 25.8094 26.811 25.3809 26.572 24.9754C26.1311 24.2265 25.1984 23.7888 24.2657 23.351C23.4814 22.9823 22.6949 22.6137 22.4188 22.1482C22.2795 21.9109 22.2146 21.6621 22.2146 21.4224C22.2146 21.1482 22.2935 20.8764 22.4373 20.6391C22.5835 20.3948 22.7946 20.1852 23.0498 20.0377C23.2981 19.8949 23.5858 19.8073 23.899 19.805L23.971 19.8073C23.9942 19.8096 24.0174 19.8119 24.0406 19.8119H24.0615C24.6299 19.8442 25.0476 20.0031 25.326 20.2842C25.6346 20.5976 25.7993 21.0907 25.8272 21.7566C25.8388 22.0469 26.0847 22.2727 26.3771 22.2611C26.6694 22.2496 26.8968 22.0054 26.8852 21.7151C26.8457 20.7796 26.5836 20.0561 26.0847 19.5492C25.7042 19.1621 25.203 18.9156 24.5719 18.8119V17.7129C24.5719 17.4226 24.3329 17.1852 24.0405 17.1852C23.7482 17.1806 23.5092 17.4179 23.5092 17.7083ZM12.6851 30.3598C12.8986 30.3483 13.112 30.3437 13.3255 30.346C15.2142 30.3621 17.0982 30.9013 18.7479 31.9589L27.8061 31.9566C27.8316 31.9566 27.8571 31.9589 27.8803 31.9612C28.5253 32.0096 29.0961 32.2999 29.5114 32.7354C29.936 33.1823 30.1936 33.7837 30.1936 34.4404C30.1936 34.5832 30.182 34.7261 30.1564 34.862L32.8618 33.9104C33.5649 33.2445 34.1612 32.521 34.653 31.7469C35.1588 30.9496 35.5533 30.0925 35.8387 29.1755C36.1821 27.5258 36.2215 26.0005 35.9524 24.6019C35.6879 23.2194 35.1194 21.9522 34.247 20.8048L27.9847 13.9065L27.6761 13.5817C27.458 13.3513 27.3211 13.2061 27.2376 13.1163C27.096 13.1416 26.9522 13.1554 26.806 13.1554H21.2769C21.1307 13.1554 20.9845 13.1416 20.8453 13.1186C20.7687 13.2015 20.6458 13.3305 20.4578 13.5287C18.2072 15.8927 16.0285 18.388 13.8314 20.8074C12.959 21.9548 12.3928 23.2221 12.126 24.6045C11.8569 26.0031 11.8963 27.5283 12.2397 29.1781C12.3186 29.4315 12.4068 29.6827 12.5042 29.9315C12.5645 30.0789 12.6248 30.2216 12.6851 30.3598ZM26.2772 8.29612L29.3932 2.93219C29.4605 2.81699 29.4768 2.68105 29.4466 2.55663H29.4489C29.4211 2.43682 29.3445 2.32392 29.2285 2.25019L27.6368 1.21796C27.4767 1.11428 27.305 1.05667 27.1356 1.04515H27.1287C26.9547 1.03594 26.776 1.0728 26.602 1.16035L24.2794 2.33084C24.1355 2.40227 23.9592 2.40918 23.8014 2.33084L21.4789 1.16035C21.3072 1.0728 21.1262 1.03593 20.9522 1.04515H20.9498C20.7781 1.05437 20.6064 1.11197 20.444 1.21796L18.8523 2.25019C18.7386 2.32392 18.6644 2.43451 18.6342 2.55663H18.6319C18.6018 2.68105 18.618 2.81468 18.6876 2.93219L21.8037 8.29612H26.2772ZM26.8062 9.35141H21.277C20.8965 9.35141 20.5508 9.50578 20.3002 9.75462C20.0497 10.0035 19.8942 10.3468 19.8942 10.7246C19.8942 11.091 20.0404 11.4251 20.277 11.6739L20.3002 11.697C20.5508 11.9458 20.8965 12.1002 21.277 12.1002H26.8062C27.1867 12.1002 27.5347 11.9458 27.7853 11.697C28.0359 11.4481 28.1913 11.1025 28.1913 10.7247C28.1913 10.3468 28.0359 10.0035 27.7853 9.75466C27.5324 9.50581 27.1867 9.35141 26.8062 9.35141ZM29.4141 36.2424C29.0011 36.6341 28.4489 36.8876 27.8364 36.9244H18.8619C18.5696 36.9244 18.3306 36.6871 18.3306 36.3968C18.3306 36.1064 18.5696 35.8691 18.8619 35.8691H27.8067C28.1686 35.8392 28.4934 35.6779 28.7301 35.4337L28.751 35.4129C28.9877 35.1572 29.1315 34.8162 29.1315 34.4429C29.1315 34.0627 28.983 33.7148 28.7394 33.4591C28.5027 33.2102 28.1756 33.042 27.8067 33.0121H18.5929V33.0098C18.4908 33.0098 18.3887 32.9821 18.2982 32.9199C16.79 31.9199 15.0545 31.4084 13.3167 31.3946C11.6693 31.3808 10.0173 31.8094 8.55093 32.6826L8.55325 41.3964L28.3399 42.4839L41.3427 35.0554C41.6235 34.8504 41.8091 34.5601 41.8903 34.2444C41.9715 33.9218 41.9436 33.5739 41.7882 33.2582C41.6351 32.9426 41.3775 32.703 41.0736 32.567C40.7766 32.4334 40.4355 32.3988 40.1014 32.4841L29.4141 36.2424ZM6.80128 30.8255H1.75246C1.5622 30.8255 1.3905 30.9016 1.26521 31.026C1.13992 31.1504 1.06335 31.3209 1.06335 31.5098V43.2607C1.06335 43.4496 1.14224 43.6201 1.26521 43.7446C1.3905 43.869 1.5622 43.9473 1.75246 43.9473H6.80128C6.99154 43.9473 7.16324 43.8713 7.28853 43.7492L7.29085 43.7469C7.41382 43.6247 7.49271 43.4519 7.49271 43.263L7.49039 31.5098C7.49039 31.3208 7.4115 31.1503 7.28621 31.0259C7.16324 30.9038 6.99155 30.8255 6.80128 30.8255Z" fill="black"/>
</svg>
