<svg width="58" height="46" viewBox="0 0 58 46" fill="none" xmlns="http://www.w3.org/2000/svg">
<path d="M57.1397 33.8924C57.1397 33.4834 57.1397 33.0744 57.0809 32.6067C57.0809 31.7299 57.0809 30.7944 56.9047 29.8612C55.9692 24.4855 51.8204 20.5131 46.3858 19.7513C46.2095 19.7513 46.0943 19.6925 45.918 19.6925C48.6635 18.757 50.5932 16.1855 50.5932 13.0899C50.5345 9.1174 47.4388 6.07824 43.64 6.07824C39.7828 6.07824 36.5694 9.17623 36.511 13.0314C36.511 14.9002 37.2702 16.7124 38.556 18.0569C38.9062 18.4659 39.374 18.7574 39.783 19.0512C38.0295 18.5247 36.5697 17.5915 35.458 16.1882C33.7632 14.0845 32.9452 11.5717 32.2447 9.11758C31.7182 7.30535 30.376 6.19584 28.6813 6.13713H28.505C26.869 6.13713 25.5245 7.24663 24.998 9.00009L24.8218 9.46783C24.4128 10.6361 24.0038 11.863 23.536 12.9748C22.4265 15.6051 20.9058 17.415 18.802 18.468C18.3343 18.7008 17.8078 18.877 17.2836 19.0533C19.2698 17.8263 20.6143 15.6638 20.6143 13.2095C20.6143 9.11959 17.5163 6.02148 13.4852 6.02148C9.62798 6.02148 6.47358 9.17594 6.47358 13.0921C6.47358 16.1901 8.45982 18.7593 11.264 19.7538C11.0313 19.7538 10.855 19.8125 10.6222 19.8713C4.90084 20.7457 0.810825 24.9509 0.169302 30.503C-0.063439 32.1977 -0.00695146 33.9512 0.0518037 35.6459V37.4581C0.0518037 39.3856 1.51151 40.9651 3.55878 41.0803H3.73503C4.61176 41.0803 5.371 40.7301 5.95624 40.2036V42.6576C5.95624 44.3523 6.83297 45.2291 8.52771 45.2291H19.5707C21.3242 45.2291 22.1422 44.4111 22.1422 42.6576L22.1399 25.0687V24.9512H22.2574C24.4786 23.8417 26.2886 22.2645 27.7506 20.3347C28.0421 19.9257 28.3359 19.5167 28.5686 19.1077C30.2634 21.6792 32.3671 23.6654 34.9948 24.9514V25.0101V42.8322C34.9948 44.4682 35.8129 45.2862 37.4488 45.2862H48.6092C50.3627 45.2862 51.1807 44.4682 51.1807 42.7147V40.3782C51.766 40.9047 52.5252 41.1962 53.4019 41.1962C55.5644 41.1962 57.0829 39.619 57.0829 37.5153L57.1397 33.8924ZM37.6817 12.9726C37.7404 9.75942 40.3684 7.18795 43.6428 7.18795C46.856 7.18795 49.3687 9.75942 49.4275 13.0317C49.4275 16.3036 46.856 18.8754 43.5254 18.8754C40.3687 18.9341 37.6817 16.1887 37.6817 12.9732V12.9726ZM7.6487 13.0314C7.6487 9.75946 10.2202 7.12927 13.4924 7.12927C16.9406 7.12927 19.4535 9.70074 19.4535 13.1465C19.4535 16.2445 16.8233 18.8724 13.6098 18.8724C10.3356 18.9335 7.6487 16.2471 7.6487 13.0314ZM55.9712 37.3971C55.9712 38.9156 54.9204 39.9099 53.4584 39.9099C52.0552 39.9099 51.2372 38.8591 51.2372 37.3384V32.7807C51.2372 32.548 51.2372 32.313 51.1785 32.1389C51.1197 31.8475 50.887 31.5537 50.478 31.5537H50.4192C50.1277 31.5537 50.0102 31.9627 50.0102 32.1955V42.5964C50.0102 43.7059 49.66 43.9996 48.607 43.9996H37.4466C36.4523 43.9996 36.1608 43.7081 36.1608 42.7138V24.8918C36.1608 24.424 36.1021 24.0737 35.6343 23.8975C32.6539 22.4378 30.4348 20.099 28.8552 17.2358C28.7965 17.1183 28.7377 17.0031 28.6225 16.8268C27.922 17.7623 27.3955 18.6956 26.7537 19.5135C25.4093 21.3823 23.7145 22.7855 21.6695 23.7798C21.0843 24.0125 20.9103 24.365 20.9103 24.948V42.5936C20.9103 43.6443 20.6188 43.9969 19.507 43.9969H8.46402C7.41329 43.9969 7.06077 43.6466 7.06077 42.5936V32.5427C7.06077 32.3664 7.06077 32.1337 7.00202 31.9575C6.94327 31.7247 6.76928 31.431 6.53427 31.431H6.47552C6.00778 31.431 5.94902 31.84 5.94902 32.0727V36.0452C5.94902 36.5717 5.94902 37.0959 5.89027 37.6224C5.71402 38.9082 4.896 39.8437 3.66907 39.8437H3.55156C2.14831 39.7262 1.15635 38.7341 1.15635 37.3897C1.15635 35.1119 0.980097 32.832 1.27385 30.5545C1.85909 25.4115 5.54006 21.7305 10.7984 20.8535C11.9079 20.6208 13.0761 20.6208 14.1878 20.562C16.0001 20.5033 17.6948 20.153 19.3308 19.3938C21.9023 18.108 23.5382 15.8868 24.6477 13.3176C25.233 11.9731 25.642 10.5721 26.1074 9.22761C26.5164 8.00062 27.3932 7.18261 28.5026 7.18261H28.6201C29.8471 7.24135 30.7239 8.00062 31.0741 9.3451C31.8921 11.9753 32.7689 14.6033 34.5223 16.7657C36.2758 18.9869 38.6123 20.0964 41.3575 20.4467C42.9935 20.6229 44.6295 20.6229 46.2067 20.8557C51.1734 21.5562 54.9133 25.1219 55.7312 29.9712C55.9075 31.257 55.8487 32.5427 55.9075 33.8872C55.9708 35.0599 55.9708 36.2282 55.9708 37.3964L55.9712 37.3971Z" fill="black"/>
<path d="M28.6187 3.85943C28.969 3.85943 29.204 3.62669 29.204 3.2742L29.2017 0.585238C29.2017 0.234992 28.969 0 28.6165 0C28.2662 0 28.0312 0.232742 28.0312 0.585238V3.27194C28.0335 3.62445 28.2685 3.85943 28.6187 3.85943Z" fill="black"/>
<path d="M32.0726 5.49544C32.1901 5.49544 32.3641 5.43669 32.4816 5.37794L34.7028 3.45048C34.9355 3.21774 34.9943 2.86524 34.7615 2.63247C34.5288 2.39972 34.1763 2.34097 33.9435 2.57372L31.7223 4.50118C31.4896 4.73392 31.4308 5.08642 31.6636 5.31919C31.7788 5.43669 31.8963 5.49544 32.0726 5.49544Z" fill="black"/>
<path d="M24.7058 5.31886C24.8233 5.43636 24.9386 5.43636 25.1148 5.43636C25.2911 5.43636 25.4651 5.37761 25.5826 5.26011C25.8153 5.02737 25.7588 4.67487 25.5238 4.44209L23.3026 2.51463C23.0699 2.28189 22.7174 2.33838 22.4846 2.57338C22.2519 2.80612 22.3083 3.15862 22.5434 3.3914L24.7058 5.31886Z" fill="black"/>
</svg>
