<svg width="37" height="39" viewBox="0 0 37 39" fill="none" xmlns="http://www.w3.org/2000/svg">
<path fill-rule="evenodd" clip-rule="evenodd" d="M30.3947 14.4945C30.0797 14.0614 29.3605 12.5592 29.1011 12.4983C29.0422 12.4831 28.9782 12.4932 28.9243 12.5254L26.1771 14.1747C25.9144 14.3354 26.1771 14.6382 26.2849 14.8193L32.6282 25.4345C32.8 25.7288 32.8741 25.9623 33.1722 25.8032L35.8806 24.1742C35.9918 24.1065 36.0271 23.9611 35.9614 23.8494L30.3947 14.4945ZM31.9645 26.3257L29.1062 27.3305C29.4447 27.9649 29.4767 28.7194 29.1887 29.3791C28.9024 30.0389 28.3297 30.5278 27.6357 30.7088C28.3566 31.4954 28.4543 32.6728 27.8732 33.5677C27.2938 34.4642 26.1821 34.8499 25.1732 34.5066C25.1497 35.2289 24.7959 35.8988 24.2148 36.3217C23.632 36.7446 22.8876 36.8748 22.1987 36.6719C22.1936 37.5921 21.653 38.4244 20.8158 38.7983C19.9787 39.1721 19.0001 39.0182 18.318 38.4041L16.7919 37.0525C15.9734 37.988 15.4293 38.8795 14.2823 38.9539C13.681 38.9911 13.0931 38.7763 12.6586 38.3584C12.224 37.9423 11.9832 37.362 11.9916 36.7581C11.37 36.8478 10.7401 36.6583 10.2685 36.2422C9.79684 35.826 9.52735 35.2238 9.53412 34.5928C8.91092 34.6825 8.28099 34.4947 7.80767 34.0786C7.33435 33.6624 7.06654 33.0602 7.07163 32.4275C6.18061 32.5527 5.30474 32.1095 4.87695 31.3144C4.44913 30.5194 4.55693 29.5399 5.14981 28.8598L6.23284 27.6249L4.49798 26.0364C4.01457 26.4475 3.30716 26.4475 2.82544 26.0364L0.428617 23.9151L0.426933 23.9134C-0.0951965 23.4499 -0.145732 22.6481 0.315767 22.1203L6.08122 15.5464C5.85384 15.4872 5.69551 15.2808 5.6972 15.044V10.7134C5.69551 10.4901 5.83868 10.2921 6.05091 10.2211L7.84979 9.63578L8.6869 7.61256L7.82452 5.93613L7.82284 5.93783C7.70999 5.73652 7.74199 5.48276 7.90369 5.31868L10.9658 2.24836C11.1225 2.08934 11.3633 2.05043 11.5604 2.15193L13.2464 3.01805L15.2727 2.16544L15.8504 0.389196C15.9077 0.157439 16.1182 -0.00495978 16.3557 0.000115707H20.6676C20.8916 0.000115707 21.0887 0.145599 21.1544 0.358743L21.7507 2.16543L23.7601 3.00111L25.4107 2.16543C25.6129 2.05379 25.8638 2.08762 26.0272 2.25171L29.0894 5.32203C29.2443 5.48273 29.2797 5.72464 29.1786 5.92424L28.3162 7.6176L29.1534 9.64082L30.9168 10.216C31.1459 10.2735 31.3059 10.4816 31.3059 10.7184V14.0696L36.8256 23.3332H36.8239C37.1759 23.932 36.9839 24.7034 36.3927 25.0654L33.6372 26.7199C33.0611 27.0599 32.3217 26.8907 31.9477 26.3342L31.9645 26.3257ZM28.3769 26.4949L22.6601 21.4367C21.9089 20.7516 20.9118 20.4082 19.8995 20.4843L17.4421 20.6366V20.6349C16.8845 20.6619 16.3826 20.98 16.1232 21.4756L15.1227 23.2992C14.7606 23.9539 13.6304 24.6288 12.6434 24.8149C11.1123 25.0957 11.2201 24.0571 11.781 22.5363L13.3374 18.7436C13.5294 18.1922 13.9168 17.7303 14.4237 17.4444L18.0973 15.5735C18.5318 15.3451 19.0186 15.2419 19.5071 15.2707L25.5437 15.5785L31.4472 25.4255L28.3985 26.4947L28.3769 26.4949ZM30.3004 12.3255L30.1538 12.1259C29.9921 11.8299 29.7193 11.61 29.3959 11.5152C29.0725 11.4205 28.7238 11.4594 28.4291 11.6235L25.6398 13.3033C25.2153 13.5553 24.9778 14.0341 25.0317 14.5246L24.2165 14.4807V14.4824C24.7269 12.7281 24.4102 10.8368 23.3592 9.34667C22.3081 7.85633 20.6356 6.93101 18.82 6.83288C17.0026 6.73477 15.2425 7.47572 14.0381 8.84424C12.8338 10.2145 12.3184 12.0601 12.6384 13.8582L10.72 12.1598C10.1962 11.698 9.39776 11.7487 8.93458 12.2731L6.82243 14.7244L6.72305 14.6939V11.0738L8.42591 10.5189C8.58929 10.4665 8.71562 10.3345 8.76278 10.1688C9.69424 6.76854 10.4101 8.73087 8.91437 5.77405L11.4409 3.2315L13.036 4.04518C13.1875 4.12807 13.3711 4.12807 13.5227 4.04518C16.5747 2.31294 15.6787 4.19743 16.723 1.04419H20.3022L20.8547 2.75106H20.853C20.9069 2.91516 21.0399 3.04203 21.2067 3.0877C24.5922 4.02827 22.6384 4.7455 25.5794 3.23995L28.111 5.7825L27.2991 7.36248C27.2183 7.51473 27.2183 7.69912 27.2991 7.85136C29.0239 10.9166 27.1475 10.0387 30.2871 11.0604V12.3122L30.3004 12.3255ZM12.1903 15.7071C12.3066 15.5515 12.6653 15.2741 12.4363 15.0829L10.031 12.9514L10.0293 12.9531C9.98387 12.9108 9.92155 12.8905 9.85923 12.8939C9.79691 12.8973 9.73964 12.9278 9.69753 12.9751L1.07371 22.8052V23.1249C1.8721 23.8388 2.67722 24.5577 3.48907 25.2648C3.72151 25.4594 3.92026 25.1041 4.08028 24.935C6.79208 21.9035 9.51415 18.7942 12.1785 15.7069L12.1903 15.7071ZM14.5956 15.8983L15.0049 15.9812C15.2154 15.9507 17.592 14.5179 18.5571 14.3098C19.3724 14.1322 22.1785 14.3657 23.1791 14.4181L23.1808 14.4164C23.7332 12.7654 23.3795 10.9435 22.2493 9.62068C21.1208 8.2978 19.3809 7.66852 17.6714 7.96456C15.9618 8.2606 14.5334 9.43797 13.9085 11.0654C13.2853 12.691 13.5599 14.5265 14.6311 15.8983L14.5956 15.8983ZM13.5782 16.7424C13.0325 17.1535 12.6148 17.7134 12.3807 18.358L10.8546 22.1084C10.2769 23.4414 10.2769 24.4428 10.5835 25.0265C11.5705 26.9228 15.18 25.2988 16.007 23.8051C16.2007 23.4549 16.9688 21.9088 17.2096 21.7531C17.4505 21.5975 19.5172 21.5417 19.9484 21.5146H19.9467C20.6861 21.4571 21.4154 21.7091 21.9612 22.2116L27.9202 27.4694C28.4609 27.9481 28.5131 28.7753 28.0364 29.3183C27.5598 29.8613 26.7361 29.9138 26.1955 29.435L22.9565 26.5643C22.7409 26.3969 22.4327 26.4273 22.2525 26.6337C22.0722 26.8401 22.0823 27.1496 22.276 27.3442L26.7902 31.3195C27.0479 31.5496 27.2028 31.871 27.2214 32.2161C27.2601 32.7456 26.9755 33.2446 26.5005 33.4781C26.0271 33.7115 25.4578 33.632 25.0654 33.2768L20.5767 29.2963C20.3645 29.1086 20.0394 29.1289 19.8508 29.342C19.6621 29.5569 19.6823 29.8834 19.8962 30.0728L23.686 33.4409C24.225 33.9196 24.2772 34.7468 23.8005 35.2881C23.3239 35.8295 22.5002 35.8819 21.9613 35.4032L18.1799 32.0469C17.966 31.8592 17.6409 31.8812 17.454 32.096C17.267 32.3125 17.2889 32.639 17.5028 32.8268L20.7452 35.6941C22 36.8377 20.2887 38.7645 19.0204 37.6378L17.486 36.2828C17.9963 35.5791 18.0401 34.6369 17.5938 33.8909C17.1474 33.1448 16.3002 32.7388 15.4412 32.8606C15.4479 32.2297 15.1801 31.6274 14.7068 31.2113C14.2352 30.7951 13.6052 30.6074 12.9837 30.6953C12.9905 30.0644 12.721 29.4604 12.2477 29.0443C11.7744 28.6281 11.1444 28.4404 10.5212 28.53C10.533 27.6757 10.0429 26.8942 9.26979 26.5373C8.49834 26.1786 7.58715 26.3089 6.94709 26.8722L5.18865 25.3125L12.8069 16.582L13.5918 16.7427L13.5782 16.7424ZM13.3374 36.0358C12.3588 37.1522 14.0448 38.6341 15.0234 37.5295L16.6101 35.7228C17.0261 35.2491 16.9806 34.5285 16.509 34.1106C16.0374 33.6928 15.3182 33.7385 14.9021 34.2121L13.3374 36.0358ZM10.8883 33.8451V33.8434C10.6811 34.065 10.57 34.361 10.5835 34.6655C10.5952 34.97 10.73 35.2559 10.9557 35.4589C11.1797 35.6619 11.4778 35.7668 11.7794 35.7464C12.0825 35.7278 12.3638 35.5857 12.5609 35.3557C13.0915 34.745 13.6305 34.1428 14.161 33.5372C15.1177 32.4241 13.4317 30.9388 12.4615 32.0519L10.8883 33.8451ZM10.1034 33.1785L11.6901 31.3719C12.0994 30.8982 12.0488 30.1809 11.5789 29.7682C11.1073 29.3571 10.3931 29.4079 9.98217 29.8815L8.38711 31.7C8.09403 32.0451 8.0334 32.534 8.2372 32.94C8.43932 33.346 8.86376 33.5913 9.31518 33.5625C9.61162 33.5456 9.88953 33.4103 10.0866 33.1853L10.1034 33.1785ZM7.63753 31.0132L9.22923 29.2032C10.2078 28.0647 8.52182 26.6048 7.55164 27.6959L5.95658 29.5144C4.96281 30.614 6.62863 32.1026 7.61903 31.0031L7.63753 31.0132Z" fill="black"/>
</svg>
