<svg width="38" height="39" viewBox="0 0 38 39" fill="none" xmlns="http://www.w3.org/2000/svg">
<path d="M5.04715 18.8306C4.90959 18.8306 4.77767 18.7761 4.6804 18.6789C4.58313 18.5818 4.52848 18.4501 4.52848 18.3127C4.52848 18.1754 4.58313 18.0437 4.6804 17.9466C4.77767 17.8494 4.90959 17.7949 5.04715 17.7949H18.6035C18.741 17.7949 18.873 17.8494 18.9702 17.9466C19.0675 18.0437 19.1221 18.1754 19.1221 18.3127C19.1221 18.4501 19.0675 18.5818 18.9702 18.6789C18.873 18.7761 18.741 18.8306 18.6035 18.8306H5.04715ZM10.8117 9.82835C10.716 9.73166 10.6623 9.60127 10.6621 9.46535C10.6619 9.32942 10.7153 9.19889 10.8107 9.10195C10.9062 9.00502 11.036 8.94946 11.1721 8.9473C11.3082 8.94514 11.4397 8.99654 11.5382 9.09039L12.1355 9.67468L14.005 7.6887C14.0513 7.63763 14.1074 7.59631 14.1699 7.56713C14.2325 7.53796 14.3002 7.52153 14.3691 7.51881C14.4381 7.51608 14.5069 7.52711 14.5716 7.55125C14.6362 7.5754 14.6954 7.61217 14.7456 7.65941C14.7958 7.70666 14.8361 7.76343 14.8641 7.82642C14.8921 7.8894 14.9073 7.95732 14.9087 8.02622C14.9101 8.09511 14.8977 8.16359 14.8723 8.22765C14.8469 8.29172 14.8089 8.35007 14.7606 8.39931L12.5255 10.7695C12.4782 10.8193 12.4214 10.8593 12.3585 10.8871C12.2956 10.9148 12.2278 10.9298 12.159 10.9312C12.0903 10.9326 12.0219 10.9203 11.9579 10.8951C11.894 10.8698 11.8357 10.8322 11.7864 10.7842L10.8117 9.82835ZM12.0242 15.3045C7.84007 12.6209 7.82311 12.4828 7.13271 6.7771C7.09706 6.46368 7.05489 6.12986 6.99402 5.62761C6.97811 5.49369 7.01485 5.35882 7.09651 5.25138C7.17816 5.14395 7.29836 5.07232 7.43182 5.05157L12.199 3.97371C12.2766 3.95677 12.357 3.95677 12.4346 3.97371L17.2288 5.05895C17.3537 5.08796 17.4635 5.16189 17.5373 5.26663C17.6111 5.37136 17.6436 5.49956 17.6287 5.62675H17.6309C17.5679 6.12899 17.5279 6.46281 17.49 6.77623C16.7996 12.4855 16.7849 12.62 12.5925 15.3079C12.5077 15.3629 12.4087 15.3918 12.3077 15.391C12.2067 15.3902 12.1081 15.3598 12.0242 15.3036V15.3045ZM8.16614 6.65512C8.7822 11.7575 8.81219 12.0053 12.3125 14.2579C15.8123 12.0053 15.8419 11.7575 16.4588 6.65512L16.5427 5.96577L12.3125 5.01076L8.08223 5.96577L8.16614 6.65512ZM10.7173 34.7051H12.1694V34.083H3.32767V36.0477H10.1969V35.2229C10.1967 35.1546 10.21 35.0868 10.2362 35.0236C10.2624 34.9605 10.3008 34.9031 10.3493 34.8548C10.3979 34.8066 10.4555 34.7684 10.5189 34.7426C10.5823 34.7167 10.6502 34.7037 10.7186 34.7042L10.7173 34.7051ZM23.5806 34.7051H25.0332C25.1016 34.7047 25.1694 34.7179 25.2327 34.7438C25.296 34.7697 25.3536 34.8079 25.4021 34.8561C25.4506 34.9043 25.489 34.9616 25.5152 35.0247C25.5415 35.0878 25.5549 35.1555 25.5549 35.2238V36.0486H27.0492V26.3622L26.3609 25.738C26.195 25.8415 26.0014 25.8921 25.8059 25.8831C25.6105 25.8741 25.4224 25.8059 25.2666 25.6876L24.6901 25.2444L24.511 25.4753L24.8645 25.7466C24.9733 25.8308 25.0442 25.9547 25.0616 26.091C25.079 26.2274 25.0414 26.3651 24.9571 26.4737L23.5389 28.3143C23.4545 28.4227 23.3307 28.4935 23.1943 28.5112C23.0579 28.5289 22.92 28.4922 22.8107 28.4089L16.5575 23.6031C16.4492 23.5185 16.3788 23.3947 16.3614 23.2585C16.3441 23.1224 16.3813 22.9849 16.4649 22.876L17.8857 21.035C17.9271 20.9811 17.9787 20.9358 18.0376 20.9019C18.0965 20.868 18.1616 20.846 18.229 20.8372C18.2965 20.8284 18.365 20.833 18.4307 20.8507C18.4964 20.8684 18.5579 20.8988 18.6117 20.9403L18.963 21.2116L22.6272 16.4583L22.2737 16.187C22.1654 16.1029 22.0949 15.9795 22.0775 15.8436C22.0602 15.7077 22.0974 15.5705 22.1811 15.462L23.6019 13.6193C23.6433 13.5653 23.695 13.5201 23.754 13.4862C23.813 13.4523 23.8781 13.4304 23.9456 13.4218C24.0132 13.4132 24.0817 13.418 24.1473 13.4361C24.213 13.4541 24.2744 13.485 24.328 13.5268L27.047 15.6157V4.41258H23.4385L25.6401 6.82051C25.6899 6.8689 25.7295 6.92673 25.7566 6.99062C25.7837 7.0545 25.7977 7.12315 25.7979 7.19253V12.2636C25.8038 12.3354 25.7947 12.4076 25.7713 12.4756C25.7478 12.5437 25.7105 12.6062 25.6616 12.6591C25.6127 12.7121 25.5534 12.7543 25.4874 12.7832C25.4214 12.8121 25.35 12.827 25.2779 12.827C25.2058 12.827 25.1345 12.8121 25.0685 12.7832C25.0025 12.7543 24.9431 12.7121 24.8943 12.6591C24.8454 12.6062 24.8081 12.5437 24.7846 12.4756C24.7612 12.4076 24.7521 12.3354 24.758 12.2636V7.70997H19.1843C19.0459 7.70997 18.9132 7.65509 18.8154 7.5574C18.7176 7.45971 18.6626 7.32721 18.6626 7.18905V1.04009H1.03778V33.0438H12.1677V31.969C12.1672 31.9004 12.1804 31.8325 12.2065 31.7691C12.2325 31.7057 12.2709 31.6481 12.3195 31.5996C12.368 31.5511 12.4257 31.5128 12.4892 31.4868C12.5527 31.4607 12.6208 31.4476 12.6894 31.448H23.0611C23.1991 31.4486 23.3312 31.5038 23.4286 31.6014C23.526 31.699 23.5806 31.8312 23.5806 31.969V33.0438H24.7593V28.5917C24.77 28.4613 24.8294 28.3398 24.9257 28.2511C25.022 28.1625 25.1482 28.1133 25.2792 28.1133C25.4102 28.1133 25.5364 28.1625 25.6328 28.2511C25.7291 28.3398 25.7885 28.4613 25.7992 28.5917V33.5647C25.7992 33.7029 25.7443 33.8353 25.6464 33.933C25.5486 34.0307 25.4159 34.0856 25.2775 34.0856H23.5806V34.7051ZM25.5527 37.0856V38.4791C25.5527 38.6172 25.4977 38.7497 25.3999 38.8474C25.3021 38.9451 25.1694 39 25.031 39H10.7173C10.579 39 10.4463 38.9451 10.3484 38.8474C10.2506 38.7497 10.1956 38.6172 10.1956 38.4791V37.0856H2.80465C2.66704 37.0851 2.53522 37.0302 2.43791 36.9331C2.3406 36.8359 2.28568 36.7043 2.28511 36.5669V34.083H0.517802C0.380564 34.082 0.249258 34.027 0.152336 33.93C0.0554141 33.833 0.00068236 33.7017 0 33.5647V0.520915C-1.19783e-06 0.383135 0.0546663 0.250966 0.152037 0.153338C0.249408 0.0557094 0.38155 0.000574182 0.519541 9.91479e-08H19.1843C19.2619 -4.78953e-05 19.3384 0.0173291 19.4084 0.0508435C19.4783 0.0843579 19.5397 0.133151 19.5882 0.193607L22.4946 3.37509H27.567C27.6354 3.37486 27.7032 3.3882 27.7664 3.41433C27.8297 3.44046 27.8871 3.47887 27.9353 3.52733C27.9836 3.57579 28.0217 3.63333 28.0475 3.69662C28.0733 3.75991 28.0863 3.82768 28.0856 3.89601V16.414L30.5794 18.3327C30.6335 18.374 30.6788 18.4255 30.7128 18.4844C30.7468 18.5432 30.7689 18.6082 30.7777 18.6755C30.7865 18.7429 30.7819 18.8113 30.7641 18.8769C30.7464 18.9425 30.7158 19.0039 30.6742 19.0577L29.2551 20.9004C29.1709 21.0086 29.0472 21.079 28.911 21.0963C28.7749 21.1137 28.6374 21.0765 28.5287 20.9929L28.1752 20.722L27.9965 20.9551L28.5752 21.3987C28.7293 21.5186 28.8432 21.6825 28.9014 21.8687C28.9597 22.0549 28.9596 22.2544 28.9012 22.4406L36.6148 27.411C38.1408 28.3942 38.4543 30.5482 37.3135 31.7953C36.7707 32.3526 36.0316 32.6764 35.2533 32.698C34.4751 32.7195 33.7192 32.4371 33.1463 31.9108L28.0856 27.3076V36.5669C28.0851 36.7047 28.0298 36.8366 27.9321 36.9338C27.8343 37.0311 27.7019 37.0856 27.5639 37.0856H25.5527ZM24.5132 35.743H11.2347V37.9599H24.5132V35.743ZM22.5411 32.4873H13.2089V34.7064H22.5411V32.4873ZM29.5408 18.8363L24.1071 14.6616L23.3176 15.6826L28.75 19.8581L29.5408 18.8363ZM23.8206 26.2506L18.3904 22.0755L17.6013 23.0987L23.0359 27.2742L23.8206 26.2506ZM27.8765 22.1701L27.3648 21.7751L25.3214 24.4231L25.8327 24.8181C26.515 23.9354 27.1965 23.0528 27.8765 22.1701ZM27.0387 24.9527L33.8454 31.145C34.0417 31.3295 34.2748 31.4707 34.5294 31.5595C34.7839 31.6482 35.0543 31.6825 35.3231 31.6601C35.5918 31.6377 35.8527 31.5591 36.0891 31.4295C36.3254 31.2999 36.5318 31.122 36.6948 30.9076C36.9307 30.5207 37.0146 30.0603 36.9304 29.6153C36.886 29.3445 36.7851 29.086 36.6343 28.8565C36.4836 28.627 36.2863 28.4317 36.0553 28.2831L28.3165 23.2962L27.0387 24.9527ZM24.1849 24.2026L27.3544 20.0921L23.448 17.089L19.7839 21.8441L23.6902 24.8472L24.1849 24.2026ZM19.7039 1.85966V6.67161H24.1028C22.6339 5.06604 21.1676 3.46206 19.7039 1.85966ZM5.04715 29.989C4.91659 29.9784 4.79483 29.9191 4.70605 29.8229C4.61728 29.7267 4.568 29.6007 4.568 29.4699C4.568 29.3391 4.61728 29.2131 4.70605 29.1169C4.79483 29.0207 4.91659 28.9614 5.04715 28.9507H18.7761C18.9066 28.9614 19.0284 29.0207 19.1172 29.1169C19.2059 29.2131 19.2552 29.3391 19.2552 29.4699C19.2552 29.6007 19.2059 29.7267 19.1172 29.8229C19.0284 29.9191 18.9066 29.9784 18.7761 29.989H5.04715ZM5.04715 24.4096C4.91659 24.399 4.79483 24.3396 4.70605 24.2434C4.61728 24.1473 4.568 24.0212 4.568 23.8904C4.568 23.7596 4.61728 23.6336 4.70605 23.5374C4.79483 23.4413 4.91659 23.3819 5.04715 23.3713H14.9519C15.0825 23.3819 15.2042 23.4413 15.293 23.5374C15.3818 23.6336 15.4311 23.7596 15.4311 23.8904C15.4311 24.0212 15.3818 24.1473 15.293 24.2434C15.2042 24.3396 15.0825 24.399 14.9519 24.4096H5.04715Z" fill="black"/>
</svg>
