<svg width="40" height="40" viewBox="0 0 40 40" fill="none" xmlns="http://www.w3.org/2000/svg">
<path d="M26.3509 20.0358C22.7091 20.0358 19.7461 17.0741 19.7461 13.4329C19.7461 9.79112 22.7091 6.82812 26.3509 6.82812C29.9915 6.82812 32.9538 9.79112 32.9538 13.4329C32.9538 17.0741 29.9921 20.0358 26.3509 20.0358ZM26.3509 8.11136C23.4168 8.11136 21.0293 10.4988 21.0293 13.4329C21.0293 16.3658 23.4168 18.7526 26.3509 18.7526C29.2844 18.7526 31.6706 16.3658 31.6706 13.4329C31.6706 10.4988 29.2844 8.11136 26.3509 8.11136Z" fill="black"/>
<path d="M27.9973 26.8652H24.7013C24.2214 26.8652 23.8345 26.5277 23.7158 26.0054L23.1685 23.5884C22.5647 23.3985 21.9789 23.1554 21.4194 22.8615L19.3213 24.1839C18.8786 24.463 18.3448 24.4238 18.0163 24.0947L15.6865 21.765C15.3484 21.4268 15.3125 20.9155 15.5961 20.4625L16.9197 18.3637C16.6259 17.8036 16.3821 17.2172 16.1928 16.6128L13.7765 16.0655C13.2542 15.9448 12.918 15.5586 12.918 15.0793V11.784C12.918 11.3008 13.2561 10.9146 13.7803 10.7991L16.1934 10.2511C16.3808 9.64929 16.624 9.06285 16.9191 8.50144L15.5967 6.40271C15.3106 5.94972 15.3459 5.43643 15.6872 5.09701L18.0156 2.76858C18.3435 2.43943 18.8805 2.40093 19.322 2.68004L21.4194 4.00241C21.9795 3.70919 22.5653 3.46602 23.1678 3.27674L23.7151 0.857843C23.8351 0.336208 24.222 0 24.7006 0H27.9966C28.4759 0 28.8628 0.335566 28.9822 0.855918L29.5295 3.2761C30.1332 3.46538 30.7197 3.70855 31.2804 4.00177L33.3766 2.67876C33.8257 2.39773 34.3557 2.43879 34.6829 2.76922L37.0114 5.09766C37.3514 5.43707 37.3861 5.94972 37.1006 6.40271L35.7795 8.49887C36.0727 9.05965 36.3152 9.64609 36.5051 10.2498L38.9221 10.7978C39.4425 10.9114 39.7819 11.2976 39.7819 11.782V15.0774C39.7819 15.5573 39.4444 15.9448 38.9221 16.0635L36.5051 16.6108C36.3152 17.2159 36.0714 17.803 35.7782 18.3618L37.1006 20.458C37.3848 20.9129 37.3495 21.4236 37.0126 21.7618L34.6823 24.0928C34.3551 24.4206 33.8251 24.4604 33.3804 24.1839L31.2811 22.8602C30.7216 23.1541 30.1351 23.3972 29.5301 23.5872L28.9834 26.0035C28.8641 26.5271 28.4772 26.8652 27.9973 26.8652ZM24.9361 25.582H27.7631L28.3617 22.9378C28.4143 22.7069 28.5895 22.5234 28.8179 22.4605C29.5776 22.2532 30.3065 21.9504 30.9846 21.5616C31.1906 21.4422 31.4453 21.4486 31.6462 21.575L33.9406 23.0225L35.9392 21.0239L34.4924 18.7295C34.3653 18.5286 34.3602 18.2739 34.4783 18.0686C34.8671 17.3904 35.1699 16.6615 35.3778 15.9012C35.4407 15.6734 35.6235 15.4976 35.8552 15.445L38.4986 14.8458V12.0201L35.8539 11.4195C35.6229 11.3669 35.4394 11.1917 35.3772 10.9633C35.1699 10.2056 34.8677 9.4767 34.4789 8.79466C34.3615 8.58934 34.3673 8.33526 34.493 8.13507L35.9386 5.84129L33.9406 3.84329L31.6462 5.29014C31.4453 5.41654 31.1919 5.42296 30.9859 5.30426C30.3052 4.91608 29.5757 4.61388 28.8179 4.40663C28.5895 4.34375 28.4137 4.16025 28.3617 3.92927L27.7644 1.28516H24.9361L24.3375 3.92927C24.2849 4.16025 24.1097 4.34375 23.8813 4.40663C23.1261 4.61323 22.3979 4.91544 21.7158 5.30426C21.5105 5.42296 21.2564 5.41654 21.0556 5.29014L18.7593 3.84265L16.7613 5.84065L18.2081 8.13764C18.3345 8.33847 18.3403 8.59319 18.2216 8.79851C17.8296 9.48119 17.528 10.2088 17.3246 10.9614C17.2624 11.1905 17.0789 11.3669 16.8472 11.4195L14.2025 12.0194V14.8458L16.8447 15.4444C17.0757 15.497 17.2592 15.6722 17.322 15.9012C17.5286 16.6596 17.8315 17.3878 18.2216 18.068C18.3396 18.2733 18.3345 18.5286 18.2075 18.7288L16.76 21.0233L18.7586 23.0219L21.0556 21.5744C21.2564 21.448 21.5105 21.4416 21.7171 21.5609C22.3966 21.9504 23.1242 22.2532 23.8813 22.4598C24.1097 22.5227 24.2849 22.7062 24.3375 22.9372L24.9361 25.582Z" fill="black"/>
<path d="M9.37469 34.0185C7.72381 34.0185 6.21986 32.9823 5.63277 31.4392C5.25101 30.4409 5.28181 29.3527 5.71875 28.3761C6.15569 27.3996 6.94681 26.6515 7.94645 26.2691C8.40521 26.0946 8.88514 26.0054 9.37341 26.0054C11.0236 26.0054 12.5282 27.0409 13.1172 28.5828C13.9032 30.6475 12.8651 32.9669 10.8042 33.7548C10.3448 33.93 9.8636 34.0185 9.37469 34.0185ZM9.37341 27.2886C9.04233 27.2886 8.71703 27.3489 8.40456 27.4683C7.72509 27.7275 7.18742 28.2356 6.89035 28.8997C6.59328 29.5638 6.57274 30.3036 6.83196 30.9818C7.23104 32.0308 8.25314 32.7347 9.37469 32.7347C9.70641 32.7347 10.033 32.6737 10.3461 32.5544C11.7474 32.0193 12.4525 30.4422 11.9187 29.0389C11.5183 27.9931 10.4956 27.2886 9.37341 27.2886Z" fill="black"/>
<path d="M11.397 39.387C11.0929 39.387 10.8106 39.2259 10.6213 38.9455L9.72563 37.5994C9.34707 37.6148 8.97109 37.6058 8.59831 37.5667L7.6301 38.857C7.36576 39.2163 6.90828 39.3542 6.52845 39.1868L4.43356 38.2487C4.04603 38.0774 3.84648 37.6565 3.94272 37.201L4.25904 35.6264C3.9793 35.3724 3.72073 35.0984 3.48333 34.8071L1.88891 35.0349C1.45645 35.0978 1.02144 34.8764 0.873866 34.4786L0.057086 32.3433C-0.0930526 31.9423 0.0590109 31.5188 0.442057 31.2602L1.78817 30.3626C1.77085 29.9873 1.78111 29.6106 1.81961 29.2372L0.5306 28.2697C0.159745 27.9861 0.0320629 27.5562 0.198884 27.1693L1.1395 25.0705C1.30632 24.6939 1.73363 24.4886 2.17828 24.5759L3.76179 24.8941C4.01587 24.615 4.28984 24.3558 4.58049 24.1197L4.35272 22.524C4.28663 22.0652 4.5112 21.6571 4.90964 21.5089L7.04495 20.6941C7.4466 20.5426 7.8829 20.7056 8.13249 21.0861L9.0237 22.4232C9.3984 22.4072 9.77375 22.4181 10.1504 22.4566L11.1186 21.1657C11.3823 20.8044 11.8455 20.6671 12.2279 20.8416L14.3158 21.7746C14.7059 21.9523 14.899 22.3591 14.8111 22.814L14.4929 24.3968C14.7713 24.6509 15.0305 24.9249 15.2679 25.2162L16.8636 24.9891C17.3083 24.9236 17.7183 25.1424 17.8723 25.5299L18.6922 27.6819C18.8437 28.0785 18.6858 28.5154 18.2989 28.7682L16.9618 29.66C16.9798 30.0335 16.9689 30.4101 16.9304 30.7861L18.2207 31.7543C18.5909 32.034 18.7205 32.4793 18.5447 32.8643L17.6111 34.9527C17.436 35.3371 17.0228 35.5328 16.5723 35.4468L14.9863 35.1279C14.7322 35.407 14.4588 35.6656 14.1669 35.9036L14.3953 37.4987C14.4608 37.9568 14.2375 38.3649 13.8403 38.5131L11.7031 39.3286C11.6101 39.3664 11.5042 39.387 11.397 39.387ZM10.0529 36.2918C10.2665 36.2918 10.4673 36.3983 10.5873 36.578L11.5446 38.0165L13.0903 37.4268L12.8452 35.7156C12.8118 35.4814 12.91 35.2479 13.1005 35.1074C13.5272 34.7949 13.9148 34.4279 14.251 34.0186C14.4011 33.8357 14.6391 33.7504 14.8727 33.7966L16.5704 34.1373L17.246 32.6269L15.8614 31.5881C15.6721 31.4457 15.5759 31.2108 15.6125 30.9766C15.694 30.4499 15.7094 29.9186 15.6567 29.3976C15.633 29.1615 15.7414 28.9312 15.9391 28.7996L17.3788 27.8398L16.7905 26.2948L15.0793 26.5392C14.8425 26.5739 14.6116 26.4738 14.4717 26.2838C14.1586 25.8572 13.7916 25.4696 13.3822 25.1328C13.1993 24.982 13.114 24.7433 13.1609 24.5104L13.5016 22.8165L11.9912 22.1409L10.953 23.5243C10.8112 23.7142 10.5777 23.8104 10.3422 23.7738C9.81481 23.693 9.28676 23.677 8.75871 23.7276C8.51682 23.7507 8.29418 23.6423 8.16265 23.4453L7.20407 22.0068L5.65905 22.5965L5.90415 24.3096C5.93816 24.5444 5.83871 24.7793 5.64686 24.9191C5.22275 25.2277 4.83586 25.5935 4.49773 26.0041C4.34694 26.1863 4.10698 26.271 3.876 26.2261L2.18084 25.886L1.50393 27.3958L2.88726 28.4346C3.07654 28.577 3.17278 28.8118 3.13621 29.046C3.05537 29.5676 3.04061 30.0996 3.09194 30.627C3.11504 30.8624 3.0066 31.0915 2.80963 31.223L1.36919 32.1835L1.96077 33.7298L3.67132 33.4834C3.90744 33.4475 4.14034 33.5495 4.28086 33.7407C4.59076 34.1655 4.95648 34.5524 5.36776 34.8892C5.55126 35.0394 5.6366 35.2787 5.5904 35.5122L5.2497 37.208L6.7575 37.8837L7.79628 36.499C7.93872 36.3085 8.17099 36.2142 8.40903 36.2495C8.92681 36.3309 9.45936 36.3463 9.99062 36.295C10.0118 36.2931 10.0323 36.2918 10.0529 36.2918Z" fill="black"/>
</svg>
