<svg width="40" height="40" viewBox="0 0 40 40" fill="none" xmlns="http://www.w3.org/2000/svg">
<path d="M33.0821 23.9141L31.6223 24.757C30.4225 22.7466 27.819 22.06 25.7814 23.2343L20.1819 26.4666C19.9286 26.3153 19.6602 26.1862 19.3611 26.1063L12.3459 24.2268C9.4943 23.4621 6.51539 23.8546 3.95949 25.3314L1.01273 27.0325C0.543708 27.3027 0.208895 27.7395 0.0695495 28.2629C-0.0698007 28.7846 0.0015732 29.3318 0.271777 29.7991L5.15737 38.2604C5.42757 38.7294 5.86432 39.0642 6.38603 39.2036C6.56107 39.2512 6.7378 39.2732 6.91452 39.2732C7.2663 39.2732 7.61299 39.1815 7.92397 39.0013L9.90209 37.8593C10.3643 37.5925 10.9081 37.5025 11.4332 37.5993L15.7972 38.4235C18.3939 38.913 21.0856 38.4558 23.3731 37.1337L36.3802 29.6239C37.9555 28.7147 38.496 26.6941 37.5868 25.1203C36.6759 23.5466 34.6553 23.0062 33.0818 23.9137L33.0821 23.9141ZM26.4611 24.412C27.8478 23.6133 29.6169 24.0755 30.4411 25.4384L21.5466 30.5742C21.6043 30.4365 21.6536 30.2921 21.6944 30.1442C21.9527 29.1789 21.742 28.2069 21.2186 27.4405L26.4611 24.412ZM36.603 27.2704C36.4687 27.77 36.1475 28.1881 35.7006 28.4464L22.6918 35.9579C20.6848 37.1169 18.3243 37.5179 16.0473 37.088L11.6833 36.2638C10.8387 36.1058 9.96354 36.2536 9.22087 36.6836L7.24275 37.8256C7.0881 37.9139 6.90966 37.9377 6.73631 37.8919C6.56467 37.846 6.42192 37.7355 6.33185 37.5809L1.44931 29.1196C1.26577 28.8018 1.37453 28.3923 1.69232 28.2087L4.63908 26.5076C6.13286 25.646 7.78978 25.2041 9.47028 25.2041C10.3115 25.2041 11.1595 25.3146 11.9956 25.5389L19.0108 27.4185C20.0423 27.6955 20.6575 28.7593 20.3805 29.7908C20.1035 30.8224 19.0379 31.4376 18.0081 31.1605C18.003 31.1588 17.9996 31.1588 17.9945 31.1571L11.8986 29.524C11.5366 29.4271 11.1628 29.6413 11.0659 30.0049C10.969 30.3669 11.1848 30.7408 11.5468 30.8377L18.0639 32.5847C19.2602 32.9058 20.511 32.7393 21.585 32.1207L31.7151 26.2715L33.7612 25.0904C34.2081 24.8304 34.7316 24.7607 35.2312 24.8967C35.7308 25.0309 36.1489 25.3505 36.4072 25.7991C36.6672 26.2494 36.7352 26.7711 36.6026 27.2708L36.603 27.2704Z" fill="black"/>
<path d="M10.2646 21.499H34.0717C35.0556 21.499 35.8561 20.6986 35.8561 19.7146V12.1557C37.9668 11.1037 39.4248 8.92849 39.4248 6.41522C39.4248 2.87706 36.5477 0 33.0096 0C30.2617 0 27.92 1.73849 27.0072 4.17202L10.2649 4.17032C9.28092 4.17032 8.48047 4.97072 8.48047 5.95472V19.7131C8.47877 20.6971 9.28057 21.499 10.2646 21.499ZM29.0752 11.4707H9.83778V9.73394H27.5286C27.9364 10.4018 28.46 10.9915 29.0752 11.4707ZM34.4963 19.7127C34.4963 19.9472 34.306 20.1376 34.0714 20.1376L10.2643 20.1393C10.0298 20.1393 9.83947 19.9489 9.83947 19.7144L9.83777 12.8302H33.0093C33.5225 12.8302 34.0187 12.7639 34.4963 12.6484L34.4963 19.7127ZM33.0093 1.35761C35.7963 1.35761 38.065 3.6263 38.065 6.4133C38.065 9.20205 35.7963 11.469 33.0093 11.469C30.2206 11.469 27.9536 9.20031 27.9536 6.4133C27.9536 3.6263 30.2223 1.35761 33.0093 1.35761ZM10.2646 5.52963H26.662C26.6212 5.82023 26.594 6.11251 26.594 6.41504C26.594 7.0982 26.7044 7.75586 26.9033 8.37446H9.83764V5.9562C9.83764 5.71998 10.03 5.52963 10.2646 5.52963Z" fill="black"/>
<path d="M12.3985 15.7194H16.3089C16.6844 15.7194 16.9886 15.4152 16.9886 15.0396C16.9886 14.6641 16.6844 14.3599 16.3089 14.3599H12.3985C12.0229 14.3599 11.7188 14.6641 11.7188 15.0396C11.7188 15.4152 12.0212 15.7194 12.3985 15.7194Z" fill="black"/>
<path d="M22.1701 17.249H12.3985C12.0229 17.249 11.7188 17.5532 11.7188 17.9288C11.7188 18.3044 12.0229 18.6085 12.3985 18.6085H22.1701C22.5457 18.6085 22.8499 18.3044 22.8499 17.9288C22.8499 17.5532 22.5457 17.249 22.1701 17.249Z" fill="black"/>
<path d="M31.6267 8.45123C31.7542 8.57868 31.9275 8.65006 32.1077 8.65006C32.2878 8.65006 32.4611 8.57868 32.5886 8.45123L35.7002 5.33963C35.9653 5.07452 35.9653 4.64456 35.7002 4.37779C35.4351 4.11268 35.0051 4.11268 34.7384 4.37779L32.1077 7.01018L31.2818 6.18428C31.0167 5.91917 30.5867 5.91917 30.3199 6.18428C30.0548 6.44939 30.0548 6.87936 30.3199 7.14613L31.6267 8.45123Z" fill="black"/>
</svg>
