<svg width="33" height="39" viewBox="0 0 33 39" fill="none" xmlns="http://www.w3.org/2000/svg">
<path d="M21.0907 5.73844H24.8983C26.0769 5.73844 27.0412 6.70171 27.0412 7.87904V8.37302C27.0412 9.55035 26.0769 10.5136 24.8983 10.5136H21.0907C19.9121 10.5136 18.9478 9.55035 18.9478 8.37302V7.87904C18.9478 6.70171 19.9121 5.73844 21.0907 5.73844ZM24.8983 6.69348H21.0907C20.4313 6.69348 19.8956 7.22863 19.8956 7.88727C19.8956 8.40595 19.8379 8.81761 20.25 9.22103C20.4643 9.43509 20.761 9.57505 21.0907 9.57505H24.8983C25.5577 9.57505 26.0934 9.0399 26.0934 8.38125C26.0934 7.86257 26.1511 7.45092 25.739 7.0475C25.5247 6.82521 25.228 6.69348 24.8983 6.69348ZM25.1044 14.9842C26.7033 14.9842 27.9973 16.2768 27.9973 17.874C27.9973 19.4712 26.6951 20.7638 25.1044 20.7638C23.5055 20.7638 22.2115 19.463 22.2115 17.874C22.2115 16.2768 23.5055 14.9842 25.1044 14.9842ZM26.4808 16.5073C25.261 15.2888 23.1676 16.1533 23.1676 17.8822C23.1676 19.6029 25.261 20.4756 26.4808 19.2571C27.239 18.4915 27.239 17.2647 26.4808 16.5073ZM26.5302 13.0659C26.8681 13.1647 27.1978 13.2964 27.5027 13.4693L28.2857 12.8847C28.3681 12.8271 28.4588 12.7942 28.5494 12.7942V2.64281C28.5494 1.71248 27.783 0.946802 26.8516 0.946802H6.14835C5.21703 0.946802 4.45055 1.71248 4.45055 2.64281V17.9728C4.45055 18.9031 5.21703 19.6688 6.14835 19.6688H20.4148C20.3654 19.5453 20.3324 19.43 20.2912 19.2983L19.3269 19.1583C19.0797 19.1172 18.9066 18.9031 18.9231 18.6561V17.874V17.0589C18.9231 16.8119 19.1126 16.6061 19.3599 16.5896L20.2994 16.4579C20.3983 16.1203 20.5302 15.791 20.7033 15.4864L20.1181 14.7042C19.978 14.5149 19.9945 14.2514 20.1593 14.0868L21.3132 12.9341C21.4945 12.753 21.783 12.7448 21.9643 12.9177L22.7143 13.4775C23.0275 13.3046 23.3489 13.1729 23.6868 13.0741L23.8269 12.1108C23.8599 11.8721 24.0659 11.7074 24.2967 11.7074H25.9286C26.1758 11.7074 26.3819 11.8968 26.4066 12.1438L26.5302 13.0659ZM29.5055 13.5269L30.0659 14.0868C30.2473 14.2679 30.2555 14.556 30.0824 14.7372L29.522 15.4864C29.6868 15.7992 29.8269 16.1203 29.9258 16.4579L30.8901 16.5978C31.1374 16.6308 31.3104 16.8531 31.294 17.1001V17.8822V18.6973C31.294 18.9443 31.1044 19.1501 30.8571 19.1748L29.9176 19.3065C29.8187 19.6441 29.6868 19.9734 29.5137 20.278L30.0989 21.0602C30.239 21.2495 30.2225 21.513 30.0577 21.6776L28.9038 22.8303C28.7225 23.0114 28.4341 23.0196 28.2527 22.8467L27.5027 22.2869C27.1978 22.4516 26.8681 22.5915 26.5302 22.6903L26.3901 23.6536C26.3571 23.9006 26.1346 24.0735 25.8874 24.057H25.1044H24.2885C24.0412 24.057 23.8352 23.8676 23.8187 23.6206L23.6868 22.6821C23.3489 22.5833 23.0192 22.4515 22.7143 22.2787L21.9313 22.8632C21.7418 23.0032 21.478 22.9867 21.3132 22.822L20.1593 21.6694C19.978 21.4883 19.9698 21.2001 20.1429 21.019L20.4396 20.6156H6.14835C4.68956 20.6156 3.50275 19.43 3.50275 17.9728V6.80874H3.04945C1.8956 6.80874 0.956044 7.75554 0.956044 8.90817V24.3946H32.0604V8.89994C32.0604 7.74731 31.1126 6.80051 29.9588 6.80051H29.5055V13.5269ZM26.6621 14.1197C26.456 14.0374 26.2418 13.9633 26.0192 13.9139C25.8214 13.8809 25.6566 13.7245 25.6319 13.5105L25.5082 12.646H24.7005L24.5769 13.5105C24.5522 13.6998 24.4121 13.8645 24.2143 13.9056C23.761 14.0044 23.3242 14.1856 22.9286 14.4326C22.7637 14.5314 22.5494 14.5313 22.3929 14.4079L21.6923 13.8809L21.1236 14.449L21.6346 15.1324C21.7582 15.2806 21.783 15.5111 21.6676 15.684C21.4451 16.038 21.2225 16.532 21.1401 16.9436C21.1071 17.1412 20.9423 17.3059 20.7363 17.3306L19.8709 17.4541V17.8575V18.2609L20.7363 18.3844C20.9258 18.4091 21.0907 18.5491 21.1319 18.7549C21.2308 19.1995 21.4121 19.6441 21.6593 20.031C21.7582 20.1957 21.7582 20.4098 21.6346 20.5662L21.1071 21.266L21.6758 21.8341L22.3599 21.3236C22.5082 21.2001 22.739 21.1754 22.9121 21.2907C23.2665 21.513 23.761 21.7353 24.1731 21.8176C24.3709 21.8505 24.5357 22.007 24.5604 22.221L24.6841 23.0855H25.0879H25.4918L25.6154 22.221C25.6401 22.0317 25.7802 21.867 25.9863 21.8258C26.4396 21.727 26.8764 21.5459 27.2637 21.2907C27.4286 21.1919 27.6429 21.1919 27.7994 21.3154L28.5 21.8423L29.0687 21.2742L28.5577 20.5909C28.4341 20.4345 28.4093 20.2122 28.5247 20.0393C28.7473 19.6852 28.9698 19.1913 29.0522 18.7796C29.0852 18.582 29.2418 18.4174 29.456 18.3927L30.3214 18.2692V17.8657V17.4623L29.456 17.3388C29.2665 17.3141 29.1016 17.1742 29.0604 16.9766C28.9615 16.5238 28.7802 16.0874 28.5247 15.6922C28.4258 15.5275 28.4258 15.3135 28.5494 15.1571L29.0769 14.4573L28.5082 13.8892L27.8242 14.3996C27.6676 14.5231 27.4451 14.5478 27.272 14.4326C27.0907 14.3173 26.8846 14.2103 26.6621 14.1197ZM13.4093 7.26156C13.7637 7.36035 14.0934 7.50032 14.4148 7.67321L15.2225 7.0722C15.4121 6.93224 15.6758 6.95693 15.8407 7.1216L17.0192 8.29892C17.2005 8.48005 17.2088 8.76821 17.0357 8.94934L16.4588 9.72324C16.6319 10.0443 16.772 10.3819 16.8791 10.7277L17.8764 10.8676C18.1236 10.9006 18.2967 11.1229 18.2802 11.3699V12.1767V13.0165C18.2802 13.2635 18.0907 13.4693 17.8434 13.4858L16.8791 13.6257C16.7802 13.9797 16.6401 14.3173 16.4588 14.6301L17.0604 15.437C17.2005 15.6263 17.1841 15.8898 17.0192 16.0545L15.8407 17.2318C15.6593 17.4129 15.3709 17.4212 15.1896 17.2483L14.4148 16.6719C14.0934 16.8448 13.7555 16.9848 13.4093 17.0918L13.2692 18.088C13.2363 18.335 13.0137 18.5079 12.7665 18.4915H11.9588H11.1181C10.8709 18.4915 10.6648 18.3021 10.6401 18.0551L10.5 17.0918C10.1456 16.993 9.80769 16.8531 9.4945 16.6719L8.68681 17.273C8.49725 17.4129 8.23352 17.3965 8.06868 17.2318L6.89011 16.0545C6.70879 15.8733 6.70055 15.5934 6.87363 15.4041L7.45055 14.6301C7.27747 14.3091 7.13736 13.9715 7.03022 13.6257L6.03297 13.4858C5.78571 13.4528 5.61264 13.2305 5.62912 12.9835V12.1767V11.3369C5.62912 11.0899 5.82692 10.8841 6.06593 10.8594L7.03022 10.7194C7.12912 10.3654 7.26923 10.0279 7.45055 9.71501L6.8489 8.90817C6.70879 8.71881 6.73352 8.45535 6.89835 8.29069L8.07692 7.11336C8.25824 6.93224 8.5467 6.93224 8.72802 7.0969L9.50275 7.67321C9.82418 7.50032 10.1621 7.36035 10.5082 7.26156L10.6484 6.26536C10.6813 6.0266 10.8874 5.86194 11.1181 5.86194H12.7912C13.0385 5.86194 13.2445 6.0513 13.2692 6.29829L13.4093 7.26156ZM13.5577 8.31539C13.3434 8.22483 13.1291 8.15896 12.8984 8.10133C12.7005 8.0684 12.5357 7.91197 12.511 7.69791L12.3791 6.80051H11.5302L11.3984 7.69791C11.3736 7.88727 11.2335 8.05193 11.0357 8.0931C10.5659 8.20013 10.1209 8.38125 9.71703 8.63648C9.56044 8.73528 9.33791 8.73528 9.18132 8.61178L8.45604 8.0684L7.8544 8.66941L8.37362 9.36099C8.51373 9.51742 8.53846 9.74794 8.42308 9.92907C8.19231 10.2913 7.96978 10.8018 7.88736 11.2217C7.85439 11.4193 7.6978 11.5839 7.48352 11.6086L6.58516 11.7403V12.1602V12.5801L7.48352 12.7118C7.67308 12.7365 7.83791 12.8765 7.87912 13.0823C7.97802 13.5434 8.16758 13.9962 8.42308 14.3914C8.52198 14.556 8.52198 14.7701 8.39835 14.9265L7.8544 15.651L8.45604 16.2521L9.16483 15.7251C9.32143 15.6016 9.54395 15.5769 9.71703 15.6922C10.0797 15.9227 10.5907 16.145 11.011 16.2274C11.2088 16.2603 11.3736 16.4167 11.3984 16.6225L11.5302 17.52H11.9588H12.3791L12.511 16.6225C12.5357 16.4332 12.6758 16.2685 12.8736 16.2274C13.3434 16.1203 13.7885 15.9392 14.1923 15.684C14.3571 15.5852 14.5714 15.5852 14.728 15.7087L15.4533 16.2521L16.0549 15.651L15.5275 14.943C15.3956 14.7866 15.3791 14.5643 15.4863 14.3914C15.717 14.0291 15.9396 13.5187 16.022 13.0988C16.0549 12.9012 16.2198 12.7365 16.4258 12.7118L17.3242 12.5801V12.1602V11.7403L16.4258 11.6086C16.2363 11.5839 16.0714 11.4357 16.0302 11.2381C15.9231 10.7771 15.7335 10.3243 15.4863 9.92907C15.3874 9.76441 15.3874 9.55035 15.511 9.39392L16.0549 8.66941L15.4533 8.0684L14.7445 8.60355C14.5879 8.72704 14.3654 8.75174 14.1923 8.63648C13.9945 8.51298 13.7885 8.40595 13.5577 8.31539ZM11.9588 9.22103C13.5907 9.22103 14.9093 10.5383 14.9093 12.1767C14.9093 13.8068 13.5907 15.1241 11.9588 15.1241C10.3269 15.1241 9 13.8068 9 12.1767C9.00824 10.5465 10.3269 9.22103 11.9588 9.22103ZM13.3764 10.7606C12.1154 9.50918 9.95604 10.3984 9.95604 12.1767C9.95604 13.955 12.1154 14.8442 13.3764 13.5928C14.1593 12.8106 14.1593 11.5427 13.3764 10.7606ZM24.4863 3.62255C23.8599 3.62255 23.8599 2.67574 24.4863 2.67574H25.6648C26.2912 2.67574 26.2912 3.62255 25.6648 3.62255H24.4863ZM21.4945 3.62255C20.8681 3.62255 20.8681 2.67574 21.4945 2.67574H22.6731C23.2994 2.67574 23.2994 3.62255 22.6731 3.62255H21.4945ZM16.5 25.8024C18.1648 25.8024 19.0137 27.8277 17.8269 29.0051C16.6484 30.1824 14.6209 29.3426 14.6209 27.6795C14.6209 26.6422 15.4615 25.8024 16.5 25.8024ZM17.1593 27.0209C16.5742 26.4364 15.5769 26.8562 15.5769 27.6795C15.5769 28.5028 16.5742 28.9145 17.1593 28.3382C17.5137 27.9677 17.5137 27.3832 17.1593 27.0209ZM7.09615 2.17353H14.967C15.7005 2.17353 16.294 2.76631 16.294 3.49905C16.294 3.9601 16.2775 4.31412 15.9066 4.68461C15.6676 4.92337 15.3379 5.07156 14.967 5.07156H7.09615C6.36264 5.07156 5.76923 4.47878 5.76923 3.74604C5.76923 3.28499 5.78571 2.93097 6.15659 2.56048C6.40385 2.32172 6.73352 2.17353 7.09615 2.17353ZM14.9753 3.12856H7.10439C6.89835 3.12856 6.72527 3.30146 6.72527 3.50728C6.72527 3.71311 6.69231 3.886 6.83242 4.02597C6.89835 4.10006 6.99725 4.133 7.09615 4.133H14.967C15.1731 4.133 15.3462 3.9601 15.3462 3.75428C15.3462 3.54845 15.3791 3.37555 15.239 3.23559C15.1648 3.16973 15.0742 3.12856 14.9753 3.12856ZM18.4945 3.62255C17.8681 3.62255 17.8681 2.67574 18.4945 2.67574H19.6731C20.2994 2.67574 20.2994 3.62255 19.6731 3.62255H18.4945ZM3.50275 5.85371V2.64281C3.50275 1.18556 4.68956 0 6.14835 0H26.8516C28.3104 0 29.4973 1.18556 29.4973 2.64281V5.85371H29.9506C31.6319 5.85371 33 7.22039 33 8.89994V27.9759C33 29.6555 31.6319 31.0222 29.9506 31.0222H21.8819L24 33.7885H25.8956C28.1951 33.7885 29.3901 36.5877 27.7418 38.2343C27.272 38.7036 26.6126 39 25.8956 39H7.72253C5.43132 39 4.23626 36.2008 5.88461 34.5541C6.35439 34.0849 7.01374 33.7885 7.72253 33.7885H9.61813L11.728 31.0222H3.04945C1.36813 31.0222 0 29.6555 0 27.9759V8.89994C0 7.22039 1.36813 5.85371 3.04945 5.85371H3.50275ZM22.8049 33.7885L20.6951 31.0222H12.9313L10.8132 33.7885H22.8049ZM25.8956 34.7353H7.72253C6.27198 34.7353 5.50549 36.5054 6.5522 37.5592C6.85714 37.8556 7.26923 38.045 7.72253 38.045H25.8956C27.3462 38.045 28.1209 36.2749 27.0659 35.221C26.7692 34.9246 26.3571 34.7353 25.8956 34.7353ZM32.0522 25.3414H0.947802V27.9759C0.947802 29.1286 1.8956 30.0754 3.04121 30.0754H29.9423C31.0962 30.0754 32.044 29.1286 32.044 27.9759V25.3414H32.0522Z" fill="black"/>
</svg>
