<svg width="43" height="44" viewBox="0 0 43 44" fill="none" xmlns="http://www.w3.org/2000/svg">
<path d="M8.43875 16.4264H5.80939V14.8987C5.80939 14.5725 5.61886 14.2814 5.32353 14.1552C5.0282 14.029 4.69094 14.095 4.46233 14.3241L0.289612 18.5055C0.100983 18.6957 0 18.9384 0 19.2083C0 19.4781 0.100983 19.7227 0.289612 19.911L4.46233 24.0924C4.69097 24.3215 5.02823 24.3875 5.32353 24.2613C5.61886 24.1351 5.80939 23.844 5.80939 23.5178V21.9901H8.43875C9.35332 21.9901 10.2164 22.355 10.8681 23.0209C11.5197 23.6848 11.8798 24.5642 11.8798 25.496V42.8333C11.8798 43.4758 12.3924 43.9981 13.023 43.9981H16.1973C16.828 43.9981 17.3406 43.4758 17.3406 42.8333V25.498C17.3406 23.0792 16.4127 20.804 14.7302 19.0882C13.0459 17.3722 10.8107 16.4264 8.43875 16.4264ZM16.2869 42.8352C16.2869 42.8857 16.245 42.9284 16.1955 42.9284H13.0212C12.9717 42.9284 12.9297 42.8857 12.9297 42.8352L12.9316 25.4979C12.9316 24.2788 12.4629 23.1296 11.6113 22.2638C10.7596 21.396 9.6335 20.9185 8.43695 20.9185H5.28168C4.99016 20.9185 4.75581 21.1592 4.75581 21.4543V22.8811L1.08994 19.2083L4.75581 15.5374V16.9642C4.75581 17.2612 4.99208 17.5 5.28168 17.5H8.43695C10.529 17.5 12.4991 18.3328 13.9834 19.847C15.4676 21.3592 16.287 23.3664 16.287 25.4979L16.2869 42.8352ZM26.4594 5.4238C26.5832 5.12291 26.5184 4.7793 26.2936 4.54638L22.1895 0.293125C22.0027 0.100942 21.7646 0 21.4997 0C21.2348 0 20.9967 0.100942 20.81 0.295068L16.7058 4.54638C16.481 4.77933 16.4162 5.12295 16.5401 5.42381C16.6639 5.7247 16.9497 5.91882 17.2698 5.91882H18.7693V42.8352C18.7693 43.4778 19.2819 44 19.9125 44H23.0868C23.7175 44 24.2301 43.4778 24.2301 42.8352V5.91882H25.7296C26.0497 5.91882 26.3355 5.7247 26.4594 5.4238ZM23.7042 4.8453C23.4127 4.8453 23.1784 5.08601 23.1784 5.38106V42.8332C23.1784 42.8837 23.1365 42.9264 23.0869 42.9264H19.9126C19.8631 42.9264 19.8212 42.8837 19.8212 42.8332V5.38106C19.8212 5.08405 19.5849 4.8453 19.2953 4.8453H17.8949L21.4998 1.11037L25.1047 4.8453H23.7042ZM42.7101 18.5056L38.5374 14.3242C38.3088 14.0951 37.9715 14.0291 37.6762 14.1553C37.3809 14.2815 37.1904 14.5727 37.1904 14.8988V16.4265H34.561C32.1869 16.4265 29.9539 17.3719 28.2698 19.0861C26.5854 20.8021 25.6594 23.0772 25.6594 25.4958V42.8331C25.6594 43.4757 26.172 43.9979 26.8027 43.9979H29.977C30.6076 43.9979 31.1202 43.4757 31.1202 42.8331V25.4978C31.1202 24.566 31.4784 23.6866 32.1319 23.0227C32.7835 22.3588 33.6467 21.9919 34.5612 21.9919H37.1906V23.5197C37.1906 23.8458 37.3811 24.137 37.6765 24.2632C37.9718 24.3893 38.3091 24.3233 38.5377 24.0943L42.7104 19.9128C42.899 19.7226 43 19.4799 43 19.2101C43 18.9383 42.8988 18.6959 42.7101 18.5056ZM38.244 22.8812V21.4544C38.244 21.1574 38.0078 20.9186 37.7182 20.9186H34.5629C33.3664 20.9186 32.2384 21.3962 31.3886 22.2639C30.5369 23.1316 30.0682 24.2789 30.0682 25.498V42.8353C30.0682 42.8858 30.0263 42.9285 29.9768 42.9285H26.8025C26.7529 42.9285 26.711 42.8858 26.711 42.8353L26.7129 25.498C26.7129 23.3665 27.5303 21.3593 29.0165 19.8471C30.5008 18.3348 32.4709 17.5001 34.5629 17.5001H37.7182C38.0097 17.5001 38.244 17.2594 38.244 16.9643V15.5375L41.9099 19.2103L38.244 22.8812Z" fill="black"/>
</svg>
