<svg width="51" height="44" viewBox="0 0 51 44" fill="none" xmlns="http://www.w3.org/2000/svg">
<path d="M50.1516 38.9871L43.6264 32.417C43.4092 32.1984 43.0605 32.1984 42.8454 32.417L42.5286 32.736L41.6479 31.8493C43.5387 28.7117 43.1502 24.5648 40.4624 21.8568C39.8468 21.2369 39.1534 20.7394 38.4162 20.3602V4.77854C38.4162 4.47161 38.1672 4.22086 37.8624 4.22086H35.3001V0.557683C35.3001 0.250744 35.0511 0 34.7463 0H18.0796C18.0079 0 17.9401 0.016049 17.8744 0.0441345C17.8624 0.0441345 17.8584 0.0561715 17.8525 0.0561715C17.8146 0.0722205 17.7748 0.0902755 17.7409 0.118359L7.14697 8.50184C7.01348 8.60817 6.93578 8.77067 6.93578 8.94319V13.3245C3.06652 13.6154 0 16.8693 0 20.8375C0 24.8057 3.06632 28.0655 6.93578 28.3505V37.9958C6.93578 38.3028 7.18483 38.5535 7.48965 38.5535H10.0519V42.2147C10.0519 42.5216 10.3009 42.7724 10.6058 42.7724H37.85C38.1549 42.7724 38.4039 42.5216 38.4039 42.2147V34.8681C38.5812 34.7778 38.7526 34.6735 38.9259 34.5732L39.8066 35.4599L39.4898 35.7789C39.2726 35.9976 39.2726 36.3487 39.4898 36.5653L46.0149 43.1354C46.5688 43.693 47.302 44 48.0831 44C48.8641 44 49.5973 43.6931 50.1452 43.1394C50.6931 42.5877 51 41.8434 51 41.063C51 40.2766 50.6952 39.5383 50.1452 38.9806L50.1516 38.9871ZM39.6694 32.5958C36.9477 35.3361 32.5127 35.3361 29.789 32.5958C27.0674 29.8554 27.0674 25.3899 29.789 22.6474C31.1538 21.2732 32.939 20.5872 34.7282 20.5872C36.5194 20.5872 38.3046 21.2732 39.6674 22.6474C42.389 25.3878 42.389 29.8533 39.6674 32.5958H39.6694ZM37.3004 5.33659V19.9009C36.6469 19.6822 35.9754 19.5498 35.294 19.4996V5.33646L37.3004 5.33659ZM17.5198 1.70351V8.43587H9.02631L17.5198 1.70351ZM1.1102 20.838C1.1102 17.2932 3.97132 14.4123 7.49205 14.4123C11.0128 14.4123 13.8739 17.2991 13.8739 20.838C13.8739 24.3768 11.0068 27.2638 7.49205 27.2638C3.97729 27.2638 1.1102 24.377 1.1102 20.838ZM8.04597 28.3531C11.9212 28.0682 14.9874 24.8083 14.9874 20.8401C14.9874 16.8719 11.921 13.6121 8.04597 13.3271V9.55355H18.0758C18.3806 9.55355 18.6296 9.30279 18.6296 8.99587V1.11568H34.1803V19.4978C32.2955 19.6262 30.4445 20.4086 29.0022 21.853C25.8482 25.0287 25.8482 30.2046 29.0022 33.38C30.4427 34.8304 32.2897 35.6068 34.1803 35.7352V37.4384L8.04592 37.4404L8.04597 28.3531ZM37.3004 41.6617H11.1599V38.5582H34.7343C35.0391 38.5582 35.2882 38.3074 35.2882 38.0005V35.7396C35.9695 35.6955 36.641 35.555 37.2945 35.3384V41.6635L37.3004 41.6617ZM39.8507 33.9299C40.0559 33.7574 40.2611 33.5788 40.4544 33.3822C40.6476 33.1876 40.8309 32.985 40.9983 32.7744L41.7415 33.5226L40.5938 34.6782L39.8507 33.9299ZM49.3643 42.3576C49.0196 42.7046 48.5653 42.8932 48.0832 42.8932C47.601 42.8932 47.1468 42.7026 46.8021 42.3576L40.6655 36.1788L43.2278 33.599L49.3643 39.7777C49.709 40.1248 49.8963 40.5822 49.8963 41.0676C49.8963 41.5531 49.707 42.0105 49.3643 42.3576ZM28.735 27.2535C28.5576 27.4662 28.5576 27.7731 28.735 27.9798C28.8465 28.1081 31.4347 31.0893 34.7282 31.0893C38.0216 31.0893 40.6096 28.1021 40.7213 27.9798C40.8987 27.7671 40.8987 27.4602 40.7213 27.2535C40.6098 27.1251 38.0216 24.144 34.7282 24.144C31.4347 24.144 28.8467 27.1311 28.735 27.2535ZM34.7282 29.9778C32.5763 29.9778 30.6816 28.3589 29.9264 27.6166C30.6796 26.8744 32.5763 25.2554 34.7282 25.2554C36.88 25.2554 38.7748 26.8743 39.5299 27.6166C38.7767 28.3589 36.88 29.9778 34.7282 29.9778ZM32.7059 27.6166C32.7059 28.744 33.6144 29.6549 34.7302 29.6549C35.844 29.6549 36.7545 28.7401 36.7545 27.6166C36.7545 26.4952 35.846 25.5784 34.7302 25.5784C33.6164 25.5784 32.7059 26.4931 32.7059 27.6166ZM35.6487 27.6166C35.6487 28.1242 35.2382 28.5374 34.7341 28.5374C34.23 28.5374 33.8196 28.1242 33.8196 27.6166C33.8196 27.109 34.23 26.6958 34.7341 26.6958C35.2382 26.6958 35.6487 27.109 35.6487 27.6166ZM12.3813 18.2039L6.46005 24.2502C6.35445 24.3565 6.21698 24.4167 6.06555 24.4167C5.9221 24.4167 5.77665 24.3605 5.67703 24.2542L2.61071 21.1888C2.39354 20.9701 2.39354 20.619 2.61071 20.4024C2.82788 20.1838 3.17657 20.1797 3.39171 20.4024L6.06355 23.0766L11.5967 17.4273C11.8138 17.2087 12.1625 17.2046 12.3777 17.4273C12.5948 17.646 12.5988 17.9971 12.3777 18.2137L12.3813 18.2039ZM21.389 13.3591C21.389 13.0522 21.638 12.8015 21.9428 12.8015H32.1282C32.433 12.8015 32.6821 13.0522 32.6821 13.3591C32.6821 13.6661 32.433 13.9168 32.1282 13.9168H21.9428C21.638 13.9168 21.389 13.6661 21.389 13.3591ZM32.1282 17.249H17.1713C16.8664 17.249 16.6174 16.9982 16.6174 16.6913C16.6174 16.3844 16.8665 16.1336 17.1713 16.1336H32.1282C32.4331 16.1336 32.6821 16.3844 32.6821 16.6913C32.6821 16.9982 32.4331 17.249 32.1282 17.249Z" fill="black"/>
</svg>
