<svg width="38" height="38" viewBox="0 0 38 38" fill="none" xmlns="http://www.w3.org/2000/svg">
<path d="M7.58499 0C7.28223 0 7.04839 0.232593 7.04839 0.534102V20.8398H0.534137C0.232608 20.8398 0 21.0724 0 21.3764V37.4659C0 37.7686 0.230146 38 0.534137 38H16.6247C16.9275 38 17.1588 37.7699 17.1588 37.4659V30.9496H37.4659C37.7686 30.9496 38 30.7195 38 30.4155V0.534102C38 0.231362 37.7699 0 37.4659 0H7.58499ZM8.11789 1.06697H36.9317V29.8789H17.1588V21.3727C17.1588 21.07 16.9287 20.8386 16.6247 20.8386H8.11789V1.6823V1.06697ZM26.7327 5.59207C26.4311 5.59207 26.1985 5.82466 26.1985 6.12863C26.1985 6.43261 26.4287 6.66274 26.7327 6.66274H30.5455L19.8295 17.3755C19.6154 17.5897 19.6154 17.9158 19.8295 18.1299C19.9354 18.2358 20.0695 18.285 20.2024 18.2862H20.2073C20.3464 18.2862 20.4769 18.2358 20.5827 18.1299H20.5852L31.2458 7.47004V11.1669C31.2458 11.4697 31.4759 11.701 31.7799 11.701C32.0839 11.701 32.314 11.4709 32.314 11.1669V6.12863C32.314 5.8259 32.0814 5.59207 31.7799 5.59207H26.7327ZM1.06827 21.9056H7.04839V30.4118C7.04839 30.7133 7.28346 30.9484 7.58499 30.9484H16.0918V36.9281H1.06827V22.5209V21.9056ZM8.11543 21.9056H16.0906V29.8789H8.11543V22.5209V21.9056Z" fill="black"/>
</svg>
