<svg width="38" height="42" viewBox="0 0 38 42" fill="none" xmlns="http://www.w3.org/2000/svg">
<path d="M5.8296 24.8609C5.70231 24.72 5.71354 24.5021 5.85394 24.3743C5.99434 24.2466 6.21149 24.2578 6.33878 24.3987L7.36463 25.541L10.2531 22.9878C10.3954 22.862 10.6125 22.8751 10.738 23.0179C10.8634 23.1607 10.8503 23.3786 10.708 23.5045L7.5649 26.283C7.49938 26.3413 7.41888 26.3694 7.33839 26.3694C7.24479 26.3694 7.15119 26.3319 7.08379 26.2549L5.8296 24.8609ZM13.0105 23.884H17.5838C17.7729 23.884 17.9264 23.7299 17.9264 23.5402C17.9264 23.3505 17.7729 23.1964 17.5838 23.1964H13.0105C12.8214 23.1964 12.6679 23.3505 12.6679 23.5402C12.6679 23.7299 12.8214 23.884 13.0105 23.884ZM13.0105 26.0745H14.3096C14.4987 26.0745 14.6522 25.9205 14.6522 25.7308C14.6522 25.541 14.4987 25.387 14.3096 25.387H13.0105C12.8214 25.387 12.6679 25.541 12.6679 25.7308C12.6679 25.9205 12.8214 26.0745 13.0105 26.0745ZM21.9568 23.1964H19.3079C19.1189 23.1964 18.9654 23.3504 18.9654 23.5402C18.9654 23.7299 19.1189 23.884 19.3079 23.884H21.9568C22.1459 23.884 22.2994 23.7299 22.2994 23.5402C22.2994 23.3504 22.1459 23.1964 21.9568 23.1964ZM20.1054 25.7307C20.1054 25.541 19.9519 25.3869 19.7628 25.3869H16.0338C15.8447 25.3869 15.6912 25.541 15.6912 25.7307C15.6912 25.9205 15.8447 26.0745 16.0338 26.0745H19.7628C19.9519 26.0745 20.1054 25.9205 20.1054 25.7307ZM7.0817 20.198C7.14909 20.2731 7.24269 20.3126 7.33629 20.3126C7.41679 20.3126 7.49729 20.2844 7.56281 20.2261L10.7059 17.4476C10.8482 17.3217 10.8613 17.1038 10.7359 16.961C10.6104 16.8182 10.3933 16.8051 10.251 16.9309L7.36253 19.4841L6.33668 18.3418C6.20939 18.2009 5.99224 18.1897 5.85184 18.3174C5.71145 18.4452 5.70021 18.6631 5.82751 18.804L7.0817 20.198ZM21.9567 17.1376H19.626C19.4369 17.1376 19.2834 17.2916 19.2834 17.4814C19.2834 17.6711 19.4369 17.8252 19.626 17.8252H21.9567C22.1457 17.8252 22.2992 17.6711 22.2992 17.4814C22.2992 17.2916 22.1457 17.1376 21.9567 17.1376ZM13.0103 17.827H17.8851C18.0742 17.827 18.2277 17.673 18.2277 17.4832C18.2277 17.2935 18.0742 17.1395 17.8851 17.1395L13.0103 17.1376C12.8212 17.1376 12.6677 17.2916 12.6677 17.4814C12.6677 17.673 12.8212 17.827 13.0103 17.827ZM13.0103 20.0176H14.5117C14.7007 20.0176 14.8542 19.8635 14.8542 19.6738C14.8542 19.4841 14.7007 19.33 14.5117 19.33H13.0103C12.8212 19.33 12.6677 19.4841 12.6677 19.6738C12.6677 19.8635 12.8212 20.0176 13.0103 20.0176ZM20.1054 19.6719C20.1054 19.4822 19.9519 19.3281 19.7628 19.3281H16.2322C16.0431 19.3281 15.8896 19.4822 15.8896 19.6719C15.8896 19.8617 16.0431 20.0157 16.2322 20.0157H19.7628C19.9519 20.0176 20.1054 19.8635 20.1054 19.6719ZM7.0817 14.1411C7.14909 14.2162 7.24269 14.2557 7.33629 14.2557C7.41679 14.2557 7.49729 14.2275 7.56281 14.1693L10.7059 11.3907C10.8482 11.2648 10.8613 11.0469 10.7359 10.9041C10.6104 10.7614 10.3933 10.7482 10.251 10.8741L7.36253 13.4291L6.33668 12.2868C6.20939 12.1459 5.99224 12.1347 5.85184 12.2624C5.71145 12.3902 5.70021 12.6081 5.82751 12.749L7.0817 14.1411ZM15.6667 13.615C15.6667 13.8048 15.8202 13.9588 16.0093 13.9588H19.7626C19.9517 13.9588 20.1052 13.8048 20.1052 13.615C20.1052 13.4253 19.9517 13.2712 19.7626 13.2712H16.0093C15.8202 13.2712 15.6667 13.4253 15.6667 13.615ZM19.1449 11.7702H21.9567C22.1457 11.7702 22.2992 11.6161 22.2992 11.4264C22.2992 11.2366 22.1457 11.0826 21.9567 11.0826H19.1449C18.9558 11.0826 18.8023 11.2366 18.8023 11.4264C18.8023 11.6161 18.9558 11.7702 19.1449 11.7702ZM13.0102 11.7702H17.4225C17.6116 11.7702 17.7651 11.6161 17.7651 11.4264C17.7651 11.2366 17.6116 11.0826 17.4225 11.0826H13.0102C12.8211 11.0826 12.6676 11.2366 12.6676 11.4264C12.6676 11.6161 12.8211 11.7702 13.0102 11.7702ZM13.0102 13.9588H14.2963C14.4854 13.9588 14.6389 13.8048 14.6389 13.615C14.6389 13.4253 14.4854 13.2713 14.2963 13.2713H13.0102C12.8211 13.2713 12.6676 13.4253 12.6676 13.615C12.6676 13.8048 12.8211 13.9588 13.0102 13.9588ZM7.0816 32.3136C7.14899 32.3887 7.2426 32.4282 7.3362 32.4282C7.41669 32.4282 7.49719 32.4 7.56271 32.3417L10.7058 29.5632C10.8481 29.4373 10.8612 29.2194 10.7358 29.0766C10.6103 28.9338 10.3932 28.9207 10.2509 29.0466L7.36244 31.5997L6.33659 30.4575C6.20929 30.3166 5.99214 30.3053 5.85175 30.433C5.71136 30.5608 5.70011 30.7787 5.82741 30.9196L7.0816 32.3136ZM18.9053 31.4437H15.4664C15.2773 31.4437 15.1238 31.5978 15.1238 31.7875C15.1238 31.9773 15.2773 32.1313 15.4664 32.1313H18.9053C19.0944 32.1313 19.2479 31.9773 19.2479 31.7875C19.2479 31.5978 19.0944 31.4437 18.9053 31.4437ZM20.24 29.2532H18.4803C18.2913 29.2532 18.1378 29.4072 18.1378 29.597C18.1378 29.7867 18.2913 29.9408 18.4803 29.9408H20.24C20.4291 29.9408 20.5826 29.7867 20.5826 29.597C20.5845 29.4072 20.431 29.2532 20.24 29.2532ZM13.0103 32.1313H13.7404C13.9294 32.1313 14.083 31.9773 14.083 31.7875C14.083 31.5978 13.9294 31.4437 13.7404 31.4437H13.0103C12.8212 31.4437 12.6677 31.5978 12.6677 31.7875C12.6677 31.9773 12.8212 32.1313 13.0103 32.1313ZM13.0103 29.9427H16.7637C16.9527 29.9427 17.1063 29.7886 17.1063 29.5989C17.1063 29.4091 16.9527 29.2551 16.7637 29.2551H13.0103C12.8212 29.2551 12.6677 29.4091 12.6677 29.5989C12.6677 29.7886 12.8212 29.9427 13.0103 29.9427ZM38 33.9067C38 38.3704 34.3814 42 29.9354 42C27.4195 42 25.1693 40.8352 23.6886 39.0167L3.51188 39.0185C1.5762 39.0185 0 37.4385 0 35.4941L0.00187247 6.65245C0.00187247 4.70988 1.57625 3.12805 3.51375 3.12805H8.71968C8.832 2.6208 9.28129 2.24129 9.82043 2.24129H11.4678C11.6363 0.97694 12.7183 0 14.0212 0C15.326 0 16.4062 0.978816 16.5746 2.24129H18.222C18.7593 2.24129 19.2104 2.62267 19.3227 3.12805H25.3208C27.2565 3.12805 28.8327 4.70805 28.8327 6.65245V25.8979C29.194 25.8472 29.5609 25.8133 29.9372 25.8133C34.3832 25.8133 38 29.443 38 33.9067ZM25.3209 3.81792H19.3511V5.51435H25.3209C25.9461 5.51435 26.4553 6.02535 26.4553 6.65284V26.6178C26.9889 26.3604 27.5542 26.1575 28.1457 26.0222V6.65317C28.1457 5.09011 26.8784 3.81792 25.3209 3.81792ZM3.51188 6.20195C3.26477 6.20195 3.0626 6.40485 3.0626 6.65284V35.4964C3.0626 35.7444 3.26477 35.9473 3.51188 35.9473H22.1383C21.9679 35.2954 21.8687 34.6135 21.8687 33.9089C21.8687 30.9763 23.4356 28.4118 25.7681 26.9915V6.65486C25.7681 6.40687 25.5659 6.20397 25.3188 6.20397L19.3433 6.20209C19.3077 6.79577 18.821 7.26729 18.2219 7.26729H9.81856C9.21952 7.26729 8.73281 6.79386 8.69725 6.20209L3.51188 6.20195ZM9.37675 6.1362C9.37675 6.38043 9.57518 6.57957 9.81855 6.57957H18.2219C18.4653 6.57957 18.6637 6.38043 18.6637 6.1362V3.37453C18.6637 3.1303 18.4653 2.93116 18.2219 2.93116H16.2544C16.0654 2.93116 15.9119 2.77711 15.9119 2.58736C15.9119 1.54092 15.0638 0.689896 14.0211 0.689896C12.9784 0.689896 12.1304 1.54092 12.1304 2.58736C12.1304 2.77711 11.9769 2.93116 11.7878 2.93116H9.82033C9.57697 2.93116 9.37854 3.1303 9.37854 3.37453L9.37675 6.1362ZM23.1883 38.3296C22.8457 37.8035 22.5649 37.2343 22.3496 36.6331L3.5114 36.635C2.88614 36.635 2.37696 36.124 2.37696 35.4965V6.65293C2.37696 6.02544 2.88614 5.51444 3.5114 5.51444H8.68953V3.81801H3.5114C1.95389 3.81801 0.686552 5.08986 0.686552 6.65293V35.4965C0.686552 37.0596 1.95389 38.3315 3.5114 38.3315L23.1883 38.3296ZM37.3147 33.9072C37.3147 29.8229 34.005 26.5016 29.9354 26.5016C25.8657 26.5016 22.5562 29.8231 22.5562 33.9072C22.5562 37.9914 25.8659 41.3127 29.9354 41.3127C34.0052 41.3127 37.3147 37.9912 37.3147 33.9072ZM34.4674 30.3452C35.0196 30.8994 35.0196 31.7993 34.4674 32.3535L29.3698 37.4693C29.0946 37.7455 28.7314 37.8845 28.3701 37.8845C28.0069 37.8845 27.6457 37.7455 27.3705 37.4693L24.8452 34.935C24.2929 34.3808 24.2929 33.4809 24.8452 32.9267C25.3974 32.3725 26.2941 32.3725 26.8463 32.9267L28.3702 34.4559L32.468 30.3435C33.0184 29.7911 33.9151 29.791 34.4674 30.3452ZM33.9825 30.8318C33.698 30.5462 33.2356 30.5462 32.9511 30.8318L28.6117 35.1866C28.4788 35.3218 28.2598 35.3218 28.1269 35.1866L26.3597 33.4131C26.2175 33.2703 26.0303 33.1989 25.8449 33.1989C25.6577 33.1989 25.4724 33.2703 25.3301 33.4131C25.1916 33.5521 25.1167 33.7343 25.1167 33.9297C25.1167 34.1251 25.1935 34.3092 25.3301 34.4463L27.8555 36.9807C28.14 37.2662 28.6024 37.2662 28.8869 36.9807L33.9845 31.8649C34.2672 31.5812 34.2671 31.1173 33.9825 30.8318Z" fill="black"/>
</svg>
