<svg width="38" height="43" viewBox="0 0 38 43" fill="none" xmlns="http://www.w3.org/2000/svg">
<path d="M4.70801 33.6199V38.2859H0.150391V33.6199H4.70801Z" fill="black" stroke="#F5FBFD" stroke-width="0.3"/>
<path d="M10.7109 0.150391C15.9418 0.150608 20.2012 4.45849 20.2012 9.75781V32.3652C20.2014 36.3234 23.3725 39.5477 27.2773 39.5479C31.1807 39.5479 34.3542 36.3235 34.3545 32.3652V15.8711C34.3547 15.2045 34.8949 14.665 35.5615 14.665C36.2281 14.6651 36.7684 15.2045 36.7686 15.8711V32.3652C36.7683 37.6589 32.5092 41.9617 27.2783 41.9619C22.0473 41.9619 17.7883 37.657 17.7881 32.3652V9.75781C17.7881 5.79398 14.6164 2.56349 10.7109 2.56348C6.80541 2.56348 3.63379 5.79416 3.63379 9.75781V26.915C3.63379 27.5818 3.09353 28.1221 2.42676 28.1221C1.76018 28.1218 1.2207 27.5817 1.2207 26.915V9.75781C1.2207 4.45849 5.47993 0.150391 10.7109 0.150391Z" fill="black" stroke="#F5FBFD" stroke-width="0.3"/>
<path d="M37.8486 3.82617V8.49219H33.291V3.82617H37.8486Z" fill="black" stroke="#F5FBFD" stroke-width="0.3"/>
</svg>
