<svg width="40" height="43" viewBox="0 0 40 43" fill="none" xmlns="http://www.w3.org/2000/svg">
<path d="M34.134 40.0677H3.37905C3.16113 40.0677 2.98438 39.891 2.98438 39.6731V0.394671C2.98438 0.176752 3.16113 0 3.37905 0H34.1339C34.3519 0 34.5284 0.176752 34.5284 0.394671V21.9377C34.5284 22.0076 34.5099 22.0761 34.4747 22.1365L29.6959 30.3286L28.2832 32.7553L27.6358 36.52L30.5494 34.0463L31.966 31.6161L33.7929 28.4862C33.8827 28.3322 34.0647 28.2576 34.2368 28.3041C34.409 28.3507 34.5284 28.5067 34.5284 28.6851V39.6731C34.5285 39.891 34.352 40.0677 34.134 40.0677ZM3.77361 39.2784H33.7393V30.1441L32.6479 32.0139L31.1974 34.5022C31.1748 34.5408 31.1458 34.5753 31.1118 34.6043L27.3183 37.8253C27.1917 37.9326 27.0115 37.9495 26.8672 37.8673C26.723 37.7849 26.6458 37.6211 26.6738 37.4576L27.5174 32.5512C27.5253 32.5048 27.5416 32.4603 27.5653 32.4196L29.0139 29.9311L33.7394 21.8308V0.789342H3.77361V39.2784Z" fill="black"/>
<path d="M31.1494 42.5583H0.394671C0.176752 42.5583 0 42.3818 0 42.1637V2.8832C0 2.66528 0.176752 2.48853 0.394671 2.48853H3.37681C3.59484 2.48853 3.77137 2.66528 3.77137 2.8832V39.2784H31.1494C31.3673 39.2784 31.5442 39.4552 31.5442 39.6732V42.1637C31.5442 42.3818 31.3673 42.5583 31.1494 42.5583ZM0.789342 41.7689H30.7548V40.0677H3.37681C3.15889 40.0677 2.98214 39.8911 2.98214 39.6732V3.27787H0.789342V41.7689Z" fill="black"/>
<path d="M18.4242 8.45536H6.68373C6.46592 8.45536 6.28906 8.27861 6.28906 8.06069C6.28906 7.84277 6.46592 7.66602 6.68373 7.66602H18.4243C18.6422 7.66602 18.819 7.84277 18.819 8.06069C18.819 8.27861 18.6422 8.45536 18.4242 8.45536Z" fill="black"/>
<path d="M18.4242 11.4353H6.68373C6.46592 11.4353 6.28906 11.2585 6.28906 11.0407C6.28906 10.8227 6.46592 10.646 6.68373 10.646H18.4243C18.6422 10.646 18.819 10.8227 18.819 11.0407C18.8189 11.2586 18.6422 11.4353 18.4242 11.4353Z" fill="black"/>
<path d="M31.4481 14.4137H13.3869C13.1689 14.4137 12.9922 14.237 12.9922 14.019C12.9922 13.801 13.1689 13.6243 13.3869 13.6243H31.4481C31.666 13.6243 31.8426 13.801 31.8426 14.019C31.8426 14.237 31.666 14.4137 31.4481 14.4137Z" fill="black"/>
<path d="M31.4437 17.3898H6.68373C6.46592 17.3898 6.28906 17.2132 6.28906 16.9951C6.28906 16.7773 6.46592 16.6006 6.68373 16.6006H31.4437C31.6616 16.6006 31.8382 16.7773 31.8382 16.9951C31.8382 17.2132 31.6616 17.3898 31.4437 17.3898Z" fill="black"/>
<path d="M26.4783 20.3697H11.6525C11.4346 20.3697 11.2578 20.193 11.2578 19.975C11.2578 19.7571 11.4346 19.5803 11.6525 19.5803H26.4785C26.6965 19.5803 26.8732 19.7571 26.8732 19.975C26.8731 20.193 26.6964 20.3697 26.4783 20.3697Z" fill="black"/>
<path d="M31.4437 23.3501H6.68373C6.46592 23.3501 6.28906 23.1734 6.28906 22.9554C6.28906 22.7373 6.46592 22.5608 6.68373 22.5608H31.4437C31.6616 22.5608 31.8382 22.7373 31.8382 22.9554C31.8382 23.1734 31.6616 23.3501 31.4437 23.3501Z" fill="black"/>
<path d="M32.3071 32.2098C32.2407 32.2098 32.1733 32.193 32.1118 32.1578L29.1599 30.4724C29.0683 30.4201 29.0017 30.3336 28.9744 30.2317C28.9471 30.13 28.9617 30.0217 29.0146 29.9306L35.0498 19.5901C35.1589 19.4032 35.398 19.339 35.5861 19.4461L38.54 21.1295C38.6316 21.1816 38.6985 21.2682 38.7258 21.37C38.753 21.4719 38.7386 21.5802 38.6855 21.6714L32.6484 32.014C32.5749 32.1396 32.4428 32.2098 32.3071 32.2098ZM29.8971 29.9845L32.1635 31.2784L37.8027 21.6179L35.5346 20.3254L29.8971 29.9845Z" fill="black"/>
<path d="M38.3404 21.8673C38.2741 21.8673 38.207 21.8505 38.1455 21.8153L35.1915 20.132C35.0998 20.0798 35.0331 19.9931 35.0057 19.8914C34.9783 19.7896 34.9929 19.6811 35.046 19.5901L36.084 17.8136C36.4579 17.1723 37.1565 16.7737 37.9066 16.7737C38.2725 16.7737 38.6334 16.8696 38.95 17.0513C39.4351 17.3291 39.7821 17.7803 39.9263 18.3218C40.0696 18.8593 39.9947 19.4179 39.7156 19.895L38.6817 21.6709C38.6086 21.7968 38.4763 21.8673 38.3404 21.8673ZM35.9288 19.6438L38.1964 20.9359L39.0336 19.4975C39.0338 19.4972 39.034 19.497 39.0341 19.4965C39.2064 19.2026 39.2524 18.8576 39.1636 18.5251C39.074 18.1888 38.8587 17.9086 38.5575 17.7361C38.36 17.6227 38.135 17.5629 37.9066 17.5629C37.4361 17.5629 36.9988 17.8113 36.7658 18.2114L35.9288 19.6438Z" fill="black"/>
<path d="M27.0586 37.9193C26.9917 37.9193 26.9241 37.9022 26.8632 37.8674C26.719 37.785 26.6418 37.6212 26.6697 37.4577L27.5133 32.5513C27.5213 32.5049 27.5376 32.4604 27.5612 32.4197L29.0099 29.9312C29.119 29.7437 29.3585 29.6794 29.5467 29.787L32.4985 31.4724C32.5899 31.5245 32.6568 31.611 32.6839 31.7128C32.7113 31.8144 32.6967 31.9229 32.6438 32.0137L31.1933 34.5023C31.1708 34.5409 31.1418 34.5754 31.1077 34.6044L27.3142 37.8254C27.2412 37.8874 27.1502 37.9193 27.0586 37.9193ZM28.2792 32.7554L27.6319 36.5201L30.5454 34.0464L31.7614 31.9603L29.4953 30.6664L28.2792 32.7554Z" fill="black"/>
</svg>
