<svg width="34" height="39" viewBox="0 0 34 39" fill="none" xmlns="http://www.w3.org/2000/svg">
<path fill-rule="evenodd" clip-rule="evenodd" d="M27.3298 27.9324L27.3043 27.9207L27.2771 27.9123H27.2788C26.9678 27.8104 26.6433 27.7569 26.317 27.7586C25.9466 27.7603 25.5778 27.8221 25.2295 27.9424C24.8352 27.635 24.3424 27.4729 23.8394 27.4879C23.6321 27.4913 23.4265 27.513 23.2226 27.5548V26.9382C23.2226 26.9098 23.2192 26.8831 23.2141 26.8547C23.4163 26.7461 23.542 26.5372 23.5437 26.3117V25.0552C23.542 24.8297 23.4163 24.6208 23.2141 24.5122C23.2192 24.4838 23.2226 24.4571 23.2226 24.4287V23.1739C23.2226 23.0636 23.192 22.955 23.1342 22.8615C23.192 22.7662 23.2226 22.6576 23.2226 22.5473V21.2926C23.2209 20.945 22.9337 20.6643 22.5819 20.6643H16.8061C16.6939 20.6643 16.5818 20.6944 16.4849 20.7512L16.4764 20.7462C16.4815 20.7178 16.4849 20.691 16.4849 20.6626V15.7955C16.5784 15.8022 16.6718 15.8122 16.767 15.8122C17.7934 15.8139 18.7773 15.4145 19.5029 14.7027C20.2285 13.9893 20.6347 13.0219 20.6347 12.0144C20.3322 11.9425 20.0229 11.9058 19.7119 11.9058C17.7118 11.9008 16.0414 13.3995 15.863 15.3577C15.1017 14.1614 13.7677 13.4346 12.3318 13.4346C11.9987 13.4346 11.6657 13.4747 11.3411 13.5515C11.3394 14.6342 11.7778 15.6718 12.5561 16.437C13.3361 17.2023 14.3931 17.6317 15.4942 17.63C15.6115 17.63 15.727 17.6183 15.8443 17.61V18.7829H10.0702C9.71676 18.7829 9.42956 19.0636 9.42956 19.4094V20.6642C9.42956 20.8915 9.55531 21.1003 9.75753 21.2106C9.75243 21.2373 9.75073 21.2657 9.74903 21.2941V22.5489C9.74903 22.6592 9.78132 22.7661 9.8374 22.8613C9.78132 22.9566 9.74903 23.0652 9.74903 23.1755V24.4302C9.74903 24.5405 9.78132 24.6491 9.8374 24.7427C9.78132 24.8379 9.74903 24.9465 9.74903 25.0568V26.3116C9.75073 26.3383 9.75243 26.3667 9.75753 26.3935C9.55531 26.5037 9.42956 26.7109 9.42956 26.9381V27.5931C8.77533 27.7351 8.14828 27.9774 7.57053 28.3115L3.64343 30.8061L3.53977 30.6356L3.4803 30.5387L3.4786 30.5371C3.10984 29.9439 2.32478 29.7535 1.7164 30.1093L0.618659 30.7609C0.328076 30.933 0.119077 31.2104 0.0375103 31.5345C-0.0440567 31.857 0.00862142 32.1995 0.183652 32.4836L3.82868 38.3931C4.19743 38.9862 4.98419 39.1767 5.59088 38.8208L6.68862 38.1692C6.9792 37.9988 7.1882 37.7214 7.26977 37.3973C7.35133 37.0748 7.29865 36.7323 7.12362 36.4466L7.09983 36.4082L6.96049 36.1809L9.63689 34.6905C10.3574 34.8526 12.4883 35.3154 14.1129 35.5377C14.7654 35.6362 15.4264 35.688 16.0858 35.6947C17.5574 35.6947 19.0052 35.3305 20.295 34.6337C22.1914 33.6663 25.4948 31.2269 26.9069 30.1862C27.1737 29.989 27.3708 29.8437 27.4762 29.7685C27.8348 29.5663 28.0455 29.1804 28.02 28.7744C27.9503 28.3951 27.69 28.0778 27.3298 27.9324ZM17.7149 13.209V13.2107C18.2842 12.7696 18.9877 12.5307 19.7116 12.534C19.7914 12.534 19.8713 12.5374 19.9512 12.5424H19.9495C19.6895 14.0695 18.3419 15.1873 16.7666 15.1856C16.6868 15.1856 16.6069 15.1823 16.527 15.1773H16.5287C16.6579 14.397 17.0827 13.6953 17.7149 13.209ZM15.4939 17.0018C13.7589 17.0052 12.2839 15.7621 12.0205 14.0762C12.1241 14.0679 12.2278 14.0629 12.3314 14.0629H12.3331C14.0664 14.0595 15.5431 15.3043 15.8048 16.9902C15.7012 16.9985 15.5975 17.0018 15.4939 17.0018ZM23.2226 28.193C23.3194 28.1696 23.418 28.1512 23.5182 28.1395C23.5471 28.1361 23.5743 28.1328 23.6015 28.1311C23.6678 28.1245 23.7323 28.1194 23.7935 28.1194C23.8088 28.1194 23.8258 28.1161 23.8394 28.1161H23.8632V28.1144C23.955 28.1161 24.0467 28.1228 24.1368 28.1361C24.1538 28.1395 24.1691 28.1428 24.1844 28.1445V28.1462C24.2642 28.1595 24.3424 28.1796 24.4189 28.2063H24.424C24.4648 28.2214 24.4987 28.2397 24.5344 28.2564C24.4987 28.2782 24.4716 28.2949 24.4614 28.3032L23.2242 29.1102L23.2225 28.8195C23.2225 28.7092 23.192 28.6006 23.1342 28.5071C23.1903 28.4118 23.2209 28.3032 23.2226 28.193ZM22.9014 26.3116H20.976V25.0552H22.9014V26.3116ZM20.5648 29.4377C20.4425 29.2573 20.2895 29.0986 20.1111 28.9716C20.0431 28.9165 19.97 28.868 19.8987 28.8212H22.5819V29.5313L21.5827 30.1796C21.3533 30.3283 21.1052 30.4486 20.8452 30.5372C20.8571 30.4804 20.8639 30.4219 20.8656 30.3634C20.8571 30.0342 20.7534 29.7118 20.5648 29.4377ZM14.8808 26.9382H20.6549V28.193H15.8439C15.8388 28.193 15.4123 28.1863 14.8804 28.1412L14.8808 26.9382ZM14.5613 26.3116V25.0552H20.3354V26.31H14.5613V26.3116ZM21.5539 28.193H21.2973L21.299 26.9382H22.582V28.193H21.5539ZM21.2973 24.4286L21.299 23.1738H22.582V24.4286H21.2973ZM16.8061 21.2925H22.5802V22.5473H16.8061V21.2925ZM16.8061 23.1738H20.6551V24.4286H14.881V23.1738H16.8061ZM16.1638 21.2925V22.5473H10.3897V21.2925H16.1655H16.1638ZM10.3897 24.4286V23.1738H14.2386V24.4286H10.3897ZM13.9192 25.0568V26.3116H10.3897V25.0552H13.9192V25.0568ZM10.0702 19.4112L15.8443 19.4095V20.6643H10.0702V19.4095V19.4112ZM10.0702 26.9401H14.2403V28.0713V28.0696C13.9786 28.0345 13.7203 27.981 13.4688 27.9075C12.558 27.6001 11.6013 27.4481 10.6378 27.4564C10.4475 27.4564 10.2588 27.4664 10.0685 27.4881V26.9384L10.0702 26.9401ZM6.64947 37.2476C6.60869 37.408 6.50333 37.5467 6.35719 37.6319L5.25945 38.2818C4.95527 38.4606 4.56271 38.3654 4.37752 38.068L0.732494 32.1615C0.644132 32.0178 0.616943 31.8473 0.657722 31.6853C0.698505 31.5249 0.803864 31.3845 0.950006 31.2993L2.04775 30.651C2.35193 30.4723 2.74448 30.5675 2.92798 30.8649L2.96706 30.9284L3.10471 31.1506L3.30013 31.4664L3.88128 32.4071L6.40477 36.4939L6.47104 36.6025L6.5764 36.7729L6.5747 36.7746C6.66306 36.9149 6.69025 37.0855 6.64947 37.2476ZM27.371 28.9488C27.3625 28.9739 27.3523 28.999 27.3387 29.0207C27.3047 29.0792 27.2605 29.1326 27.2079 29.1777C27.1739 29.2078 27.1382 29.2362 27.1008 29.263C27.0396 29.3064 26.9462 29.3749 26.8272 29.4618L26.5536 29.6639C26.0897 30.0031 25.4168 30.501 24.6555 31.0491C24.4855 31.171 24.3122 31.2947 24.1338 31.4217C23.9554 31.5486 23.7752 31.674 23.5951 31.8009C23.4694 31.8895 23.3402 31.9764 23.2128 32.0649L23.0445 32.1819C22.844 32.3189 22.6452 32.4526 22.4464 32.5846C22.3716 32.6347 22.2951 32.6882 22.2204 32.7366C21.9485 32.9171 21.68 33.0908 21.42 33.2545C21.2467 33.3631 21.0767 33.4667 20.9136 33.567C20.7488 33.6656 20.5907 33.7575 20.4378 33.8443C20.2848 33.9296 20.1387 34.0081 20.0027 34.0799C19.8379 34.1651 19.6765 34.2403 19.5167 34.3122C19.4691 34.3339 19.4216 34.3556 19.374 34.374C19.2584 34.4241 19.1429 34.4709 19.0307 34.5143C18.9848 34.5327 18.939 34.5511 18.8931 34.5678C18.7469 34.6229 18.6008 34.6714 18.4581 34.7165L18.4411 34.7215C18.2932 34.7666 18.1471 34.8067 18.0009 34.8418C17.9568 34.8518 17.9143 34.8619 17.8735 34.8719C17.7664 34.897 17.6611 34.9187 17.5557 34.9371C17.5115 34.9454 17.4691 34.9538 17.4283 34.9604C17.2974 34.9822 17.1666 35.0039 17.0374 35.0173L17.0102 35.0206C16.8709 35.0356 16.7316 35.0473 16.5939 35.054C16.5531 35.0574 16.5123 35.0574 16.4733 35.059C16.3713 35.064 16.2693 35.0657 16.1691 35.0674H16.0977H16.0467C15.9159 35.0674 15.785 35.064 15.6559 35.0574H15.6185C15.4792 35.0507 15.3381 35.0406 15.1954 35.029L15.073 35.0173C14.9677 35.0072 14.8606 34.9972 14.7536 34.9855L14.6295 34.9721C14.4885 34.9554 14.3457 34.9371 14.2013 34.917C13.717 34.8502 13.1834 34.7616 12.6549 34.6647C12.1264 34.5695 11.6047 34.4659 11.1425 34.3706C10.2181 34.1802 9.53663 34.0231 9.53663 34.0231L6.6291 35.6422L3.97476 31.3413L7.91377 28.8384V28.8418C8.06501 28.7515 8.21965 28.673 8.38108 28.6012C8.47964 28.5577 8.59009 28.5093 8.71414 28.4625C8.83649 28.4157 8.97244 28.3672 9.11688 28.3238C9.21714 28.2937 9.32419 28.2637 9.43465 28.2386C9.64367 28.1868 9.85608 28.1484 10.0702 28.1233C10.2588 28.0999 10.4474 28.0866 10.6378 28.0849C11.0881 28.0799 11.5384 28.1133 11.9836 28.1851L12.0278 28.1935H12.0261C12.4509 28.272 12.869 28.3773 13.2785 28.5076C13.4009 28.5444 13.5334 28.5778 13.6693 28.6062H13.671C14.0194 28.6764 14.3729 28.7282 14.7297 28.7582C14.8657 28.7716 14.9965 28.7816 15.1189 28.79C15.542 28.8184 15.8462 28.8217 15.8462 28.8217H17.7885C17.8123 28.8217 17.8565 28.8251 17.9193 28.8317C18.0128 28.8401 18.1436 28.8568 18.2983 28.8835L18.2966 28.8819C18.4699 28.9136 18.6432 28.9554 18.8115 29.0072C19.0579 29.0824 19.2941 29.1876 19.5133 29.323C19.5252 29.3296 19.5371 29.3363 19.5473 29.343H19.549C19.6662 29.4182 19.7767 29.5051 19.8752 29.6037C19.9262 29.6521 19.9721 29.7039 20.0146 29.7591L20.0163 29.7624C20.0163 29.7624 20.6586 30.7031 19.6951 30.7031H15.2022C15.1172 30.7031 15.0357 30.7348 14.9762 30.795C14.8844 30.8835 14.8572 31.0188 14.9065 31.1375C14.9558 31.2544 15.073 31.3313 15.2022 31.3296H20.0144C20.7009 31.2945 21.3671 31.0773 21.9398 30.7031L24.8252 28.8217L24.8456 28.8084L24.8592 28.8C24.8779 28.7883 24.9034 28.775 24.9339 28.7566L24.9458 28.7499C24.9764 28.7332 25.0121 28.7148 25.0512 28.6948L25.0631 28.6881L25.0801 28.6797C25.126 28.658 25.1786 28.6346 25.2364 28.6096L25.2704 28.5962C25.3231 28.5745 25.3809 28.5544 25.4403 28.5344L25.4811 28.521C25.544 28.5009 25.612 28.4826 25.6816 28.4659L25.702 28.4608L25.7547 28.4492C25.8312 28.4324 25.9094 28.4191 25.9909 28.4057L26.013 28.4024C26.1014 28.3923 26.1914 28.3873 26.2815 28.3857C26.2934 28.3857 26.3036 28.384 26.3155 28.384C26.3342 28.384 26.3546 28.384 26.3733 28.3857C26.3988 28.3857 26.4259 28.3857 26.4514 28.389C26.4922 28.3907 26.533 28.3957 26.5755 28.399C26.601 28.4024 26.6265 28.404 26.6537 28.4074C26.6995 28.4141 26.7454 28.4224 26.7913 28.4324C26.8134 28.4375 26.8355 28.4408 26.8593 28.4458C26.9289 28.4625 26.9986 28.4809 27.07 28.5043L27.0717 28.506C27.121 28.5277 27.1669 28.5561 27.2093 28.5878C27.2739 28.6329 27.3249 28.6914 27.3589 28.7616C27.3674 28.78 27.3742 28.7984 27.3776 28.8184C27.381 28.8385 27.3827 28.8602 27.3827 28.8802C27.381 28.9036 27.3778 28.9271 27.371 28.9488ZM33.8146 6.51642L30.1679 0.606898C29.8008 0.0137635 29.014 -0.176705 28.4074 0.179167L27.3079 0.830772C27.0173 1.0012 26.8083 1.27856 26.7268 1.6027C26.6452 1.92517 26.6979 2.26769 26.8729 2.55341L26.8967 2.59184L27.036 2.81907L24.3596 4.30946C23.6392 4.14739 21.5082 3.68459 19.8837 3.46234H19.8854C19.2311 3.36376 18.5718 3.31197 17.9108 3.30528C16.4391 3.30528 14.9913 3.66952 13.7032 4.36627C11.8068 5.33366 8.50339 7.77305 7.0913 8.81381C6.82451 9.01097 6.62739 9.15633 6.52203 9.23151H6.52033C6.16177 9.43368 5.95106 9.81964 5.97824 10.2256C6.04622 10.6049 6.30621 10.9224 6.66645 11.0694L6.69194 11.0811L6.71913 11.0895C7.02841 11.1914 7.35296 11.2449 7.68093 11.2432C8.05138 11.2415 8.41842 11.1797 8.76849 11.0594C9.16103 11.3668 9.65385 11.5289 10.1568 11.5139C10.41 11.5122 10.6615 11.4821 10.9079 11.4236C11.1255 11.3802 11.9224 11.1613 13.8869 10.0318C14.5666 10.5064 15.3721 10.777 16.2064 10.8088H18.1521C18.9525 10.8171 19.7495 10.9124 20.5278 11.0945C21.4386 11.4019 22.397 11.554 23.3588 11.5439C24.4396 11.5222 25.4949 11.2265 26.4278 10.6885L30.3532 8.19396L30.4568 8.36439L30.518 8.46129C30.8868 9.0561 31.6735 9.24656 32.2802 8.88902L33.378 8.24076C33.6702 8.07033 33.8792 7.7913 33.9625 7.46716C34.0441 7.14469 33.9913 6.80048 33.8146 6.51642ZM10.777 10.807C10.6801 10.8304 10.5816 10.8488 10.4813 10.8605C10.4524 10.8638 10.4252 10.8671 10.398 10.8688C10.3318 10.8755 10.2672 10.8805 10.206 10.8805C10.1907 10.8805 10.1737 10.8838 10.1601 10.8838H10.1363V10.8855C10.0446 10.8838 9.95281 10.8772 9.86275 10.8621C9.84575 10.8588 9.83046 10.8554 9.81516 10.8538C9.7353 10.8404 9.65713 10.8204 9.58066 10.7936H9.57556C9.53478 10.7786 9.50079 10.7602 9.4651 10.7435C9.50079 10.7218 9.52798 10.7051 9.53817 10.6967L12.4151 8.82206C12.6445 8.67335 12.8926 8.55472 13.1526 8.46617C13.1067 8.8538 13.207 9.24477 13.4347 9.56557C11.4176 10.7084 10.777 10.807 10.777 10.807ZM26.0859 10.1587C25.9347 10.2473 25.7801 10.3275 25.6186 10.3976C25.5201 10.4411 25.4096 10.4895 25.2856 10.5363C25.1615 10.5831 25.0273 10.6316 24.8828 10.675V10.6767C24.39 10.8304 23.8768 10.9106 23.3602 10.9156C22.9099 10.9206 22.4596 10.8872 22.0144 10.8153C21.5776 10.7352 21.1443 10.6282 20.7212 10.4929C20.5988 10.4561 20.4663 10.4227 20.3303 10.3943H20.3286C19.9786 10.3241 19.6251 10.2723 19.2699 10.2423C19.134 10.2289 19.0032 10.2189 18.8808 10.2122C18.4577 10.1838 18.1535 10.1804 18.1535 10.1804H16.2112C16.1874 10.1804 16.1432 10.1771 16.0803 10.1704C15.9869 10.1621 15.856 10.1453 15.7014 10.1186C15.5281 10.0869 15.3547 10.0451 15.1865 9.9933C14.9401 9.91812 14.7039 9.81285 14.4847 9.67919C14.4728 9.6725 14.4609 9.66582 14.449 9.65914V9.65747C14.3317 9.58228 14.2213 9.49539 14.1227 9.39682C14.0734 9.34836 14.0259 9.29656 13.9834 9.24143V9.23809C13.9834 9.23809 13.341 8.29742 14.3045 8.29742L18.7957 8.29909C18.8807 8.29909 18.9623 8.26568 19.0218 8.2072C19.1135 8.11697 19.1407 7.98164 19.0914 7.86468C19.0404 7.74605 18.9249 7.67087 18.7957 7.67087H13.9835C13.2953 7.70596 12.6308 7.92316 12.0582 8.29912L9.17104 10.1804L9.15065 10.1938L9.13706 10.2022C9.11836 10.2139 9.09288 10.2272 9.06229 10.2456L9.05039 10.2523C9.0198 10.269 8.98412 10.2874 8.94503 10.3074L8.93314 10.3141L8.91614 10.3225C8.87026 10.3459 8.81758 10.3676 8.75981 10.3926L8.72582 10.406C8.67314 10.4277 8.61536 10.4478 8.55589 10.4678L8.51511 10.4795C8.45223 10.4996 8.38426 10.518 8.31459 10.5347L8.2942 10.5397L8.24152 10.5514C8.16505 10.5681 8.08688 10.5814 8.00531 10.5948L7.98322 10.5982C7.89316 10.6082 7.80309 10.6132 7.71303 10.6149H7.67905H7.62127C7.59578 10.6149 7.56859 10.6149 7.5431 10.6115C7.50232 10.6098 7.46153 10.6048 7.41905 10.6015C7.39356 10.5982 7.36807 10.5965 7.34088 10.5931C7.2967 10.5865 7.24912 10.5781 7.20323 10.5681C7.18114 10.5631 7.15905 10.5597 7.13526 10.5547C7.06559 10.538 6.99592 10.5196 6.92454 10.4962V10.4946C6.87526 10.4728 6.82938 10.4444 6.7852 10.4127C6.72233 10.3676 6.67135 10.3091 6.63736 10.2389C6.62886 10.2205 6.62207 10.2022 6.61867 10.1821C6.61357 10.1621 6.61187 10.1403 6.61357 10.1203C6.61527 10.0969 6.61867 10.0752 6.62547 10.0535C6.63226 10.0284 6.64416 10.0033 6.65605 9.98162C6.69174 9.92314 6.73592 9.86967 6.7869 9.82456C6.82089 9.79449 6.85657 9.76608 6.89396 9.73935C6.95513 9.69591 7.04859 9.6274 7.16755 9.54052L7.44114 9.33835C7.90166 8.99917 8.57629 8.49961 9.33928 7.95156C9.50921 7.82959 9.68254 7.70595 9.86096 7.57897C10.0394 7.45199 10.2195 7.32668 10.3997 7.19969C10.5815 7.07271 10.765 6.94573 10.9485 6.81874C11.2238 6.62994 11.5008 6.44281 11.7744 6.26235C12.048 6.0819 12.3148 5.90814 12.5747 5.74441C12.7481 5.63581 12.918 5.53055 13.0811 5.43197C13.246 5.33339 13.404 5.2415 13.557 5.15461C13.7099 5.0694 13.8561 4.99087 13.992 4.91903C14.1568 4.83381 14.3183 4.75863 14.478 4.68678C14.5256 4.66506 14.5732 4.64334 14.6207 4.62496C14.7363 4.57483 14.8519 4.52805 14.964 4.48461C15.0099 4.46623 15.0575 4.44786 15.1017 4.43115C15.2478 4.37601 15.3939 4.32589 15.5367 4.28244L15.5537 4.27743C15.7015 4.23232 15.8477 4.19222 15.9938 4.15713C16.038 4.14711 16.0805 4.13708 16.1212 4.12706C16.2283 4.10199 16.3336 4.08027 16.439 4.0619C16.4832 4.05354 16.5257 4.04519 16.5682 4.0385C16.699 4.01678 16.8299 3.99506 16.959 3.9817L16.9862 3.97836C17.1255 3.96332 17.2649 3.95162 17.4025 3.94494C17.4433 3.94327 17.4841 3.9416 17.5232 3.93993C17.6251 3.93491 17.7271 3.93324 17.829 3.93157H17.9004H17.9514C18.0822 3.93157 18.2131 3.93491 18.3422 3.9416H18.3643C18.5037 3.94828 18.6447 3.95831 18.7875 3.97L18.9098 3.9817C19.0152 3.99172 19.1222 4.00175 19.2293 4.01344L19.3533 4.02681C19.4944 4.04352 19.6371 4.0619 19.7816 4.08195C20.2659 4.14878 20.7994 4.23733 21.3279 4.33424C21.8564 4.43115 22.3781 4.53307 22.8404 4.62831C23.7648 4.81878 24.4462 4.97584 24.4462 4.97584L27.3537 3.35679L30.0081 7.65762L26.0859 10.1587ZM33.0498 7.70094L31.9487 8.34921C31.6462 8.52799 31.2519 8.43275 31.0684 8.13534L31.0294 8.07185L30.8917 7.84963L30.6963 7.53385L30.1151 6.59318L27.5916 2.50634L27.5254 2.39774L27.4217 2.22731V2.22564C27.3334 2.08362 27.3062 1.9132 27.3469 1.75112C27.3877 1.58904 27.4931 1.45037 27.6392 1.36516L28.7387 0.718558C29.0411 0.539779 29.4354 0.635018 29.6189 0.932423L33.2656 6.83895C33.354 6.98265 33.3795 7.15307 33.3387 7.31515C33.2979 7.47722 33.1925 7.61589 33.0481 7.70111L33.0498 7.70094Z" fill="black"/>
</svg>
