<svg width="28" height="42" viewBox="0 0 28 42" fill="none" xmlns="http://www.w3.org/2000/svg">
<path d="M21.6838 31.1937L22.4693 32.785L24.2254 33.0401L22.9549 34.2787L23.2548 36.0279L21.6838 35.2022L20.1128 36.0279L20.4128 34.2787L19.1422 33.0401L20.8983 32.785L21.6838 31.1937ZM21.6838 30.5105C21.4237 30.5105 21.1867 30.6582 21.0714 30.891L20.4452 32.1602L19.0441 32.3638C18.7867 32.4013 18.5733 32.5814 18.4928 32.8286C18.4122 33.0757 18.4794 33.347 18.6654 33.5284L19.6791 34.5166L19.4398 35.9117C19.3958 36.1682 19.5014 36.4269 19.7115 36.5797C19.8305 36.6662 19.9712 36.7102 20.1128 36.7102C20.2216 36.7102 20.3308 36.6843 20.4304 36.632L21.6833 35.9733L22.9363 36.632C23.0363 36.6843 23.1456 36.7102 23.2539 36.7102C23.3955 36.7102 23.5362 36.6662 23.6552 36.5797C23.8653 36.4269 23.9709 36.1677 23.9269 35.9117L23.6876 34.5166L24.7013 33.5284C24.8873 33.347 24.9545 33.0757 24.8739 32.8286C24.7934 32.5814 24.58 32.4013 24.3226 32.3638L22.9215 32.1602L22.2953 30.891C22.1814 30.6582 21.9439 30.5105 21.6838 30.5105ZM14.0011 31.1937L14.7866 32.785L16.5427 33.0401L15.2721 34.2787L15.5721 36.0279L14.0011 35.2022L12.4301 36.0279L12.73 34.2787L11.4594 33.0401L13.2156 32.785L14.0011 31.1937ZM14.0011 30.5105C13.7409 30.5105 13.5039 30.6582 13.3887 30.891L12.7624 32.1602L11.3613 32.3638C11.104 32.4013 10.8906 32.5814 10.81 32.8286C10.7295 33.0757 10.7966 33.347 10.9827 33.5284L11.9964 34.5166L11.7571 35.9117C11.7131 36.1682 11.8186 36.4269 12.0288 36.5797C12.1477 36.6662 12.2884 36.7102 12.4301 36.7102C12.5389 36.7102 12.6481 36.6843 12.7476 36.632L14.0011 35.9738L15.2541 36.6324C15.354 36.6847 15.4633 36.7107 15.5716 36.7107C15.7132 36.7107 15.8539 36.6667 15.9729 36.5801C16.183 36.4274 16.2886 36.1682 16.2446 35.9122L16.0053 34.5171L17.019 33.5289C17.2051 33.3474 17.2722 33.0762 17.1916 32.829C17.1111 32.5818 16.8977 32.4018 16.6404 32.3643L15.2393 32.1606L14.613 30.8914C14.4982 30.6582 14.2612 30.5105 14.0011 30.5105ZM6.31834 31.1937L7.10383 32.785L8.85996 33.0401L7.58938 34.2787L7.88932 36.0279L6.31834 35.2022L4.74735 36.0279L5.04729 34.2787L3.77671 33.0401L5.53285 32.785L6.31834 31.1937ZM6.31834 30.5105C6.0582 30.5105 5.82121 30.6582 5.70596 30.891L5.07969 32.1602L3.67858 32.3638C3.42123 32.4013 3.20784 32.5814 3.1273 32.8286C3.04676 33.0757 3.11388 33.347 3.29996 33.5284L4.31364 34.5166L4.07434 35.9117C4.03037 36.1682 4.1359 36.4269 4.34604 36.5797C4.465 36.6662 4.60571 36.7102 4.74735 36.7102C4.85613 36.7102 4.96537 36.6843 5.06488 36.632L6.31788 35.9733L7.57087 36.632C7.67085 36.6843 7.78008 36.7102 7.8884 36.7102C8.03004 36.7102 8.17075 36.6662 8.28971 36.5797C8.49985 36.4269 8.60538 36.1677 8.56141 35.9117L8.32211 34.5166L9.3358 33.5284C9.52187 33.347 9.58898 33.0757 9.50845 32.8286C9.42791 32.5814 9.21452 32.4013 8.95717 32.3638L7.55606 32.1602L6.92979 30.891C6.81546 30.6582 6.57801 30.5105 6.31834 30.5105Z" fill="black"/>
<path d="M24.2404 21.1706H12.2891V20.4879H24.2404V21.1706ZM13.9966 22.195H12.2891V22.8777H13.9966V22.195ZM24.2404 22.195H15.7041V22.8777H24.2409V22.195H24.2404ZM19.1187 23.9021H12.2891V24.5848H19.1183V23.9021H19.1187ZM24.2404 23.9021H20.8258V24.5848H24.2404V23.9021ZM17.4112 25.6096H12.2891V26.2923H17.4112V25.6096ZM19.1187 10.2437H12.2891V10.9264H19.1183V10.2437H19.1187ZM24.2404 10.2437H20.8258V10.9264H24.2404V10.2437ZM24.2404 11.9512H12.2891V12.6339H24.2404V11.9512ZM17.4112 13.6583H12.2891V14.341H17.4112V13.6583ZM24.2404 13.6583H19.1187V14.341H24.2409V13.6583H24.2404ZM20.8258 15.3658H12.2891V16.0485H20.8258V15.3658Z" fill="black"/>
<path d="M25.9513 3.4146H23.9434C23.6004 2.88739 23.1935 2.33657 22.8057 1.83899L22.6867 1.68624L22.4941 1.71031C21.4235 1.84362 18.4473 2.10745 17.5451 1.73392C17.3873 1.66865 17.1429 1.31965 16.9462 1.03915C16.5884 0.528136 16.2185 0 15.7075 0H12.2929C11.7819 0 11.4116 0.528136 11.0538 1.03868C10.8571 1.31918 10.6127 1.66819 10.4549 1.73345C9.55366 2.10699 6.57647 1.84315 5.50585 1.70985L5.3133 1.68578L5.19434 1.83852C4.80645 2.33611 4.39959 2.88693 4.0566 3.41414H2.04867C0.918799 3.41414 0 4.3334 0 5.4628V39.6088C0 40.7387 0.918799 41.6575 2.04867 41.6575H25.9513C27.0812 41.6575 28 40.7387 28 39.6088V5.4628C28 4.33386 27.0807 3.4146 25.9513 3.4146ZM5.61555 2.41063C6.49084 2.51154 9.59995 2.82675 10.7164 2.36435C11.0575 2.22317 11.3274 1.83806 11.613 1.43073C11.7963 1.16968 12.1369 0.683198 12.2929 0.683198H15.7075C15.8635 0.683198 16.2042 1.16968 16.3875 1.43073C16.6731 1.83806 16.9429 2.22317 17.2841 2.36435C18.4005 2.82675 21.5096 2.51154 22.3849 2.41063C23.1709 3.43774 23.9573 4.64815 24.0901 5.12167H3.90987C4.04318 4.64861 4.8296 3.43774 5.61555 2.41063ZM27.3168 39.6097C27.3168 40.3628 26.704 40.9757 25.9509 40.9757H2.04867C1.29558 40.9757 0.682735 40.3628 0.682735 39.6097V5.46373C0.682735 4.71064 1.29558 4.0978 2.04867 4.0978H3.64511C3.3086 4.71064 3.12669 5.23507 3.26556 5.51928C3.35443 5.70072 3.5331 5.80533 3.75574 5.80533H24.2433C24.4664 5.80533 24.6446 5.70118 24.7335 5.51928C24.8724 5.23507 24.6905 4.7111 24.354 4.0978H25.9504C26.7035 4.0978 27.3163 4.71064 27.3163 5.46373L27.3168 39.6097ZM14 3.7562C13.3409 3.7562 12.8049 3.22019 12.8049 2.56107C12.8049 1.90194 13.3409 1.36593 14 1.36593C14.6591 1.36593 15.1951 1.90194 15.1951 2.56107C15.1951 3.22019 14.6591 3.7562 14 3.7562ZM14 2.04867C13.7176 2.04867 13.4876 2.27825 13.4876 2.56107C13.4876 2.84342 13.7172 3.07346 14 3.07346C14.2828 3.07346 14.5124 2.84388 14.5124 2.56107C14.5124 2.27871 14.2824 2.04867 14 2.04867Z" fill="black"/>
<path d="M8.87472 20.8293V25.9515H3.75305V20.8293H8.87472ZM8.87472 20.1466H3.75305C3.37581 20.1466 3.07031 20.4526 3.07031 20.8293V25.9515C3.07031 26.3287 3.37627 26.6342 3.75305 26.6342H8.87518C9.25242 26.6342 9.55791 26.3283 9.55791 25.9515V20.8293C9.55791 20.4521 9.25196 20.1466 8.87472 20.1466ZM6.35161 15.3661C6.3479 15.3661 6.3442 15.3661 6.3405 15.3661C6.20071 15.3661 6.06833 15.3105 5.9739 15.2073L4.22888 13.3044C4.03771 13.0957 4.05206 12.7735 4.26082 12.5828C4.46957 12.3921 4.79358 12.4074 4.98428 12.6157L6.36781 14.1279L9.93099 10.5647C10.1309 10.3648 10.455 10.3648 10.6554 10.5647C10.8553 10.7647 10.8553 11.0891 10.6554 11.2891L6.71357 15.2235C6.61776 15.3198 6.48723 15.3661 6.35161 15.3661ZM8.87472 13.5488V15.7077H6.35161H6.33633H3.75305V10.5855H8.87518V11.1382L9.54634 10.467C9.48987 10.1467 9.21215 9.90234 8.87518 9.90234H3.75305C3.37581 9.90234 3.07031 10.2083 3.07031 10.5851V15.7072C3.07031 16.0844 3.37627 16.3899 3.75305 16.3899H8.87518C9.25242 16.3899 9.55791 16.084 9.55791 15.7072V12.867L8.87472 13.5488Z" fill="black"/>
</svg>
