<svg width="25" height="42" viewBox="0 0 25 42" fill="none" xmlns="http://www.w3.org/2000/svg">
<path d="M23.5561 32.127C23.6763 32.1508 23.7823 32.2201 23.8517 32.3204C23.9211 32.4206 23.9483 32.5437 23.9276 32.6635C23.8805 32.8922 23.8288 33.1301 23.7724 33.3401C23.7457 33.4428 23.6846 33.5333 23.5992 33.597C23.5137 33.6606 23.4089 33.6934 23.3022 33.69C23.2633 33.6967 23.2235 33.6967 23.1846 33.69C23.0647 33.6602 22.9615 33.5847 22.8972 33.48C22.833 33.3752 22.8129 33.2495 22.8413 33.1301C22.8931 32.9248 22.9448 32.7149 22.9824 32.5096C22.9923 32.4459 23.0154 32.3849 23.0503 32.3306C23.0851 32.2762 23.1309 32.2296 23.1848 32.1936C23.2387 32.1577 23.2995 32.1332 23.3634 32.1217C23.4273 32.1103 23.4929 32.112 23.5561 32.127ZM12.4964 26.0054C12.7595 26.006 13.0198 26.058 13.2626 26.1585C13.5054 26.2589 13.7259 26.4058 13.9115 26.5908C14.0971 26.7758 14.2441 26.9953 14.3442 27.2367C14.4443 27.4781 14.4955 27.7367 14.4949 27.9977C14.4949 28.1214 14.5444 28.2401 14.6326 28.3276C14.7208 28.4151 14.8404 28.4643 14.9651 28.4643C15.0898 28.4643 15.2094 28.4151 15.2976 28.3276C15.3858 28.2401 15.4353 28.1214 15.4353 27.9977C15.4355 27.3046 15.1874 26.634 14.7351 26.1057C14.2829 25.5775 13.656 25.226 12.9666 25.1142V23.0239C12.9666 22.9001 12.9171 22.7815 12.8289 22.694C12.7407 22.6065 12.6211 22.5573 12.4964 22.5573C12.3717 22.5573 12.2521 22.6065 12.1639 22.694C12.0757 22.7815 12.0262 22.9001 12.0262 23.0239V25.1142C11.2914 25.224 10.6259 25.6064 10.1641 26.1842C9.70241 26.762 9.47881 27.4921 9.5385 28.2271C9.59819 28.9621 9.93672 29.6472 10.4857 30.1442C11.0347 30.6411 11.7533 30.9129 12.4964 30.9045C12.8917 30.9045 13.2781 31.0208 13.6067 31.2387C13.9353 31.4566 14.1915 31.7663 14.3427 32.1287C14.494 32.491 14.5336 32.8897 14.4565 33.2744C14.3794 33.659 14.189 34.0124 13.9095 34.2897C13.6301 34.567 13.274 34.7559 12.8863 34.8324C12.4986 34.9089 12.0968 34.8696 11.7316 34.7196C11.3665 34.5695 11.0544 34.3153 10.8348 33.9892C10.6152 33.6631 10.498 33.2797 10.498 32.8875C10.498 32.7638 10.4484 32.6451 10.3602 32.5576C10.2721 32.4701 10.1525 32.4209 10.0277 32.4209C9.90303 32.4209 9.78343 32.4701 9.69525 32.5576C9.60706 32.6451 9.55752 32.7638 9.55752 32.8875C9.55952 33.579 9.80873 34.2474 10.2608 34.7737C10.7128 35.3 11.3384 35.6501 12.0262 35.7617V37.852C12.0262 37.9757 12.0757 38.0944 12.1639 38.1819C12.2521 38.2694 12.3717 38.3186 12.4964 38.3186C12.6211 38.3186 12.7407 38.2694 12.8289 38.1819C12.9171 38.0944 12.9666 37.9757 12.9666 37.852V35.7617C13.7015 35.6519 14.367 35.2694 14.8287 34.6917C15.2904 34.1139 15.514 33.3838 15.4543 32.6488C15.3946 31.9138 15.0561 31.2287 14.5071 30.7317C13.9581 30.2347 13.2395 29.963 12.4964 29.9714C11.9664 29.9714 11.4581 29.7624 11.0833 29.3905C10.7085 29.0187 10.498 28.5143 10.498 27.9884C10.498 27.4624 10.7085 26.9581 11.0833 26.5862C11.4581 26.2143 11.9664 26.0054 12.4964 26.0054ZM9.83965 9.10097L12.8209 12.0591C12.869 12.1047 12.906 12.1605 12.929 12.2224C12.9339 12.258 12.9339 12.2941 12.929 12.3297C12.9312 12.3515 12.9312 12.3733 12.929 12.3951V18.8946C15.9393 19.0079 18.7885 20.2732 20.8792 22.4252C22.97 24.5772 24.14 27.4488 24.1439 30.4379C24.1439 30.5617 24.0943 30.6804 24.0061 30.7679C23.918 30.8554 23.7983 30.9045 23.6736 30.9045C23.5489 30.9045 23.4293 30.8554 23.3411 30.7679C23.253 30.6804 23.2034 30.5617 23.2034 30.4379C23.2059 27.8136 22.2295 25.2812 20.4623 23.3288C18.695 21.3763 16.2621 20.142 13.6322 19.8636C11.0024 19.5852 8.36173 20.2825 6.21916 21.8211C4.0766 23.3596 2.58374 25.6306 2.02825 28.1964C1.47277 30.7622 1.89397 33.4412 3.21069 35.7171C4.52742 37.9931 6.64648 39.705 9.15954 40.5228C11.6726 41.3407 14.4018 41.2067 16.8212 40.1467C19.2406 39.0867 21.1791 37.1757 22.263 34.7818C22.3141 34.6686 22.4085 34.5802 22.5253 34.536C22.6422 34.4918 22.7719 34.4955 22.886 34.5462C23.0001 34.597 23.0893 34.6906 23.1338 34.8065C23.1783 34.9225 23.1746 35.0512 23.1235 35.1644C22.2755 37.0442 20.9368 38.6649 19.2457 39.859C17.5547 41.0531 15.5728 41.7772 13.5052 41.9562C11.4375 42.1353 9.35921 41.7629 7.48527 40.8775C5.61134 39.9922 4.00986 38.6261 2.84654 36.9205C1.68322 35.215 1.00033 33.2319 0.86852 31.1766C0.73671 29.1213 1.16077 27.0684 2.09683 25.2303C3.03288 23.3922 4.44693 21.8357 6.19265 20.7218C7.93837 19.6079 9.95235 18.977 12.0262 18.8946V12.6004L9.17194 9.76819C8.53675 9.86094 7.89544 9.90617 7.25342 9.9035C5.57472 9.9035 3.29884 9.59089 1.80823 8.11181C-0.740381 5.57359 0.138937 0.753756 0.176555 0.548458C0.193942 0.455826 0.239186 0.370589 0.306332 0.303962C0.373479 0.237335 0.459381 0.192442 0.552735 0.17519C0.740825 0.137863 5.62175 -0.734652 8.17036 1.79424C10.4227 4.02919 9.99483 8.06049 9.83965 9.10097ZM8.32083 8.91434L4.38976 5.01368C4.34569 4.97031 4.31071 4.9187 4.28683 4.86185C4.26296 4.80499 4.25067 4.744 4.25067 4.68241C4.25067 4.62081 4.26296 4.55983 4.28683 4.50297C4.31071 4.44611 4.34569 4.39451 4.38976 4.35113C4.47786 4.26423 4.59704 4.21545 4.72127 4.21545C4.8455 4.21545 4.96467 4.26423 5.05278 4.35113L8.98385 8.25179C9.1014 6.8147 9.092 4.05252 7.50264 2.45213C5.65466 0.61378 2.1515 0.903063 1.05587 1.04304C0.914807 2.12085 0.623268 5.60625 2.46655 7.44459C4.06531 9.02165 6.85373 9.03099 8.32083 8.91434ZM13.3804 10.86L15.1532 9.10097C14.998 8.06049 14.5701 4.02919 16.8225 1.79424C19.3711 -0.734652 24.252 0.137863 24.4401 0.17519C24.5335 0.192442 24.6194 0.237335 24.6865 0.303962C24.7537 0.370589 24.7989 0.455826 24.8163 0.548458C24.8539 0.753756 25.7567 5.57359 23.1846 8.10248C21.694 9.58156 19.4228 9.89417 17.7394 9.89417C17.0974 9.89684 16.4561 9.85161 15.8209 9.75886L14.0435 11.5226C13.9549 11.6098 13.8351 11.6586 13.7103 11.6581C13.5855 11.6577 13.466 11.6081 13.3781 11.5202C13.2902 11.4324 13.241 11.3134 13.2415 11.1896C13.2419 11.0658 13.2919 10.9472 13.3804 10.86ZM16.009 8.25645L19.9401 4.35113C20.0282 4.26423 20.1473 4.21545 20.2716 4.21545C20.3958 4.21545 20.515 4.26423 20.6031 4.35113C20.6472 4.39451 20.6821 4.44611 20.706 4.50297C20.7299 4.55983 20.7422 4.62081 20.7422 4.68241C20.7422 4.744 20.7299 4.80499 20.706 4.86185C20.6821 4.9187 20.6472 4.97031 20.6031 5.01368L16.672 8.91434C18.125 9.03099 20.9322 9.01699 22.5169 7.44459C24.3978 5.60158 24.0827 2.12085 23.9276 1.04304C22.846 0.903063 19.3288 0.61378 17.4808 2.4428C15.8961 4.02919 15.8867 6.8147 16.009 8.25645Z" fill="black"/>
</svg>
