<svg width="39" height="39" viewBox="0 0 39 39" fill="none" xmlns="http://www.w3.org/2000/svg">
<mask id="path-1-inside-1_3921_150" fill="white">
<path d="M36.3657 8.17863V8.08276C36.3657 5.07816 33.9217 2.63407 30.9169 2.63407H6.46748C6.17173 1.13421 4.849 0 3.26301 0C1.46415 0 0 1.46571 0 3.26622C0 5.06506 1.46411 6.52919 3.26301 6.52919C4.849 6.52919 6.17499 5.39332 6.46748 3.89187H30.9169C33.2277 3.89187 35.106 5.77196 35.106 8.08093V8.1768C33.6045 8.47092 32.4687 9.79527 32.4687 11.3812C32.4687 12.9656 33.6046 14.29 35.106 14.5841V14.6799C35.106 16.2724 34.1717 17.7544 32.7254 18.4564C32.4134 18.6075 32.2818 18.9845 32.4345 19.2965C32.5434 19.5207 32.7677 19.6507 33.0017 19.6507C33.0943 19.6507 33.1869 19.6312 33.2763 19.5873C35.1531 18.6774 36.3654 16.7518 36.3654 14.6799V14.584C37.8653 14.2899 38.9995 12.9655 38.9995 11.3812C38.9995 9.79519 37.8652 8.47084 36.3654 8.17673L36.3657 8.17863ZM3.26305 5.27154C2.15807 5.27154 1.25781 4.37129 1.25781 3.26633C1.25781 2.1597 2.15807 1.25787 3.26305 1.25787C4.35991 1.25787 5.25368 2.14186 5.26991 3.23546C5.26991 3.24521 5.26828 3.25496 5.26828 3.26471C5.26828 3.27446 5.26991 3.28421 5.26991 3.29559C5.25528 4.38919 4.35991 5.27318 3.26305 5.27318V5.27154ZM35.7367 13.3884C34.6301 13.3884 33.7298 12.4882 33.7298 11.3832C33.7298 10.2766 34.6301 9.37474 35.7367 9.37474C36.8433 9.37474 37.7419 10.275 37.7419 11.3832C37.7419 12.4898 36.8417 13.3884 35.7367 13.3884ZM10.7785 17.862C10.5266 17.9514 10.3576 18.1886 10.3576 18.4551V20.5432C10.3576 20.8097 10.525 21.0469 10.7768 21.1363L12.0622 21.5914C12.2279 22.1812 12.4619 22.7467 12.7626 23.2797L12.1727 24.5114C12.0573 24.7519 12.1061 25.0395 12.2962 25.2281L13.7733 26.7035C13.9618 26.892 14.2494 26.9408 14.49 26.8254L15.7217 26.2372C16.2563 26.5362 16.8218 26.7701 17.4084 26.9359L17.8635 28.2245C17.9528 28.4764 18.1901 28.6438 18.4566 28.6438H20.5447C20.8112 28.6438 21.0484 28.4748 21.1378 28.2245L21.5928 26.9375C22.1762 26.775 22.7417 26.5394 23.2796 26.2388L24.5113 26.827C24.7518 26.9424 25.0378 26.8937 25.2279 26.7052L26.7051 25.2297C26.8936 25.0412 26.9439 24.7536 26.8286 24.513L26.2387 23.2813C26.5393 22.7484 26.7733 22.1829 26.9391 21.593L28.2261 21.138C28.478 21.0486 28.6453 20.8113 28.6453 20.5448V18.4568C28.6453 18.1903 28.4763 17.9514 28.2245 17.8636L26.9391 17.4119C26.7734 16.8237 26.5394 16.2582 26.2387 15.7236L26.8286 14.4935C26.944 14.253 26.8952 13.9654 26.7051 13.7768L25.228 12.3013C25.0395 12.1128 24.7519 12.0641 24.5114 12.1795L23.2812 12.7677C22.7466 12.4671 22.1811 12.2331 21.5945 12.0674L21.1395 10.7804C21.0501 10.5285 20.8129 10.3611 20.5463 10.3611H18.4582C18.1917 10.3611 17.9545 10.5285 17.8651 10.7804L17.4101 12.0674C16.8218 12.2331 16.2564 12.4671 15.7233 12.7677L14.4932 12.1795C14.2527 12.0641 13.9668 12.1128 13.7766 12.3013L12.2995 13.7768C12.111 13.9653 12.0606 14.2529 12.176 14.4935L12.7659 15.7236C12.4652 16.2582 12.2312 16.8237 12.0655 17.4119L10.7801 17.8636L10.7785 17.862ZM12.7983 18.486C13.0015 18.4145 13.1542 18.2439 13.203 18.0343C13.3622 17.3453 13.6352 16.6888 14.0106 16.0859C14.1243 15.9039 14.1373 15.6748 14.0447 15.4814L13.502 14.3504L14.3502 13.5038L15.4829 14.0449C15.6762 14.1376 15.9037 14.1246 16.0874 14.0108C16.6902 13.6338 17.3467 13.3624 18.0341 13.2032C18.2437 13.1545 18.4127 13.0033 18.4842 12.8002L18.9018 11.6172H20.1011L20.5187 12.8002C20.5902 13.0033 20.7608 13.1545 20.9688 13.2032C21.6578 13.3641 22.3127 13.6355 22.9155 14.0108C23.0975 14.1246 23.325 14.1376 23.52 14.0449L24.6527 13.5038L25.4993 14.3504L24.9566 15.4814C24.8639 15.6748 24.8753 15.9039 24.9891 16.0859C25.3661 16.6904 25.6374 17.3453 25.7967 18.0343C25.8454 18.2439 25.9982 18.4145 26.2013 18.486L27.3843 18.902V20.0996L26.2013 20.5172C25.9982 20.5887 25.8471 20.7593 25.7983 20.9673C25.6374 21.6596 25.366 22.3144 24.9907 22.914C24.8769 23.096 24.8639 23.3252 24.9566 23.5185L25.4993 24.6528L24.651 25.4994L23.5184 24.9583C23.325 24.8657 23.0975 24.8787 22.9155 24.9908C22.3045 25.3694 21.6497 25.6408 20.9688 25.7968C20.7592 25.8455 20.5886 25.9966 20.5171 26.2014L20.0994 27.386H18.9018L18.4842 26.2014C18.4127 25.9983 18.2421 25.8472 18.0341 25.7984C17.3467 25.6392 16.6918 25.3678 16.0857 24.9908C15.9037 24.877 15.6762 24.8657 15.4829 24.9583L14.3502 25.4994L13.502 24.6528L14.0447 23.5185C14.1373 23.3235 14.1243 23.0961 14.0106 22.9124C13.6352 22.3112 13.3638 21.6563 13.203 20.9657C13.1542 20.7561 13.0031 20.5855 12.8 20.514L11.617 20.0964V18.8988L12.8 18.4828L12.7983 18.486ZM9.05437 23.4405L10.9442 23.9491C11.279 24.0401 11.4789 24.3846 11.3879 24.7194C11.2985 25.0541 10.9524 25.254 10.6176 25.163L10.1675 25.0427C12.1061 28.3073 15.6358 30.3533 19.4983 30.3533C25.4833 30.3533 30.3534 25.4849 30.3534 19.5017C30.3534 18.7786 30.2819 18.0555 30.1405 17.3519C30.0723 17.0106 30.2933 16.6791 30.6329 16.6109C30.9725 16.5426 31.3056 16.7636 31.3739 17.1033C31.5315 17.8881 31.6111 18.6957 31.6111 19.5001C31.6111 26.1772 26.1773 31.6093 19.4985 31.6093C15.1954 31.6093 11.263 29.3343 9.09854 25.7026L8.99129 26.1023C8.91654 26.3834 8.66142 26.5687 8.38356 26.5687C8.32994 26.5687 8.27469 26.5622 8.21944 26.5475C7.88469 26.4582 7.6848 26.112 7.77582 25.7773L8.28446 23.8858C8.32833 23.7249 8.43396 23.5868 8.57858 23.5039C8.7232 23.4211 8.89545 23.3983 9.05631 23.4422L9.05437 23.4405ZM19.498 24.5211C22.267 24.5211 24.5208 22.2689 24.5208 19.5017C24.5208 16.7346 22.2685 14.4824 19.498 14.4824C16.7307 14.4824 14.4786 16.7346 14.4786 19.5017C14.4786 22.2689 16.7308 24.5211 19.498 24.5211ZM19.498 15.7399C21.5731 15.7399 23.2615 17.4266 23.2615 19.5017C23.2615 21.5752 21.5731 23.2636 19.498 23.2636C17.4229 23.2636 15.7361 21.5768 15.7361 19.5017C15.7361 17.4266 17.4245 15.7399 19.498 15.7399ZM38.9929 35.649C38.9913 35.6376 38.9897 35.6246 38.988 35.6132C38.9864 35.6035 38.9832 35.5937 38.9815 35.584C38.9783 35.5742 38.9767 35.5628 38.9734 35.5531C38.9702 35.5433 38.9669 35.5352 38.9637 35.5255C38.9604 35.5157 38.9572 35.506 38.9523 35.4946C38.949 35.4865 38.9442 35.4783 38.9409 35.4702C38.936 35.4605 38.9312 35.4491 38.9263 35.4393C38.9214 35.4312 38.9182 35.4247 38.9133 35.4166C38.9068 35.4068 38.9019 35.3955 38.8954 35.3857C38.8905 35.3776 38.884 35.3711 38.8792 35.363C38.8727 35.3532 38.8662 35.3451 38.8597 35.3353C38.8499 35.324 38.8402 35.3142 38.8304 35.3028C38.8255 35.298 38.8223 35.2931 38.8174 35.2898L36.1833 32.6558C35.9379 32.4104 35.5398 32.4104 35.2945 32.6558C35.0491 32.9011 35.0491 33.2993 35.2945 33.5446L36.8545 35.1046L8.08236 35.1078C5.77161 35.1078 3.89325 33.2278 3.89325 30.9188V30.8229C5.39476 30.5288 6.5306 29.2044 6.5306 27.6201C6.5306 26.0357 5.39472 24.7114 3.89325 24.4173V24.3214C3.89325 22.7273 4.826 21.2453 6.2706 20.5466C6.5826 20.3955 6.71422 20.0185 6.5631 19.7065C6.41197 19.3945 6.03499 19.2629 5.72299 19.414C3.84775 20.3224 2.63549 22.2479 2.63549 24.3215V24.4173C1.13561 24.7115 0.00139152 26.0358 0.00139152 27.6202C0.00139152 29.2045 1.13565 30.5289 2.63549 30.823V30.9189C2.63549 33.9235 5.07948 36.3675 8.08424 36.3675H36.853L35.293 37.9275C35.0476 38.1729 35.0476 38.571 35.293 38.8164C35.4165 38.9399 35.5774 39 35.7383 39C35.8991 39 36.06 38.9382 36.1835 38.8164L38.8176 36.1823C38.8225 36.1774 38.8257 36.1726 38.8306 36.1693C38.8403 36.1596 38.8501 36.1482 38.8598 36.1368C38.8663 36.1287 38.8728 36.1189 38.8793 36.1092C38.8842 36.1011 38.8907 36.0946 38.8956 36.0864C38.9021 36.0767 38.9086 36.0669 38.9135 36.0556C38.9183 36.0474 38.9232 36.0409 38.9265 36.0328C38.9313 36.0231 38.9362 36.0117 38.9411 36.0019C38.9443 35.9938 38.9492 35.9857 38.9525 35.9776C38.9573 35.9678 38.9606 35.9581 38.9638 35.9467C38.9671 35.9369 38.9703 35.9288 38.9736 35.9191C38.9768 35.9093 38.9785 35.8979 38.9817 35.8882C38.9833 35.8784 38.9866 35.8687 38.9882 35.8589C38.9898 35.8476 38.9915 35.8346 38.9931 35.8232C38.9947 35.8151 38.9963 35.8069 38.9963 35.7988C39.0012 35.7582 39.0012 35.7159 38.9963 35.6737C38.9947 35.6656 38.9929 35.6571 38.9929 35.649ZM1.25731 27.6182C1.25731 26.5116 2.15757 25.613 3.26255 25.613C4.36919 25.613 5.27103 26.5132 5.27103 27.6182C5.27103 28.7248 4.37077 29.6234 3.26255 29.6234C2.15757 29.6234 1.25731 28.7232 1.25731 27.6182ZM31.2237 13.2227L30.7151 15.1158C30.6403 15.3969 30.3852 15.5822 30.1074 15.5822C30.0537 15.5822 29.9985 15.5757 29.9449 15.5611L29.8994 15.5481C29.8815 15.5448 29.8652 15.54 29.8474 15.5335L28.0534 15.0541C27.717 14.9647 27.5187 14.6202 27.6081 14.2838C27.6975 13.9475 28.042 13.7492 28.3784 13.8386L28.8318 13.9605C26.8931 10.6959 23.3635 8.64991 19.4976 8.64991C13.5143 8.64991 8.64586 13.5183 8.64586 19.5015C8.64586 20.2214 8.71736 20.9445 8.85873 21.6514C8.92698 21.9926 8.70598 22.3241 8.36473 22.3923C8.32248 22.4005 8.28186 22.4053 8.24123 22.4053C7.94711 22.4053 7.6855 22.199 7.62535 21.9C7.46772 21.1119 7.3881 20.3059 7.3881 19.5032C7.3881 12.826 12.8206 7.394 19.4974 7.394C23.8021 7.394 27.7346 9.66899 29.9007 13.299L30.0079 12.8993C30.0989 12.5645 30.4434 12.3647 30.7782 12.4557C31.1129 12.545 31.3128 12.8912 31.2218 13.2259L31.2237 13.2227Z"/>
</mask>
<path d="M36.3657 8.17863V8.08276C36.3657 5.07816 33.9217 2.63407 30.9169 2.63407H6.46748C6.17173 1.13421 4.849 0 3.26301 0C1.46415 0 0 1.46571 0 3.26622C0 5.06506 1.46411 6.52919 3.26301 6.52919C4.849 6.52919 6.17499 5.39332 6.46748 3.89187H30.9169C33.2277 3.89187 35.106 5.77196 35.106 8.08093V8.1768C33.6045 8.47092 32.4687 9.79527 32.4687 11.3812C32.4687 12.9656 33.6046 14.29 35.106 14.5841V14.6799C35.106 16.2724 34.1717 17.7544 32.7254 18.4564C32.4134 18.6075 32.2818 18.9845 32.4345 19.2965C32.5434 19.5207 32.7677 19.6507 33.0017 19.6507C33.0943 19.6507 33.1869 19.6312 33.2763 19.5873C35.1531 18.6774 36.3654 16.7518 36.3654 14.6799V14.584C37.8653 14.2899 38.9995 12.9655 38.9995 11.3812C38.9995 9.79519 37.8652 8.47084 36.3654 8.17673L36.3657 8.17863ZM3.26305 5.27154C2.15807 5.27154 1.25781 4.37129 1.25781 3.26633C1.25781 2.1597 2.15807 1.25787 3.26305 1.25787C4.35991 1.25787 5.25368 2.14186 5.26991 3.23546C5.26991 3.24521 5.26828 3.25496 5.26828 3.26471C5.26828 3.27446 5.26991 3.28421 5.26991 3.29559C5.25528 4.38919 4.35991 5.27318 3.26305 5.27318V5.27154ZM35.7367 13.3884C34.6301 13.3884 33.7298 12.4882 33.7298 11.3832C33.7298 10.2766 34.6301 9.37474 35.7367 9.37474C36.8433 9.37474 37.7419 10.275 37.7419 11.3832C37.7419 12.4898 36.8417 13.3884 35.7367 13.3884ZM10.7785 17.862C10.5266 17.9514 10.3576 18.1886 10.3576 18.4551V20.5432C10.3576 20.8097 10.525 21.0469 10.7768 21.1363L12.0622 21.5914C12.2279 22.1812 12.4619 22.7467 12.7626 23.2797L12.1727 24.5114C12.0573 24.7519 12.1061 25.0395 12.2962 25.2281L13.7733 26.7035C13.9618 26.892 14.2494 26.9408 14.49 26.8254L15.7217 26.2372C16.2563 26.5362 16.8218 26.7701 17.4084 26.9359L17.8635 28.2245C17.9528 28.4764 18.1901 28.6438 18.4566 28.6438H20.5447C20.8112 28.6438 21.0484 28.4748 21.1378 28.2245L21.5928 26.9375C22.1762 26.775 22.7417 26.5394 23.2796 26.2388L24.5113 26.827C24.7518 26.9424 25.0378 26.8937 25.2279 26.7052L26.7051 25.2297C26.8936 25.0412 26.9439 24.7536 26.8286 24.513L26.2387 23.2813C26.5393 22.7484 26.7733 22.1829 26.9391 21.593L28.2261 21.138C28.478 21.0486 28.6453 20.8113 28.6453 20.5448V18.4568C28.6453 18.1903 28.4763 17.9514 28.2245 17.8636L26.9391 17.4119C26.7734 16.8237 26.5394 16.2582 26.2387 15.7236L26.8286 14.4935C26.944 14.253 26.8952 13.9654 26.7051 13.7768L25.228 12.3013C25.0395 12.1128 24.7519 12.0641 24.5114 12.1795L23.2812 12.7677C22.7466 12.4671 22.1811 12.2331 21.5945 12.0674L21.1395 10.7804C21.0501 10.5285 20.8129 10.3611 20.5463 10.3611H18.4582C18.1917 10.3611 17.9545 10.5285 17.8651 10.7804L17.4101 12.0674C16.8218 12.2331 16.2564 12.4671 15.7233 12.7677L14.4932 12.1795C14.2527 12.0641 13.9668 12.1128 13.7766 12.3013L12.2995 13.7768C12.111 13.9653 12.0606 14.2529 12.176 14.4935L12.7659 15.7236C12.4652 16.2582 12.2312 16.8237 12.0655 17.4119L10.7801 17.8636L10.7785 17.862ZM12.7983 18.486C13.0015 18.4145 13.1542 18.2439 13.203 18.0343C13.3622 17.3453 13.6352 16.6888 14.0106 16.0859C14.1243 15.9039 14.1373 15.6748 14.0447 15.4814L13.502 14.3504L14.3502 13.5038L15.4829 14.0449C15.6762 14.1376 15.9037 14.1246 16.0874 14.0108C16.6902 13.6338 17.3467 13.3624 18.0341 13.2032C18.2437 13.1545 18.4127 13.0033 18.4842 12.8002L18.9018 11.6172H20.1011L20.5187 12.8002C20.5902 13.0033 20.7608 13.1545 20.9688 13.2032C21.6578 13.3641 22.3127 13.6355 22.9155 14.0108C23.0975 14.1246 23.325 14.1376 23.52 14.0449L24.6527 13.5038L25.4993 14.3504L24.9566 15.4814C24.8639 15.6748 24.8753 15.9039 24.9891 16.0859C25.3661 16.6904 25.6374 17.3453 25.7967 18.0343C25.8454 18.2439 25.9982 18.4145 26.2013 18.486L27.3843 18.902V20.0996L26.2013 20.5172C25.9982 20.5887 25.8471 20.7593 25.7983 20.9673C25.6374 21.6596 25.366 22.3144 24.9907 22.914C24.8769 23.096 24.8639 23.3252 24.9566 23.5185L25.4993 24.6528L24.651 25.4994L23.5184 24.9583C23.325 24.8657 23.0975 24.8787 22.9155 24.9908C22.3045 25.3694 21.6497 25.6408 20.9688 25.7968C20.7592 25.8455 20.5886 25.9966 20.5171 26.2014L20.0994 27.386H18.9018L18.4842 26.2014C18.4127 25.9983 18.2421 25.8472 18.0341 25.7984C17.3467 25.6392 16.6918 25.3678 16.0857 24.9908C15.9037 24.877 15.6762 24.8657 15.4829 24.9583L14.3502 25.4994L13.502 24.6528L14.0447 23.5185C14.1373 23.3235 14.1243 23.0961 14.0106 22.9124C13.6352 22.3112 13.3638 21.6563 13.203 20.9657C13.1542 20.7561 13.0031 20.5855 12.8 20.514L11.617 20.0964V18.8988L12.8 18.4828L12.7983 18.486ZM9.05437 23.4405L10.9442 23.9491C11.279 24.0401 11.4789 24.3846 11.3879 24.7194C11.2985 25.0541 10.9524 25.254 10.6176 25.163L10.1675 25.0427C12.1061 28.3073 15.6358 30.3533 19.4983 30.3533C25.4833 30.3533 30.3534 25.4849 30.3534 19.5017C30.3534 18.7786 30.2819 18.0555 30.1405 17.3519C30.0723 17.0106 30.2933 16.6791 30.6329 16.6109C30.9725 16.5426 31.3056 16.7636 31.3739 17.1033C31.5315 17.8881 31.6111 18.6957 31.6111 19.5001C31.6111 26.1772 26.1773 31.6093 19.4985 31.6093C15.1954 31.6093 11.263 29.3343 9.09854 25.7026L8.99129 26.1023C8.91654 26.3834 8.66142 26.5687 8.38356 26.5687C8.32994 26.5687 8.27469 26.5622 8.21944 26.5475C7.88469 26.4582 7.6848 26.112 7.77582 25.7773L8.28446 23.8858C8.32833 23.7249 8.43396 23.5868 8.57858 23.5039C8.7232 23.4211 8.89545 23.3983 9.05631 23.4422L9.05437 23.4405ZM19.498 24.5211C22.267 24.5211 24.5208 22.2689 24.5208 19.5017C24.5208 16.7346 22.2685 14.4824 19.498 14.4824C16.7307 14.4824 14.4786 16.7346 14.4786 19.5017C14.4786 22.2689 16.7308 24.5211 19.498 24.5211ZM19.498 15.7399C21.5731 15.7399 23.2615 17.4266 23.2615 19.5017C23.2615 21.5752 21.5731 23.2636 19.498 23.2636C17.4229 23.2636 15.7361 21.5768 15.7361 19.5017C15.7361 17.4266 17.4245 15.7399 19.498 15.7399ZM38.9929 35.649C38.9913 35.6376 38.9897 35.6246 38.988 35.6132C38.9864 35.6035 38.9832 35.5937 38.9815 35.584C38.9783 35.5742 38.9767 35.5628 38.9734 35.5531C38.9702 35.5433 38.9669 35.5352 38.9637 35.5255C38.9604 35.5157 38.9572 35.506 38.9523 35.4946C38.949 35.4865 38.9442 35.4783 38.9409 35.4702C38.936 35.4605 38.9312 35.4491 38.9263 35.4393C38.9214 35.4312 38.9182 35.4247 38.9133 35.4166C38.9068 35.4068 38.9019 35.3955 38.8954 35.3857C38.8905 35.3776 38.884 35.3711 38.8792 35.363C38.8727 35.3532 38.8662 35.3451 38.8597 35.3353C38.8499 35.324 38.8402 35.3142 38.8304 35.3028C38.8255 35.298 38.8223 35.2931 38.8174 35.2898L36.1833 32.6558C35.9379 32.4104 35.5398 32.4104 35.2945 32.6558C35.0491 32.9011 35.0491 33.2993 35.2945 33.5446L36.8545 35.1046L8.08236 35.1078C5.77161 35.1078 3.89325 33.2278 3.89325 30.9188V30.8229C5.39476 30.5288 6.5306 29.2044 6.5306 27.6201C6.5306 26.0357 5.39472 24.7114 3.89325 24.4173V24.3214C3.89325 22.7273 4.826 21.2453 6.2706 20.5466C6.5826 20.3955 6.71422 20.0185 6.5631 19.7065C6.41197 19.3945 6.03499 19.2629 5.72299 19.414C3.84775 20.3224 2.63549 22.2479 2.63549 24.3215V24.4173C1.13561 24.7115 0.00139152 26.0358 0.00139152 27.6202C0.00139152 29.2045 1.13565 30.5289 2.63549 30.823V30.9189C2.63549 33.9235 5.07948 36.3675 8.08424 36.3675H36.853L35.293 37.9275C35.0476 38.1729 35.0476 38.571 35.293 38.8164C35.4165 38.9399 35.5774 39 35.7383 39C35.8991 39 36.06 38.9382 36.1835 38.8164L38.8176 36.1823C38.8225 36.1774 38.8257 36.1726 38.8306 36.1693C38.8403 36.1596 38.8501 36.1482 38.8598 36.1368C38.8663 36.1287 38.8728 36.1189 38.8793 36.1092C38.8842 36.1011 38.8907 36.0946 38.8956 36.0864C38.9021 36.0767 38.9086 36.0669 38.9135 36.0556C38.9183 36.0474 38.9232 36.0409 38.9265 36.0328C38.9313 36.0231 38.9362 36.0117 38.9411 36.0019C38.9443 35.9938 38.9492 35.9857 38.9525 35.9776C38.9573 35.9678 38.9606 35.9581 38.9638 35.9467C38.9671 35.9369 38.9703 35.9288 38.9736 35.9191C38.9768 35.9093 38.9785 35.8979 38.9817 35.8882C38.9833 35.8784 38.9866 35.8687 38.9882 35.8589C38.9898 35.8476 38.9915 35.8346 38.9931 35.8232C38.9947 35.8151 38.9963 35.8069 38.9963 35.7988C39.0012 35.7582 39.0012 35.7159 38.9963 35.6737C38.9947 35.6656 38.9929 35.6571 38.9929 35.649ZM1.25731 27.6182C1.25731 26.5116 2.15757 25.613 3.26255 25.613C4.36919 25.613 5.27103 26.5132 5.27103 27.6182C5.27103 28.7248 4.37077 29.6234 3.26255 29.6234C2.15757 29.6234 1.25731 28.7232 1.25731 27.6182ZM31.2237 13.2227L30.7151 15.1158C30.6403 15.3969 30.3852 15.5822 30.1074 15.5822C30.0537 15.5822 29.9985 15.5757 29.9449 15.5611L29.8994 15.5481C29.8815 15.5448 29.8652 15.54 29.8474 15.5335L28.0534 15.0541C27.717 14.9647 27.5187 14.6202 27.6081 14.2838C27.6975 13.9475 28.042 13.7492 28.3784 13.8386L28.8318 13.9605C26.8931 10.6959 23.3635 8.64991 19.4976 8.64991C13.5143 8.64991 8.64586 13.5183 8.64586 19.5015C8.64586 20.2214 8.71736 20.9445 8.85873 21.6514C8.92698 21.9926 8.70598 22.3241 8.36473 22.3923C8.32248 22.4005 8.28186 22.4053 8.24123 22.4053C7.94711 22.4053 7.6855 22.199 7.62535 21.9C7.46772 21.1119 7.3881 20.3059 7.3881 19.5032C7.3881 12.826 12.8206 7.394 19.4974 7.394C23.8021 7.394 27.7346 9.66899 29.9007 13.299L30.0079 12.8993C30.0989 12.5645 30.4434 12.3647 30.7782 12.4557C31.1129 12.545 31.3128 12.8912 31.2218 13.2259L31.2237 13.2227Z" fill="black" stroke="#F5FBFD" stroke-width="0.4" mask="url(#path-1-inside-1_3921_150)"/>
</svg>
