<svg width="41" height="41" viewBox="0 0 41 41" fill="none" xmlns="http://www.w3.org/2000/svg">
<path d="M31.5007 5.22754H9.4974C8.36567 5.23069 7.2812 5.68167 6.48095 6.48192C5.68069 7.28218 5.22972 8.36665 5.22656 9.49837V31.5017C5.22972 32.6334 5.68069 33.7179 6.48095 34.5182C7.2812 35.3184 8.36567 35.7694 9.4974 35.7725H31.5007C32.6334 35.7725 33.7197 35.3226 34.5207 34.5216C35.3216 33.7207 35.7716 32.6344 35.7716 31.5017V9.49837C35.7716 8.36568 35.3216 7.27937 34.5207 6.47844C33.7197 5.6775 32.6334 5.22754 31.5007 5.22754ZM34.0632 31.5017C34.0588 32.1799 33.7873 32.8291 33.3077 33.3087C32.8281 33.7883 32.179 34.0597 31.5007 34.0642H9.4974C8.81916 34.0597 8.16998 33.7883 7.69038 33.3087C7.21079 32.8291 6.93937 32.1799 6.9349 31.5017V9.49837C6.93937 8.82014 7.21079 8.17095 7.69038 7.69136C8.16998 7.21176 8.81916 6.94035 9.4974 6.93587H31.5007C32.179 6.94035 32.8281 7.21176 33.3077 7.69136C33.7873 8.17095 34.0588 8.82014 34.0632 9.49837V31.5017Z" fill="url(#paint0_linear_2999_29)"/>
<path d="M10.8926 18.3612C10.8926 17.9081 11.0726 17.4736 11.3929 17.1532C11.7133 16.8328 12.1478 16.6528 12.6009 16.6528C13.054 16.6528 13.4885 16.8328 13.8089 17.1532C14.1293 17.4736 14.3092 17.9081 14.3092 18.3612V29.4653C14.3092 29.9184 14.1293 30.3529 13.8089 30.6733C13.4885 30.9937 13.054 31.1737 12.6009 31.1737C12.1478 31.1737 11.7133 30.9937 11.3929 30.6733C11.0726 30.3529 10.8926 29.9184 10.8926 29.4653V18.3612Z" fill="url(#paint1_linear_2999_29)"/>
<path d="M12.6009 13.2294C13.5444 13.2294 14.3092 12.4646 14.3092 11.5211C14.3092 10.5776 13.5444 9.81274 12.6009 9.81274C11.6574 9.81274 10.8926 10.5776 10.8926 11.5211C10.8926 12.4646 11.6574 13.2294 12.6009 13.2294Z" fill="url(#paint2_linear_2999_29)"/>
<path d="M30.1013 22.8405V29.4689C30.1013 29.9219 29.9213 30.3565 29.6009 30.6768C29.2805 30.9972 28.846 31.1772 28.3929 31.1772C27.9398 31.1772 27.5053 30.9972 27.1849 30.6768C26.8646 30.3565 26.6846 29.9219 26.6846 29.4689V22.8405C26.6846 22.1088 26.3939 21.4071 25.8765 20.8897C25.3591 20.3722 24.6573 20.0816 23.9256 20.0816C23.1939 20.0816 22.4922 20.3722 21.9747 20.8897C21.4573 21.4071 21.1667 22.1088 21.1667 22.8405V29.4689C21.1667 29.9219 20.9867 30.3565 20.6663 30.6768C20.3459 30.9972 19.9114 31.1772 19.4583 31.1772C19.0053 31.1772 18.5707 30.9972 18.2504 30.6768C17.93 30.3565 17.75 29.9219 17.75 29.4689V18.3647C17.757 17.9138 17.9393 17.4834 18.2582 17.1645C18.577 16.8457 19.0075 16.6634 19.4583 16.6564C19.7477 16.6484 20.0338 16.7189 20.2864 16.8602C20.539 17.0016 20.7487 17.2085 20.8933 17.4593C21.8327 16.9269 22.8954 16.6504 23.9751 16.6576C25.0548 16.6648 26.1137 16.9553 27.0459 17.5001C27.9781 18.0449 28.751 18.8249 29.2871 19.7621C29.8233 20.6993 30.104 21.7608 30.1013 22.8405Z" fill="url(#paint3_linear_2999_29)"/>
<defs>
<linearGradient id="paint0_linear_2999_29" x1="7.35977" y1="16.3774" x2="36.1161" y2="17.2722" gradientUnits="userSpaceOnUse">
<stop stop-color="#00018A"/>
<stop offset="1" stop-color="#3BBAE2"/>
</linearGradient>
<linearGradient id="paint1_linear_2999_29" x1="11.1312" y1="21.9534" x2="14.3507" y2="21.977" gradientUnits="userSpaceOnUse">
<stop stop-color="#00018A"/>
<stop offset="1" stop-color="#3BBAE2"/>
</linearGradient>
<linearGradient id="paint2_linear_2999_29" x1="11.1312" y1="11.0599" x2="14.3478" y2="11.16" gradientUnits="userSpaceOnUse">
<stop stop-color="#00018A"/>
<stop offset="1" stop-color="#3BBAE2"/>
</linearGradient>
<linearGradient id="paint3_linear_2999_29" x1="18.6126" y1="21.9565" x2="30.2437" y2="22.2644" gradientUnits="userSpaceOnUse">
<stop stop-color="#00018A"/>
<stop offset="1" stop-color="#3BBAE2"/>
</linearGradient>
</defs>
</svg>
