<svg width="48" height="29" viewBox="0 0 48 29" fill="none" xmlns="http://www.w3.org/2000/svg">
<path d="M47.337 13.6039L34.1595 0.426452C33.8714 0.154036 33.4899 0.00224727 33.0934 0.00224727C32.6969 0.00224727 32.3154 0.154036 32.0273 0.426452L28.6509 3.80282C28.51 3.9431 28.3981 4.10985 28.3218 4.29349C28.2455 4.47712 28.2062 4.67402 28.2062 4.87288C28.2062 5.07174 28.2455 5.26865 28.3218 5.45228C28.3981 5.63591 28.51 5.80266 28.6509 5.94295L36.8643 14.1552L28.6509 22.3686C28.3675 22.6525 28.2083 23.0373 28.2083 23.4385C28.2083 23.8397 28.3675 24.2245 28.6509 24.5084L32.0273 27.8847C32.3108 28.1657 32.6938 28.3233 33.093 28.3233C33.4921 28.3233 33.8752 28.1657 34.1587 27.8847L47.3367 14.7068C47.4091 14.6344 47.4665 14.5484 47.5057 14.4539C47.5449 14.3593 47.5651 14.2579 47.5651 14.1555C47.5651 14.0531 47.5449 13.9517 47.5057 13.8571C47.4665 13.7625 47.4094 13.6763 47.337 13.6039ZM33.1297 26.7819L29.786 23.4382L38.5183 14.7065C38.6644 14.5603 38.7466 14.362 38.7466 14.1552C38.7466 13.9485 38.6644 13.7502 38.5183 13.6039L29.7537 4.90509L33.0563 1.52872L45.6846 14.1568L33.1297 26.7819ZM29.6954 13.6039L16.5204 0.428323C16.2328 0.153417 15.8503 0 15.4524 0C15.0546 0 14.6721 0.153417 14.3845 0.428323L11.0065 3.80555C10.7235 4.08905 10.5645 4.47325 10.5645 4.87382C10.5645 5.27439 10.7235 5.65859 11.0065 5.94209L15.3211 10.2564H1.51079C1.11026 10.2569 0.726285 10.4163 0.443069 10.6995C0.159853 10.9827 0.000515812 11.3667 0 11.7672V16.5433C0.000515812 16.9438 0.159853 17.3278 0.443069 17.611C0.726285 17.8942 1.11026 18.0535 1.51079 18.054H15.3211L11.0065 22.3686C10.7238 22.6522 10.5651 23.0362 10.5651 23.4366C10.5651 23.837 10.7238 24.2211 11.0065 24.5046L14.3845 27.8825C14.668 28.1654 15.052 28.3242 15.4524 28.3242C15.8529 28.3242 16.2369 28.1654 16.5204 27.8825L29.6956 14.7065C29.8418 14.5603 29.9239 14.362 29.9239 14.1552C29.9239 13.9485 29.8416 13.7502 29.6954 13.6039ZM15.4871 26.7796L12.1091 23.471L17.7546 17.8255C17.8636 17.7165 17.9378 17.5775 17.9679 17.4263C17.9979 17.2751 17.9825 17.1184 17.9235 16.976C17.8645 16.8335 17.7647 16.7118 17.6365 16.6261C17.5083 16.5404 17.3577 16.4946 17.2035 16.4945L1.55952 16.5433L1.51079 11.816H17.2035C17.3577 11.8159 17.5084 11.7702 17.6366 11.6845C17.7648 11.5988 17.8647 11.477 17.9237 11.3346C17.9827 11.1921 17.9982 11.0354 17.9681 10.8841C17.938 10.7329 17.8638 10.594 17.7548 10.4849L12.1093 4.90813L15.4522 1.5656L28.0433 14.1568L15.4871 26.7796Z" fill="black"/>
</svg>
