<svg width="54" height="45" viewBox="0 0 54 45" fill="none" xmlns="http://www.w3.org/2000/svg">
<path d="M3.61502 29.8813C3.47208 30.1269 3.47208 30.4307 3.61502 30.6764C14.0182 48.6576 39.9818 48.6645 50.3878 30.6764C50.5307 30.4307 50.5307 30.1269 50.3878 29.8813C40.0132 11.9469 14.0273 11.8823 3.61502 29.8813ZM39.3099 30.2788C39.3099 37.0662 33.7889 42.5871 27.0017 42.5871C20.2144 42.5871 14.6934 37.0661 14.6934 30.2788C14.6934 23.4915 20.2144 17.9706 27.0017 17.9706C33.7889 17.9706 39.3099 23.4916 39.3099 30.2788ZM5.22566 30.2788C8.23186 25.2938 12.8352 21.5549 18.1526 19.5715C11.419 25.1461 11.423 35.4178 18.1526 40.9879C12.8347 39.0023 8.2314 35.2634 5.22566 30.2788ZM35.8502 40.9862C42.5838 35.4115 42.5775 25.1398 35.8502 19.5698C41.168 21.5531 45.7714 25.2919 48.7771 30.2771C45.7709 35.2644 41.1676 39.0033 35.8502 40.9862Z" fill="black"/>
<path d="M27.0035 38.6162C31.3341 38.6162 34.9006 35.2995 35.3032 31.0718H35.3411C35.7789 31.0718 36.1362 30.7167 36.1362 30.2768C36.1362 25.2404 32.0401 21.144 27.0035 21.144C26.5658 21.144 26.2084 21.4992 26.2084 21.9391V21.9771C21.9828 22.3791 18.6641 25.9459 18.6641 30.2768C18.6663 34.8776 22.4049 38.6162 27.0035 38.6162ZM34.5056 29.4835H27.7988V22.7745C31.3254 23.1475 34.1351 25.9571 34.5056 29.4835ZM26.2082 23.5761V30.2788C26.2082 30.7166 26.5633 31.0739 27.0033 31.0739H33.706C33.3107 34.4218 30.4586 37.0305 27.0033 37.0305C23.2824 37.0305 20.2537 34.0019 20.2537 30.2809C20.2537 26.8257 22.8603 23.9717 26.2082 23.5761Z" fill="black"/>
<path d="M27.0028 12.5096C27.4405 12.5052 27.7934 12.1456 27.789 11.7056L27.6661 0.786169C27.6616 0.350648 27.3065 0 26.8733 0C26.4266 0 26.0737 0.364051 26.0782 0.804008L26.201 11.7235C26.2055 12.1478 26.5427 12.5096 27.0028 12.5096Z" fill="black"/>
<path d="M17.6983 13.2222C17.8278 13.5214 18.1204 13.7001 18.4264 13.7001C18.9937 13.7001 19.3823 13.1172 19.1545 12.5901L15.3286 3.75699C15.1544 3.35497 14.6876 3.16962 14.2834 3.3438C13.8813 3.51801 13.696 3.9848 13.8702 4.38903L17.6983 13.2222Z" fill="black"/>
<path d="M11.4305 16.6211C12.1385 16.6211 12.4981 15.7546 11.9822 15.2565L6.61303 10.0548C6.29811 9.74884 5.79558 9.75778 5.48964 10.0727C5.18365 10.3876 5.19259 10.8901 5.5075 11.1961C11.109 16.5027 10.8456 16.6211 11.4305 16.6211Z" fill="black"/>
<path d="M5.3088 21.3317C5.46961 20.923 5.27084 20.4629 4.86212 20.3021L1.08536 18.8079C0.676645 18.6471 0.216573 18.8459 0.0557373 19.2546C-0.10507 19.6633 0.0937055 20.1234 0.502424 20.2842L4.27918 21.7784C4.6879 21.9392 5.14797 21.7382 5.3088 21.3317Z" fill="black"/>
<path d="M53.9333 18.9843C53.759 18.5823 53.29 18.3969 52.888 18.5711L49.0398 20.2373C48.2514 20.579 48.4971 21.7605 49.3569 21.7605C49.6518 21.7605 49.4574 21.7627 53.52 20.0274C53.9221 19.8532 54.1074 19.3863 53.9333 18.9843Z" fill="black"/>
<path d="M43.2325 16.4313L48.3224 11.176C48.6284 10.8611 48.6195 10.3586 48.3046 10.0526C47.9897 9.74664 47.4871 9.75558 47.1812 10.0705L42.0912 15.3258C41.7852 15.6407 41.7942 16.1432 42.1091 16.4492C42.4262 16.7574 42.931 16.744 43.2325 16.4313Z" fill="black"/>
<path d="M35.5362 13.6932C35.8533 13.6932 36.1504 13.5033 36.2755 13.1907L39.7686 4.36612C39.9294 3.95741 39.7306 3.49733 39.3219 3.3365C38.9132 3.17569 38.4531 3.37447 38.2923 3.78319L34.7991 12.6077C34.5914 13.1259 34.9778 13.6932 35.5362 13.6932Z" fill="black"/>
</svg>
