<svg width="40" height="44" viewBox="0 0 40 44" fill="none" xmlns="http://www.w3.org/2000/svg">
<path d="M39.2546 0H3.58262C3.16549 0 2.83775 0.337306 2.83775 0.749575V9.43697C2.83775 9.84924 3.16549 10.1865 3.58262 10.1865H11.2101V15.831C11.0165 15.831 10.8303 15.8985 10.6813 16.0409L2.07075 24.4812C1.92178 24.6237 1.83984 24.8186 1.83984 25.0209V37.846C1.83984 37.8835 1.83984 37.9134 1.84729 37.9434H0.744875C0.327745 37.9434 0 38.2807 0 38.693V43.2504C0 43.6627 0.327745 44 0.744875 44H16.9534C17.3705 44 17.6982 43.6627 17.6982 43.2504V38.693C17.6982 38.2807 17.3705 37.9434 16.9534 37.9434H16.2979C16.3053 37.9134 16.3053 37.8835 16.3053 37.846V36.4593C18.8007 35.7097 20.1339 33.8658 20.1935 33.7833C20.2159 33.7458 20.2382 33.7159 20.2531 33.6784L20.4244 33.3261H30.8827C31.2924 33.3261 31.6276 32.9888 31.6276 32.5765V10.1866H39.2551C39.6723 10.1866 40 9.84932 40 9.43705V0.749657C40 0.337388 39.6723 8.14358e-05 39.2551 8.14358e-05L39.2546 0ZM16.2081 42.501H1.48935V39.4428H16.2081V42.501ZM30.1374 31.8271H19.9551C19.672 31.8271 19.4113 31.992 19.2847 32.2468L18.9495 32.9515C18.7335 33.2213 17.497 34.698 15.4039 35.1477C15.0613 35.2227 14.8155 35.5225 14.8155 35.8823V37.8462C14.8155 37.8837 14.8155 37.9136 14.8229 37.9436H3.32205C3.3295 37.9136 3.3295 37.8837 3.3295 37.8462V25.3358L11.2102 17.6151V23.237C11.2102 23.252 11.2102 23.267 11.2176 23.282L8.47647 24.8786C8.11893 25.081 7.99975 25.5457 8.20087 25.898C8.40943 26.2578 8.86379 26.3852 9.22133 26.1753L18.6961 20.6733C18.346 22.3299 17.184 25.0883 13.3407 26.5126C13.0502 26.625 12.8491 26.9099 12.8565 27.2322C12.8565 27.4046 12.8789 31.4973 8.65542 32.6214C8.26064 32.7264 8.02229 33.1386 8.12654 33.5359C8.21593 33.8732 8.52133 34.0981 8.84906 34.0981C8.90865 34.0981 8.97569 34.0906 9.04273 34.0681C12.9608 33.0262 14.1822 29.7281 14.3315 27.7343C14.5996 27.6218 14.8529 27.5094 15.0913 27.3745C15.2253 27.5019 15.4041 27.5769 15.5978 27.5769C16.298 27.5769 16.864 28.1315 16.8864 28.8287L16.8268 29.2784C16.797 29.4958 16.864 29.7132 17.0056 29.8706C17.1471 30.0355 17.3482 30.1254 17.5642 30.1254H25.2738C25.4823 30.1254 25.6909 30.0355 25.8324 29.8706C25.974 29.7132 26.041 29.4958 26.0112 29.2784L25.9516 28.8287C25.9739 28.1465 26.5177 27.5919 27.203 27.5769L27.5754 27.6218C27.7989 27.6443 28 27.5769 28.1565 27.4344C28.3203 27.292 28.4097 27.0896 28.4097 26.8722V6.11633H30.1378L30.1374 31.8271ZM12.6999 22.4201V6.11701H14.428V21.416L12.6999 22.4201ZM20.3274 19.2569C20.32 18.9945 20.171 18.7546 19.9401 18.6272C19.7166 18.4998 19.4336 18.5073 19.2101 18.6347L15.9178 20.5536V6.11669H26.9195V26.093C25.616 26.243 24.5807 27.3073 24.4689 28.6266H18.3683C18.2789 27.6072 17.6384 26.7451 16.752 26.3404C20.4465 23.492 20.3274 19.3096 20.3274 19.2569ZM38.51 8.68797H31.6271V6.11692H35.6271C36.0368 6.11692 36.3719 5.77961 36.3719 5.36734C36.3719 4.95507 36.0368 4.61777 35.6271 4.61777H7.21027C6.80059 4.61777 6.4654 4.95507 6.4654 5.36734C6.4654 5.77961 6.80059 6.11692 7.21027 6.11692H11.2102V8.68797H4.32736V1.49973H38.5096L38.51 8.68797Z" fill="black"/>
</svg>
