<svg width="48" height="47" viewBox="0 0 48 47" fill="none" xmlns="http://www.w3.org/2000/svg">
<path d="M28.2665 15.2987C28.2364 15.0424 28.066 14.8392 27.8571 14.701C27.8571 14.701 14.5714 7.03104 14.5714 7.03104C14.3364 6.9285 14.0605 6.87856 13.8188 6.99568C13.7069 6.98809 0.532963 14.6652 0.428349 14.701C0.357797 14.7612 0.277226 14.8136 0.216951 14.8876C0.0722571 15.0362 0.0240172 15.2427 8.58307e-06 15.4434C1.16405e-08 15.4434 0 30.7849 0 30.7849C0 31.0913 0.163226 31.3742 0.428572 31.5274L13.7143 39.1973C13.8492 39.2572 13.9939 39.3126 14.1429 39.312C14.2918 39.3125 14.4365 39.2572 14.5714 39.1973L27.8571 31.5274C28.8221 30.9569 27.9756 29.4883 27 30.0425C27 30.0425 15 36.9706 15 36.9706V23.6092C17.8724 21.948 23.716 18.5789 26.5714 16.9282C26.5714 16.9282 26.5714 26.4992 26.5714 26.4992C26.5714 26.973 26.9548 27.3564 27.4286 27.3564C27.9023 27.3564 28.2857 26.973 28.2857 26.4992V15.4434C28.2803 15.3948 28.2741 15.3473 28.2665 15.2987ZM20.7857 18.2889L9.21496 11.6083L14.1429 8.76337L25.7143 15.4433L20.7857 18.2889ZM14.1429 22.1243L2.57174 15.4435L7.50031 12.5982L19.0712 19.2788L14.1429 22.1243ZM1.71428 16.9282L13.2857 23.6092V36.9706L1.71428 30.2903V16.9282Z" fill="black"/>
<path d="M38.5737 4.25675H41.2668C42.2948 8.10266 47.9513 7.40098 48.0022 3.39951C47.9509 -0.599411 42.2955 -1.30399 41.2668 2.54257L38.5737 2.54246C37.1557 2.54246 36.0022 3.69592 36.0022 5.11389V22.2568H31.7165C31.2427 22.2568 30.8594 22.6401 30.8594 23.1139C30.8594 23.5877 31.2427 23.971 31.7165 23.971H36.0022V41.1139C36.0022 42.5319 37.1557 43.6853 38.5737 43.6853H41.2668C42.2859 47.5132 47.9488 46.8465 48.0022 42.8281C47.9435 38.808 42.2909 38.1406 41.2668 41.9711L38.5737 41.971C38.1007 41.971 37.7165 41.5868 37.7165 41.1139V23.971H41.2668C41.65 25.4458 42.9805 26.5425 44.5737 26.5425C49.1023 26.4001 49.106 19.8288 44.5736 19.6853C42.9805 19.6853 41.65 20.782 41.2668 22.2568H37.7165V5.11389C37.7165 4.64096 38.1007 4.25675 38.5737 4.25675ZM44.5737 1.68532C46.8341 1.74489 46.8336 5.05466 44.5736 5.11389C42.3133 5.05432 42.3137 1.74456 44.5737 1.68532ZM44.5737 41.1139C46.8341 41.1735 46.8336 44.4832 44.5736 44.5425C42.3133 44.4829 42.3137 41.1731 44.5737 41.1139ZM44.5737 21.3996C46.8341 21.4592 46.8336 24.7689 44.5736 24.8282C42.3133 24.7686 42.3137 21.4588 44.5737 21.3996Z" fill="black"/>
</svg>
