<svg width="47" height="36" viewBox="0 0 47 36" fill="none" xmlns="http://www.w3.org/2000/svg">
<path d="M28.0846 0.00391707C27.7413 0.00391707 27.4429 0.243385 27.3688 0.578227L26.9435 2.48422C25.9331 2.73342 24.95 3.08968 24.0156 3.54916C23.84 3.63482 23.7074 3.78668 23.643 3.96969C23.5806 4.15464 23.5943 4.35517 23.6801 4.53039C23.7659 4.70561 23.9181 4.838 24.1014 4.9003C24.2867 4.9626 24.4877 4.95092 24.6632 4.86526C25.6327 4.39021 26.6548 4.03586 27.7121 3.81198C27.993 3.75163 28.2134 3.53358 28.2758 3.25322L28.6737 1.46988H32.1517L32.5477 3.24739C32.6101 3.52774 32.8325 3.74579 33.1134 3.80421C34.6895 4.13712 36.1915 4.76014 37.5413 5.63818L37.5394 5.64013C37.7832 5.79588 38.0934 5.79588 38.3353 5.64013L39.8724 4.66475L42.3341 7.12756L41.3568 8.66558V8.66364C41.2008 8.90506 41.2008 9.21462 41.3568 9.456C42.2365 10.8071 42.8588 12.3082 43.1924 13.8852H43.1904C43.2509 14.1655 43.4694 14.3855 43.7503 14.4478L45.5273 14.845V18.328L43.7444 18.7251C43.4635 18.7874 43.2451 19.0074 43.1865 19.2897C42.853 20.8648 42.2307 22.3639 41.3529 23.7131C41.1969 23.9545 41.1969 24.264 41.3529 24.5054L42.3341 26.0493L39.8724 28.5121L38.3294 27.5329V27.5309C37.9861 27.3129 37.5335 27.4141 37.3151 27.7568C37.0986 28.0975 37.1981 28.5511 37.5414 28.7672L39.5817 30.0638C39.8724 30.2488 40.2528 30.2059 40.4966 29.9626L43.7893 26.6684L43.7873 26.6665C44.0312 26.4251 44.0721 26.0474 43.8888 25.7573L42.8412 24.1083C43.6039 22.8506 44.1697 21.4839 44.5208 20.0549L46.4265 19.6304C46.762 19.5565 47 19.2586 47 18.9159V14.257C47 13.9144 46.762 13.6165 46.4265 13.5425L44.5266 13.1181C44.1755 11.6871 43.6079 10.3184 42.8451 9.05884L43.8907 7.41565H43.8888C44.0721 7.12556 44.0312 6.74789 43.7873 6.50452L40.4946 3.21037H40.4966C40.2527 2.96701 39.8724 2.92613 39.5817 3.11108L37.9393 4.15464C36.6792 3.39148 35.3118 2.8249 33.882 2.47253L33.4587 0.572363L33.4567 0.57431C33.3826 0.237499 33.0841 0 32.7408 0L28.0846 0.00391707ZM18.6297 2.47839C17.1199 2.47839 15.7213 3.28635 14.9684 4.59466L0.564707 29.6434C-0.190182 30.9556 -0.186287 32.5715 0.564707 33.8818C1.32349 35.1901 2.726 36 4.24167 36L33.002 35.9981C34.5177 35.9981 35.9202 35.1901 36.679 33.8798C37.4378 32.5696 37.4397 30.9537 36.679 29.6415L22.2753 4.59471C21.5224 3.2864 20.1257 2.47844 18.614 2.47844L18.6297 2.47839ZM18.6297 3.94439C19.6167 3.94439 20.5257 4.47006 21.0173 5.32472L35.4209 30.3715C35.9164 31.232 35.9144 32.2872 35.4209 33.1458C34.9235 34.0044 34.0087 34.532 33.0158 34.532H4.2554C3.26252 34.532 2.34769 34.0043 1.85027 33.1458C1.35286 32.2872 1.3509 31.232 1.85027 30.3715L16.2539 5.32273C16.7455 4.46807 17.6545 3.9424 18.6415 3.9424L18.6297 3.94439ZM30.3922 8.90699C29.3525 8.90699 28.3168 9.1231 27.3492 9.5436C26.9786 9.7052 26.8089 10.1374 26.9708 10.5093C27.1327 10.8792 27.5638 11.0505 27.9363 10.8889C29.3291 10.2834 30.8935 10.2094 32.337 10.6786C33.7804 11.1478 35.0015 12.1291 35.772 13.4393C36.5426 14.7477 36.8059 16.2935 36.5153 17.7848C36.2246 19.2761 35.3975 20.6078 34.1921 21.5306L34.1901 21.5287C34.036 21.6474 33.9346 21.8227 33.9092 22.0154C33.8839 22.2081 33.9365 22.4028 34.0536 22.5566C34.1726 22.7104 34.3481 22.8117 34.5412 22.837C34.7343 22.8623 34.9294 22.8117 35.0835 22.6929C36.5738 21.552 37.5939 19.9049 37.9548 18.0651C38.3137 16.2234 37.9899 14.3154 37.038 12.6973C36.0881 11.0795 34.5763 9.86654 32.7915 9.2844C32.0112 9.02936 31.2017 8.90505 30.3922 8.90699ZM18.6297 13.9239C18.4346 13.9219 18.2493 13.9998 18.1108 14.138C17.9723 14.2743 17.8962 14.4612 17.8962 14.6559V23.1677C17.8962 23.3623 17.9723 23.5492 18.1108 23.6855C18.2493 23.8238 18.4346 23.9016 18.6297 23.9016C19.0354 23.9016 19.3651 23.5726 19.3632 23.1677V14.6559C19.3651 14.251 19.0354 13.9239 18.6297 13.9239ZM18.6297 26.7578C18.4346 26.7578 18.2493 26.8337 18.1108 26.9719C17.9723 27.1082 17.8962 27.2951 17.8962 27.4898V28.6034C17.8962 29.0084 18.2239 29.3355 18.6297 29.3355C19.0355 29.3355 19.3632 29.0084 19.3632 28.6034V27.4898C19.3651 27.0849 19.0354 26.7578 18.6297 26.7578Z" fill="black"/>
</svg>
