<svg width="31" height="36" viewBox="0 0 31 36" fill="none" xmlns="http://www.w3.org/2000/svg">
<path d="M29.4439 23.2611C28.4397 22.7049 27.212 22.7643 26.2651 23.4175L19.982 26.8792C19.9577 26.8923 19.9348 26.9067 19.9133 26.9241C19.813 27.0009 19.7027 27.0632 19.5867 27.111C19.7886 26.8387 19.9075 26.5128 19.9247 26.1739C19.9591 25.3627 19.399 24.5907 18.2601 23.8752C15.865 22.3717 11.1707 21.3824 9.31283 22.4137L9.29564 22.4239C9.29564 22.4239 7.85596 23.3002 5.15277 24.9514C4.61127 24.359 3.73744 24.2243 3.04554 24.6255L0.252136 26.255C0.0114738 26.3969 -0.0716111 26.7083 0.0673404 26.9531L5.08705 35.7436H5.08848C5.15438 35.8609 5.26468 35.9464 5.39361 35.9812C5.43658 35.9928 5.48099 36 5.5254 36C5.61278 35.9986 5.70016 35.9754 5.77752 35.9305L8.5695 34.2996V34.301C9.33301 33.8534 9.63384 32.8917 9.26568 32.0805L9.66823 31.8213C9.70548 31.8343 9.74989 31.8474 9.80003 31.8618L15.8436 33.5406C16.3422 33.7216 16.8665 33.8158 17.3965 33.8201C18.1586 33.8201 18.9064 33.597 19.5481 33.1799L28.871 27.4948C30.3192 26.8126 30.5828 25.8334 30.6086 25.3091V25.3077C30.6272 24.4589 30.1787 23.6709 29.4439 23.2611ZM8.06353 33.4176L5.70847 34.7922L1.19447 26.8838L3.54953 25.5092C3.88331 25.3166 4.30876 25.4324 4.50217 25.7685L8.31976 32.4529C8.51172 32.7903 8.39731 33.222 8.06353 33.4176ZM29.5986 25.2541C29.5728 25.7683 29.1546 26.2376 28.4225 26.578C28.4053 26.5867 28.3882 26.5953 28.3724 26.6055L19.0224 32.3065L19.0138 32.3109C18.1601 32.8598 17.0985 32.9554 16.1617 32.5701C16.1503 32.5672 16.1402 32.5629 16.1288 32.56L10.0679 30.8769C10.002 30.8581 9.95619 30.8421 9.91608 30.8276H9.91465C9.65107 30.7161 9.34737 30.7654 9.1325 30.9551L8.76578 31.1927L5.69447 25.8131C8.25725 24.2473 9.67966 23.3826 9.80727 23.303C11.1882 22.5498 15.4742 23.3262 17.7292 24.7413C18.5014 25.2265 18.934 25.7306 18.9182 26.1289C18.9025 26.4895 18.5028 26.8936 17.7894 27.2731L17.788 27.2746C16.3483 27.1008 14.933 26.7647 13.5677 26.2723C13.4402 26.2303 13.3013 26.2404 13.1824 26.3012C13.062 26.3621 12.9718 26.4693 12.9303 26.5967C12.8429 26.8647 12.9861 27.1529 13.2511 27.2413C16.9514 28.4739 19.3222 28.6419 20.4983 27.7555L26.7612 24.3053C26.7698 24.301 26.7784 24.2952 26.7856 24.2908V24.2923C27.4101 23.8244 28.2482 23.765 28.9315 24.1402C29.3412 24.3574 29.5976 24.7862 29.599 25.254L29.5986 25.2541ZM4.3963 27.9482C4.46792 28.0655 4.48941 28.206 4.45503 28.3407C4.42208 28.474 4.33613 28.5884 4.21867 28.6565C4.1012 28.726 3.96082 28.7434 3.82902 28.7057C3.69867 28.668 3.58693 28.5797 3.52247 28.458L2.92225 27.4065C2.78329 27.1631 2.86638 26.8517 3.10705 26.7112C3.34771 26.5693 3.65713 26.6533 3.79608 26.8966L4.3963 27.9482ZM17.4392 0.762709C17.389 0.484611 17.5695 0.218081 17.8432 0.167392C18.2758 0.0862802 18.7113 0.0312389 19.1496 0.00227211C19.2857 -0.0107641 19.4204 0.0326891 19.5249 0.122492C19.6281 0.212296 19.6911 0.341204 19.6997 0.478808C19.7083 0.614961 19.6624 0.751115 19.5708 0.852498C19.4791 0.955336 19.3501 1.01617 19.2141 1.02051C18.8158 1.04659 18.4204 1.09728 18.0279 1.1697C17.9978 1.1755 17.9663 1.17839 17.9348 1.17839C17.6913 1.17839 17.4836 1.00315 17.4392 0.762709ZM14.8836 1.74039C14.7647 1.48547 14.8707 1.1813 15.1228 1.05964C15.5196 0.868454 15.9279 0.701884 16.3461 0.561366C16.4736 0.513566 16.6154 0.520808 16.7386 0.580195C16.8604 0.639582 16.9549 0.746766 16.9979 0.877123C17.0423 1.00893 17.0309 1.15088 16.9678 1.27399C16.9062 1.39566 16.7974 1.48836 16.667 1.52891C16.2888 1.65782 15.9192 1.80846 15.5583 1.98229C15.4379 2.04023 15.299 2.04747 15.1729 2.00257C15.0469 1.95622 14.9437 1.86207 14.8864 1.7404L14.8836 1.74039ZM12.666 3.35396C12.5786 3.25112 12.5357 3.11642 12.5457 2.98172C12.5571 2.84701 12.6202 2.721 12.7219 2.63264C13.0571 2.34441 13.4081 2.07644 13.7748 1.8302C13.8851 1.75198 14.024 1.72156 14.1573 1.74764C14.2905 1.77371 14.4094 1.85192 14.4839 1.96635C14.5598 2.08077 14.5856 2.22127 14.5569 2.35598C14.5283 2.49069 14.4481 2.60801 14.332 2.68188C13.9997 2.90349 13.6817 3.14683 13.378 3.40898C13.2763 3.49733 13.1445 3.54079 13.0098 3.53065C12.8766 3.51906 12.7534 3.45533 12.666 3.35249V3.35396ZM10.8095 4.78647C11.0573 4.42001 11.3281 4.06804 11.6174 3.73492C11.8022 3.52635 12.1188 3.50752 12.3265 3.69291C12.5342 3.87686 12.5571 4.19698 12.3766 4.40844C12.1131 4.71117 11.8681 5.02983 11.6432 5.36295C11.4856 5.5947 11.1719 5.65409 10.9413 5.49476C10.712 5.33543 10.6533 5.01821 10.8109 4.78646L10.8095 4.78647ZM9.51018 7.36177C9.6563 6.94318 9.82963 6.53326 10.0244 6.13495C10.1534 5.89161 10.4499 5.79746 10.6948 5.91913C10.9384 6.0408 11.0429 6.33773 10.9298 6.58831C10.7521 6.94898 10.596 7.32123 10.4628 7.70071C10.4184 7.82962 10.3253 7.93536 10.2049 7.99474C10.0832 8.05558 9.94279 8.06282 9.81529 8.01647C9.6878 7.97157 9.58466 7.87597 9.52736 7.75285C9.47006 7.62829 9.46432 7.48634 9.5116 7.35888L9.51018 7.36177ZM8.89133 10.5976C8.91426 10.0182 8.98158 9.44173 9.09475 8.87252C9.15349 8.60021 9.41707 8.42496 9.68782 8.47999C9.95856 8.53503 10.1348 8.80009 10.0846 9.07386C9.98147 9.58949 9.91987 10.1138 9.89839 10.6396C9.88693 10.9134 9.66489 11.1292 9.39414 11.1292H9.37265H9.37409C9.09618 11.1162 8.88128 10.8786 8.89276 10.5976L8.89133 10.5976ZM30.9721 5.85989L30.2687 7.98909C30.2215 8.13249 30.114 8.24547 29.9751 8.30195C29.9163 8.32513 29.8533 8.33671 29.7903 8.33671C29.7058 8.33671 29.6241 8.31644 29.5496 8.27588L27.6387 7.23301C27.3966 7.09831 27.3077 6.7898 27.4381 6.54355C27.5699 6.29732 27.8722 6.20462 28.1171 6.33497L28.8105 6.71156C27.2762 3.47864 24.1575 1.31458 20.6208 1.03092C20.4861 1.02368 20.3601 0.959948 20.2698 0.857111C20.181 0.754274 20.1366 0.61812 20.1481 0.481974C20.1581 0.345821 20.2226 0.218359 20.3271 0.130005C20.4303 0.043097 20.5649 0.00109298 20.6996 0.0141303C22.6263 0.167663 24.4772 0.833929 26.0673 1.94488C27.6559 3.05583 28.9266 4.57232 29.7503 6.33958L30.0153 5.53714C30.1041 5.26918 30.3906 5.12577 30.6542 5.21558C30.9192 5.30539 31.0625 5.59361 30.9737 5.86159L30.9721 5.85989ZM19.8402 3.9277C17.9693 3.9277 16.1759 4.67942 14.8535 6.01633C13.5299 7.35325 12.7878 9.16667 12.7878 11.0584C12.7878 12.9487 13.5299 14.7621 14.8521 16.1006C16.1757 17.4375 17.9692 18.1878 19.8388 18.1878C21.7097 18.1878 23.5032 17.4375 24.8255 16.1006C26.1477 14.7622 26.8912 12.9488 26.8912 11.0584C26.8883 9.16823 26.1448 7.35625 24.8241 6.0193C23.5018 4.68238 21.7097 3.93059 19.8402 3.9277ZM19.8402 17.1663V17.1678C18.2372 17.1678 16.7002 16.5232 15.5672 15.3775C14.4341 14.2318 13.798 12.6777 13.798 11.0585C13.798 9.43765 14.4341 7.88349 15.5672 6.73791C16.7003 5.59233 18.2374 4.9491 19.8402 4.9491C21.4418 4.9491 22.9789 5.59221 24.1118 6.73791C25.2448 7.8836 25.881 9.43777 25.881 11.0585C25.8795 12.6778 25.2421 14.2305 24.1104 15.3764C22.9773 16.5221 21.4416 17.1652 19.8399 17.1681L19.8402 17.1663ZM21.8701 11.4248C22.2898 11.9086 22.4102 12.5879 22.1838 13.1905C21.8758 13.9046 21.204 14.3883 20.4347 14.452C20.4176 14.452 20.4004 14.4549 20.3832 14.4564V15.0314H20.3846C20.3846 15.3124 20.1583 15.5413 19.8789 15.5413C19.601 15.5413 19.3747 15.3124 19.3747 15.0314V14.4216C18.4049 14.2898 17.617 13.5656 17.3921 12.6039C17.3305 12.3301 17.501 12.0578 17.7717 11.9941C18.0425 11.9318 18.3118 12.1013 18.3762 12.375C18.5768 13.2586 19.4893 13.5453 20.3058 13.4382H20.3044C20.7055 13.4164 21.0636 13.1804 21.2456 12.8182C21.3387 12.5619 21.2814 12.2751 21.0951 12.0766C20.7972 11.7464 20.376 11.5596 19.9348 11.561C19.6125 11.5219 19.293 11.448 18.9851 11.3423L18.9693 11.3365C18.2101 11.0917 17.6872 10.3863 17.6657 9.58099C17.703 8.77131 18.2301 8.06739 18.9922 7.81391C19.1168 7.76756 19.2443 7.7299 19.3747 7.70093V7.08244C19.3747 6.80145 19.601 6.57259 19.879 6.57259C20.1583 6.57259 20.3846 6.80145 20.3846 7.08244V7.68788C21.247 7.87473 21.9504 8.50623 22.2369 9.35069C22.2856 9.47815 22.2827 9.61865 22.2283 9.74466C22.1738 9.86923 22.0721 9.96627 21.9461 10.0155C21.82 10.0633 21.6796 10.059 21.5564 10.001C21.4332 9.94455 21.3387 9.84026 21.2929 9.7128C21.1754 9.31304 20.8961 8.98277 20.5236 8.80319C20.1526 8.62359 19.7228 8.61345 19.3417 8.77133C18.975 8.88431 18.7114 9.2102 18.6742 9.5955C18.6699 9.92574 18.9063 10.2067 19.3403 10.3863C19.5824 10.466 19.8316 10.521 20.0838 10.5515C20.7728 10.5833 21.4189 10.899 21.8701 11.4248ZM22.2555 21.403C22.307 21.6797 22.1251 21.9462 21.8515 21.9983C21.4203 22.0795 20.9834 22.1345 20.545 22.162H20.5121C20.2413 22.1606 20.0193 21.9433 20.0107 21.6681C20.0021 21.3944 20.2098 21.1626 20.4805 21.1423C20.8788 21.1177 21.2756 21.067 21.6667 20.9931C21.7985 20.9685 21.9346 20.9975 22.0448 21.0742C22.1551 21.151 22.2311 21.2698 22.2555 21.403ZM24.811 20.4239C24.9299 20.6788 24.8239 20.983 24.5718 21.1046C24.175 21.2958 23.7668 21.4624 23.3499 21.6044C23.0849 21.6942 22.7984 21.5508 22.7096 21.2828C22.6207 21.0163 22.764 20.7266 23.0276 20.6368C23.4057 20.5079 23.7768 20.3573 24.1378 20.1849C24.3899 20.0632 24.6907 20.1704 24.811 20.4239ZM26.3181 18.7539C26.5301 18.5714 26.8495 18.596 27.03 18.8118C27.2119 19.0262 27.1862 19.3477 26.9742 19.5302C26.6404 19.8199 26.288 20.0879 25.9227 20.3327C25.8109 20.4123 25.672 20.4413 25.5388 20.4167C25.4055 20.3906 25.2881 20.3109 25.2121 20.1965C25.1377 20.0821 25.1104 19.9416 25.1391 19.8069C25.1677 19.6736 25.2494 19.5563 25.364 19.4824C25.6963 19.2594 26.0143 19.016 26.3166 18.7539L26.3181 18.7539ZM28.7562 16.6696C28.9854 16.8289 29.0441 17.1461 28.8865 17.3793C28.6387 17.7458 28.368 18.0963 28.0786 18.4309C27.8938 18.6423 27.5744 18.6626 27.3652 18.4772C27.1561 18.2904 27.136 17.9674 27.3194 17.7559C27.583 17.4532 27.8279 17.1345 28.0528 16.8014C28.2118 16.5696 28.5256 16.5102 28.7548 16.6696L28.7562 16.6696ZM28.7676 15.5746C28.9438 15.2139 29.1 14.8416 29.2332 14.4622C29.2776 14.3332 29.3707 14.2261 29.4925 14.1667C29.6128 14.1073 29.7532 14.1 29.8807 14.1449C30.0082 14.1913 30.1113 14.2869 30.1686 14.41C30.2259 14.5331 30.2317 14.6751 30.1858 14.804C30.0383 15.2226 29.8664 15.6311 29.6716 16.0294C29.6143 16.1554 29.5097 16.2524 29.3808 16.2988C29.2518 16.3451 29.11 16.3364 28.9868 16.2756C28.8651 16.2133 28.772 16.1047 28.7304 15.9729C28.6889 15.8411 28.7018 15.6977 28.7677 15.576L28.7676 15.5746ZM30.8047 11.5666C30.7818 12.146 30.713 12.7239 30.6013 13.2917C30.554 13.5306 30.3463 13.7016 30.1056 13.7016C30.0727 13.7016 30.0397 13.6987 30.0068 13.6914C29.7332 13.6364 29.5555 13.367 29.6114 13.0903C29.7131 12.5747 29.7761 12.0518 29.7976 11.5246C29.7991 11.387 29.8549 11.2566 29.9538 11.161C30.0526 11.0669 30.1858 11.0162 30.3219 11.022C30.458 11.0263 30.5869 11.0886 30.6772 11.19C30.7689 11.2928 30.8147 11.429 30.8061 11.5666L30.8047 11.5666ZM8.72391 16.3043L9.42871 14.1736C9.47599 14.0317 9.58199 13.9158 9.72095 13.8608C9.8599 13.8043 10.016 13.8144 10.1464 13.8854L12.0588 14.9283C12.3009 15.0644 12.3897 15.3715 12.2579 15.6177C12.1276 15.864 11.8239 15.9581 11.5789 15.8278L10.8856 15.4497H10.887C12.4198 18.6841 15.5385 20.8493 19.0737 21.1333C19.3431 21.1551 19.5479 21.3883 19.5379 21.662C19.5278 21.9358 19.3058 22.1516 19.035 22.153H18.9949H18.9935C17.0682 21.998 15.2174 21.3318 13.6272 20.2208C12.0386 19.1099 10.7679 17.5934 9.94424 15.8261L9.67923 16.6271C9.61047 16.8357 9.41708 16.9762 9.20076 16.9762C9.14632 16.9762 9.09189 16.9675 9.04032 16.9501C8.7753 16.8603 8.63348 16.5707 8.7223 16.3041L8.72391 16.3043Z" fill="black"/>
</svg>
