<svg width="35" height="37" viewBox="0 0 35 37" fill="none" xmlns="http://www.w3.org/2000/svg">
<path d="M23.3201 23.4457C21.5756 25.1887 19.2587 26.1492 16.7927 26.1492C14.3267 26.1492 12.0084 25.1887 10.2653 23.4457C8.52085 21.7012 7.56185 19.3828 7.56185 16.9184C7.56185 14.4524 8.52085 12.1341 10.2653 10.391C12.0083 8.64652 14.3267 7.686 16.7927 7.686C19.2587 7.686 21.577 8.64652 23.3201 10.391C26.9186 13.9896 26.9186 19.8457 23.3201 23.4457ZM25.1209 22.0879C25.2259 21.9174 25.3249 21.7454 25.4177 21.5719V22.3847L25.1209 22.0879ZM23.8148 26.2938L22.4478 24.9254C22.8969 24.6057 23.3246 24.2464 23.7219 23.8476C24.1238 23.4473 24.4815 23.0195 24.7981 22.572L26.1681 23.9405L23.8148 26.2938ZM20.711 27.8785H19.041V26.4598C19.6149 26.3258 20.1736 26.1416 20.711 25.9057V27.8785ZM14.4529 26.4385C14.9978 26.5709 15.555 26.6577 16.1228 26.6957V27.8785H14.4529V26.4385ZM11.5347 27.8785H9.86482V23.8506C10.3778 24.3636 10.938 24.8127 11.5347 25.1932V27.8785ZM6.94805 14.5011H5.27661V12.8312H6.94805V14.5011ZM6.94805 18.663H5.27661V16.9916H6.94805V18.663ZM9.17966 9.78972H10.0656C9.99709 9.85518 9.92859 9.92063 9.86161 9.98761C8.78843 11.0608 7.99533 12.341 7.51737 13.7369V12.5465C7.51737 12.3882 7.38951 12.2618 7.23271 12.2618H4.99198C4.83519 12.2618 4.70732 12.3882 4.70732 12.5465V14.7872C4.70732 14.944 4.83519 15.0719 4.99198 15.0719H7.16421C7.08048 15.5148 7.02568 15.9654 7.00285 16.4221H4.99196C4.83517 16.4221 4.7073 16.55 4.7073 16.7068V18.9475C4.7073 19.1043 4.83516 19.2321 4.99196 19.2321H7.23269C7.24335 19.2321 7.254 19.2306 7.26466 19.2291C7.61782 20.6965 8.3074 22.062 9.29531 23.2297V28.1632C9.29531 28.32 9.42166 28.4479 9.57997 28.4479H11.8207C11.9775 28.4479 12.1054 28.32 12.1054 28.1632V25.5297C12.6716 25.8388 13.2668 26.0914 13.8833 26.2817V28.1632C13.8833 28.32 14.0097 28.4479 14.168 28.4479H16.4087C16.5655 28.4479 16.6934 28.32 16.6934 28.1632V26.7171C16.7254 26.7171 16.7588 26.7186 16.7923 26.7186C17.3601 26.7186 17.9218 26.6699 18.4698 26.577V28.1632C18.4698 28.32 18.5977 28.4479 18.7545 28.4479H20.9952C21.1536 28.4479 21.2799 28.32 21.2799 28.1632V25.6348C21.5128 25.516 21.7411 25.3866 21.9634 25.2466L23.6485 26.9332V33.8016H2.33852V5.30682H8.63284V5.91572C8.63284 6.07403 8.76071 6.20038 8.9175 6.20038H17.0691C17.2259 6.20038 17.3538 6.07403 17.3538 5.91572V5.30682H23.6481V9.91611C21.8062 8.11074 19.3751 7.11671 16.7918 7.11671C14.5617 7.11671 12.446 7.85651 10.7243 9.22043H9.17925C9.02246 9.22043 8.89459 9.3483 8.89459 9.50509C8.89459 9.66188 9.02245 9.78975 9.17925 9.78975M25.417 12.2649C25.0882 11.6515 24.6878 11.0669 24.2175 10.5219V5.02221C24.2175 4.86542 24.0896 4.73755 23.9328 4.73755H17.3536V3.21533H23.9862C24.7762 3.21533 25.4171 3.8577 25.4171 4.64624L25.417 12.2649ZM11.2953 2.26852C11.4536 2.26852 11.5799 2.14065 11.5799 1.98386C11.5799 1.20447 12.2147 0.569704 12.9941 0.569704C13.7735 0.569704 14.4067 1.20447 14.4067 1.98386C14.4067 2.14065 14.5346 2.26852 14.6914 2.26852H16.7845V5.63114H9.20222V2.26852H11.2953ZM23.986 35.8932H2.00032C1.21182 35.8932 0.569408 35.2508 0.569408 34.4623V4.64608C0.569408 3.85757 1.21178 3.21516 2.00032 3.21516H8.6329V4.73738H2.05371C1.89692 4.73738 1.76905 4.86525 1.76905 5.02204V34.0861C1.76905 34.2444 1.89692 34.3708 2.05371 34.3708H23.933C24.0898 34.3708 24.2177 34.2444 24.2177 34.0861V27.5023L25.4172 28.7018V34.4618C25.4172 35.2503 24.7763 35.8927 23.9863 35.8927M33.98 34.1057C33.6907 34.3964 33.2919 34.5562 32.8566 34.5562C32.3618 34.5562 31.8686 34.3461 31.5018 33.9808L24.218 26.6955L26.5714 24.3436L33.8551 31.6289C34.2053 31.9775 34.4077 32.4311 34.429 32.9045C34.4488 33.3703 34.2905 33.7967 33.98 34.1057ZM23.9863 2.64565H17.3537V1.98349C17.3537 1.82517 17.2259 1.69883 17.0691 1.69883H14.9562C14.8177 0.739832 13.9896 0 12.994 0C11.997 0 11.1689 0.739793 11.0303 1.69883H8.91745C8.76066 1.69883 8.63279 1.82517 8.63279 1.98349V2.64565H2.00022C0.896606 2.64565 0 3.54378 0 4.64587V34.4621C0 35.5657 0.896606 36.4623 2.00022 36.4623H23.9859C25.0895 36.4623 25.9877 35.5657 25.9877 34.4621V29.2714L31.0993 34.3845C31.5711 34.8549 32.2105 35.1258 32.8559 35.1258C33.4435 35.1258 33.9854 34.9066 34.3827 34.5093C34.8059 34.0862 35.0251 33.5077 34.9977 32.8805C34.9703 32.264 34.7085 31.6765 34.2579 31.2259L25.9875 22.9554V20.3052C26.7866 18.1238 26.7866 15.7126 25.9875 13.5311V4.64575C25.9875 3.54366 25.0893 2.64554 23.9857 2.64554" fill="black"/>
<path d="M3.50391 30.7236C3.50391 30.8819 3.63177 31.0083 3.78857 31.0083H22.1938C22.3506 31.0083 22.4784 30.8819 22.4784 30.7236C22.4784 30.5668 22.3506 30.439 22.1938 30.439H3.78857C3.63178 30.439 3.50391 30.5668 3.50391 30.7236Z" fill="black"/>
<path d="M5.27633 23.2737H6.94777V27.8783H5.27633V23.2737ZM4.70703 28.1632C4.70703 28.32 4.8349 28.4479 4.99169 28.4479H7.23243C7.38921 28.4479 7.51708 28.32 7.51708 28.1632V22.9892C7.51708 22.8309 7.38922 22.7046 7.23243 22.7046H4.99169C4.8349 22.7046 4.70703 22.8309 4.70703 22.9892V28.1632Z" fill="black"/>
<path d="M6.94777 10.3411H5.27633V8.66964H6.94777V10.3411ZM7.23242 8.10034H4.99169C4.8349 8.10034 4.70703 8.22821 4.70703 8.385V10.6257C4.70703 10.7825 4.8349 10.9104 4.99169 10.9104H7.23242C7.38921 10.9104 7.51708 10.7825 7.51708 10.6257V8.385C7.51708 8.22821 7.38922 8.10034 7.23242 8.10034Z" fill="black"/>
<path d="M19.0385 17.9124H20.7084V22.54C20.1908 22.9023 19.6291 23.1885 19.0385 23.394V17.9124ZM16.4065 21.4242H14.1658C14.0075 21.4242 13.8811 21.5506 13.8811 21.7089V23.1261C13.2357 22.8216 12.6359 22.4167 12.1032 21.9159V21.1213C12.1032 20.9645 11.9753 20.8366 11.8185 20.8366H11.1715C10.59 20.0055 10.2156 19.0739 10.0466 18.1118H15.286C15.4428 18.1118 15.5707 17.9839 15.5707 17.8271C15.5707 17.6703 15.4428 17.5425 15.286 17.5425H9.97022C9.85909 16.3216 10.0737 15.078 10.6141 13.9515H19.8724C20.0307 13.9515 20.1586 13.8237 20.1586 13.6669C20.1586 13.5086 20.0307 13.3807 19.8724 13.3807H10.9216C11.2017 12.9149 11.5427 12.475 11.9445 12.0731C13.2384 10.7792 14.9586 10.0653 16.79 10.0653C18.6197 10.0653 20.3414 10.7792 21.6354 12.0731C22.9293 13.367 23.6417 15.0871 23.6417 16.9185C23.6417 18.7482 22.9293 20.4684 21.6354 21.764C21.5197 21.8781 21.401 21.9893 21.2777 22.0958V17.628C21.2777 17.4697 21.1513 17.3433 20.993 17.3433H18.7523C18.5955 17.3433 18.4676 17.4697 18.4676 17.628V23.5646C17.9257 23.7 17.364 23.7701 16.7901 23.7701C16.7566 23.7701 16.7231 23.7701 16.6912 23.7685V21.7089C16.6912 21.5506 16.5633 21.4242 16.4065 21.4242ZM16.1203 23.7381C15.5449 23.6818 14.9847 23.5554 14.4504 23.3621V21.9936H16.1203V23.7381ZM22.0374 22.1656C23.4394 20.7636 24.2112 18.9004 24.2112 16.9184C24.2112 14.9349 23.4394 13.0717 22.0374 11.6696C20.6354 10.2676 18.7722 9.49585 16.7902 9.49585C14.8083 9.49585 12.9435 10.2676 11.5414 11.6696C8.64765 14.5634 8.64765 19.2717 11.5414 22.1656C12.9434 23.5676 14.8081 24.3393 16.7902 24.3393C18.7721 24.3393 20.6354 23.5675 22.0374 22.1656Z" fill="black"/>
</svg>
