<svg width="48" height="34" viewBox="0 0 48 34" fill="none" xmlns="http://www.w3.org/2000/svg">
<path d="M4.25781 0.150391H43.2451C45.512 0.152576 47.3503 1.99051 47.3525 4.25977V29.7402C47.3503 32.0094 45.512 33.8474 43.2451 33.8496H4.25781C1.99081 33.8475 0.152585 32.0095 0.150391 29.7402V4.25977C0.152581 1.99051 1.99081 0.152492 4.25781 0.150391ZM1.42871 29.7402C1.43101 31.3017 2.69643 32.567 4.25781 32.5693H43.2451C44.8066 32.567 46.0719 31.3016 46.0742 29.7402L46.0732 14.1777V14.0273H1.42871V29.7402ZM1.42871 12.7471H46.0742V8.16309H1.42871V12.7471ZM3.96875 1.44629C2.54313 1.59279 1.43087 2.79592 1.42871 4.25977V6.88184H46.0742V4.25977C46.0719 2.69832 44.8065 1.43296 43.2451 1.43066H4.25781L3.96875 1.44629Z" fill="black" stroke="#F5FBFD" stroke-width="0.3"/>
<path d="M37.2012 21.6182C38.4783 20.9174 40.0147 20.8988 41.3057 21.5518L41.5605 21.6914C42.898 22.4855 43.7188 23.9242 43.7188 25.4805C43.7187 26.9396 42.9972 28.2953 41.8047 29.1133L41.5605 29.2695C40.2209 30.0614 38.5635 30.0902 37.2012 29.3428L37.1289 29.3037L37.0566 29.3428C36.408 29.6987 35.6836 29.8838 34.9443 29.8838C33.5839 29.8837 32.3017 29.2565 31.4678 28.1826C30.6337 27.1085 30.3408 25.7077 30.6777 24.3916C31.0147 23.0732 31.9416 21.9868 33.1885 21.4434C34.435 20.9002 35.8625 20.9653 37.0566 21.6182L37.1289 21.6572L37.2012 21.6182ZM34.9453 22.3574C34.1668 22.3531 33.4161 22.6407 32.8408 23.1611L32.7285 23.2686C32.1382 23.8544 31.8086 24.6503 31.8086 25.4805C31.8086 26.2588 32.0983 27.0094 32.6211 27.583L32.7285 27.6953C33.3166 28.2809 34.1152 28.6078 34.9453 28.6055H34.9473C35.2376 28.6009 35.5279 28.5553 35.8047 28.4707L36.0176 28.4053L35.8779 28.2324C34.5831 26.6257 34.5831 24.3349 35.8779 22.7305L36.0166 22.5596L35.8057 22.4932C35.5275 22.4059 35.2368 22.362 34.9473 22.3574H34.9453ZM41.2188 22.9707C40.4247 22.3805 39.3969 22.205 38.4502 22.4932L38.2383 22.5576L38.3779 22.7305C39.6728 24.3349 39.673 26.6266 38.3779 28.2334L38.2383 28.4062L38.4512 28.4707C39.3977 28.7564 40.4247 28.5805 41.2188 27.9902C42.0148 27.4 42.4814 26.4709 42.4814 25.4805C42.4814 24.4924 42.0149 23.5609 41.2188 22.9707ZM37.0195 23.375C35.9117 24.5607 35.9116 26.4012 37.0195 27.5869L37.1289 27.7041L37.2383 27.5869C38.3439 26.4012 38.3439 24.5607 37.2383 23.375L37.1289 23.2568L37.0195 23.375Z" fill="black" stroke="#F5FBFD" stroke-width="0.3"/>
<path d="M5.92969 22.6101H23.0947C23.263 22.6085 23.4266 22.6753 23.5488 22.7957C23.6705 22.9156 23.7402 23.0797 23.7402 23.2507C23.7401 23.4216 23.6704 23.586 23.5488 23.7058C23.4267 23.8259 23.2628 23.892 23.0947 23.8904H5.92969C5.76136 23.892 5.59681 23.8262 5.47461 23.7058C5.35376 23.5867 5.28722 23.4227 5.28711 23.2507C5.28711 23.0788 5.35391 22.9148 5.47461 22.7957C5.5968 22.6752 5.76134 22.6085 5.92969 22.6101Z" fill="black" stroke="#F5FBFD" stroke-width="0.3"/>
<path d="M5.92969 27.0703H7.14941L7.27832 27.084C7.56793 27.1461 7.78516 27.4041 7.78516 27.7109C7.78494 28.0616 7.50074 28.348 7.14941 28.3516H5.92969C5.76138 28.3532 5.59682 28.2864 5.47461 28.166C5.35376 28.0469 5.28722 27.8829 5.28711 27.7109C5.28711 27.5391 5.35391 27.375 5.47461 27.2559C5.5968 27.1354 5.76134 27.0687 5.92969 27.0703Z" fill="black" stroke="#F5FBFD" stroke-width="0.3"/>
<path d="M9.39746 27.0703H10.6201C10.7911 27.0686 10.9548 27.1355 11.0742 27.2549L11.0752 27.2559C11.1967 27.3758 11.2656 27.5401 11.2656 27.7109C11.2655 27.8818 11.1968 28.0462 11.0752 28.166H11.0742C10.9548 28.2854 10.7911 28.3523 10.6201 28.3506H9.39746C9.22918 28.3523 9.06464 28.2863 8.94238 28.166C8.82078 28.0462 8.75207 27.8818 8.75195 27.7109C8.75195 27.5399 8.8207 27.3758 8.94238 27.2559C9.06466 27.1353 9.22899 27.0686 9.39746 27.0703Z" fill="black" stroke="#F5FBFD" stroke-width="0.3"/>
<path d="M13.9053 27.0703C14.0761 27.0686 14.2402 27.1355 14.3623 27.2559C14.4832 27.375 14.5508 27.5389 14.5508 27.7109C14.5507 27.8829 14.4832 28.0469 14.3623 28.166C14.2402 28.2862 14.076 28.3523 13.9053 28.3506H12.6875C12.3364 28.3469 12.053 28.0614 12.0527 27.7109C12.0527 27.404 12.2698 27.1459 12.5596 27.084L12.6875 27.0703H13.9053Z" fill="black" stroke="#F5FBFD" stroke-width="0.3"/>
</svg>
