<svg width="41" height="36" viewBox="0 0 41 36" fill="none" xmlns="http://www.w3.org/2000/svg">
<path fill-rule="evenodd" clip-rule="evenodd" d="M10.1666 0C12.9097 0 15.4037 0.470412 17.2157 1.23362C19.1321 2.03911 20.3192 3.19147 20.326 4.49787V10.5137L20.3243 15.4617H21.3902V2.43541C21.3902 1.93792 21.5951 1.48609 21.9248 1.1595C22.2545 0.832913 22.7105 0.629829 23.2127 0.629829H36.1425V0.631521C36.2467 0.631521 36.3509 0.670441 36.4312 0.746587L40.8497 4.98042C40.9419 5.05657 41 5.17164 41 5.29855V24.3273C41 24.8248 40.7865 25.2631 40.4483 25.5778C40.1084 25.8959 39.6404 26.0888 39.1399 26.0888H31.2557V27.1143H31.254C31.254 27.2886 31.1412 27.4511 30.9653 27.5086L28.9805 28.1483C28.9002 28.4139 28.8046 28.6745 28.697 28.9317C28.5894 29.1906 28.4681 29.4411 28.3366 29.6848L29.2777 31.514C29.3682 31.6714 29.3443 31.8762 29.2077 32.0098L27.2281 33.9711C27.1034 34.0946 26.9086 34.1301 26.743 34.0472L24.8829 33.108C24.6386 33.2383 24.3841 33.3568 24.1228 33.4651C23.8632 33.5717 23.5984 33.6648 23.332 33.746L22.6949 35.6869C22.6488 35.8663 22.4848 36 22.2901 36H19.4906C19.3147 36 19.1507 35.8883 19.0926 35.714L18.4469 33.7477C18.1788 33.6682 17.9158 33.5734 17.6578 33.4668C17.3965 33.3602 17.1437 33.24 16.8977 33.1097L15.0513 34.0421C14.8925 34.1301 14.6858 34.1081 14.5509 33.9727L12.5712 32.0115C12.4466 31.888 12.4107 31.6951 12.4944 31.5309L13.4424 29.6881C13.3108 29.4461 13.1913 29.194 13.082 28.9368C12.9744 28.6796 12.8804 28.4173 12.7984 28.1533L10.8393 27.5221C10.6582 27.4764 10.5233 27.314 10.5233 27.1211V27.0348C10.3474 27.0382 10.2244 27.0398 10.1595 27.0398C7.41635 27.0398 4.92239 26.5677 3.11037 25.8062C1.19394 25.0007 0.00682128 23.8501 0 22.542V22.5301L0.00512427 16.5195V4.49993C0.0119565 3.19188 1.19907 2.04118 3.1155 1.23569C4.92943 0.472518 7.42152 0.000373471 10.1663 0.000373471L10.1666 0ZM20.893 29.7924C22.0255 29.7924 23.052 29.3372 23.7933 28.6028C24.5363 27.8667 24.9941 26.8514 24.9941 25.7295C24.9941 24.6076 24.5346 23.5906 23.7933 22.8545C23.0503 22.1184 22.0255 21.6649 20.893 21.6649C19.7606 21.6649 18.7341 22.1201 17.9928 22.8545C17.2498 23.5906 16.792 24.6059 16.792 25.7295C16.792 26.8514 17.2515 27.8684 17.9928 28.6028C18.7358 29.3389 19.7606 29.7924 20.893 29.7924ZM24.386 29.1883C25.2793 28.3033 25.8327 27.0799 25.8327 25.7278C25.8327 24.3758 25.2793 23.1523 24.386 22.2673C23.4927 21.3823 22.2578 20.834 20.893 20.834C19.5283 20.834 18.2934 21.3823 17.4001 22.2673C16.5067 23.1523 15.9533 24.3758 15.9533 25.7278C15.9533 27.0782 16.5067 28.3033 17.4001 29.1883C18.2934 30.0734 19.5283 30.6216 20.893 30.6216C22.2578 30.6216 23.4927 30.0751 24.386 29.1883ZM19.4891 15.4628V12.3442C18.9528 12.8975 18.1756 13.3865 17.2157 13.791C15.4035 14.5524 12.9097 15.0246 10.1666 15.0246C7.42355 15.0246 4.92954 14.5542 3.11752 13.791C2.1576 13.3882 1.38212 12.8975 0.844113 12.3442V16.5205C0.844113 17.4698 1.83648 18.3599 3.44035 19.0351C5.15355 19.7542 7.53116 20.201 10.1668 20.201C10.6911 20.201 11.1984 20.184 11.6869 20.1519C11.9876 20.1316 12.2831 20.1062 12.5734 20.0741L12.5085 19.9471C12.418 19.7898 12.4419 19.585 12.5785 19.4513L14.5581 17.4901C14.6828 17.3666 14.8775 17.331 15.0432 17.414L16.905 18.3531C17.1493 18.2228 17.4037 18.1044 17.6651 17.9961C17.9247 17.8895 18.1878 17.7964 18.4559 17.7152L19.093 15.7742C19.134 15.5966 19.2961 15.4645 19.4891 15.4628ZM12.9761 20.8575C12.573 20.9082 12.1614 20.9472 11.7412 20.9759C11.222 21.0115 10.6959 21.0284 10.1664 21.0284C7.42324 21.0284 4.92927 20.5563 3.11726 19.7948C2.15734 19.392 1.38186 18.9013 0.84385 18.348V22.5243C0.84385 23.4736 1.83622 24.3637 3.44009 25.0389C5.15328 25.7581 7.53089 26.2048 10.1665 26.2048C10.3407 26.2048 10.462 26.2048 10.5303 26.2031V24.3417H10.532C10.532 24.1674 10.6447 24.0049 10.8207 23.9474L12.8054 23.3077C12.8857 23.0421 12.9814 22.7815 13.089 22.5242C13.1966 22.2653 13.3179 22.0149 13.4494 21.7712L12.9761 20.8575ZM22.898 33.0057C23.2123 32.9211 23.5164 32.8179 23.8067 32.6977C24.1022 32.5759 24.3908 32.4354 24.671 32.2764C24.7974 32.2053 24.946 32.2053 25.069 32.2662L26.8556 33.1681L28.4065 31.6316L27.4961 29.8599C27.4278 29.7279 27.438 29.5773 27.5115 29.4589C27.6686 29.1847 27.8104 28.9021 27.9317 28.6111C28.0512 28.3234 28.1554 28.0239 28.2408 27.7126C28.2818 27.5636 28.3997 27.457 28.5397 27.4198L30.4237 26.814V24.6413L28.5175 24.027C28.3792 23.983 28.2801 23.873 28.2442 23.741C28.1588 23.4296 28.0546 23.1284 27.9334 22.8408C27.8104 22.548 27.6686 22.2621 27.5081 21.9845C27.4363 21.8593 27.4363 21.7121 27.4978 21.5902L28.4082 19.8202L26.8573 18.2837L25.069 19.1856C24.9357 19.2533 24.7837 19.2432 24.6641 19.1704C24.3874 19.013 24.1022 18.8743 23.8084 18.7541C23.5181 18.6357 23.2157 18.5324 22.9015 18.4478C22.7511 18.4072 22.6435 18.2905 22.606 18.1534L21.9945 16.2869H19.8014L19.1813 18.1771C19.1369 18.3142 19.0242 18.4123 18.8927 18.4478C18.5784 18.5324 18.276 18.6357 17.9857 18.7541C17.6902 18.876 17.4016 19.0164 17.1214 19.1755C16.995 19.2465 16.8464 19.2465 16.7234 19.1856L14.9351 18.2837L13.3859 19.8202L14.2963 21.5919C14.3646 21.7239 14.3544 21.8745 14.2809 21.993C14.1221 22.2671 13.982 22.5497 13.8607 22.8407C13.7395 23.1284 13.637 23.4296 13.5516 23.741C13.5106 23.8899 13.3927 23.9965 13.2527 24.0337L11.3687 24.6395V26.8123L13.2749 27.4265C13.4132 27.4705 13.5123 27.5822 13.5482 27.7125C13.6336 28.0239 13.7378 28.3251 13.859 28.6128C13.982 28.9055 14.1238 29.1915 14.2843 29.469C14.3561 29.5942 14.3561 29.7415 14.2946 29.8633L13.3842 31.635L14.9334 33.1715L16.7217 32.2696C16.855 32.2019 17.007 32.2121 17.1265 32.2848C17.4032 32.4422 17.6885 32.581 17.9823 32.7011C18.2726 32.8212 18.575 32.9228 18.8892 33.0074C19.0395 33.048 19.1471 33.1648 19.1847 33.3035L19.7962 35.17H21.9893L22.6094 33.2815C22.6538 33.1444 22.7665 33.0463 22.898 33.0108V33.0057ZM22.2267 15.4611H22.2933V15.4628C22.4693 15.4628 22.6333 15.5745 22.6913 15.7488L23.337 17.7151C23.6052 17.7947 23.8682 17.8894 24.1278 17.996C24.3892 18.1026 24.642 18.2228 24.8879 18.3531L26.7343 17.4207C26.8932 17.3327 27.0999 17.3547 27.2348 17.4901L29.2144 19.4513C29.3391 19.5748 29.375 19.7677 29.2913 19.9319L28.3433 21.7747C28.4748 22.0167 28.5944 22.2688 28.7037 22.5277C28.8113 22.7849 28.9052 23.0472 28.9872 23.3112L30.9464 23.9424C31.1274 23.9881 31.2624 24.1505 31.2624 24.3434V25.2623H39.1466C39.4302 25.2623 39.6932 25.1557 39.8828 24.978C40.0587 24.8139 40.1698 24.5871 40.1698 24.3299L40.1646 5.8054H35.9235C35.693 5.8054 35.5051 5.61926 35.5051 5.39082V1.45819H23.2123C22.9425 1.45819 22.6948 1.56818 22.5172 1.74586C22.3378 1.92354 22.2268 2.16721 22.2268 2.43456L22.2267 15.4611ZM35.8383 19.8065H30.8251C30.5945 19.8065 30.4066 19.9927 30.4066 20.2211C30.4066 20.4496 30.5945 20.6357 30.8251 20.6357H35.8383C36.0688 20.6357 36.2567 20.4496 36.2567 20.2211C36.2567 19.9927 36.0688 19.8065 35.8383 19.8065ZM35.8383 16.7454H29.052C28.8214 16.7454 28.6335 16.9315 28.6335 17.16C28.6335 17.3884 28.8214 17.5745 29.052 17.5745H35.8383C36.0688 17.5745 36.2567 17.3884 36.2567 17.16C36.2567 16.9315 36.0688 16.7454 35.8383 16.7454ZM35.8383 13.6859H25.8136C25.583 13.6859 25.3951 13.872 25.3951 14.1005C25.3951 14.3289 25.583 14.5151 25.8136 14.5151H35.8383C36.0688 14.5151 36.2567 14.3289 36.2567 14.1005C36.2567 13.8704 36.0688 13.6859 35.8383 13.6859ZM35.8383 10.6247H25.8136C25.583 10.6247 25.3951 10.8109 25.3951 11.0393C25.3951 11.2678 25.583 11.4539 25.8136 11.4539H35.8383C36.0688 11.4539 36.2567 11.2678 36.2567 11.0393C36.2567 10.8109 36.0688 10.6247 35.8383 10.6247ZM35.8383 7.56358H25.8136C25.583 7.56358 25.3951 7.74972 25.3951 7.97816C25.3951 8.20661 25.583 8.39275 25.8136 8.39275H35.8383C36.0688 8.39275 36.2567 8.20661 36.2567 7.97816C36.2567 7.74972 36.0688 7.56358 35.8383 7.56358ZM36.3421 2.04548V4.97803H39.3022L36.3421 2.04548ZM19.4887 10.515V6.33866C18.9524 6.89199 18.1752 7.38103 17.2153 7.78546C15.4031 8.54694 12.9093 9.01909 10.1662 9.01909C7.42315 9.01909 4.92914 8.54868 3.11713 7.78546C2.15721 7.38272 1.38173 6.89199 0.843719 6.33866V10.515C0.843719 11.4643 1.83608 12.3561 3.43996 13.0296C5.15315 13.7488 7.53076 14.1955 10.1664 14.1955C12.802 14.1955 15.1796 13.7505 16.8928 13.0296C18.4966 12.3544 19.4887 11.4626 19.4887 10.515ZM16.8925 1.9948C15.1793 1.2756 12.8017 0.828884 10.1661 0.828884C7.5305 0.828884 5.15289 1.27391 3.4397 1.9948C1.83582 2.66829 0.843457 3.56008 0.843457 4.50939C0.843457 5.45871 1.83582 6.3488 3.4397 7.02399C5.15289 7.74318 7.5305 8.1899 10.1661 8.1899C12.8017 8.1899 15.1793 7.74487 16.8925 7.02399C18.4964 6.35049 19.4887 5.45871 19.4887 4.50939C19.4887 3.56008 18.4964 2.66829 16.8925 1.9948Z" fill="black"/>
</svg>
