<svg width="37" height="37" viewBox="0 0 37 37" fill="none" xmlns="http://www.w3.org/2000/svg">
<path d="M29.0341 22.0163C32.259 25.2395 32.259 30.5345 29.0341 33.758C25.8091 36.9829 20.5156 36.9829 17.292 33.758C14.0671 30.5349 14.0671 25.2398 17.292 22.0163C20.5153 18.7915 25.8075 18.7915 29.0341 22.0163ZM2.2136 35.9615H9.02197C9.90345 35.9615 10.41 35.2692 10.41 34.437C10.41 29.4016 0.820902 29.4016 0.820902 34.437C0.822547 35.2774 1.33544 35.9615 2.2136 35.9615ZM4.10645 23.1888C3.26445 23.7479 2.70697 24.8497 2.96681 26.504C3.68052 31.0528 7.70976 30.8983 8.29031 26.3412C8.71131 23.0391 5.80029 22.064 4.10645 23.1888ZM2.15769 26.6307C1.51471 22.5228 5.18525 21.0231 7.4892 22.4471C8.59432 23.1312 9.35737 24.4666 9.1041 26.4432C8.88374 28.1699 8.19635 29.3736 7.33297 30.0397C9.44945 30.5396 11.2338 31.9966 11.2338 34.4369C11.2338 35.7278 10.3556 36.7835 9.02188 36.7835H2.21352C0.881441 36.7835 0 35.7343 0 34.4369C0 32.0014 1.78103 30.5428 3.89422 30.0414C3.0769 29.4066 2.41589 28.2735 2.15769 26.6307ZM22.3344 10.2485C21.7933 10.2485 21.7933 9.42623 22.3344 9.42623H33.0404C33.5814 9.42623 33.5814 10.2485 33.0404 10.2485H22.3344ZM22.3344 13.4058C21.7933 13.4058 21.7933 12.5853 22.3344 12.5853H33.0404C33.5814 12.5853 33.5814 13.4058 33.0404 13.4058H22.3344ZM22.3344 16.5632C21.7933 16.5632 21.7933 15.741 22.3344 15.741H33.0404C33.5814 15.741 33.5814 16.5632 33.0404 16.5632H22.3344ZM22.8343 31.0148C22.4462 31.5608 21.5516 31.62 21.2326 30.9655L19.6308 27.6667C19.1555 26.6899 20.6307 25.9827 21.101 26.9497L21.8114 28.4149C21.9512 28.7011 22.3442 28.7241 22.5202 28.4659L25.3159 24.6869C25.9605 23.812 27.2465 24.7658 26.6167 25.6571L22.8343 31.0148ZM27.2876 26.1305C28.5325 24.366 25.9457 22.4568 24.6564 24.1983L22.2554 27.4478L21.841 26.5927C20.8905 24.6391 17.9468 26.078 18.8924 28.0234L20.4941 31.3189C21.0895 32.5423 22.7603 32.5423 23.5052 31.4866L27.2876 26.1305ZM7.84936 0C7.62242 0 7.43823 0.184181 7.43823 0.411117V2.47824C7.03533 2.60651 6.6423 2.76931 6.26567 2.96334L4.80532 1.50471C4.64416 1.34355 4.38432 1.34355 4.22316 1.50471L1.55741 4.17039C1.39625 4.33154 1.39625 4.58973 1.55741 4.75088L3.01777 6.21119C2.82207 6.58942 2.6609 6.9808 2.53265 7.38372L0.465471 7.38537C0.236882 7.38537 0.0543422 7.56955 0.0543422 7.79813V11.5689C0.0543422 11.7958 0.23524 11.98 0.465471 11.98H2.53265C2.66092 12.3846 2.82209 12.7759 3.01777 13.1542L1.55741 14.6145C1.39625 14.7756 1.39625 15.0338 1.55741 15.195L4.22481 17.8623C4.38597 18.0235 4.6458 18.0235 4.80696 17.8623L6.26731 16.402C6.64227 16.5977 7.03694 16.7605 7.43988 16.8887V18.9559C7.43988 19.1828 7.62406 19.367 7.85101 19.367H9.32614V26.3381C9.32614 27.6454 10.3934 28.7127 11.6992 28.7127H14.0903C14.2712 30.7715 15.1461 32.7778 16.71 34.3433C20.2556 37.8856 26.0739 37.8856 29.6144 34.3433C31.1801 32.7778 32.0516 30.7699 32.2358 28.7127H34.6253C35.9327 28.7127 36.9984 27.6454 36.9984 26.3381L37 7.33143C37 7.20645 36.9441 7.09463 36.8553 7.0157L29.8069 0.13175C29.728 0.0544611 29.6261 0.0149938 29.5208 0.0149938C29.5192 0.0149938 9.65502 0 7.84936 0ZM19.4171 11.5687V7.7979C19.4171 7.56932 19.2329 7.38514 19.006 7.38514H16.9388C16.8105 6.98225 16.6494 6.58923 16.4537 6.21261L17.914 4.7523C18.0752 4.59114 18.0752 4.33296 17.914 4.1718L15.2499 1.50449C15.0888 1.34333 14.8289 1.34333 14.6678 1.50449L13.2074 2.96312C12.8325 2.76907 12.4378 2.60626 12.0348 2.47801L12.0332 0.838488H28.8617V5.61583C28.8617 6.92319 29.929 7.99043 31.2348 7.99043H36.1781V26.3361C36.1781 27.1879 35.4792 27.8885 34.6257 27.8885H32.274C32.274 25.5484 31.3893 23.2084 29.6148 21.4356C26.0725 17.8934 20.2544 17.8934 16.7104 21.4356C14.9393 23.2084 14.0529 25.5501 14.0529 27.8885H11.6979C10.8461 27.8885 10.1471 27.1896 10.1471 26.3361V19.365H11.6223C11.8492 19.365 12.0334 19.1808 12.0334 18.9539V16.8868C12.4363 16.7585 12.8293 16.5957 13.206 16.4L14.6663 17.8604C14.8275 18.0215 15.0873 18.0215 15.2485 17.8604L17.9159 15.193C18.077 15.0319 18.077 14.7737 17.9159 14.6125L16.4555 13.1522C16.6512 12.774 16.8124 12.3826 16.9406 11.9781H19.0078C19.2331 11.9781 19.4171 11.794 19.4171 11.5687ZM18.5981 11.1592H16.6346C16.4553 11.1592 16.2892 11.2809 16.2399 11.4618C16.0919 12.0011 15.8748 12.5224 15.5985 13.0076C15.4982 13.1687 15.5163 13.3809 15.6577 13.5174L17.0457 14.9053L14.9605 16.9905L13.5725 15.6025C13.4442 15.4743 13.2403 15.4414 13.0758 15.5368C12.5989 15.8097 12.0825 16.0268 11.5497 16.1748C11.359 16.211 11.211 16.3787 11.211 16.5793V18.5395L8.26233 18.5428V16.5826C8.26233 16.3787 8.11433 16.211 7.92356 16.1781C7.39075 16.0301 6.87435 15.813 6.39416 15.54C6.23135 15.4447 6.02908 15.4776 5.90079 15.6058L4.51281 16.9938L2.42757 14.9086L3.81555 13.5206C3.95534 13.3825 3.97343 13.172 3.87476 13.0109C3.60012 12.5258 3.38139 12.0045 3.23341 11.4651C3.18407 11.2842 3.01962 11.1625 2.83872 11.1625L0.876794 11.1592V8.20901H2.84037C3.01962 8.20901 3.18571 8.08732 3.23505 7.90643C3.38306 7.36706 3.60014 6.84576 3.8764 6.35897C3.97671 6.2011 3.95862 5.98732 3.8172 5.85084L2.42921 4.45962L4.51445 2.37608L5.90244 3.76402C6.03071 3.89229 6.23463 3.92518 6.3958 3.8298C6.87599 3.55682 7.39075 3.33809 7.9252 3.19176C8.11597 3.15558 8.26397 2.98784 8.26397 2.78721V0.823699H11.2126V2.78389C11.2126 2.98781 11.3606 3.15554 11.5514 3.18843C12.0842 3.33643 12.6006 3.5535 13.0775 3.82648C13.2419 3.92185 13.4459 3.88897 13.5741 3.7607L14.9621 2.37275L17.0474 4.45629L15.6594 5.84423C15.5196 5.98237 15.5015 6.19286 15.6002 6.35236C15.8748 6.83911 16.0935 7.36205 16.2415 7.89982C16.2909 8.08071 16.4553 8.2024 16.6362 8.2024H18.5998L18.5981 11.1592ZM13.9276 9.6841C13.9276 11.9995 12.0512 13.8775 9.73408 13.8775C7.4186 13.8775 5.54386 11.9995 5.54386 9.6841C5.54386 7.36869 7.42024 5.49071 9.73408 5.49071C12.0528 5.48907 13.9276 7.36869 13.9276 9.6841ZM9.32609 6.33761C7.65857 6.54152 6.36598 7.95907 6.36598 9.68246C6.36598 11.4058 7.65857 12.8234 9.32609 13.0273V6.33761ZM13.1052 9.6841C13.1052 7.96067 11.8143 6.54318 10.1484 6.33925V13.0274C11.8143 12.8252 13.1052 11.4058 13.1052 9.6841ZM35.8323 7.16804H31.2342C30.3823 7.16804 29.6834 6.46912 29.6834 5.61566L29.6851 1.1608L35.8323 7.16804Z" fill="black"/>
</svg>
