<svg width="493" height="443" viewBox="0 0 493 443" fill="none" xmlns="http://www.w3.org/2000/svg">
<g style="mix-blend-mode:overlay" opacity="0.3">
<path fill-rule="evenodd" clip-rule="evenodd" d="M137.055 275.059C124.626 301.457 117.707 330.872 117.707 361.915C117.707 390.457 123.58 417.61 134.199 442.341C155.478 392.76 197.313 356.993 246.508 333.651C241.681 331.349 236.773 329.205 231.786 327.141C201.054 314.438 168.19 298.599 137.055 275.098V275.059Z" fill="#00018A"/>
<path fill-rule="evenodd" clip-rule="evenodd" d="M493 1.52588e-05C493 1.52588e-05 348.913 76.0193 246.5 155.254C273.974 176.492 298.471 198.007 316.331 218.292C332.542 234.767 345.977 253.94 355.912 275.059C419.066 227.462 475.26 148.386 492.959 1.52588e-05H493Z" fill="#00018A"/>
<path d="M355.952 275.059C352.064 277.996 352.064 277.996 355.952 275.059C346.017 253.94 332.582 234.766 316.371 218.332C298.471 198.007 274.014 176.531 246.54 155.254C144.087 76.0192 0 0 0 0C17.6991 148.347 73.9338 227.423 137.047 275.059C168.222 298.559 201.045 314.398 231.777 327.101C236.765 329.165 241.632 331.349 246.5 333.611C246.54 333.611 246.58 333.611 246.62 333.572C246.58 333.572 246.54 333.611 246.5 333.651C295.494 356.874 337.127 392.402 358.527 441.626C358.647 441.904 359.05 441.904 359.13 441.626C369.548 417.133 375.301 390.179 375.301 361.955C375.301 330.912 368.342 301.497 355.952 275.098V275.059Z" fill="#00018A"/>
</g>
</svg>
