<svg width="44" height="12" viewBox="0 0 44 12" fill="none" xmlns="http://www.w3.org/2000/svg">
<path d="M43.5995 5.05425C43.8924 5.35055 43.8924 5.82542 43.5995 6.11491L38.8268 10.8325C38.534 11.122 38.0591 11.1165 37.7662 10.8202C37.4734 10.5239 37.4734 10.049 37.7662 9.75951L42.0086 5.56612L37.7662 1.27422C37.4734 0.977931 37.4734 0.503058 37.7662 0.213564C38.0591 -0.0759287 38.534 -0.0704162 38.8268 0.225877L43.5995 5.05425ZM1.87502e-06 5.07843L1.87502e-06 4.32843L43.0692 4.82843L43.0692 5.57843L43.0692 6.32843L1.87502e-06 5.82843L1.87502e-06 5.07843Z" fill="#666666"/>
</svg>
