<svg width="52" height="47" viewBox="0 0 52 47" fill="none" xmlns="http://www.w3.org/2000/svg">
<path fill-rule="evenodd" clip-rule="evenodd" d="M14.3864 28.9301C13.0817 31.7067 12.3555 34.8005 12.3555 38.0655C12.3555 41.0675 12.9719 43.9234 14.0866 46.5246C16.3203 41.3097 20.7115 37.5478 25.8755 35.0928C25.3688 34.8506 24.8537 34.6252 24.3301 34.408C21.1042 33.072 17.6545 31.4061 14.3864 28.9343V28.9301Z" fill="url(#paint0_linear_1_2)"/>
<path fill-rule="evenodd" clip-rule="evenodd" d="M51.7496 0C51.7496 0 36.6251 7.99556 25.875 16.3293C28.7589 18.5631 31.3303 20.826 33.205 22.9596C34.9066 24.6923 36.3169 26.7089 37.3598 28.9301C43.9889 23.924 49.8876 15.607 51.7454 0H51.7496Z" fill="url(#paint1_linear_1_2)"/>
<path d="M37.3637 28.9301C36.9555 29.2391 36.9555 29.2391 37.3637 28.9301C36.3207 26.7089 34.9105 24.6923 33.2089 22.9637C31.3299 20.826 28.7627 18.5672 25.8788 16.3293C24.6769 17.2618 24.6769 17.2618 25.8788 16.3293C15.1245 7.99556 0 0 0 0C1.85784 15.6028 7.7607 23.9199 14.3856 28.9301C17.6579 31.4019 21.1034 33.0678 24.3292 34.4039C24.8528 34.621 25.3637 34.8506 25.8746 35.0886C25.8788 35.0886 25.8831 35.0886 25.8873 35.0844C25.8831 35.0844 25.8788 35.0886 25.8746 35.0928C31.0175 37.5353 35.3876 41.2721 37.6339 46.4494C37.6466 46.4786 37.6888 46.4786 37.6972 46.4494C38.7908 43.8733 39.3946 41.0383 39.3946 38.0697C39.3946 34.8047 38.6641 31.7108 37.3637 28.9343V28.9301Z" fill="url(#paint2_linear_1_2)"/>
<defs>
<linearGradient id="paint0_linear_1_2" x1="8.97758" y1="48.7207" x2="22.815" y2="27.5181" gradientUnits="userSpaceOnUse">
<stop stop-color="#F58220"/>
<stop offset="1" stop-color="#F2728C"/>
</linearGradient>
<linearGradient id="paint1_linear_1_2" x1="57.834" y1="-6.23779" x2="27.4321" y2="28.5424" gradientUnits="userSpaceOnUse">
<stop stop-color="#F58220"/>
<stop offset="1" stop-color="#F2728C"/>
</linearGradient>
<linearGradient id="paint2_linear_1_2" x1="-12.9331" y1="-14.1582" x2="46.325" y2="52.6846" gradientUnits="userSpaceOnUse">
<stop stop-color="#0074BC"/>
<stop offset="1" stop-color="#44C8F5"/>
</linearGradient>
</defs>
</svg>