<svg width="23" height="17" viewBox="0 0 23 17" fill="none" xmlns="http://www.w3.org/2000/svg">
<path d="M22.1383 3.34693H7.45484C7.14051 3.34693 6.87109 3.08613 6.87109 2.78186C6.87109 2.4776 7.14051 2.2168 7.45484 2.2168H22.1383C22.4526 2.2168 22.7221 2.4776 22.7221 2.78186C22.7221 3.08613 22.4526 3.34693 22.1383 3.34693Z" fill="white"/>
<path d="M2.87383 3.3469H0.583746C0.269421 3.3469 0 3.0861 0 2.78183C0 2.47757 0.269421 2.21677 0.583746 2.21677H2.87383C3.18815 2.21677 3.45757 2.47757 3.45757 2.78183C3.45757 3.0861 3.23306 3.3469 2.87383 3.3469Z" fill="white"/>
<path d="M22.1369 8.6933H18.2752C17.9608 8.6933 17.6914 8.4325 17.6914 8.12824C17.6914 7.82397 17.9608 7.56317 18.2752 7.56317H22.1369C22.4512 7.56317 22.7206 7.82397 22.7206 8.12824C22.7206 8.4325 22.4512 8.6933 22.1369 8.6933Z" fill="white"/>
<path d="M13.6956 8.69333H0.583746C0.269421 8.69333 0 8.43253 0 8.12827C0 7.824 0.269421 7.5632 0.583746 7.5632H13.6956C14.0099 7.5632 14.2793 7.824 14.2793 8.12827C14.2793 8.43253 14.0099 8.69333 13.6956 8.69333Z" fill="white"/>
<path d="M22.1383 14.0832H7.45484C7.14051 14.0832 6.87109 13.8224 6.87109 13.5181C6.87109 13.2138 7.14051 12.953 7.45484 12.953H22.1383C22.4526 12.953 22.7221 13.2138 22.7221 13.5181C22.7221 13.8224 22.4526 14.0832 22.1383 14.0832Z" fill="white"/>
<path d="M2.87383 14.0832H0.583746C0.269421 14.0832 0 13.8224 0 13.5181C0 13.1704 0.269421 12.9096 0.583746 12.9096H2.87383C3.18815 12.9096 3.45757 13.1704 3.45757 13.4746C3.50248 13.8224 3.23306 14.0832 2.87383 14.0832Z" fill="white"/>
<path d="M5.16289 5.56373C3.59127 5.56373 2.28906 4.3032 2.28906 2.78186C2.28906 1.26053 3.59127 0 5.16289 0C6.73452 0 8.03672 1.26053 8.03672 2.78186C8.03672 4.3032 6.77942 5.56373 5.16289 5.56373ZM5.16289 1.13013C4.21992 1.13013 3.45655 1.86906 3.45655 2.78186C3.45655 3.69466 4.21992 4.4336 5.16289 4.4336C6.10587 4.4336 6.86923 3.69466 6.86923 2.78186C6.86923 1.86906 6.10587 1.13013 5.16289 1.13013Z" fill="white"/>
<path d="M15.9852 10.9101C14.4135 10.9101 13.1113 9.64957 13.1113 8.12824C13.1113 6.60691 14.4135 5.34637 15.9852 5.34637C17.5568 5.34637 18.859 6.60691 18.859 8.12824C18.859 9.64957 17.6017 10.9101 15.9852 10.9101ZM15.9852 6.47651C15.0422 6.47651 14.2788 7.21544 14.2788 8.12824C14.2788 9.04104 15.0422 9.77997 15.9852 9.77997C16.9281 9.77997 17.6915 9.04104 17.6915 8.12824C17.6915 7.21544 16.9281 6.47651 15.9852 6.47651Z" fill="white"/>
<path d="M5.16289 16.3C3.59127 16.3 2.28906 15.0394 2.28906 13.5181C2.28906 11.9533 3.59127 10.7362 5.16289 10.7362C6.73452 10.7362 8.03672 11.9968 8.03672 13.5181C8.08162 15.0394 6.77942 16.3 5.16289 16.3ZM5.16289 11.8664C4.21992 11.8664 3.45655 12.6053 3.45655 13.5181C3.45655 14.4309 4.21992 15.1698 5.16289 15.1698C6.10587 15.1698 6.86923 14.4309 6.86923 13.5181C6.86923 12.6053 6.10587 11.8664 5.16289 11.8664Z" fill="white"/>
</svg>
