<svg width="144" height="34" viewBox="0 0 144 34" fill="none" xmlns="http://www.w3.org/2000/svg">
<path d="M8.9915 31.3701L8.53319 30.2861C7.81982 28.6003 7.45715 26.8109 7.45715 24.9677C7.45715 22.9611 7.88159 21.0282 8.72049 19.2229L8.98153 18.661L9.47372 19.0376C11.5341 20.6118 13.6802 21.6021 15.3222 22.2896C15.645 22.4251 15.9638 22.5685 16.2707 22.716L17.2052 23.1643L16.2707 23.6127C12.9888 25.1889 10.6314 27.4964 9.44981 30.2841L8.9915 31.3681V31.3701ZM9.38006 20.2072C8.76633 21.7157 8.45348 23.3158 8.45348 24.9697C8.45348 26.2928 8.65474 27.5841 9.05327 28.8255C10.2947 26.5558 12.2893 24.6349 14.9077 23.1962C13.3494 22.5426 11.3548 21.622 9.38006 20.2072Z" fill="white"/>
<path d="M23.1182 31.3702L22.6599 30.2862C21.4802 27.4984 19.1209 25.1909 15.839 23.6148L14.9045 23.1664L15.839 22.7181C16.1439 22.5706 16.4627 22.4271 16.7875 22.2916C18.4275 21.6042 20.5756 20.6138 22.636 19.0396L23.1282 18.663L23.3892 19.2249C24.2281 21.0303 24.6525 22.9612 24.6525 24.9698C24.6525 26.813 24.2899 28.6004 23.5765 30.2882L23.1182 31.3721V31.3702ZM17.204 23.1963C19.8204 24.635 21.817 26.5559 23.0584 28.8256C23.4569 27.5841 23.6582 26.2909 23.6582 24.9698C23.6582 23.3159 23.3473 21.7178 22.7316 20.2073C20.7569 21.6241 18.7623 22.5427 17.204 23.1963Z" fill="white"/>
<path d="M22.7811 20.2072L22.5201 19.6452C21.9223 18.358 21.1153 17.1863 20.1249 16.1661L20.107 16.1461C19.0867 14.9725 17.6321 13.6434 15.7829 12.1927L15.2828 11.8002L15.7829 11.4076C22.1833 6.39013 31.2658 1.5161 31.3575 1.46628L32.1984 1.01594L32.0868 1.96245C31.1184 10.1941 28.235 16.0385 23.2753 19.8266L22.7831 20.2032L22.7811 20.2072ZM20.8483 15.4806C21.7669 16.4291 22.538 17.4972 23.1458 18.6609C27.4001 15.1877 29.9666 9.99085 30.9709 2.81332C28.6435 4.10256 22.0219 7.87465 16.8948 11.8042C18.5527 13.1353 19.8818 14.3707 20.8463 15.4806H20.8483Z" fill="white"/>
<path d="M9.41528 20.2073L8.9231 19.8307C3.96338 16.0407 1.08002 10.1982 0.111589 1.96656L0 1.02005L0.840899 1.4704C0.932561 1.51822 10.0151 6.39424 16.4155 11.4097L16.9156 11.8023L16.4155 12.1949C14.5663 13.6455 13.1116 14.9746 12.0914 16.1483L12.0735 16.1682C11.0811 17.1884 10.2761 18.3601 9.67831 19.6474L9.41727 20.2093L9.41528 20.2073ZM1.22548 2.81344C2.22978 9.99097 4.79631 15.1878 9.05062 18.661C9.65838 17.4973 10.4275 16.4292 11.3462 15.4827C12.3126 14.3728 13.6397 13.1374 15.2996 11.8043C10.1725 7.87478 3.55091 4.10269 1.22349 2.81344H1.22548Z" fill="white"/>
<path d="M16.0898 23.7181L15.8746 23.6145C15.5816 23.473 15.2768 23.3375 14.9719 23.21C13.2762 22.4986 11.0543 21.4724 8.90427 19.8305L8.58545 19.5874L8.75482 19.2247C9.39845 17.8398 10.2653 16.5805 11.3293 15.4825C12.3894 14.263 13.8879 12.8941 15.7809 11.4095L16.0878 11.1684L16.3947 11.4095C18.2877 12.8941 19.7861 14.265 20.8462 15.4825C21.9123 16.5825 22.7771 17.8398 23.4207 19.2267L23.5901 19.5894L23.2713 19.8325C21.1212 21.4744 18.8994 22.5006 17.2037 23.212C16.8988 23.3395 16.5959 23.477 16.301 23.6165L16.0858 23.7201L16.0898 23.7181ZM9.83484 19.2805C11.7936 20.7132 13.8022 21.6378 15.3565 22.2894C15.6036 22.393 15.8487 22.5006 16.0898 22.6142C16.3309 22.5026 16.576 22.393 16.8231 22.2894C18.3773 21.6378 20.3879 20.7132 22.3447 19.2805C21.7688 18.1347 21.0216 17.0886 20.1249 16.164L20.107 16.1441C19.1445 15.0362 17.7935 13.7888 16.0898 12.4338C14.3861 13.7888 13.035 15.0362 12.0726 16.1441L12.0547 16.164C11.158 17.0886 10.4107 18.1347 9.83484 19.2805Z" fill="white"/>
<path d="M53.4674 0.99218V1.34089C52.8875 1.48038 52.4292 1.98453 52.0925 2.85532L48.0015 13.4044H47.7226L43.4762 2.45479C43.1973 1.73544 42.7967 1.36481 42.2747 1.34089V0.99218C42.7389 1.02605 43.3587 1.04399 44.1378 1.04399C45.1361 1.04399 45.8774 1.02605 46.3656 0.99218V1.34089C45.9252 1.36481 45.6084 1.41861 45.4171 1.50629C45.2258 1.59396 45.1301 1.75338 45.1301 1.98453C45.1301 2.1818 45.1999 2.45479 45.3394 2.80351L48.4897 11.1766L51.3273 3.81378C51.5584 3.18809 51.676 2.71184 51.676 2.38704C51.676 2.02836 51.5505 1.76732 51.3014 1.60393C51.0523 1.44252 50.6717 1.35484 50.1616 1.34289V0.994174C50.8231 1.02805 51.4907 1.04599 52.1642 1.04599C52.6863 1.04599 53.1227 1.02805 53.4694 0.994174L53.4674 0.99218Z" fill="white"/>
<path d="M56.2514 11.6969C56.2514 12.1731 56.349 12.4999 56.5463 12.6812C56.7436 12.8606 57.0863 12.9502 57.5725 12.9502V13.3149C56.5044 13.2691 55.803 13.2452 55.4663 13.2452C55.1295 13.2452 54.4281 13.2691 53.36 13.3149V12.9502C53.8482 12.9502 54.189 12.8606 54.3863 12.6812C54.5835 12.5019 54.6832 12.1731 54.6832 11.6969V6.24895C54.6832 5.71492 54.5835 5.32636 54.3863 5.08326C54.189 4.84015 53.8463 4.7166 53.36 4.7166V4.35194C53.7307 4.38582 54.0913 4.40376 54.4401 4.40376C55.1714 4.40376 55.7751 4.32206 56.2514 4.16066V11.6969ZM56.1298 0.330775C56.351 0.551959 56.4606 0.812995 56.4606 1.11389C56.4606 1.41478 56.351 1.67782 56.1298 1.89701C55.9086 2.11819 55.6476 2.22778 55.3467 2.22778C55.0458 2.22778 54.7848 2.11819 54.5636 1.89701C54.3424 1.67582 54.2328 1.41478 54.2328 1.11389C54.2328 0.812995 54.3424 0.551959 54.5636 0.330775C54.7848 0.10959 55.0458 0 55.3467 0C55.6476 0 55.9086 0.10959 56.1298 0.330775Z" fill="white"/>
<path d="M66.4185 4.35181V4.70052C66.1854 4.72443 65.9801 4.82805 65.8008 5.01337C65.6215 5.19869 65.4501 5.50158 65.2867 5.91804L62.4312 13.4024H62.1363L58.9341 5.69088C58.7608 5.29633 58.5914 5.03529 58.43 4.90776C58.2666 4.78023 58.0992 4.71647 57.9258 4.71647V4.35181C58.5296 4.39764 59.0397 4.42156 59.4582 4.42156C60.3509 4.42156 61.1061 4.39764 61.7218 4.35181V4.71647C61.2914 4.71647 60.9786 4.74836 60.7813 4.81212C60.584 4.87589 60.4844 5.04127 60.4844 5.30829C60.4844 5.47169 60.5482 5.72674 60.6757 6.07346L62.8158 11.3659L64.7307 6.3345C64.8583 5.98578 64.922 5.71479 64.922 5.51552C64.922 5.24851 64.8204 5.05323 64.6172 4.93168C64.4139 4.81012 64.0871 4.73241 63.6328 4.69654V4.34783C64.2366 4.3817 64.7228 4.39964 65.0954 4.39964C65.6055 4.39964 66.0459 4.3817 66.4185 4.34783V4.35181Z" fill="white"/>
<path d="M73.5276 4.50746C73.8225 4.77448 73.972 5.09928 73.972 5.48187C73.972 5.78276 73.8823 6.04181 73.703 6.25702C73.5236 6.47222 73.2825 6.57983 72.9796 6.57983C72.7246 6.57983 72.5074 6.49812 72.3261 6.33672C72.1467 6.17332 72.057 5.95413 72.057 5.67515C72.057 5.29256 72.2543 4.97972 72.6489 4.73463C72.5672 4.61905 72.4456 4.56127 72.2842 4.56127C71.8319 4.56127 71.4194 4.73861 71.0488 5.09131C70.6781 5.446 70.3872 5.87841 70.178 6.38853C69.9687 6.89865 69.8651 7.38087 69.8651 7.8332V11.5236C69.8651 12.0576 70.0186 12.4283 70.3254 12.6375C70.6323 12.8467 71.0946 12.9503 71.7083 12.9503V13.315L71.2899 13.297C70.1062 13.2632 69.351 13.2452 69.0262 13.2452C68.7253 13.2452 68.0399 13.2692 66.9718 13.315V12.9503C67.46 12.9503 67.8007 12.8607 67.998 12.6813C68.1953 12.502 68.2949 12.1732 68.2949 11.697V6.24904C68.2949 5.71501 68.1953 5.32645 67.998 5.08334C67.8007 4.84024 67.458 4.71669 66.9718 4.71669V4.35203C67.3424 4.38591 67.7031 4.40384 68.0518 4.40384C68.7831 4.40384 69.3869 4.32215 69.8631 4.16074V6.33672C70.0724 5.75685 70.4051 5.24075 70.8635 4.78842C71.3218 4.33609 71.8299 4.10893 72.3858 4.10893C72.8501 4.10893 73.2307 4.24244 73.5256 4.50946L73.5276 4.50746Z" fill="white"/>
<path d="M77.6098 11.6969C77.6098 12.1731 77.7074 12.4999 77.9047 12.6812C78.102 12.8606 78.4447 12.9502 78.9309 12.9502V13.3149C77.8628 13.2691 77.1614 13.2452 76.8247 13.2452C76.4879 13.2452 75.7865 13.2691 74.7184 13.3149V12.9502C75.2066 12.9502 75.5474 12.8606 75.7447 12.6812C75.9419 12.5019 76.0416 12.1731 76.0416 11.6969V6.24895C76.0416 5.71492 75.9419 5.32636 75.7447 5.08326C75.5474 4.84015 75.2047 4.7166 74.7184 4.7166V4.35194C75.0891 4.38582 75.4497 4.40376 75.7985 4.40376C76.5298 4.40376 77.1335 4.32206 77.6098 4.16066V11.6969ZM77.4862 0.330775C77.7074 0.551959 77.817 0.812995 77.817 1.11389C77.817 1.41478 77.7074 1.67782 77.4862 1.89701C77.2651 2.11819 77.004 2.22778 76.7031 2.22778C76.4022 2.22778 76.1412 2.11819 75.92 1.89701C75.6988 1.67582 75.5892 1.41478 75.5892 1.11389C75.5892 0.812995 75.6988 0.551959 75.92 0.330775C76.1412 0.10959 76.4022 0 76.7031 0C77.004 0 77.2651 0.10959 77.4862 0.330775Z" fill="white"/>
<path d="M82.621 4.36963H85.1975V4.71834H82.621V11.4555C82.621 11.9776 82.7166 12.3542 82.9079 12.5873C83.0992 12.8205 83.3742 12.936 83.7349 12.936C84.0956 12.936 84.4024 12.7906 84.6575 12.5016C84.9125 12.2107 85.1277 11.7365 85.3011 11.0749L85.6498 11.1626C85.3589 12.7647 84.6057 13.5657 83.3862 13.5657C82.9916 13.5657 82.6668 13.5199 82.4118 13.4262C82.1567 13.3326 81.9295 13.1891 81.7323 12.9918C81.4772 12.7368 81.2999 12.4239 81.2022 12.0513C81.1026 11.6807 81.0548 11.1805 81.0548 10.5548V4.72433H79.3829V4.37561H81.0548V1.71143C81.7044 1.68751 82.2264 1.60781 82.621 1.46833V4.37561V4.36963Z" fill="white"/>
<path d="M88.8696 11.6969C88.8696 12.1731 88.9673 12.4999 89.1645 12.6812C89.3618 12.8606 89.7045 12.9502 90.1907 12.9502V13.3149C89.1227 13.2691 88.4213 13.2452 88.0845 13.2452C87.7477 13.2452 87.0463 13.2691 85.9783 13.3149V12.9502C86.4665 12.9502 86.8072 12.8606 87.0045 12.6812C87.2018 12.5019 87.3014 12.1731 87.3014 11.6969V6.24895C87.3014 5.71492 87.2018 5.32636 87.0045 5.08326C86.8072 4.84015 86.4645 4.7166 85.9783 4.7166V4.35194C86.3489 4.38582 86.7096 4.40376 87.0583 4.40376C87.7896 4.40376 88.3934 4.32206 88.8696 4.16066V11.6969ZM88.7481 0.330775C88.9692 0.551959 89.0788 0.812995 89.0788 1.11389C89.0788 1.41478 88.9692 1.67782 88.7481 1.89701C88.5269 2.11819 88.2658 2.22778 87.9649 2.22778C87.6641 2.22778 87.403 2.11819 87.1818 1.89701C86.9607 1.67582 86.8511 1.41478 86.8511 1.11389C86.8511 0.812995 86.9607 0.551959 87.1818 0.330775C87.403 0.10959 87.6641 0 87.9649 0C88.2658 0 88.5269 0.10959 88.7481 0.330775Z" fill="white"/>
<path d="M105.39 12.9681V13.3168C104.926 13.2829 104.304 13.265 103.527 13.265C102.529 13.265 101.787 13.2829 101.299 13.3168V12.9681C101.739 12.9441 102.056 12.8903 102.248 12.8027C102.439 12.715 102.535 12.5556 102.535 12.3244C102.535 12.1272 102.465 11.8542 102.325 11.5054L101.263 8.64997H97.0508L96.3374 10.4952C96.1043 11.1209 95.9887 11.5971 95.9887 11.9219C95.9887 12.2826 96.1122 12.5436 96.3633 12.705C96.6124 12.8684 96.993 12.9541 97.5031 12.9661V13.3148C96.8416 13.2809 96.174 13.263 95.5005 13.263C94.9784 13.263 94.544 13.2809 94.1953 13.3148V12.9661C94.7752 12.8266 95.2335 12.3224 95.5702 11.4516L99.6612 0.902542H99.9401L104.186 11.8522C104.465 12.5715 104.866 12.9422 105.388 12.9661L105.39 12.9681ZM101.126 8.30325L99.1769 3.09845L97.1923 8.30325H101.126Z" fill="white"/>
<path d="M110.022 4.30023C110.347 4.42776 110.608 4.57919 110.806 4.75256C110.933 4.84621 111.037 4.89204 111.118 4.89204C111.328 4.89204 111.455 4.63699 111.501 4.12687H111.901C111.856 4.69478 111.832 5.68114 111.832 7.08596H111.431C111.304 6.32078 111.057 5.68711 110.692 5.18895C110.327 4.69078 109.783 4.43971 109.064 4.43971C108.645 4.43971 108.303 4.55927 108.038 4.7964C107.771 5.03353 107.637 5.36231 107.637 5.78077C107.637 6.19923 107.777 6.52602 108.056 6.79901C108.335 7.07201 108.781 7.3988 109.397 7.78338C109.5 7.84117 109.658 7.9408 109.867 8.07829C110.401 8.42701 110.829 8.73388 111.154 9.00089C111.479 9.26791 111.742 9.57478 111.945 9.92349C112.149 10.2722 112.25 10.6727 112.25 11.1251C112.25 11.8902 111.963 12.488 111.389 12.9185C110.815 13.3469 110.11 13.5621 109.275 13.5621C108.753 13.5621 108.295 13.4804 107.9 13.319C107.645 13.1914 107.406 13.034 107.187 12.8487C107.141 12.8029 107.089 12.779 107.029 12.779C106.948 12.779 106.876 12.8367 106.812 12.9523C106.748 13.0679 106.699 13.2313 106.665 13.4405H106.264C106.31 12.779 106.334 11.6192 106.334 9.95936H106.735C106.862 11.0493 107.093 11.8663 107.43 12.4043C107.767 12.9444 108.341 13.2134 109.154 13.2134C109.56 13.2134 109.919 13.0799 110.234 12.8128C110.546 12.5458 110.704 12.1274 110.704 11.5595C110.704 11.1071 110.55 10.7245 110.242 10.4117C109.935 10.0988 109.433 9.72224 108.735 9.27987C108.167 8.92119 107.729 8.62428 107.42 8.39114C107.113 8.15999 106.854 7.87505 106.645 7.53829C106.436 7.20153 106.332 6.80699 106.332 6.35466C106.332 5.62335 106.575 5.0674 107.063 4.68282C107.552 4.30023 108.165 4.10893 108.909 4.10893C109.327 4.10893 109.698 4.1727 110.022 4.30023Z" fill="white"/>
<path d="M117.799 4.30023C118.123 4.42776 118.385 4.57919 118.582 4.75256C118.709 4.84621 118.813 4.89204 118.895 4.89204C119.104 4.89204 119.231 4.63699 119.277 4.12687H119.678C119.632 4.69478 119.608 5.68114 119.608 7.08596H119.207C119.08 6.32078 118.833 5.68711 118.468 5.18895C118.104 4.69078 117.56 4.43971 116.84 4.43971C116.422 4.43971 116.079 4.55927 115.814 4.7964C115.547 5.03353 115.413 5.36231 115.413 5.78077C115.413 6.19923 115.553 6.52602 115.832 6.79901C116.111 7.07201 116.557 7.3988 117.173 7.78338C117.277 7.84117 117.434 7.9408 117.643 8.07829C118.177 8.42701 118.606 8.73388 118.93 9.00089C119.255 9.26791 119.518 9.57478 119.722 9.92349C119.925 10.2722 120.026 10.6727 120.026 11.1251C120.026 11.8902 119.74 12.488 119.166 12.9185C118.592 13.3469 117.886 13.5621 117.051 13.5621C116.529 13.5621 116.071 13.4804 115.676 13.319C115.421 13.1914 115.182 13.034 114.963 12.8487C114.917 12.8029 114.865 12.779 114.806 12.779C114.724 12.779 114.652 12.8367 114.589 12.9523C114.525 13.0679 114.475 13.2313 114.441 13.4405H114.041C114.086 12.779 114.11 11.6192 114.11 9.95936H114.511C114.638 11.0493 114.869 11.8663 115.206 12.4043C115.543 12.9444 116.117 13.2134 116.93 13.2134C117.336 13.2134 117.695 13.0799 118.01 12.8128C118.323 12.5458 118.48 12.1274 118.48 11.5595C118.48 11.1071 118.327 10.7245 118.018 10.4117C117.711 10.0988 117.209 9.72224 116.511 9.27987C115.944 8.92119 115.505 8.62428 115.196 8.39114C114.889 8.15999 114.63 7.87505 114.421 7.53829C114.212 7.20153 114.108 6.80699 114.108 6.35466C114.108 5.62335 114.351 5.0674 114.84 4.68282C115.328 4.30023 115.942 4.10893 116.685 4.10893C117.103 4.10893 117.474 4.1727 117.799 4.30023Z" fill="white"/>
<path d="M128.906 11.2262C128.697 11.8639 128.307 12.4118 127.731 12.8701C127.157 13.3285 126.463 13.5576 125.65 13.5576C124.837 13.5576 124.112 13.3683 123.51 12.9917C122.906 12.6151 122.446 12.087 122.127 11.4075C121.808 10.7281 121.649 9.94294 121.649 9.04824C121.649 8.03797 121.812 7.16319 122.137 6.41993C122.462 5.67667 122.92 5.10479 123.512 4.70626C124.104 4.30573 124.793 4.10647 125.585 4.10647C126.629 4.10647 127.432 4.4233 127.996 5.05497C128.558 5.68863 128.841 6.6471 128.841 7.93635H123.393C123.359 8.26115 123.341 8.63178 123.341 9.05024C123.341 9.81541 123.466 10.4829 123.715 11.0528C123.965 11.6208 124.295 12.0591 124.708 12.368C125.12 12.6749 125.553 12.8303 126.005 12.8303C126.563 12.8303 127.055 12.6968 127.486 12.4298C127.914 12.1628 128.275 11.7164 128.566 11.0887L128.914 11.2282L128.906 11.2262ZM124.102 5.23829C123.707 5.77232 123.464 6.56141 123.371 7.60556H127.165C127.189 6.7009 127.057 5.94569 126.772 5.34191C126.487 4.73814 126.067 4.43725 125.511 4.43725C124.955 4.43725 124.495 4.70426 124.1 5.23829H124.102Z" fill="white"/>
<path d="M132.963 4.36963H135.539V4.71834H132.963V11.4555C132.963 11.9776 133.058 12.3542 133.25 12.5873C133.441 12.8205 133.716 12.936 134.077 12.936C134.437 12.936 134.744 12.7906 134.999 12.5016C135.254 12.2107 135.469 11.7365 135.643 11.0749L135.991 11.1626C135.701 12.7647 134.947 13.5657 133.728 13.5657C133.333 13.5657 133.008 13.5199 132.753 13.4262C132.498 13.3326 132.271 13.1891 132.074 12.9918C131.819 12.7368 131.642 12.4239 131.544 12.0513C131.444 11.6807 131.396 11.1805 131.396 10.5548V4.72433H129.725V4.37561H131.396V1.71143C132.046 1.68751 132.568 1.60781 132.963 1.46833V4.37561V4.36963Z" fill="white"/>
<path d="M55.895 18.8084C55.7037 18.8782 55.5722 19.0117 55.5025 19.209C55.4327 19.4062 55.3988 19.7251 55.3988 20.1654V28.7996C55.3988 29.24 55.4327 29.5588 55.5025 29.7561C55.5722 29.9533 55.7017 30.0868 55.895 30.1566C56.0863 30.2263 56.3912 30.2722 56.8097 30.2961V30.6448C56.2756 30.6109 55.5383 30.593 54.5998 30.593C53.6015 30.593 52.8582 30.6109 52.372 30.6448V30.2961C52.7905 30.2722 53.0953 30.2263 53.2866 30.1566C53.4779 30.0868 53.6095 29.9533 53.6772 29.7561C53.7469 29.5588 53.7808 29.24 53.7808 28.7996V19.47L49.5863 30.7325H49.3073L44.9215 19.4361V28.6262C44.9215 29.0786 44.9593 29.4153 45.0351 29.6365C45.1108 29.8577 45.2582 30.0171 45.4794 30.1147C45.7006 30.2124 46.0414 30.2742 46.5056 30.2981V30.6468C46.0872 30.6129 45.4954 30.595 44.7302 30.595C44.0348 30.595 43.4947 30.6129 43.1122 30.6468V30.2981C43.5187 30.2742 43.8196 30.2144 44.0168 30.1147C44.2141 30.0171 44.3476 29.8537 44.4173 29.6266C44.4871 29.3994 44.521 29.0666 44.521 28.6262V20.1674C44.521 19.7271 44.4871 19.4082 44.4173 19.2109C44.3476 19.0137 44.2181 18.8802 44.0248 18.8104C43.8335 18.7407 43.5286 18.6949 43.1102 18.6709V18.3222C43.4928 18.3561 44.0328 18.374 44.7282 18.374C45.332 18.374 45.8242 18.3561 46.2087 18.3222L50.0386 28.4011L53.7808 18.374H54.5998C55.5403 18.374 56.2756 18.3561 56.8097 18.3222V18.6709C56.3912 18.6949 56.0863 18.7407 55.895 18.8104V18.8084Z" fill="white"/>
<path d="M58.6631 30.2201C58.3084 29.8555 58.1331 29.3473 58.1331 28.6977C58.1331 28.1757 58.2745 27.7472 58.5595 27.4105C58.8444 27.0737 59.1792 26.8067 59.5698 26.6094C59.9583 26.4122 60.4724 26.2029 61.1101 25.9838C61.7597 25.7626 62.2419 25.5613 62.5548 25.374C62.8676 25.1887 63.025 24.9396 63.025 24.6247V23.5447C63.025 22.8712 62.8835 22.4109 62.5986 22.1618C62.3136 21.9128 61.9171 21.7872 61.407 21.7872C60.594 21.7872 60.0201 21.9964 59.6833 22.4129C59.9145 22.4707 60.1098 22.5922 60.2672 22.7776C60.4246 22.9629 60.5023 23.196 60.5023 23.473C60.5023 23.75 60.4087 23.9931 60.2234 24.1605C60.038 24.3279 59.7989 24.4135 59.51 24.4135C59.1852 24.4135 58.9421 24.3119 58.7787 24.1087C58.6153 23.9054 58.5356 23.6583 58.5356 23.3694C58.5356 23.0805 58.6013 22.8593 58.7348 22.674C58.8683 22.4886 59.0676 22.3033 59.3346 22.116C59.6136 21.9187 59.9663 21.7573 60.3967 21.6278C60.8251 21.5003 61.2954 21.4365 61.8075 21.4365C62.7122 21.4365 63.3976 21.6517 63.8619 22.0801C64.1509 22.3471 64.3462 22.67 64.4458 23.0466C64.5434 23.4232 64.5932 23.9194 64.5932 24.5351V29.3733C64.5932 29.6642 64.6331 29.8714 64.7148 29.9989C64.7965 30.1265 64.936 30.1902 65.1332 30.1902C65.2727 30.1902 65.4023 30.1584 65.5258 30.0946C65.6493 30.0308 65.7789 29.9412 65.9183 29.8256L66.1096 30.1205C65.8068 30.3536 65.5497 30.519 65.3345 30.6167C65.1193 30.7143 64.8503 30.7641 64.5255 30.7641C63.9675 30.7641 63.579 30.6246 63.3598 30.3457C63.1386 30.0667 63.029 29.6901 63.029 29.2138C62.6803 29.7937 62.2798 30.1962 61.8274 30.4234C61.3751 30.6505 60.865 30.7621 60.2951 30.7621C59.5638 30.7621 59.0218 30.5788 58.6671 30.2141L58.6631 30.2201ZM63.023 28.7476V25.3361C62.9194 25.4995 62.7739 25.633 62.5886 25.7367C62.4033 25.8403 62.1184 25.9798 61.7358 26.1551C61.2954 26.3404 60.9387 26.5178 60.6657 26.6852C60.3927 26.8545 60.1576 27.0837 59.9603 27.3726C59.763 27.6636 59.6654 28.0342 59.6654 28.4865C59.6654 29.0086 59.7929 29.4031 60.048 29.6702C60.3031 29.9372 60.6398 30.0707 61.0583 30.0707C61.8235 30.0707 62.479 29.6303 63.025 28.7476H63.023Z" fill="white"/>
<path d="M74.3193 22.0981C74.5405 22.3312 74.696 22.6202 74.7896 22.9689C74.8833 23.3176 74.9291 23.7878 74.9291 24.3797V29.0265C74.9291 29.5028 75.0267 29.8296 75.226 30.0109C75.4233 30.1902 75.766 30.2799 76.2522 30.2799V30.6446C75.1842 30.5987 74.4887 30.5748 74.1639 30.5748C73.8391 30.5748 73.1895 30.5987 72.2151 30.6446V30.2799C72.6435 30.2799 72.9424 30.1902 73.1118 30.0109C73.2792 29.8316 73.3649 29.5028 73.3649 29.0265V23.9951C73.3649 23.3455 73.2712 22.8493 73.0859 22.5066C72.9006 22.1638 72.522 21.9925 71.9541 21.9925C71.4778 21.9925 71.0554 22.1319 70.6828 22.4109C70.3121 22.6899 70.0232 23.0705 69.8219 23.5507C69.6187 24.0329 69.5171 24.569 69.5171 25.1608V29.0245C69.5171 29.5008 69.6007 29.8276 69.7701 30.0089C69.9375 30.1882 70.2364 30.2779 70.6668 30.2779V30.6426C69.6924 30.5967 69.0428 30.5728 68.718 30.5728C68.3932 30.5728 67.6958 30.5967 66.6297 30.6426V30.2779C67.1179 30.2779 67.4586 30.1882 67.6559 30.0089C67.8532 29.8296 67.9528 29.5008 67.9528 29.0245V23.5766C67.9528 23.0426 67.8532 22.654 67.6559 22.4109C67.4586 22.1678 67.1159 22.0443 66.6297 22.0443V21.6796C67.0003 21.7135 67.361 21.7314 67.7097 21.7314C68.441 21.7314 69.0448 21.6497 69.521 21.4883V23.5428C69.81 22.7995 70.2145 22.2635 70.7306 21.9327C71.2467 21.6019 71.8305 21.4365 72.4801 21.4365C73.2931 21.4365 73.9069 21.6577 74.3253 22.0981H74.3193Z" fill="white"/>
<path d="M77.7222 30.2201C77.3675 29.8555 77.1921 29.3473 77.1921 28.6977C77.1921 28.1757 77.3336 27.7472 77.6186 27.4105C77.9035 27.0737 78.2383 26.8067 78.6288 26.6094C79.0174 26.4122 79.5315 26.2029 80.1692 25.9838C80.8188 25.7626 81.301 25.5613 81.6138 25.374C81.9267 25.1887 82.0841 24.9396 82.0841 24.6247V23.5447C82.0841 22.8712 81.9426 22.4109 81.6577 22.1618C81.3727 21.9128 80.9762 21.7872 80.4661 21.7872C79.6531 21.7872 79.0792 21.9964 78.7424 22.4129C78.9736 22.4707 79.1688 22.5922 79.3263 22.7776C79.4837 22.9629 79.5614 23.196 79.5614 23.473C79.5614 23.75 79.4677 23.9931 79.2824 24.1605C79.0971 24.3279 78.858 24.4135 78.5691 24.4135C78.2443 24.4135 78.0012 24.3119 77.8378 24.1087C77.6744 23.9054 77.5947 23.6583 77.5947 23.3694C77.5947 23.0805 77.6604 22.8593 77.7939 22.674C77.9274 22.4886 78.1267 22.3033 78.3937 22.116C78.6727 21.9187 79.0254 21.7573 79.4558 21.6278C79.8842 21.5003 80.3545 21.4365 80.8666 21.4365C81.7712 21.4365 82.4567 21.6517 82.921 22.0801C83.2099 22.3471 83.4052 22.67 83.5049 23.0466C83.6025 23.4232 83.6523 23.9194 83.6523 24.5351V29.3733C83.6523 29.6642 83.6922 29.8714 83.7739 29.9989C83.8556 30.1265 83.995 30.1902 84.1923 30.1902C84.3318 30.1902 84.4613 30.1584 84.5849 30.0946C84.7064 30.0308 84.8379 29.9412 84.9774 29.8256L85.1687 30.1205C84.8658 30.3536 84.6088 30.519 84.3936 30.6167C84.1784 30.7143 83.9094 30.7641 83.5846 30.7641C83.0266 30.7641 82.6381 30.6246 82.4189 30.3457C82.1977 30.0667 82.0881 29.6901 82.0881 29.2138C81.7394 29.7937 81.3388 30.1962 80.8865 30.4234C80.4342 30.6505 79.9241 30.7621 79.3542 30.7621C78.6229 30.7621 78.0809 30.5788 77.7262 30.2141L77.7222 30.2201ZM82.0821 28.7476V25.3361C81.9785 25.4995 81.833 25.633 81.6477 25.7367C81.4624 25.8403 81.1774 25.9798 80.7949 26.1551C80.3545 26.3404 79.9978 26.5178 79.7248 26.6852C79.4518 26.8545 79.2167 27.0837 79.0194 27.3726C78.8221 27.6636 78.7245 28.0342 78.7245 28.4865C78.7245 29.0086 78.852 29.4031 79.1071 29.6702C79.3621 29.9372 79.6989 30.0707 80.1174 30.0707C80.8825 30.0707 81.5381 29.6303 82.0841 28.7476H82.0821Z" fill="white"/>
<path d="M92.8471 23.0389C92.7016 22.8994 92.6299 22.6961 92.6299 22.4291C92.6299 22.1979 92.6877 21.9309 92.8033 21.6281C92.5024 21.7556 92.2633 21.8971 92.0899 22.0545C91.9165 22.2119 91.7591 22.4052 91.6196 22.6383C91.8866 23.0448 92.0201 23.5609 92.0201 24.1866C92.0201 25.1032 91.7412 25.7907 91.1852 26.249C90.6273 26.7073 89.892 26.9365 88.9754 26.9365H88.9574C88.5749 27.1577 88.2839 27.3609 88.0867 27.5462C87.8894 27.7316 87.7917 27.9408 87.7917 28.1719C87.7917 28.5426 88.0707 28.7299 88.6267 28.7299H90.8026C91.5917 28.7299 92.2453 28.9012 92.7614 29.244C93.2775 29.5867 93.5366 30.1008 93.5366 30.7843C93.5366 31.3422 93.3572 31.8583 92.9965 32.3326C92.6359 32.8088 92.1098 33.1914 91.4124 33.4824C90.717 33.7713 89.8741 33.9167 88.8877 33.9167C87.9013 33.9167 87.0345 33.7633 86.355 33.4545C85.6755 33.1476 85.3368 32.6913 85.3368 32.0875C85.3368 31.693 85.4962 31.3502 85.815 31.0613C86.1339 30.7703 86.5782 30.5452 87.1461 30.3818L87.2497 30.6608C86.9947 30.7424 86.7914 30.9038 86.64 31.1489C86.4885 31.392 86.4128 31.6651 86.4128 31.9679C86.4128 32.502 86.6539 32.9104 87.1362 33.1954C87.6184 33.4803 88.264 33.6218 89.077 33.6218C89.9697 33.6218 90.7369 33.4505 91.3745 33.1077C92.0122 32.765 92.331 32.235 92.331 31.5156C92.331 31.0971 92.1835 30.7723 91.8866 30.5412C91.5897 30.31 91.0657 30.1925 90.3105 30.1925H89.0232C88.3377 30.1925 87.7898 30.1048 87.3773 29.9314C86.9648 29.7581 86.7595 29.4094 86.7595 28.8873C86.7595 28.5286 86.8891 28.1859 87.1521 27.8611C87.4131 27.5363 87.8455 27.2175 88.4493 26.9046C87.6841 26.8229 87.0704 26.5559 86.6121 26.1036C86.1538 25.6512 85.9246 25.0136 85.9246 24.1886C85.9246 23.272 86.2036 22.5845 86.7595 22.1262C87.3175 21.6679 88.0528 21.4388 88.9694 21.4388C90.0594 21.4388 90.8664 21.7397 91.3885 22.3434C91.6097 22.0306 91.8866 21.7715 92.2234 21.5683C92.5602 21.365 92.8969 21.2634 93.2337 21.2634C93.5346 21.2634 93.7797 21.3511 93.965 21.5244C94.1503 21.6978 94.2439 21.9489 94.2439 22.2737C94.2439 22.5985 94.1543 22.8416 93.9749 23.005C93.7956 23.1684 93.5943 23.2481 93.3751 23.2481C93.1659 23.2481 92.9886 23.1783 92.8451 23.0389H92.8471ZM90.0275 26.0757C90.2646 25.711 90.3842 25.0813 90.3842 24.1866C90.3842 23.2919 90.2646 22.6642 90.0275 22.2976C89.7904 21.9329 89.4377 21.7496 88.9754 21.7496C88.5131 21.7496 88.1604 21.9329 87.9213 22.2976C87.6841 22.6642 87.5646 23.2919 87.5646 24.1866C87.5646 25.0813 87.6841 25.709 87.9213 26.0757C88.1584 26.4423 88.5111 26.6236 88.9754 26.6236C89.4397 26.6236 89.7904 26.4403 90.0275 26.0757Z" fill="white"/>
<path d="M102.258 28.5562C102.049 29.1939 101.659 29.7419 101.083 30.2002C100.509 30.6585 99.8155 30.8877 99.0025 30.8877C98.1895 30.8877 97.4641 30.6984 96.8624 30.3218C96.2586 29.9451 95.7983 29.4171 95.4795 28.7376C95.1606 28.0581 95.0012 27.273 95.0012 26.3783C95.0012 25.368 95.1646 24.4932 95.4894 23.75C95.8142 23.0067 96.2725 22.4348 96.8643 22.0363C97.4562 21.6358 98.1456 21.4365 98.9367 21.4365C99.9809 21.4365 100.784 21.7533 101.348 22.385C101.91 23.0187 102.193 23.9772 102.193 25.2664H96.7448C96.7109 25.5912 96.693 25.9618 96.693 26.3803C96.693 27.1455 96.8185 27.813 97.0676 28.3829C97.3167 28.9508 97.6475 29.3892 98.0599 29.6981C98.4724 30.0049 98.9048 30.1603 99.3572 30.1603C99.9151 30.1603 100.407 30.0268 100.836 29.7598C101.264 29.4928 101.625 29.0465 101.916 28.4188L102.264 28.5582L102.258 28.5562ZM97.4542 22.5683C97.0596 23.1024 96.8165 23.8915 96.7229 24.9356H100.517C100.541 24.031 100.409 23.2757 100.124 22.672C99.8394 22.0682 99.4189 21.7673 98.863 21.7673C98.307 21.7673 97.8467 22.0343 97.4522 22.5683H97.4542Z" fill="white"/>
<path d="M117.174 30.0114C117.371 30.1907 117.714 30.2804 118.2 30.2804V30.6451C117.132 30.5992 116.437 30.5753 116.112 30.5753C115.787 30.5753 115.137 30.5992 114.163 30.6451V30.2804C114.591 30.2804 114.89 30.1907 115.06 30.0114C115.227 29.832 115.313 29.5033 115.313 29.027V23.9956C115.313 23.5552 115.287 23.1985 115.235 22.9255C115.183 22.6525 115.062 22.4293 114.87 22.256C114.679 22.0826 114.386 21.9949 113.992 21.9949C113.551 21.9949 113.151 22.1344 112.79 22.4134C112.429 22.6924 112.148 23.073 111.945 23.5532C111.742 24.0354 111.64 24.5655 111.64 25.1453V29.027C111.64 29.5033 111.738 29.83 111.935 30.0114C112.133 30.1907 112.475 30.2804 112.961 30.2804V30.6451C111.893 30.5992 111.198 30.5753 110.873 30.5753C110.548 30.5753 109.899 30.5992 108.924 30.6451V30.2804C109.353 30.2804 109.652 30.1907 109.821 30.0114C109.988 29.832 110.074 29.5033 110.074 29.027V23.9956C110.074 23.5552 110.048 23.1985 109.996 22.9255C109.945 22.6525 109.823 22.4293 109.632 22.256C109.44 22.0826 109.148 21.9949 108.753 21.9949C108.313 21.9949 107.912 22.1344 107.551 22.4134C107.191 22.6924 106.91 23.075 106.707 23.5612C106.503 24.0494 106.402 24.5834 106.402 25.1633V29.027C106.402 29.5033 106.485 29.83 106.655 30.0114C106.822 30.1907 107.121 30.2804 107.551 30.2804V30.6451C106.577 30.5992 105.927 30.5753 105.603 30.5753C105.278 30.5753 104.58 30.5992 103.514 30.6451V30.2804C104.002 30.2804 104.343 30.1907 104.541 30.0114C104.738 29.832 104.837 29.5033 104.837 29.027V23.5791C104.837 23.0451 104.738 22.6565 104.541 22.4134C104.343 22.1703 104 22.0468 103.514 22.0468V21.6821C103.885 21.716 104.246 21.7339 104.594 21.7339C105.326 21.7339 105.929 21.6522 106.406 21.4908V23.5452C106.685 22.8259 107.079 22.2938 107.589 21.9531C108.099 21.6104 108.657 21.439 109.261 21.439C110.05 21.439 110.654 21.6602 111.072 22.1006C111.361 22.4015 111.543 22.8657 111.612 23.4934C111.901 22.7621 112.302 22.238 112.814 21.9172C113.324 21.5984 113.888 21.439 114.502 21.439C115.291 21.439 115.895 21.6602 116.313 22.1006C116.522 22.3337 116.67 22.6286 116.757 22.9893C116.845 23.3499 116.889 23.8142 116.889 24.3821V29.029C116.889 29.5053 116.987 29.832 117.184 30.0134L117.174 30.0114Z" fill="white"/>
<path d="M126.521 28.5562C126.312 29.1939 125.922 29.7419 125.346 30.2002C124.772 30.6585 124.078 30.8877 123.265 30.8877C122.452 30.8877 121.727 30.6984 121.125 30.3218C120.522 29.9451 120.061 29.4171 119.742 28.7376C119.424 28.0581 119.264 27.273 119.264 26.3783C119.264 25.368 119.428 24.4932 119.752 23.75C120.077 23.0067 120.535 22.4348 121.127 22.0363C121.719 21.6358 122.409 21.4365 123.2 21.4365C124.244 21.4365 125.047 21.7533 125.611 22.385C126.173 23.0187 126.456 23.9772 126.456 25.2664H121.008C120.974 25.5912 120.956 25.9618 120.956 26.3803C120.956 27.1455 121.081 27.813 121.331 28.3829C121.58 28.9508 121.91 29.3892 122.323 29.6981C122.735 30.0049 123.168 30.1603 123.62 30.1603C124.178 30.1603 124.67 30.0268 125.099 29.7598C125.527 29.4928 125.888 29.0465 126.179 28.4188L126.527 28.5582L126.521 28.5562ZM121.717 22.5683C121.323 23.1024 121.079 23.8915 120.986 24.9356H124.78C124.804 24.031 124.672 23.2757 124.387 22.672C124.102 22.0682 123.682 21.7673 123.126 21.7673C122.57 21.7673 122.11 22.0343 121.715 22.5683H121.717Z" fill="white"/>
<path d="M135.47 22.0981C135.691 22.3312 135.847 22.6202 135.94 22.9689C136.034 23.3176 136.08 23.7878 136.08 24.3797V29.0265C136.08 29.5028 136.178 29.8296 136.377 30.0109C136.574 30.1902 136.917 30.2799 137.403 30.2799V30.6446C136.335 30.5987 135.64 30.5748 135.315 30.5748C134.99 30.5748 134.34 30.5987 133.366 30.6446V30.2799C133.794 30.2799 134.093 30.1902 134.263 30.0109C134.43 29.8316 134.516 29.5028 134.516 29.0265V23.9951C134.516 23.3455 134.422 22.8493 134.237 22.5066C134.051 22.1638 133.673 21.9925 133.105 21.9925C132.629 21.9925 132.206 22.1319 131.834 22.4109C131.463 22.6899 131.174 23.0705 130.973 23.5507C130.77 24.0329 130.668 24.569 130.668 25.1608V29.0245C130.668 29.5008 130.752 29.8276 130.921 30.0089C131.088 30.1882 131.387 30.2779 131.818 30.2779V30.6426C130.843 30.5967 130.194 30.5728 129.869 30.5728C129.544 30.5728 128.847 30.5967 127.781 30.6426V30.2779C128.269 30.2779 128.61 30.1882 128.807 30.0089C129.004 29.8296 129.104 29.5008 129.104 29.0245V23.5766C129.104 23.0426 129.004 22.654 128.807 22.4109C128.61 22.1678 128.267 22.0443 127.781 22.0443V21.6796C128.151 21.7135 128.512 21.7314 128.861 21.7314C129.592 21.7314 130.196 21.6497 130.672 21.4883V23.5428C130.961 22.7995 131.365 22.2635 131.881 21.9327C132.398 21.6019 132.981 21.4365 133.631 21.4365C134.444 21.4365 135.058 21.6577 135.476 22.0981H135.47Z" fill="white"/>
<path d="M140.969 21.6997H143.546V22.0484H140.969V28.7855C140.969 29.3076 141.065 29.6842 141.256 29.9174C141.447 30.1505 141.722 30.2661 142.083 30.2661C142.444 30.2661 142.751 30.1206 143.006 29.8317C143.261 29.5408 143.476 29.0665 143.649 28.405L143.998 28.4926C143.707 30.0947 142.954 30.8958 141.734 30.8958C141.34 30.8958 141.015 30.8499 140.76 30.7563C140.505 30.6626 140.278 30.5192 140.08 30.3219C139.825 30.0668 139.648 29.754 139.55 29.3814C139.451 29.0107 139.403 28.5106 139.403 27.8849V22.0544H137.731V21.7057H139.403V19.0415C140.053 19.0176 140.575 18.9379 140.969 18.7984V21.7057V21.6997Z" fill="white"/>
</svg>
