<svg width="26" height="26" viewBox="0 0 26 26" fill="none" xmlns="http://www.w3.org/2000/svg">
<path d="M12.8473 0C9.35857 0 8.92064 0.0152868 7.55047 0.0775902C6.18287 0.140279 5.24933 0.356735 4.43257 0.674418C3.58755 1.00251 2.87086 1.44146 2.15687 2.1557C1.44224 2.86981 1.00329 3.58649 0.674168 4.43112C0.355582 5.24813 0.138867 6.18203 0.0773339 7.54898C0.0160576 8.91927 0 9.35732 0 12.8462C0 16.335 0.0154154 16.7715 0.0775909 18.1417C0.140537 19.5093 0.356995 20.4428 0.674424 21.2596C1.00277 22.1046 1.44173 22.8213 2.15597 23.5352C2.86984 24.2499 3.58652 24.6899 4.4309 25.0179C5.24831 25.3356 6.18197 25.5521 7.54931 25.6148C8.91961 25.6771 9.35716 25.6924 12.8458 25.6924C16.3349 25.6924 16.7715 25.6771 18.1416 25.6148C19.5092 25.5521 20.4438 25.3356 21.2612 25.0179C22.1058 24.6899 22.8215 24.2499 23.5352 23.5352C24.2499 22.8213 24.6887 22.1046 25.0179 21.26C25.3337 20.4428 25.5505 19.509 25.6148 18.142C25.6763 16.7718 25.6924 16.335 25.6924 12.8462C25.6924 9.35732 25.6763 8.91953 25.6148 7.54924C25.5505 6.18165 25.3337 5.24825 25.0179 4.4315C24.6887 3.58649 24.2499 2.86981 23.5352 2.1557C22.8207 1.4412 22.1061 1.00225 21.2604 0.674546C20.4415 0.356735 19.5074 0.14015 18.1398 0.0775902C16.7695 0.0152868 16.3333 0 12.8434 0H12.8473ZM11.6949 2.31499C12.037 2.31447 12.4187 2.31499 12.8473 2.31499C16.2774 2.31499 16.6838 2.32732 18.0383 2.38885C19.2908 2.44614 19.9707 2.65541 20.4235 2.83127C21.023 3.06404 21.4504 3.34241 21.8998 3.79215C22.3494 4.24177 22.6276 4.66992 22.8611 5.26945C23.0369 5.72163 23.2464 6.40144 23.3035 7.65393C23.365 9.00816 23.3784 9.41487 23.3784 12.8432C23.3784 16.2716 23.365 16.6784 23.3035 18.0325C23.2462 19.285 23.0369 19.9648 22.8611 20.4171C22.6283 21.0167 22.3494 21.4435 21.8998 21.8929C21.4502 22.3425 21.0233 22.6207 20.4235 22.8536C19.9712 23.0303 19.2908 23.239 18.0383 23.2963C16.6841 23.3578 16.2774 23.3712 12.8473 23.3712C9.41715 23.3712 9.01057 23.3578 7.65645 23.2963C6.40395 23.2385 5.72413 23.0292 5.27091 22.8534C4.67151 22.6205 4.24322 22.3422 3.7936 21.8926C3.34399 21.443 3.06574 21.0159 2.83233 20.4161C2.65646 19.9638 2.44694 19.284 2.3899 18.0315C2.32837 16.6773 2.31604 16.2705 2.31604 12.84C2.31604 9.4096 2.32837 9.00495 2.3899 7.65072C2.4472 6.39823 2.65646 5.71842 2.83233 5.2656C3.06523 4.66607 3.34399 4.23791 3.79373 3.7883C4.24335 3.33869 4.67151 3.06031 5.27104 2.82703C5.72387 2.6504 6.40395 2.44165 7.65645 2.3841C8.84151 2.33053 9.30076 2.31447 11.6949 2.31177V2.31499ZM19.7046 4.44794C18.8536 4.44794 18.1631 5.13778 18.1631 5.98896C18.1631 6.84001 18.8536 7.53048 19.7046 7.53048C20.5557 7.53048 21.2462 6.84001 21.2462 5.98896C21.2462 5.13791 20.5557 4.44743 19.7046 4.44743V4.44794ZM12.8473 6.24909C9.20416 6.24909 6.25031 9.20291 6.25031 12.8462C6.25031 16.4894 9.20416 19.4419 12.8473 19.4419C16.4906 19.4419 19.4435 16.4894 19.4435 12.8462C19.4435 9.20304 16.4904 6.24909 12.8471 6.24909H12.8473ZM12.8473 8.56408C15.2122 8.56408 17.1295 10.4811 17.1295 12.8462C17.1295 15.211 15.2122 17.1283 12.8473 17.1283C10.4824 17.1283 8.56532 15.211 8.56532 12.8462C8.56532 10.4811 10.4824 8.56408 12.8473 8.56408Z" fill="white"/>
</svg>
