<svg width="26" height="26" viewBox="0 0 26 26" fill="none" xmlns="http://www.w3.org/2000/svg">
<path d="M25.876 1.9V23.94C25.876 24.4439 25.6755 24.9272 25.3187 25.2835C24.9619 25.6398 24.4779 25.84 23.9733 25.84H1.90264C1.39803 25.84 0.914086 25.6398 0.557271 25.2835C0.200456 24.9272 0 24.4439 0 23.94L0 1.9C0 1.39609 0.200456 0.912817 0.557271 0.556497C0.914086 0.200178 1.39803 0 1.90264 0L23.9733 0C24.4779 0 24.9619 0.200178 25.3187 0.556497C25.6755 0.912817 25.876 1.39609 25.876 1.9V1.9ZM7.61057 9.88H3.80529V22.04H7.61057V9.88ZM7.95305 5.7C7.95506 5.41256 7.90035 5.12754 7.79204 4.86122C7.68374 4.59489 7.52397 4.35248 7.32185 4.14782C7.11973 3.94316 6.87922 3.78026 6.61406 3.66842C6.34889 3.55658 6.06426 3.49799 5.77643 3.496H5.70793C5.12258 3.496 4.5612 3.72821 4.1473 4.14154C3.73339 4.55487 3.50086 5.11547 3.50086 5.7C3.50086 6.28454 3.73339 6.84514 4.1473 7.25847C4.5612 7.6718 5.12258 7.904 5.70793 7.904V7.904C5.99579 7.91108 6.28222 7.86144 6.55086 7.75792C6.81951 7.65441 7.06509 7.49906 7.27359 7.30073C7.48208 7.10241 7.6494 6.865 7.76599 6.60208C7.88257 6.33915 7.94614 6.05587 7.95305 5.7684V5.7ZM22.0707 14.6528C22.0707 10.9972 19.7418 9.576 17.4282 9.576C16.6707 9.53813 15.9165 9.69925 15.2408 10.0433C14.565 10.3874 13.9915 10.9023 13.5773 11.5368H13.4707V9.88H9.89375V22.04H13.699V15.5724C13.644 14.91 13.853 14.2527 14.2805 13.7433C14.708 13.2338 15.3195 12.9134 15.9822 12.8516H16.1268C17.3369 12.8516 18.2349 13.6116 18.2349 15.5268V22.04H22.0402L22.0707 14.6528Z" fill="white"/>
</svg>
