<svg width="257" height="231" viewBox="0 0 257 231" fill="none" xmlns="http://www.w3.org/2000/svg">
<path d="M71.5898 144.316C72.2083 144.781 72.8274 145.241 73.4482 145.694L73.7002 145.349L73.7012 145.346C75.2343 146.465 76.7746 147.55 78.3203 148.603L78.3193 148.606L78.0781 148.959C79.6505 150.03 81.2288 151.067 82.8105 152.072L83.04 151.711L83.041 151.709C84.6425 152.727 86.2478 153.713 87.8555 154.669L87.8545 154.671L87.6357 155.039C89.2704 156.011 90.9079 156.952 92.5449 157.863L92.7529 157.489V157.487C94.4108 158.411 96.068 159.306 97.7246 160.173L97.5273 160.553C99.2128 161.434 100.896 162.288 102.576 163.115L102.766 162.732V162.73C104.47 163.569 106.169 164.382 107.863 165.171V165.173L107.683 165.561C109.408 166.364 111.126 167.142 112.836 167.899L113.009 167.508V167.507C114.748 168.276 116.478 169.022 118.197 169.748V169.75L118.03 170.144C118.903 170.512 119.773 170.877 120.64 171.235C121.286 171.503 121.929 171.773 122.569 172.047L122.736 171.653C124.026 172.204 125.306 172.768 126.575 173.35V173.351L126.397 173.739C126.76 173.905 127.121 174.073 127.481 174.242C126.967 174.49 126.454 174.741 125.942 174.994L126.133 175.377C124.574 176.15 123.031 176.947 121.504 177.769L121.301 177.392C119.764 178.219 118.245 179.071 116.744 179.948L116.96 180.317C115.458 181.195 113.974 182.099 112.511 183.027L112.281 182.666C110.807 183.601 109.354 184.562 107.923 185.549L108.165 185.901L108.166 185.902C106.733 186.891 105.322 187.904 103.936 188.944V188.943L103.68 188.601C102.283 189.648 100.91 190.723 99.5635 191.824L99.834 192.155L99.835 192.156C98.4881 193.258 97.167 194.385 95.874 195.54L95.5889 195.221C94.287 196.384 93.0128 197.573 91.7686 198.791L92.0684 199.097C90.8259 200.313 89.6137 201.556 88.4326 202.827H88.4316L88.1182 202.536C86.9306 203.814 85.7748 205.12 84.6523 206.454L84.9795 206.73C83.8616 208.058 82.777 209.414 81.7275 210.799L81.3867 210.54C80.3342 211.929 79.3165 213.346 78.3359 214.791L78.6895 215.03C77.7161 216.465 76.7804 217.928 75.8818 219.419L75.5156 219.198C74.6177 220.688 73.7577 222.206 72.9375 223.752L73.3145 223.951C72.5037 225.479 71.732 227.035 71.001 228.619L70.6133 228.441C70.3879 228.929 70.1679 229.421 69.9502 229.914C69.7331 229.394 69.5186 228.873 69.3096 228.349L68.9121 228.506C68.2471 226.839 67.6231 225.152 67.041 223.446L67.4453 223.309C66.8682 221.618 66.3328 219.908 65.8398 218.181L65.4287 218.297C64.9367 216.573 64.4872 214.831 64.0811 213.073L64.4971 212.978C64.0953 211.239 63.736 209.484 63.4209 207.714L63.001 207.787C62.687 206.024 62.4164 204.245 62.1904 202.453L62.6143 202.401C62.3912 200.633 62.2109 198.85 62.0762 197.055L61.6514 197.085C61.5174 195.301 61.4268 193.504 61.3818 191.696L61.8086 191.688C61.7975 191.241 61.7897 190.794 61.7842 190.346L61.7754 189C61.7754 188.025 61.7884 187.053 61.8145 186.084L61.3867 186.072C61.4395 184.11 61.546 182.161 61.7031 180.227L62.1289 180.261C62.2871 178.313 62.498 176.38 62.7598 174.464L62.3369 174.406C62.6023 172.464 62.9196 170.537 63.2881 168.629L63.707 168.71C64.0771 166.794 64.4991 164.896 64.9707 163.018L64.5566 162.913C65.0335 161.014 65.5613 159.134 66.1387 157.276L66.5459 157.403C67.1244 155.542 67.7529 153.702 68.4297 151.885L68.0293 151.736C68.7123 149.903 69.444 148.093 70.2236 146.308L70.6152 146.48C70.932 145.754 71.2574 145.033 71.5898 144.316Z" stroke="url(#paint0_linear_603_887)" stroke-width="0.855556" stroke-dasharray="5.31 5.31"/>
<path d="M256.182 2.5293L256.604 2.58105C256.388 4.29859 256.161 5.99803 255.925 7.67969L255.503 7.62109C255.261 9.34122 255.009 11.0427 254.747 12.7256L255.168 12.79C254.9 14.509 254.622 16.2088 254.334 17.8896L253.914 17.8184C253.621 19.5267 253.317 21.2154 253.003 22.8848L253.422 22.9629C253.101 24.6665 252.77 26.35 252.428 28.0137L252.01 27.9287C251.66 29.6284 251.3 31.3074 250.929 32.9658L251.345 33.0586C250.965 34.7573 250.573 36.4346 250.171 38.0908L249.757 37.9902C249.347 39.6773 248.925 41.3428 248.492 42.9863L248.904 43.0938C248.462 44.7743 248.008 46.4324 247.542 48.0684L247.132 47.9521C246.657 49.6198 246.171 51.2649 245.673 52.8867L246.081 53.0107C245.571 54.6711 245.049 56.3076 244.516 57.9209L244.111 57.7871C243.567 59.433 243.011 61.0547 242.442 62.6523L242.845 62.7959C242.262 64.4342 241.666 66.047 241.059 67.6357L240.66 67.4844C240.04 69.1062 239.407 70.7025 238.763 72.2734L239.157 72.4346C238.497 74.0436 237.825 75.6266 237.14 77.1836L236.749 77.0127C236.05 78.6007 235.338 80.1615 234.614 81.6963L235 81.8779C234.258 83.4505 233.504 84.9955 232.737 86.5137L232.357 86.3213C231.576 87.8691 230.781 89.3895 229.974 90.8818L230.349 91.084C229.522 92.6122 228.684 94.1122 227.832 95.584L227.462 95.3701C226.594 96.8702 225.713 98.3415 224.82 99.7842L225.184 100.009C224.268 101.488 223.34 102.936 222.399 104.356L222.044 104.121C221.087 105.567 220.117 106.983 219.136 108.369L219.484 108.615C218.48 110.033 217.464 111.421 216.436 112.779L216.096 112.522C215.051 113.903 213.994 115.254 212.926 116.574L213.257 116.842C212.166 118.191 211.061 119.507 209.947 120.795L209.627 120.519C208.496 121.826 207.354 123.103 206.202 124.351L206.516 124.64C205.338 125.915 204.148 127.157 202.949 128.371L202.647 128.074C201.432 129.306 200.206 130.506 198.972 131.677L199.266 131.986C198.008 133.179 196.74 134.339 195.465 135.472L195.184 135.155C193.893 136.302 192.592 137.418 191.285 138.506L191.559 138.834C190.226 139.943 188.884 141.02 187.536 142.071L187.275 141.736C186.737 142.156 186.196 142.57 185.655 142.981C185.296 142.227 184.931 141.476 184.555 140.73L184.172 140.923H184.171C183.261 139.12 182.304 137.345 181.297 135.602L181.668 135.389C180.655 133.634 179.592 131.91 178.484 130.219L178.127 130.453H178.125C177.019 128.765 175.868 127.11 174.671 125.49H174.672L175.017 125.236C173.813 123.607 172.565 122.013 171.273 120.456L170.944 120.728C169.657 119.175 168.326 117.661 166.954 116.184H166.955L167.269 115.893C166.584 115.155 165.889 114.427 165.184 113.709C164.649 113.101 164.103 112.49 163.546 111.878L163.229 112.166C162.149 110.979 161.027 109.784 159.867 108.583H159.868L160.176 108.285C159.055 107.125 157.898 105.959 156.707 104.788L156.407 105.093H156.406C155.256 103.962 154.074 102.827 152.862 101.688L153.157 101.376C151.978 100.267 150.771 99.154 149.538 98.0391L149.251 98.3564H149.25C148.049 97.2705 146.824 96.1821 145.576 95.0918H145.577L145.858 94.7695C144.636 93.7016 143.391 92.6321 142.127 91.5615L141.851 91.8877H141.85C140.611 90.8389 139.351 89.7913 138.075 88.7412L138.078 88.7383L138.35 88.4082C137.094 87.3743 135.82 86.3404 134.531 85.3066L134.264 85.6396L134.262 85.6406C132.993 84.6228 131.708 83.6064 130.41 82.5898L130.412 82.5879L130.676 82.251C130.176 81.8598 129.674 81.469 129.171 81.0781C129.737 80.6406 130.305 80.2027 130.875 79.7656L130.615 79.4268C132.046 78.3307 133.491 77.2368 134.948 76.1445L135.203 76.4863C136.645 75.4055 138.1 74.3268 139.565 73.251L139.313 72.9062C139.985 72.4131 140.658 71.9196 141.334 71.4277L143.706 69.7109L143.956 70.0576C145.42 69.003 146.893 67.9513 148.372 66.9043L148.125 66.5566C149.601 65.5123 151.083 64.472 152.57 63.4365L152.815 63.7861C154.3 62.7528 155.79 61.7244 157.283 60.7012L157.041 60.3477C158.535 59.3238 160.034 58.3063 161.533 57.2939L161.772 57.6475C163.274 56.6338 164.778 55.6259 166.281 54.625L166.044 54.2686C167.555 53.263 169.066 52.2648 170.575 51.2734L170.81 51.6309C172.328 50.6335 173.846 49.6437 175.359 48.6621L175.127 48.3037C176.653 47.3139 178.176 46.3318 179.694 45.3594L179.925 45.7197C181.458 44.7379 182.986 43.7654 184.507 42.8027L184.277 42.4404C185.817 41.4656 187.35 40.5015 188.874 39.5479L189.101 39.9102C190.646 38.9428 192.183 37.9871 193.708 37.043L193.482 36.6797C195.035 35.7187 196.576 34.7702 198.103 33.835L198.326 34.1992C199.886 33.2438 201.432 32.3019 202.961 31.375L202.739 31.0088C204.309 30.0572 205.862 29.1218 207.395 28.2021L207.614 28.5684C209.191 27.6222 210.747 26.6935 212.279 25.7832L212.061 25.416C213.646 24.4743 215.206 23.5525 216.737 22.6514L216.954 23.0195C218.547 22.0825 220.109 21.168 221.638 20.2773L221.423 19.9082C223.025 18.9746 224.59 18.0662 226.114 17.1865L226.328 17.5576C227.948 16.6229 229.522 15.7191 231.045 14.8486L230.833 14.4775C232.473 13.5406 234.054 12.6425 235.571 11.7842L235.782 12.1553C237.438 11.2187 239.017 10.3297 240.513 9.49219L240.304 9.12012C241.995 8.17289 243.58 7.29024 245.047 6.47754L245.254 6.85156C247.006 5.88107 248.591 5.00976 249.99 4.24414L249.785 3.86816C251.782 2.77561 253.403 1.90066 254.593 1.25977L254.795 1.63477C255.47 1.27123 256.007 0.9831 256.396 0.775391C256.324 1.36185 256.255 1.94701 256.182 2.5293Z" stroke="black" stroke-width="0.855556" stroke-dasharray="5.31 5.31"/>
<path d="M256.182 2.5293L256.604 2.58105C256.388 4.29859 256.161 5.99803 255.925 7.67969L255.503 7.62109C255.261 9.34122 255.009 11.0427 254.747 12.7256L255.168 12.79C254.9 14.509 254.622 16.2088 254.334 17.8896L253.914 17.8184C253.621 19.5267 253.317 21.2154 253.003 22.8848L253.422 22.9629C253.101 24.6665 252.77 26.35 252.428 28.0137L252.01 27.9287C251.66 29.6284 251.3 31.3074 250.929 32.9658L251.345 33.0586C250.965 34.7573 250.573 36.4346 250.171 38.0908L249.757 37.9902C249.347 39.6773 248.925 41.3428 248.492 42.9863L248.904 43.0938C248.462 44.7743 248.008 46.4324 247.542 48.0684L247.132 47.9521C246.657 49.6198 246.171 51.2649 245.673 52.8867L246.081 53.0107C245.571 54.6711 245.049 56.3076 244.516 57.9209L244.111 57.7871C243.567 59.433 243.011 61.0547 242.442 62.6523L242.845 62.7959C242.262 64.4342 241.666 66.047 241.059 67.6357L240.66 67.4844C240.04 69.1062 239.407 70.7025 238.763 72.2734L239.157 72.4346C238.497 74.0436 237.825 75.6266 237.14 77.1836L236.749 77.0127C236.05 78.6007 235.338 80.1615 234.614 81.6963L235 81.8779C234.258 83.4505 233.504 84.9955 232.737 86.5137L232.357 86.3213C231.576 87.8691 230.781 89.3895 229.974 90.8818L230.349 91.084C229.522 92.6122 228.684 94.1122 227.832 95.584L227.462 95.3701C226.594 96.8702 225.713 98.3415 224.82 99.7842L225.184 100.009C224.268 101.488 223.34 102.936 222.399 104.356L222.044 104.121C221.087 105.567 220.117 106.983 219.136 108.369L219.484 108.615C218.48 110.033 217.464 111.421 216.436 112.779L216.096 112.522C215.051 113.903 213.994 115.254 212.926 116.574L213.257 116.842C212.166 118.191 211.061 119.507 209.947 120.795L209.627 120.519C208.496 121.826 207.354 123.103 206.202 124.351L206.516 124.64C205.338 125.915 204.148 127.157 202.949 128.371L202.647 128.074C201.432 129.306 200.206 130.506 198.972 131.677L199.266 131.986C198.008 133.179 196.74 134.339 195.465 135.472L195.184 135.155C193.893 136.302 192.592 137.418 191.285 138.506L191.559 138.834C190.226 139.943 188.884 141.02 187.536 142.071L187.275 141.736C186.737 142.156 186.196 142.57 185.655 142.981C185.296 142.227 184.931 141.476 184.555 140.73L184.172 140.923H184.171C183.261 139.12 182.304 137.345 181.297 135.602L181.668 135.389C180.655 133.634 179.592 131.91 178.484 130.219L178.127 130.453H178.125C177.019 128.765 175.868 127.11 174.671 125.49H174.672L175.017 125.236C173.813 123.607 172.565 122.013 171.273 120.456L170.944 120.728C169.657 119.175 168.326 117.661 166.954 116.184H166.955L167.269 115.893C166.584 115.155 165.889 114.427 165.184 113.709C164.649 113.101 164.103 112.49 163.546 111.878L163.229 112.166C162.149 110.979 161.027 109.784 159.867 108.583H159.868L160.176 108.285C159.055 107.125 157.898 105.959 156.707 104.788L156.407 105.093H156.406C155.256 103.962 154.074 102.827 152.862 101.688L153.157 101.376C151.978 100.267 150.771 99.154 149.538 98.0391L149.251 98.3564H149.25C148.049 97.2705 146.824 96.1821 145.576 95.0918H145.577L145.858 94.7695C144.636 93.7016 143.391 92.6321 142.127 91.5615L141.851 91.8877H141.85C140.611 90.8389 139.351 89.7913 138.075 88.7412L138.078 88.7383L138.35 88.4082C137.094 87.3743 135.82 86.3404 134.531 85.3066L134.264 85.6396L134.262 85.6406C132.993 84.6228 131.708 83.6064 130.41 82.5898L130.412 82.5879L130.676 82.251C130.176 81.8598 129.674 81.469 129.171 81.0781C129.737 80.6406 130.305 80.2027 130.875 79.7656L130.615 79.4268C132.046 78.3307 133.491 77.2368 134.948 76.1445L135.203 76.4863C136.645 75.4055 138.1 74.3268 139.565 73.251L139.313 72.9062C139.985 72.4131 140.658 71.9196 141.334 71.4277L143.706 69.7109L143.956 70.0576C145.42 69.003 146.893 67.9513 148.372 66.9043L148.125 66.5566C149.601 65.5123 151.083 64.472 152.57 63.4365L152.815 63.7861C154.3 62.7528 155.79 61.7244 157.283 60.7012L157.041 60.3477C158.535 59.3238 160.034 58.3063 161.533 57.2939L161.772 57.6475C163.274 56.6338 164.778 55.6259 166.281 54.625L166.044 54.2686C167.555 53.263 169.066 52.2648 170.575 51.2734L170.81 51.6309C172.328 50.6335 173.846 49.6437 175.359 48.6621L175.127 48.3037C176.653 47.3139 178.176 46.3318 179.694 45.3594L179.925 45.7197C181.458 44.7379 182.986 43.7654 184.507 42.8027L184.277 42.4404C185.817 41.4656 187.35 40.5015 188.874 39.5479L189.101 39.9102C190.646 38.9428 192.183 37.9871 193.708 37.043L193.482 36.6797C195.035 35.7187 196.576 34.7702 198.103 33.835L198.326 34.1992C199.886 33.2438 201.432 32.3019 202.961 31.375L202.739 31.0088C204.309 30.0572 205.862 29.1218 207.395 28.2021L207.614 28.5684C209.191 27.6222 210.747 26.6935 212.279 25.7832L212.061 25.416C213.646 24.4743 215.206 23.5525 216.737 22.6514L216.954 23.0195C218.547 22.0825 220.109 21.168 221.638 20.2773L221.423 19.9082C223.025 18.9746 224.59 18.0662 226.114 17.1865L226.328 17.5576C227.948 16.6229 229.522 15.7191 231.045 14.8486L230.833 14.4775C232.473 13.5406 234.054 12.6425 235.571 11.7842L235.782 12.1553C237.438 11.2187 239.017 10.3297 240.513 9.49219L240.304 9.12012C241.995 8.17289 243.58 7.29024 245.047 6.47754L245.254 6.85156C247.006 5.88107 248.591 5.00976 249.99 4.24414L249.785 3.86816C251.782 2.77561 253.403 1.90066 254.593 1.25977L254.795 1.63477C255.47 1.27123 256.007 0.9831 256.396 0.775391C256.324 1.36185 256.255 1.94701 256.182 2.5293Z" stroke="url(#paint1_linear_603_887)" stroke-width="0.855556" stroke-dasharray="5.31 5.31"/>
<path d="M187.029 230.586L187.113 230.708C187.058 230.746 186.98 230.744 186.921 230.703L187.005 230.579M187.029 230.586L187.005 230.579M187.029 230.586L187.005 230.579M187.029 230.586L187.015 230.564L187.005 230.579M30.832 17.1885C32.3567 18.0682 33.922 18.9756 35.5244 19.9092L35.3096 20.2783C36.8385 21.1691 38.4011 22.0843 39.9941 23.0215L40.21 22.6533C41.7417 23.5544 43.3016 24.4763 44.8867 25.418L44.6699 25.7852C46.2022 26.6954 47.7581 27.6242 49.335 28.5703L49.5537 28.2041C51.0866 29.1238 52.6398 30.0591 54.21 31.0107H54.2109L53.9893 31.377C55.5185 32.3039 57.0649 33.2457 58.625 34.2012L58.8467 33.8359C60.3741 34.7714 61.915 35.7205 63.4678 36.6816L63.2441 37.0449C64.7693 37.989 66.3059 38.9448 67.8516 39.9121L68.0771 39.5498C69.6013 40.5036 71.1345 41.4684 72.6748 42.4434L72.4463 42.8047C73.9672 43.7673 75.4953 44.7399 77.0283 45.7217L77.2588 45.3613C78.7772 46.3338 80.3004 47.3158 81.8271 48.3057L81.5957 48.6641C83.1097 49.6456 84.6268 50.6355 86.1455 51.6328L86.3799 51.2764C87.8892 52.2675 89.4005 53.2652 90.9111 54.2705L90.6748 54.627C92.1787 55.6278 93.6828 56.6358 95.1846 57.6494L95.4229 57.2959C96.9225 58.3081 98.4207 59.3259 99.915 60.3496L99.6748 60.7021C101.169 61.7254 102.659 62.7547 104.144 63.7881L104.387 63.4375C105.875 64.4729 107.357 65.5133 108.833 66.5576L108.588 66.9062C110.068 67.9532 111.541 69.004 113.005 70.0586L113.254 69.7119C114.728 70.7735 116.193 71.8393 117.647 72.9072L117.396 73.252C118.862 74.3275 120.316 75.4058 121.759 76.4863L122.014 76.1465C123.471 77.2382 124.916 78.3312 126.347 79.4268L126.088 79.7656L128.229 81.415C128.878 81.9185 129.524 82.422 130.166 82.9258L130.428 82.5908C131.726 83.6091 133.01 84.6276 134.278 85.6465L134.013 85.9795C135.299 87.0124 136.569 88.0448 137.822 89.0771L138.092 88.749C139.368 89.8004 140.627 90.8497 141.866 91.8994L141.59 92.2256C142.851 93.2944 144.092 94.3621 145.312 95.4277L145.592 95.1055C146.84 96.1962 148.065 97.2847 149.266 98.3711L148.979 98.6885C150.208 99.8004 151.412 100.91 152.587 102.016L152.879 101.704C154.09 102.844 155.272 103.98 156.423 105.111L156.124 105.416C157.31 106.582 158.462 107.744 159.578 108.899L159.884 108.603C161.044 109.804 162.166 110.998 163.247 112.187L162.932 112.475C163.487 113.085 164.031 113.693 164.564 114.3L164.572 114.31L164.581 114.317C165.285 115.032 165.979 115.758 166.662 116.493L166.975 116.201C168.347 117.676 169.678 119.189 170.966 120.74V120.741L170.637 121.015C171.918 122.558 173.157 124.138 174.351 125.753L174.692 125.499C175.889 127.118 177.041 128.772 178.146 130.459L177.791 130.693C178.89 132.37 179.942 134.08 180.947 135.82L181.317 135.606C182.323 137.349 183.28 139.122 184.189 140.924L183.81 141.116C184.209 141.908 184.598 142.707 184.979 143.511C184.964 143.522 184.95 143.532 184.94 143.54L184.925 143.552C184.928 143.55 184.923 143.553 184.922 143.554L184.921 143.555L184.919 143.556L184.918 143.557C184.917 143.557 184.916 143.558 184.915 143.559H184.916C184.894 143.575 184.914 143.56 184.892 143.577L184.796 143.649C184.793 143.652 184.788 143.656 184.785 143.658C184.771 143.669 184.787 143.655 184.773 143.666L184.75 143.684C184.749 143.685 184.749 143.684 184.747 143.686L184.746 143.687C184.744 143.688 184.743 143.69 184.739 143.692C184.739 143.693 184.737 143.694 184.736 143.694L184.734 143.695L184.733 143.696C184.73 143.699 184.731 143.699 184.728 143.701L184.727 143.702L184.725 143.703C184.733 143.696 184.727 143.701 184.722 143.705C184.717 143.708 184.723 143.704 184.72 143.706L184.714 143.712L184.705 143.718C184.672 143.743 184.694 143.726 184.661 143.751C184.643 143.764 184.657 143.754 184.64 143.768C184.61 143.79 184.658 143.753 184.629 143.775L184.626 143.777L184.624 143.779C184.619 143.783 184.626 143.778 184.621 143.781L184.618 143.784C184.614 143.788 184.612 143.788 184.607 143.792C184.603 143.795 184.61 143.79 184.605 143.794L184.604 143.795L184.602 143.797L184.6 143.798L184.598 143.8C184.595 143.802 184.579 143.814 184.576 143.815L184.535 143.847C184.521 143.857 184.53 143.851 184.516 143.861C184.498 143.874 184.512 143.864 184.495 143.877L184.754 144.218L185.012 144.559C185.018 144.554 185.016 144.556 185.021 144.552C185.008 144.562 185.039 144.539 185.024 144.55L185.026 144.548C185.028 144.546 185.027 144.547 185.029 144.546L185.03 144.545L185.032 144.544C185.054 144.527 185.029 144.545 185.052 144.528C185.068 144.516 185.056 144.526 185.072 144.514C185.083 144.506 185.082 144.506 185.093 144.498C185.106 144.488 185.121 144.476 185.135 144.466C185.144 144.459 185.136 144.465 185.146 144.458C185.147 144.457 185.147 144.456 185.148 144.455C185.16 144.446 185.175 144.436 185.178 144.434C185.222 144.4 185.221 144.401 185.267 144.366C185.301 144.34 185.313 144.33 185.341 144.309C185.677 145.035 186.008 145.766 186.328 146.501L186.72 146.33C187.497 148.115 188.227 149.925 188.909 151.759L188.51 151.908C189.186 153.725 189.813 155.565 190.392 157.427L190.799 157.3C191.376 159.158 191.904 161.037 192.381 162.937L191.968 163.041C192.44 164.919 192.863 166.817 193.233 168.732L193.65 168.651C194.02 170.559 194.338 172.485 194.604 174.428L194.184 174.485C194.446 176.402 194.658 178.335 194.816 180.282L195.24 180.247C195.398 182.182 195.506 184.13 195.559 186.093L195.132 186.104C195.158 187.073 195.171 188.045 195.171 189.021C195.171 189.91 195.16 190.796 195.139 191.681L195.564 191.69C195.52 193.48 195.432 195.259 195.301 197.026L194.876 196.995C194.744 198.772 194.567 200.537 194.349 202.289L194.772 202.342C194.551 204.116 194.285 205.877 193.978 207.624L193.559 207.551C193.25 209.304 192.898 211.043 192.504 212.766L192.919 212.859C192.521 214.601 192.081 216.327 191.599 218.035L191.188 217.92C190.705 219.632 190.18 221.326 189.614 223.002L190.019 223.138C189.447 224.829 188.835 226.502 188.183 228.154L187.786 227.998C187.533 228.638 187.272 229.274 187.007 229.908C186.736 229.296 186.462 228.686 186.18 228.082L185.791 228.263C185.056 226.69 184.282 225.145 183.469 223.627L183.847 223.425C183.024 221.89 182.163 220.382 181.264 218.902L180.897 219.125C179.998 217.645 179.06 216.192 178.087 214.768L178.441 214.526C177.461 213.091 176.444 211.685 175.393 210.306L175.051 210.564C174.002 209.19 172.92 207.843 171.804 206.523L172.131 206.247C171.011 204.922 169.857 203.626 168.673 202.356L168.36 202.647L168.358 202.648C167.18 201.386 165.971 200.15 164.732 198.942H164.733L165.032 198.636C163.792 197.426 162.521 196.244 161.224 195.089L160.939 195.408L160.938 195.409C159.65 194.262 158.333 193.141 156.991 192.047H156.992L157.263 191.715C155.921 190.621 154.553 189.554 153.162 188.513L152.906 188.854L152.904 188.855C151.523 187.822 150.119 186.815 148.692 185.833L148.693 185.832L148.936 185.479C147.51 184.499 146.062 183.544 144.595 182.614L144.366 182.976L144.365 182.977C142.908 182.054 141.431 181.155 139.935 180.282H139.936L140.151 179.913C138.657 179.041 137.144 178.194 135.614 177.372L135.411 177.748H135.41C133.891 176.931 132.354 176.139 130.803 175.371H130.804L130.993 174.987C130.403 174.695 129.811 174.408 129.217 174.123L129.575 173.771H128.521C127.929 173.495 127.337 173.222 126.743 172.951L126.564 173.34C125.293 172.76 124.018 172.19 122.73 171.636L122.899 171.243C122.257 170.966 121.611 170.693 120.961 170.424C120.096 170.066 119.229 169.703 118.358 169.335L118.191 169.727C116.473 169 114.743 168.255 113.004 167.485L113.177 167.095C111.472 166.34 109.758 165.564 108.039 164.763L107.858 165.148C106.165 164.359 104.465 163.547 102.762 162.707L102.95 162.325C101.276 161.5 99.599 160.649 97.9199 159.771L97.7217 160.149H97.7207C96.0642 159.283 94.407 158.387 92.749 157.463L92.958 157.092C91.328 156.184 89.6979 155.246 88.0703 154.278L87.8525 154.645C86.2451 153.689 84.6398 152.703 83.0381 151.685L83.2666 151.325C81.6924 150.324 80.1218 149.293 78.5566 148.228L78.3164 148.578C76.7709 147.526 75.2308 146.442 73.6973 145.323L73.9482 144.98C73.1918 144.429 72.4365 143.869 71.6836 143.3C71.0035 142.785 70.3252 142.264 69.6484 141.735L69.3857 142.07C68.0392 141.019 66.6983 139.94 65.3662 138.83L65.6406 138.503C64.3341 137.414 63.0345 136.297 61.7441 135.149L61.4619 135.466C60.1876 134.333 58.9196 133.172 57.6631 131.979L57.957 131.67C56.7231 130.498 55.4989 129.297 54.2842 128.065L53.9814 128.363C52.7835 127.149 51.5934 125.906 50.416 124.631L50.7305 124.342C49.5787 123.094 48.4369 121.817 47.3066 120.509L46.9844 120.785C45.8711 119.497 44.7665 118.181 43.6758 116.832L44.0078 116.563C42.9399 115.243 41.8836 113.892 40.8389 112.512L40.498 112.77C39.4703 111.411 38.453 110.024 37.4492 108.606L37.7988 108.359C36.8174 106.973 35.8477 105.557 34.8906 104.111L34.5342 104.347C33.5939 102.926 32.6654 101.478 31.75 99.999L32.1143 99.7754C31.2211 98.3327 30.3399 96.8614 29.4717 95.3613L29.1025 95.5752C28.2506 94.1032 27.4107 92.6036 26.584 91.0752L26.96 90.873C26.1528 89.3809 25.3582 87.8611 24.5762 86.3135L24.1953 86.5059C23.4283 84.9879 22.6734 83.4433 21.9316 81.8711L22.3174 81.6895C21.5933 80.1548 20.8817 78.5937 20.1826 77.0059L19.792 77.1768C19.1066 75.6199 18.4329 74.0376 17.7725 72.4287L18.168 72.2666C17.5232 70.6959 16.8906 69.1 16.2705 67.4785L15.8711 67.6299C15.2636 66.0413 14.668 64.4282 14.085 62.79L14.4873 62.6475C13.9188 61.0501 13.3619 59.4287 12.8174 57.7832L12.4111 57.916C11.8774 56.3031 11.3557 54.6667 10.8457 53.0068L11.2549 52.8828C10.7566 51.261 10.2698 49.6158 9.79492 47.9482L9.38379 48.0645C8.91799 46.4288 8.46322 44.7711 8.02051 43.0908L8.43457 42.9834C8.00159 41.3401 7.57925 39.6751 7.16895 37.9883L6.75293 38.0879C6.35017 36.4321 5.95948 34.7549 5.5791 33.0566L5.99609 32.9639C5.62465 31.3055 5.26364 29.6264 4.91406 27.9268L4.49512 28.0117C4.15301 26.3484 3.82168 24.6652 3.50098 22.9619L3.9209 22.8838C3.60655 21.2143 3.30308 19.525 3.00977 17.8164L2.58789 17.8887C2.29938 16.2081 2.02067 14.5087 1.75293 12.79L2.17578 12.7246C1.91361 11.0417 1.66177 9.34019 1.41992 7.62012L0.996094 7.67871C0.759705 5.99742 0.53399 4.2982 0.317383 2.58105L0.741211 2.52832C0.667284 1.94227 0.596007 1.35394 0.524414 0.763672C0.915165 0.972284 1.45986 1.26399 2.14844 1.63477L2.34961 1.26074C3.53995 1.9017 5.16099 2.7764 7.1582 3.86914L6.9541 4.24414C8.35364 5.00988 9.93887 5.88189 11.6914 6.85254L11.8975 6.47852C13.3648 7.29119 14.9491 8.17391 16.6406 9.12109L16.4326 9.49316C17.9285 10.3308 19.5083 11.2195 21.1641 12.1562L21.373 11.7852C22.8904 12.6436 24.4724 13.5415 26.1123 14.4785L25.9014 14.8496C27.4249 15.7202 28.9991 16.6238 30.6191 17.5586L30.832 17.1885ZM128.552 174.277C128.546 174.274 128.539 174.271 128.533 174.269V174.24L128.552 174.277ZM128.5 174.176L128.486 174.206L128.484 174.188L128.494 174.167L128.5 174.176ZM128.471 174.127V174.135L128.232 173.894C128.25 173.876 128.272 173.859 128.297 173.844L128.471 174.127Z" stroke="url(#paint2_linear_603_887)" stroke-width="0.855556" stroke-dasharray="5.31 5.31"/>
<defs>
<linearGradient id="paint0_linear_603_887" x1="144.261" y1="124.806" x2="51.6403" y2="215.843" gradientUnits="userSpaceOnUse">
<stop stop-color="#F58220"/>
<stop offset="1" stop-color="#F2728C"/>
</linearGradient>
<linearGradient id="paint1_linear_603_887" x1="287.153" y1="-30.9714" x2="136.204" y2="141.716" gradientUnits="userSpaceOnUse">
<stop stop-color="#F58220"/>
<stop offset="1" stop-color="#F2728C"/>
</linearGradient>
<linearGradient id="paint2_linear_603_887" x1="-64.2143" y1="-70.2971" x2="230.009" y2="261.585" gradientUnits="userSpaceOnUse">
<stop stop-color="#0074BC"/>
<stop offset="1" stop-color="#44C8F5"/>
</linearGradient>
</defs>
</svg>
