<svg width="493" height="444" viewBox="0 0 493 444" fill="none" xmlns="http://www.w3.org/2000/svg">
<g style="mix-blend-mode:overlay">
<path fill-rule="evenodd" clip-rule="evenodd" d="M137.055 275.609C124.626 302.06 117.707 331.534 117.707 362.639C117.707 391.238 123.58 418.445 134.199 443.226C155.478 393.545 197.313 357.707 246.508 334.318C241.681 332.011 236.773 329.864 231.786 327.795C201.054 315.067 168.19 299.196 137.055 275.649V275.609Z" fill="#2584C6"/>
<path fill-rule="evenodd" clip-rule="evenodd" d="M493 0C493 0 348.913 76.1713 246.5 155.564C273.974 176.845 298.471 198.403 316.331 218.729C332.542 235.236 345.977 254.448 355.912 275.609C419.066 227.917 475.26 148.683 492.96 0H493Z" fill="#2584C6"/>
<path d="M355.952 275.609C352.064 278.552 352.064 278.552 355.952 275.609C346.017 254.448 332.582 235.236 316.371 218.769C298.471 198.403 274.014 176.884 246.54 155.564C144.087 76.1713 0 0 0 0C17.6991 148.643 73.9338 227.877 137.047 275.609C168.222 299.156 201.045 315.027 231.777 327.755C236.765 329.824 241.632 332.011 246.5 334.279C246.54 334.279 246.58 334.279 246.62 334.239C246.58 334.239 246.54 334.279 246.5 334.318C295.494 357.587 337.127 393.187 358.527 442.509C358.647 442.788 359.05 442.788 359.13 442.509C369.548 417.968 375.301 390.96 375.301 362.679C375.301 331.574 368.342 302.1 355.952 275.649V275.609Z" fill="#2584C6"/>
</g>
</svg>
