<svg width="296" height="266" viewBox="0 0 296 266" fill="none" xmlns="http://www.w3.org/2000/svg">
<path d="M82.4385 166.195C83.7325 167.167 85.031 168.118 86.334 169.047L86.624 168.641L86.626 168.637C89.6062 170.763 92.6071 172.779 95.6211 174.696L95.6201 174.698L95.3516 175.12C98.447 177.089 101.555 178.952 104.666 180.722L104.914 180.287V180.285C108.096 182.096 111.28 183.81 114.457 185.439V185.44L114.229 185.884C117.495 187.558 120.754 189.143 123.992 190.652L124.204 190.199V190.198C127.53 191.747 130.835 193.215 134.107 194.618V194.619L133.91 195.079C135.587 195.799 137.255 196.5 138.913 197.187C139.657 197.495 140.398 197.806 141.136 198.121L141.331 197.661C142.816 198.296 144.29 198.945 145.751 199.616L145.543 200.07C145.955 200.259 146.367 200.45 146.777 200.643C145.285 201.363 143.803 202.101 142.335 202.86L142.564 203.304C138.998 205.146 135.506 207.104 132.103 209.176V209.175L131.843 208.748C128.402 210.843 125.052 213.057 121.808 215.39L122.1 215.795L122.101 215.796C118.84 218.141 115.687 220.605 112.657 223.194L112.332 222.814C109.271 225.429 106.334 228.17 103.538 231.037L103.896 231.386L103.897 231.387C101.102 234.254 98.4473 237.248 95.9512 240.371L95.5605 240.059C93.0569 243.191 90.7112 246.454 88.5391 249.847L88.96 250.117C86.8152 253.467 84.841 256.945 83.0527 260.553L82.6045 260.331C81.888 261.777 81.2019 263.244 80.5459 264.731C79.9019 263.188 79.287 261.629 78.7051 260.056L78.2363 260.229C76.8066 256.363 75.5671 252.408 74.5264 248.375L75.0098 248.251C73.9861 244.284 73.1566 240.241 72.5322 236.131L72.0391 236.205C71.4225 232.147 71.0043 228.024 70.7959 223.846L71.2949 223.823C71.1927 221.774 71.1406 219.711 71.1406 217.636C71.1406 215.384 71.2014 213.146 71.3213 210.924L70.8232 210.897C71.068 206.361 71.5588 201.89 72.2822 197.497L72.7734 197.578C73.5067 193.126 74.4808 188.754 75.6816 184.475L75.2012 184.339C76.2865 180.472 77.5558 176.682 79.001 172.977L79.5547 171.583L80.0176 171.771C80.7786 169.888 81.5876 168.03 82.4385 166.195Z" fill="white" stroke="url(#paint0_linear_855_111)" stroke-dasharray="11.57 11.57"/>
<path d="M295.233 0.90625C295.032 2.56864 294.825 4.21722 294.607 5.85059L295.102 5.91504C294.568 9.91567 293.988 13.8299 293.361 17.6602L292.869 17.5811C292.218 21.5654 291.517 25.4586 290.769 29.2627L291.258 29.3584C290.477 33.3253 289.644 37.1956 288.763 40.9727L288.277 40.8604C287.361 44.7886 286.391 48.6154 285.37 52.3438L285.852 52.4746C284.782 56.3829 283.656 60.1833 282.478 63.8799L282.003 63.7295C280.776 67.5802 279.491 71.3173 278.152 74.9453L278.621 75.1182C277.22 78.9163 275.76 82.5948 274.245 86.1592L273.786 85.9648C272.206 89.683 270.565 93.2759 268.87 96.749L269.318 96.9678C267.543 100.605 265.706 104.112 263.814 107.494L263.379 107.251C261.409 110.773 259.378 114.16 257.293 117.417L257.712 117.686C255.533 121.088 253.295 124.351 251.004 127.481L250.602 127.188C248.223 130.437 245.787 133.543 243.302 136.516L243.685 136.836C241.097 139.931 238.454 142.88 235.767 145.695L235.406 145.351C232.634 148.254 229.813 151.013 226.952 153.64L227.288 154.006C224.324 156.727 221.317 159.305 218.277 161.753L217.967 161.366C216.58 162.483 215.186 163.571 213.787 164.635C213.124 163.241 212.438 161.859 211.725 160.494L211.28 160.726C209.664 157.632 207.921 154.615 206.058 151.682L206.481 151.414C204.604 148.459 202.604 145.588 200.49 142.809L200.092 143.111C197.982 140.338 195.758 137.655 193.426 135.071L193.798 134.736C192.627 133.439 191.428 132.166 190.203 130.919C188.689 129.196 187.097 127.459 185.432 125.711L185.069 126.056L185.067 126.057C181.95 122.784 178.579 119.467 174.99 116.126L175.331 115.762C171.978 112.641 168.439 109.497 164.745 106.346L164.42 106.726C160.911 103.732 157.261 100.731 153.5 97.7324H153.501L153.812 97.3408C152.147 96.0134 150.459 94.6882 148.753 93.3633C150.017 92.386 151.291 91.4088 152.574 90.4336L152.272 90.0381C155.154 87.8489 158.083 85.6656 161.049 83.4932L161.344 83.8945C164.269 81.7516 167.231 79.6185 170.218 77.5L169.93 77.0928C172.899 74.9867 175.893 72.894 178.901 70.8203L179.186 71.2314C182.19 69.1609 185.209 67.1084 188.232 65.0781L187.954 64.6631C190.992 62.623 194.035 60.6054 197.071 58.6143L197.346 59.0322C200.418 57.0179 203.483 55.0302 206.532 53.0742L206.263 52.6533C209.361 50.6659 212.441 48.7103 215.493 46.792L215.76 47.2158C218.895 45.2453 222 43.3129 225.062 41.4248L224.8 41C227.959 39.052 231.073 37.1497 234.129 35.2998L234.389 35.7275C237.589 33.7902 240.724 31.9096 243.78 30.0918L243.526 29.6631C246.768 27.735 249.92 25.8783 252.963 24.0986L253.214 24.5283C256.504 22.6044 259.668 20.7708 262.682 19.0381L262.434 18.6064C265.803 16.6694 268.985 14.8567 271.947 13.1826L272.193 13.6172C275.687 11.6433 278.875 9.86056 281.704 8.29102L281.462 7.85352C285.43 5.65246 288.695 3.87193 291.106 2.56445L291.344 3.00195C292.881 2.16843 294.072 1.52826 294.879 1.09668C295.007 1.02822 295.125 0.964156 295.233 0.90625Z" fill="white"/>
<path d="M295.233 0.90625C295.032 2.56864 294.825 4.21722 294.607 5.85059L295.102 5.91504C294.568 9.91567 293.988 13.8299 293.361 17.6602L292.869 17.5811C292.218 21.5654 291.517 25.4586 290.769 29.2627L291.258 29.3584C290.477 33.3253 289.644 37.1956 288.763 40.9727L288.277 40.8604C287.361 44.7886 286.391 48.6154 285.37 52.3438L285.852 52.4746C284.782 56.3829 283.656 60.1833 282.478 63.8799L282.003 63.7295C280.776 67.5802 279.491 71.3173 278.152 74.9453L278.621 75.1182C277.22 78.9163 275.76 82.5948 274.245 86.1592L273.786 85.9648C272.206 89.683 270.565 93.2759 268.87 96.749L269.318 96.9678C267.543 100.605 265.706 104.112 263.814 107.494L263.379 107.251C261.409 110.773 259.378 114.16 257.293 117.417L257.712 117.686C255.533 121.088 253.295 124.351 251.004 127.481L250.602 127.188C248.223 130.437 245.787 133.543 243.302 136.516L243.685 136.836C241.097 139.931 238.454 142.88 235.767 145.695L235.406 145.351C232.634 148.254 229.813 151.013 226.952 153.64L227.288 154.006C224.324 156.727 221.317 159.305 218.277 161.753L217.967 161.366C216.58 162.483 215.186 163.571 213.787 164.635C213.124 163.241 212.438 161.859 211.725 160.494L211.28 160.726C209.664 157.632 207.921 154.615 206.058 151.682L206.481 151.414C204.604 148.459 202.604 145.588 200.49 142.809L200.092 143.111C197.982 140.338 195.758 137.655 193.426 135.071L193.798 134.736C192.627 133.439 191.428 132.166 190.203 130.919C188.689 129.196 187.097 127.459 185.432 125.711L185.069 126.056L185.067 126.057C181.95 122.784 178.579 119.467 174.99 116.126L175.331 115.762C171.978 112.641 168.439 109.497 164.745 106.346L164.42 106.726C160.911 103.732 157.261 100.731 153.5 97.7324H153.501L153.812 97.3408C152.147 96.0134 150.459 94.6882 148.753 93.3633C150.017 92.386 151.291 91.4088 152.574 90.4336L152.272 90.0381C155.154 87.8489 158.083 85.6656 161.049 83.4932L161.344 83.8945C164.269 81.7516 167.231 79.6185 170.218 77.5L169.93 77.0928C172.899 74.9867 175.893 72.894 178.901 70.8203L179.186 71.2314C182.19 69.1609 185.209 67.1084 188.232 65.0781L187.954 64.6631C190.992 62.623 194.035 60.6054 197.071 58.6143L197.346 59.0322C200.418 57.0179 203.483 55.0302 206.532 53.0742L206.263 52.6533C209.361 50.6659 212.441 48.7103 215.493 46.792L215.76 47.2158C218.895 45.2453 222 43.3129 225.062 41.4248L224.8 41C227.959 39.052 231.073 37.1497 234.129 35.2998L234.389 35.7275C237.589 33.7902 240.724 31.9096 243.78 30.0918L243.526 29.6631C246.768 27.735 249.92 25.8783 252.963 24.0986L253.214 24.5283C256.504 22.6044 259.668 20.7708 262.682 19.0381L262.434 18.6064C265.803 16.6694 268.985 14.8567 271.947 13.1826L272.193 13.6172C275.687 11.6433 278.875 9.86056 281.704 8.29102L281.462 7.85352C285.43 5.65246 288.695 3.87193 291.106 2.56445L291.344 3.00195C292.881 2.16843 294.072 1.52826 294.879 1.09668C295.007 1.02822 295.125 0.964156 295.233 0.90625Z" stroke="black" stroke-dasharray="11.57 11.57"/>
<path d="M295.233 0.90625C295.032 2.56864 294.825 4.21722 294.607 5.85059L295.102 5.91504C294.568 9.91567 293.988 13.8299 293.361 17.6602L292.869 17.5811C292.218 21.5654 291.517 25.4586 290.769 29.2627L291.258 29.3584C290.477 33.3253 289.644 37.1956 288.763 40.9727L288.277 40.8604C287.361 44.7886 286.391 48.6154 285.37 52.3438L285.852 52.4746C284.782 56.3829 283.656 60.1833 282.478 63.8799L282.003 63.7295C280.776 67.5802 279.491 71.3173 278.152 74.9453L278.621 75.1182C277.22 78.9163 275.76 82.5948 274.245 86.1592L273.786 85.9648C272.206 89.683 270.565 93.2759 268.87 96.749L269.318 96.9678C267.543 100.605 265.706 104.112 263.814 107.494L263.379 107.251C261.409 110.773 259.378 114.16 257.293 117.417L257.712 117.686C255.533 121.088 253.295 124.351 251.004 127.481L250.602 127.188C248.223 130.437 245.787 133.543 243.302 136.516L243.685 136.836C241.097 139.931 238.454 142.88 235.767 145.695L235.406 145.351C232.634 148.254 229.813 151.013 226.952 153.64L227.288 154.006C224.324 156.727 221.317 159.305 218.277 161.753L217.967 161.366C216.58 162.483 215.186 163.571 213.787 164.635C213.124 163.241 212.438 161.859 211.725 160.494L211.28 160.726C209.664 157.632 207.921 154.615 206.058 151.682L206.481 151.414C204.604 148.459 202.604 145.588 200.49 142.809L200.092 143.111C197.982 140.338 195.758 137.655 193.426 135.071L193.798 134.736C192.627 133.439 191.428 132.166 190.203 130.919C188.689 129.196 187.097 127.459 185.432 125.711L185.069 126.056L185.067 126.057C181.95 122.784 178.579 119.467 174.99 116.126L175.331 115.762C171.978 112.641 168.439 109.497 164.745 106.346L164.42 106.726C160.911 103.732 157.261 100.731 153.5 97.7324H153.501L153.812 97.3408C152.147 96.0134 150.459 94.6882 148.753 93.3633C150.017 92.386 151.291 91.4088 152.574 90.4336L152.272 90.0381C155.154 87.8489 158.083 85.6656 161.049 83.4932L161.344 83.8945C164.269 81.7516 167.231 79.6185 170.218 77.5L169.93 77.0928C172.899 74.9867 175.893 72.894 178.901 70.8203L179.186 71.2314C182.19 69.1609 185.209 67.1084 188.232 65.0781L187.954 64.6631C190.992 62.623 194.035 60.6054 197.071 58.6143L197.346 59.0322C200.418 57.0179 203.483 55.0302 206.532 53.0742L206.263 52.6533C209.361 50.6659 212.441 48.7103 215.493 46.792L215.76 47.2158C218.895 45.2453 222 43.3129 225.062 41.4248L224.8 41C227.959 39.052 231.073 37.1497 234.129 35.2998L234.389 35.7275C237.589 33.7902 240.724 31.9096 243.78 30.0918L243.526 29.6631C246.768 27.735 249.92 25.8783 252.963 24.0986L253.214 24.5283C256.504 22.6044 259.668 20.7708 262.682 19.0381L262.434 18.6064C265.803 16.6694 268.985 14.8567 271.947 13.1826L272.193 13.6172C275.687 11.6433 278.875 9.86056 281.704 8.29102L281.462 7.85352C285.43 5.65246 288.695 3.87193 291.106 2.56445L291.344 3.00195C292.881 2.16843 294.072 1.52826 294.879 1.09668C295.007 1.02822 295.125 0.964156 295.233 0.90625Z" stroke="url(#paint1_linear_855_111)" stroke-dasharray="11.57 11.57"/>
<path d="M215.367 265.522L215.464 265.664C215.401 265.707 215.31 265.705 215.242 265.658L215.34 265.515M215.367 265.522L215.34 265.515M215.367 265.522L215.34 265.515M215.367 265.522L215.351 265.499L215.34 265.515M175.009 116.146C178.596 119.487 181.968 122.804 185.088 126.079L184.729 126.423C186.392 128.169 187.982 129.903 189.493 131.623L189.502 131.634L189.513 131.644C190.728 132.879 191.917 134.14 193.08 135.426L193.451 135.09V135.089C195.784 137.669 198.008 140.35 200.118 143.122H200.119L199.722 143.425C201.818 146.179 203.8 149.026 205.662 151.956L206.084 151.688C207.947 154.62 209.689 157.636 211.304 160.728H211.305L210.861 160.959C211.6 162.374 212.311 163.806 212.996 165.252C212.991 165.256 212.988 165.26 212.986 165.261C212.967 165.275 212.991 165.257 212.972 165.271C212.957 165.283 212.97 165.272 212.961 165.278V165.279C212.951 165.287 212.967 165.275 212.957 165.282C212.931 165.302 212.97 165.273 212.943 165.293L212.937 165.299L212.933 165.301C212.929 165.303 212.932 165.301 212.929 165.304C212.91 165.318 212.92 165.311 212.901 165.325C212.874 165.346 212.901 165.326 212.873 165.347C212.851 165.364 212.882 165.339 212.859 165.356C212.855 165.36 212.85 165.364 212.846 165.367L212.742 165.445C212.741 165.446 212.74 165.447 212.738 165.448C212.693 165.483 212.68 165.492 212.636 165.525C212.615 165.541 212.609 165.546 212.591 165.56C212.547 165.593 212.501 165.628 212.445 165.67L212.747 166.069L213.049 166.468C213.174 166.373 213.246 166.318 213.367 166.226C213.374 166.22 213.375 166.221 213.382 166.216C213.397 166.205 213.383 166.213 213.389 166.209C213.399 166.201 213.41 166.193 213.421 166.185C214.275 168.032 215.087 169.902 215.852 171.797L216.313 171.609C217.987 175.756 219.441 180.013 220.663 184.366L220.185 184.501C221.386 188.779 222.361 193.152 223.096 197.604L223.587 197.522C224.312 201.915 224.805 206.385 225.051 210.921L224.554 210.948C224.674 213.17 224.735 215.408 224.735 217.66C224.735 219.713 224.684 221.756 224.584 223.785L225.082 223.809C224.878 227.943 224.469 232.026 223.864 236.047L223.371 235.974C222.759 240.043 221.947 244.049 220.944 247.979L221.427 248.101C220.407 252.098 219.19 256.018 217.788 259.849L217.32 259.678C216.698 261.378 216.036 263.06 215.341 264.725C214.625 263.104 213.876 261.507 213.089 259.937L212.642 260.159C210.847 256.576 208.869 253.122 206.723 249.795L207.143 249.524C204.969 246.155 202.625 242.916 200.125 239.805L199.734 240.117C197.242 237.016 194.593 234.042 191.805 231.194H191.806L192.163 230.845C189.375 227.996 186.447 225.273 183.396 222.675L183.072 223.056L183.071 223.057C180.052 220.485 176.912 218.035 173.664 215.705H173.665L173.957 215.299C170.726 212.98 167.389 210.781 163.963 208.698L163.703 209.125L163.702 209.126C160.314 207.066 156.837 205.121 153.286 203.289H153.287L153.516 202.845C151.96 202.042 150.39 201.263 148.808 200.504L149.226 200.092H148.008C148.003 200.092 147.999 200.093 147.994 200.093C147.313 199.776 146.632 199.46 145.949 199.148L145.741 199.604C144.277 198.935 142.808 198.279 141.325 197.641L141.523 197.183C140.784 196.864 140.04 196.549 139.292 196.239L136.803 195.199C135.971 194.849 135.136 194.494 134.3 194.136L134.104 194.595C130.831 193.191 127.526 191.721 124.2 190.172L124.411 189.72C121.183 188.216 117.937 186.636 114.683 184.968L114.454 185.411C111.278 183.782 108.094 182.068 104.912 180.257L105.16 179.824C102.063 178.061 98.9684 176.206 95.8867 174.247L95.6201 174.667C92.6065 172.751 89.6047 170.736 86.623 168.611L86.9121 168.207C85.4528 167.167 83.9982 166.101 82.5498 165.007L81.3789 164.114C80.2099 163.216 79.0448 162.299 77.8848 161.363L77.5732 161.75C74.5359 159.3 71.5302 156.721 68.5674 153.999L68.9043 153.633C66.0448 151.005 63.2254 148.245 60.4541 145.341L60.0918 145.686C57.4049 142.87 54.7641 139.919 52.1768 136.824L52.5596 136.505C50.0746 133.532 47.6399 130.425 45.2617 127.176L44.8594 127.471C42.5678 124.34 40.3285 121.077 38.1494 117.674L38.5713 117.405C36.4858 114.148 34.4541 110.763 32.4834 107.241L32.0479 107.484C30.1554 104.103 28.3191 100.596 26.543 96.959L26.9912 96.7402C25.2954 93.2676 23.6549 89.6754 22.0742 85.958L21.6152 86.1523C20.0997 82.5881 18.637 78.9102 17.2354 75.1123L17.7051 74.9395C16.3662 71.3118 15.0815 67.5748 13.8535 63.7246L13.3779 63.875C12.1991 60.1787 11.0724 56.3786 10.002 52.4707L10.4834 52.3398C9.46218 48.6118 8.49238 44.7853 7.5752 40.8574L7.08789 40.9697C6.20603 37.193 5.37373 33.3228 4.59277 29.3564L5.08301 29.2607C4.33404 25.4569 3.63237 21.5642 2.98047 17.5801L2.4873 17.6592C1.86065 13.8293 1.28034 9.91528 0.74707 5.91504L1.24219 5.84961C1.02386 4.21187 0.814537 2.55949 0.612305 0.892578C0.728081 0.954393 0.855421 1.02246 0.994141 1.09668C1.80084 1.52831 2.99239 2.16826 4.53027 3.00195L4.7666 2.56445C7.17861 3.87202 10.4435 5.65319 14.4121 7.85449L14.1709 8.29199C17.0008 9.86167 20.1898 11.6441 23.6836 13.6182L23.9277 13.1836C26.8909 14.8579 30.0736 16.6702 33.4434 18.6074L33.1953 19.04C36.2097 20.7729 39.3745 22.6053 42.665 24.5293L42.915 24.1006C45.9587 25.8802 49.1109 27.7369 52.3525 29.665L52.0996 30.0938C55.1561 31.9118 58.2924 33.7929 61.4932 35.7305L61.751 35.3027C64.807 37.1527 67.922 39.0539 71.082 41.002L70.8203 41.4277C73.883 43.3158 76.9886 45.2473 80.124 47.2178L80.3896 46.7949C83.4423 48.7133 86.5242 50.6677 89.623 52.6553V52.6562L89.3535 53.0771C92.403 55.0331 95.4696 57.0199 98.542 59.0342L98.8154 58.6162C101.853 60.6075 104.896 62.6258 107.935 64.666L107.656 65.0801C110.68 67.1103 113.7 69.1629 116.705 71.2334L116.987 70.8223C119.997 72.896 122.992 74.9886 125.962 77.0947L125.675 77.502C128.662 79.6203 131.624 81.7527 134.551 83.8955L134.844 83.4941C137.81 85.6664 140.741 87.849 143.623 90.0381L143.322 90.4346C144.779 91.5406 146.223 92.6482 147.653 93.7568C149.53 95.2129 151.383 96.6701 153.209 98.1279L153.521 97.7373C157.282 100.74 160.93 103.744 164.438 106.739L164.114 107.12C167.798 110.265 171.327 113.4 174.669 116.512L175.009 116.146ZM148.03 200.685C148.023 200.681 148.015 200.677 148.008 200.674V200.639L148.03 200.685ZM147.97 200.566L147.953 200.601L147.952 200.579L147.963 200.556L147.97 200.566ZM147.936 200.51V200.519L147.656 200.236C147.677 200.216 147.702 200.196 147.731 200.178L147.936 200.51Z" fill="white" stroke="url(#paint2_linear_855_111)" stroke-dasharray="11.57 11.57"/>
<defs>
<linearGradient id="paint0_linear_855_111" x1="166.117" y1="143.716" x2="59.4625" y2="248.546" gradientUnits="userSpaceOnUse">
<stop stop-color="#F58220"/>
<stop offset="1" stop-color="#F2728C"/>
</linearGradient>
<linearGradient id="paint1_linear_855_111" x1="330.66" y1="-35.664" x2="156.84" y2="163.188" gradientUnits="userSpaceOnUse">
<stop stop-color="#F58220"/>
<stop offset="1" stop-color="#F2728C"/>
</linearGradient>
<linearGradient id="paint2_linear_855_111" x1="-73.9438" y1="-80.9482" x2="264.859" y2="301.219" gradientUnits="userSpaceOnUse">
<stop stop-color="#0074BC"/>
<stop offset="1" stop-color="#44C8F5"/>
</linearGradient>
</defs>
</svg>
