<svg width="293" height="263" viewBox="0 0 293 263" fill="none" xmlns="http://www.w3.org/2000/svg">
<path d="M81.5107 164.328C82.2104 164.854 82.9109 165.374 83.6133 165.887L83.9082 165.483L83.9092 165.48C85.6544 166.755 87.4074 167.99 89.167 169.188L89.166 169.191L88.8848 169.604C90.6752 170.824 92.4724 172.004 94.2734 173.149L94.541 172.728L94.542 172.725C96.3653 173.884 98.1931 175.006 100.023 176.095L100.022 176.098L99.7666 176.527C101.628 177.634 103.492 178.705 105.355 179.743L105.6 179.307V179.305C107.487 180.356 109.375 181.375 111.261 182.361V182.362L111.029 182.805C112.949 183.809 114.866 184.78 116.778 185.723L116.999 185.274V185.272C118.939 186.228 120.874 187.154 122.803 188.052V188.054L122.592 188.507C124.556 189.422 126.512 190.308 128.459 191.169L128.661 190.712V190.711C130.641 191.587 132.611 192.437 134.568 193.264V193.265L134.374 193.726C135.367 194.145 136.357 194.559 137.344 194.968C138.079 195.273 138.812 195.581 139.541 195.893L139.736 195.433C141.205 196.06 142.663 196.701 144.107 197.363V197.364L143.899 197.818C144.304 198.004 144.707 198.192 145.109 198.381C144.404 198.721 143.7 199.064 143 199.413L143.224 199.861C141.197 200.872 139.194 201.918 137.216 203.002V203.001L136.976 202.562C134.984 203.654 133.018 204.783 131.08 205.949L131.338 206.377C129.397 207.545 127.485 208.751 125.604 209.995V209.994L125.329 209.577C123.434 210.831 121.57 212.123 119.741 213.454L120.035 213.858V213.859C118.204 215.192 116.408 216.563 114.649 217.975L114.336 217.585C112.564 219.007 110.83 220.469 109.137 221.972L109.469 222.346L109.47 222.347C107.777 223.849 106.125 225.391 104.518 226.975L104.167 226.618C102.549 228.212 100.975 229.847 99.4492 231.523L99.8193 231.86L99.8203 231.861C98.2987 233.533 96.8248 235.246 95.4014 237.001L95.4004 237L95.0117 236.686C93.5829 238.447 92.2044 240.25 90.8799 242.096L91.2861 242.387C89.9707 244.219 88.71 246.095 87.5039 248.011L87.5029 248.01L87.0791 247.744C85.8736 249.659 84.7238 251.617 83.6328 253.616L84.0723 253.855H84.0732C82.9952 255.831 81.9756 257.848 81.0156 259.906L81.0137 259.905L80.5605 259.693C80.2457 260.369 79.9395 261.049 79.6377 261.733C79.2636 260.837 78.8998 259.935 78.5469 259.028L78.082 259.208C77.0947 256.671 76.1896 254.094 75.3711 251.48L75.8477 251.332C75.0383 248.747 74.3129 246.125 73.6758 243.471L73.1914 243.587C72.5571 240.944 72.0078 238.269 71.5498 235.563L72.043 235.48C71.5917 232.815 71.2276 230.12 70.9541 227.398L70.457 227.447C70.1859 224.749 70.0052 222.024 69.9141 219.276L70.4111 219.261C70.3662 217.907 70.3438 216.547 70.3438 215.182C70.3438 214.072 70.359 212.965 70.3887 211.862L69.8887 211.849C69.9487 209.614 70.0701 207.395 70.249 205.192L70.7461 205.233C70.9262 203.016 71.1659 200.816 71.4639 198.634L70.9707 198.565C71.2728 196.354 71.6333 194.161 72.0527 191.989L72.543 192.084C72.9642 189.903 73.4436 187.742 73.9805 185.604L73.4971 185.481C74.0401 183.319 74.6414 181.179 75.2988 179.063L75.7744 179.212C76.4329 177.093 77.1486 174.999 77.9189 172.931L77.4512 172.756C78.2286 170.669 79.0618 168.608 79.9492 166.576L80.4072 166.776C80.7657 165.955 81.1346 165.14 81.5107 164.328Z" fill="white" stroke="url(#paint0_linear_604_945)" stroke-dasharray="7.13 7.13"/>
<path d="M291.897 0.905273C291.79 1.79124 291.681 2.67317 291.569 3.55078L292.063 3.61328C291.755 6.03072 291.428 8.41658 291.085 10.7715L290.592 10.7012C290.241 13.1099 289.872 15.486 289.485 17.8301L289.979 17.9102C289.582 20.3157 289.167 22.6875 288.734 25.0264L288.244 24.9365C287.801 27.3314 287.34 29.6918 286.86 32.0176L287.348 32.1182C286.855 34.5078 286.343 36.8614 285.812 39.1797L285.326 39.0693C284.782 41.4452 284.219 43.7839 283.637 46.0859L284.119 46.208C283.52 48.5753 282.902 50.9043 282.264 53.1953L281.783 53.0625C281.128 55.4117 280.453 57.7209 279.758 59.9912L280.235 60.1367C279.52 62.4732 278.784 64.7684 278.027 67.0234L277.554 66.8652C276.778 69.1773 275.981 71.4468 275.164 73.6748L275.633 73.8457C274.792 76.1388 273.929 78.3882 273.046 80.5947L272.582 80.4102C271.676 82.6716 270.749 84.8882 269.801 87.0605L270.259 87.2607C269.283 89.4959 268.285 91.6844 267.266 93.8281L266.814 93.6143C265.767 95.8175 264.698 97.9732 263.607 100.082L264.05 100.311C262.927 102.481 261.783 104.603 260.616 106.677L260.182 106.433C258.989 108.554 257.774 110.625 256.538 112.647L256.963 112.907C255.69 114.99 254.396 117.021 253.08 119.003L252.665 118.727C251.318 120.755 249.95 122.733 248.562 124.659L248.966 124.951C247.542 126.927 246.096 128.85 244.631 130.723L244.238 130.416C242.738 132.333 241.218 134.197 239.679 136.01L240.059 136.332C238.483 138.188 236.887 139.99 235.273 141.741L234.907 141.403C233.26 143.191 231.594 144.925 229.912 146.607L230.266 146.96C228.546 148.68 226.81 150.348 225.059 151.964L224.72 151.597C222.935 153.243 221.135 154.838 219.32 156.382L219.643 156.761C217.791 158.336 215.925 159.859 214.048 161.334L213.742 160.943C212.956 161.561 212.165 162.168 211.375 162.769C210.968 161.914 210.555 161.063 210.13 160.22L209.684 160.444H209.682C208.646 158.392 207.555 156.372 206.409 154.388H206.41L206.843 154.138C205.689 152.139 204.48 150.177 203.219 148.251L202.801 148.524L202.799 148.525C201.54 146.604 200.228 144.72 198.865 142.875L198.867 142.874L199.27 142.577C197.9 140.722 196.478 138.907 195.008 137.134L194.622 137.453C193.157 135.686 191.641 133.961 190.079 132.279L190.081 132.278L190.447 131.938C189.663 131.094 188.868 130.261 188.061 129.438C187.305 128.579 186.531 127.716 185.737 126.851L185.368 127.188H185.367C183.83 125.512 182.22 123.823 180.545 122.123L180.547 122.122L180.902 121.771C179.295 120.141 177.628 118.502 175.905 116.855L175.559 117.217C173.903 115.634 172.196 114.044 170.441 112.449L170.777 112.08C169.075 110.533 167.328 108.982 165.542 107.428L165.213 107.805C163.476 106.294 161.702 104.78 159.894 103.265L160.215 102.882C158.445 101.399 156.642 99.9152 154.81 98.4316L154.494 98.8203H154.493C152.697 97.3662 150.873 95.9124 149.024 94.46H149.025L149.334 94.0664C148.588 93.4804 147.837 92.896 147.083 92.3105C147.858 91.7111 148.637 91.1114 149.42 90.5127L149.116 90.1152L149.115 90.1143C150.082 89.3746 151.056 88.6366 152.034 87.8984L154.875 85.7676L155.174 86.168C157.092 84.7382 159.028 83.3119 160.979 81.8906L160.686 81.4873C162.623 80.076 164.576 78.6691 166.54 77.2686L166.83 77.6758C168.783 76.2833 170.749 74.8961 172.723 73.5166L172.436 73.1084C174.406 71.7313 176.384 70.3607 178.369 68.999L178.651 69.4111C180.635 68.0505 182.624 66.6984 184.615 65.3555L184.336 64.9424C186.334 63.5952 188.335 62.2577 190.335 60.9307L190.61 61.3467C192.62 60.0138 194.628 58.691 196.634 57.3809L196.361 56.9629C198.384 55.6417 200.403 54.3326 202.415 53.0371L202.686 53.457C204.719 52.148 206.745 50.8525 208.762 49.5723L208.494 49.1504C210.54 47.8515 212.576 46.5684 214.598 45.3018L214.863 45.7246C216.92 44.4362 218.963 43.1654 220.987 41.9131L220.725 41.4873C222.794 40.2076 224.845 38.9481 226.873 37.709L227.134 38.1348C229.215 36.8637 231.272 35.6148 233.302 34.3896L233.043 33.9609C235.137 32.6971 237.203 31.4614 239.233 30.25L239.488 30.6768C241.594 29.4204 243.664 28.1932 245.692 26.9971L245.439 26.5684C247.559 25.3185 249.632 24.1016 251.655 22.9219L251.907 23.3525C254.042 22.1076 256.12 20.9027 258.135 19.7412L257.885 19.3086C260.057 18.0564 262.155 16.8559 264.171 15.707L264.417 16.1396C266.602 14.8941 268.691 13.7117 270.672 12.5957L270.427 12.1592C272.677 10.8911 274.79 9.71023 276.747 8.62109L276.99 9.05664C279.324 7.75773 281.439 6.59035 283.307 5.56543L283.065 5.12793C285.692 3.68632 287.831 2.52662 289.406 1.67676L289.644 2.11621C290.615 1.59233 291.372 1.186 291.897 0.905273Z" fill="white"/>
<path d="M291.897 0.905273C291.79 1.79124 291.681 2.67317 291.569 3.55078L292.063 3.61328C291.755 6.03072 291.428 8.41658 291.085 10.7715L290.592 10.7012C290.241 13.1099 289.872 15.486 289.485 17.8301L289.979 17.9102C289.582 20.3157 289.167 22.6875 288.734 25.0264L288.244 24.9365C287.801 27.3314 287.34 29.6918 286.86 32.0176L287.348 32.1182C286.855 34.5078 286.343 36.8614 285.812 39.1797L285.326 39.0693C284.782 41.4452 284.219 43.7839 283.637 46.0859L284.119 46.208C283.52 48.5753 282.902 50.9043 282.264 53.1953L281.783 53.0625C281.128 55.4117 280.453 57.7209 279.758 59.9912L280.235 60.1367C279.52 62.4732 278.784 64.7684 278.027 67.0234L277.554 66.8652C276.778 69.1773 275.981 71.4468 275.164 73.6748L275.633 73.8457C274.792 76.1388 273.929 78.3882 273.046 80.5947L272.582 80.4102C271.676 82.6716 270.749 84.8882 269.801 87.0605L270.259 87.2607C269.283 89.4959 268.285 91.6844 267.266 93.8281L266.814 93.6143C265.767 95.8175 264.698 97.9732 263.607 100.082L264.05 100.311C262.927 102.481 261.783 104.603 260.616 106.677L260.182 106.433C258.989 108.554 257.774 110.625 256.538 112.647L256.963 112.907C255.69 114.99 254.396 117.021 253.08 119.003L252.665 118.727C251.318 120.755 249.95 122.733 248.562 124.659L248.966 124.951C247.542 126.927 246.096 128.85 244.631 130.723L244.238 130.416C242.738 132.333 241.218 134.197 239.679 136.01L240.059 136.332C238.483 138.188 236.887 139.99 235.273 141.741L234.907 141.403C233.26 143.191 231.594 144.925 229.912 146.607L230.266 146.96C228.546 148.68 226.81 150.348 225.059 151.964L224.72 151.597C222.935 153.243 221.135 154.838 219.32 156.382L219.643 156.761C217.791 158.336 215.925 159.859 214.048 161.334L213.742 160.943C212.956 161.561 212.165 162.168 211.375 162.769C210.968 161.914 210.555 161.063 210.13 160.22L209.684 160.444H209.682C208.646 158.392 207.555 156.372 206.409 154.388H206.41L206.843 154.138C205.689 152.139 204.48 150.177 203.219 148.251L202.801 148.524L202.799 148.525C201.54 146.604 200.228 144.72 198.865 142.875L198.867 142.874L199.27 142.577C197.9 140.722 196.478 138.907 195.008 137.134L194.622 137.453C193.157 135.686 191.641 133.961 190.079 132.279L190.081 132.278L190.447 131.938C189.663 131.094 188.868 130.261 188.061 129.438C187.305 128.579 186.531 127.716 185.737 126.851L185.368 127.188H185.367C183.83 125.512 182.22 123.823 180.545 122.123L180.547 122.122L180.902 121.771C179.295 120.141 177.628 118.502 175.905 116.855L175.559 117.217C173.903 115.634 172.196 114.044 170.441 112.449L170.777 112.08C169.075 110.533 167.328 108.982 165.542 107.428L165.213 107.805C163.476 106.294 161.702 104.78 159.894 103.265L160.215 102.882C158.445 101.399 156.642 99.9152 154.81 98.4316L154.494 98.8203H154.493C152.697 97.3662 150.873 95.9124 149.024 94.46H149.025L149.334 94.0664C148.588 93.4804 147.837 92.896 147.083 92.3105C147.858 91.7111 148.637 91.1114 149.42 90.5127L149.116 90.1152L149.115 90.1143C150.082 89.3746 151.056 88.6366 152.034 87.8984L154.875 85.7676L155.174 86.168C157.092 84.7382 159.028 83.3119 160.979 81.8906L160.686 81.4873C162.623 80.076 164.576 78.6691 166.54 77.2686L166.83 77.6758C168.783 76.2833 170.749 74.8961 172.723 73.5166L172.436 73.1084C174.406 71.7313 176.384 70.3607 178.369 68.999L178.651 69.4111C180.635 68.0505 182.624 66.6984 184.615 65.3555L184.336 64.9424C186.334 63.5952 188.335 62.2577 190.335 60.9307L190.61 61.3467C192.62 60.0138 194.628 58.691 196.634 57.3809L196.361 56.9629C198.384 55.6417 200.403 54.3326 202.415 53.0371L202.686 53.457C204.719 52.148 206.745 50.8525 208.762 49.5723L208.494 49.1504C210.54 47.8515 212.576 46.5684 214.598 45.3018L214.863 45.7246C216.92 44.4362 218.963 43.1654 220.987 41.9131L220.725 41.4873C222.794 40.2076 224.845 38.9481 226.873 37.709L227.134 38.1348C229.215 36.8637 231.272 35.6148 233.302 34.3896L233.043 33.9609C235.137 32.6971 237.203 31.4614 239.233 30.25L239.488 30.6768C241.594 29.4204 243.664 28.1932 245.692 26.9971L245.439 26.5684C247.559 25.3185 249.632 24.1016 251.655 22.9219L251.907 23.3525C254.042 22.1076 256.12 20.9027 258.135 19.7412L257.885 19.3086C260.057 18.0564 262.155 16.8559 264.171 15.707L264.417 16.1396C266.602 14.8941 268.691 13.7117 270.672 12.5957L270.427 12.1592C272.677 10.8911 274.79 9.71023 276.747 8.62109L276.99 9.05664C279.324 7.75773 281.439 6.59035 283.307 5.56543L283.065 5.12793C285.692 3.68632 287.831 2.52662 289.406 1.67676L289.644 2.11621C290.615 1.59233 291.372 1.186 291.897 0.905273Z" stroke="black" stroke-dasharray="7.13 7.13"/>
<path d="M291.897 0.905273C291.79 1.79124 291.681 2.67317 291.569 3.55078L292.063 3.61328C291.755 6.03072 291.428 8.41658 291.085 10.7715L290.592 10.7012C290.241 13.1099 289.872 15.486 289.485 17.8301L289.979 17.9102C289.582 20.3157 289.167 22.6875 288.734 25.0264L288.244 24.9365C287.801 27.3314 287.34 29.6918 286.86 32.0176L287.348 32.1182C286.855 34.5078 286.343 36.8614 285.812 39.1797L285.326 39.0693C284.782 41.4452 284.219 43.7839 283.637 46.0859L284.119 46.208C283.52 48.5753 282.902 50.9043 282.264 53.1953L281.783 53.0625C281.128 55.4117 280.453 57.7209 279.758 59.9912L280.235 60.1367C279.52 62.4732 278.784 64.7684 278.027 67.0234L277.554 66.8652C276.778 69.1773 275.981 71.4468 275.164 73.6748L275.633 73.8457C274.792 76.1388 273.929 78.3882 273.046 80.5947L272.582 80.4102C271.676 82.6716 270.749 84.8882 269.801 87.0605L270.259 87.2607C269.283 89.4959 268.285 91.6844 267.266 93.8281L266.814 93.6143C265.767 95.8175 264.698 97.9732 263.607 100.082L264.05 100.311C262.927 102.481 261.783 104.603 260.616 106.677L260.182 106.433C258.989 108.554 257.774 110.625 256.538 112.647L256.963 112.907C255.69 114.99 254.396 117.021 253.08 119.003L252.665 118.727C251.318 120.755 249.95 122.733 248.562 124.659L248.966 124.951C247.542 126.927 246.096 128.85 244.631 130.723L244.238 130.416C242.738 132.333 241.218 134.197 239.679 136.01L240.059 136.332C238.483 138.188 236.887 139.99 235.273 141.741L234.907 141.403C233.26 143.191 231.594 144.925 229.912 146.607L230.266 146.96C228.546 148.68 226.81 150.348 225.059 151.964L224.72 151.597C222.935 153.243 221.135 154.838 219.32 156.382L219.643 156.761C217.791 158.336 215.925 159.859 214.048 161.334L213.742 160.943C212.956 161.561 212.165 162.168 211.375 162.769C210.968 161.914 210.555 161.063 210.13 160.22L209.684 160.444H209.682C208.646 158.392 207.555 156.372 206.409 154.388H206.41L206.843 154.138C205.689 152.139 204.48 150.177 203.219 148.251L202.801 148.524L202.799 148.525C201.54 146.604 200.228 144.72 198.865 142.875L198.867 142.874L199.27 142.577C197.9 140.722 196.478 138.907 195.008 137.134L194.622 137.453C193.157 135.686 191.641 133.961 190.079 132.279L190.081 132.278L190.447 131.938C189.663 131.094 188.868 130.261 188.061 129.438C187.305 128.579 186.531 127.716 185.737 126.851L185.368 127.188H185.367C183.83 125.512 182.22 123.823 180.545 122.123L180.547 122.122L180.902 121.771C179.295 120.141 177.628 118.502 175.905 116.855L175.559 117.217C173.903 115.634 172.196 114.044 170.441 112.449L170.777 112.08C169.075 110.533 167.328 108.982 165.542 107.428L165.213 107.805C163.476 106.294 161.702 104.78 159.894 103.265L160.215 102.882C158.445 101.399 156.642 99.9152 154.81 98.4316L154.494 98.8203H154.493C152.697 97.3662 150.873 95.9124 149.024 94.46H149.025L149.334 94.0664C148.588 93.4804 147.837 92.896 147.083 92.3105C147.858 91.7111 148.637 91.1114 149.42 90.5127L149.116 90.1152L149.115 90.1143C150.082 89.3746 151.056 88.6366 152.034 87.8984L154.875 85.7676L155.174 86.168C157.092 84.7382 159.028 83.3119 160.979 81.8906L160.686 81.4873C162.623 80.076 164.576 78.6691 166.54 77.2686L166.83 77.6758C168.783 76.2833 170.749 74.8961 172.723 73.5166L172.436 73.1084C174.406 71.7313 176.384 70.3607 178.369 68.999L178.651 69.4111C180.635 68.0505 182.624 66.6984 184.615 65.3555L184.336 64.9424C186.334 63.5952 188.335 62.2577 190.335 60.9307L190.61 61.3467C192.62 60.0138 194.628 58.691 196.634 57.3809L196.361 56.9629C198.384 55.6417 200.403 54.3326 202.415 53.0371L202.686 53.457C204.719 52.148 206.745 50.8525 208.762 49.5723L208.494 49.1504C210.54 47.8515 212.576 46.5684 214.598 45.3018L214.863 45.7246C216.92 44.4362 218.963 43.1654 220.987 41.9131L220.725 41.4873C222.794 40.2076 224.845 38.9481 226.873 37.709L227.134 38.1348C229.215 36.8637 231.272 35.6148 233.302 34.3896L233.043 33.9609C235.137 32.6971 237.203 31.4614 239.233 30.25L239.488 30.6768C241.594 29.4204 243.664 28.1932 245.692 26.9971L245.439 26.5684C247.559 25.3185 249.632 24.1016 251.655 22.9219L251.907 23.3525C254.042 22.1076 256.12 20.9027 258.135 19.7412L257.885 19.3086C260.057 18.0564 262.155 16.8559 264.171 15.707L264.417 16.1396C266.602 14.8941 268.691 13.7117 270.672 12.5957L270.427 12.1592C272.677 10.8911 274.79 9.71023 276.747 8.62109L276.99 9.05664C279.324 7.75773 281.439 6.59035 283.307 5.56543L283.065 5.12793C285.692 3.68632 287.831 2.52662 289.406 1.67676L289.644 2.11621C290.615 1.59233 291.372 1.186 291.897 0.905273Z" stroke="url(#paint1_linear_604_945)" stroke-dasharray="7.13 7.13"/>
<path d="M212.938 262.528L213.033 262.668C212.971 262.711 212.882 262.708 212.814 262.662L212.91 262.521M212.938 262.528L212.91 262.521M212.938 262.528L212.91 262.521M212.938 262.528L212.921 262.505L212.91 262.521M170.461 112.468C172.216 114.063 173.923 115.654 175.58 117.237L175.235 117.598C176.951 119.238 178.612 120.871 180.212 122.495L180.567 122.145C182.242 123.844 183.85 125.534 185.389 127.212L185.022 127.549C185.818 128.417 186.595 129.282 187.352 130.143L187.361 130.153L187.371 130.163C188.172 130.977 188.962 131.802 189.74 132.639L190.104 132.299C191.667 133.978 193.183 135.701 194.649 137.467V137.468L194.265 137.787C195.723 139.544 197.133 141.343 198.492 143.182L198.893 142.885C200.255 144.728 201.567 146.611 202.825 148.531L202.409 148.806C203.66 150.714 204.859 152.66 206.003 154.642L206.435 154.392C207.58 156.375 208.67 158.394 209.705 160.445L209.261 160.671C209.714 161.57 210.155 162.476 210.587 163.387C210.586 163.387 210.585 163.389 210.581 163.393C210.576 163.397 210.579 163.393 210.573 163.397L210.57 163.4L210.568 163.401L210.566 163.403C210.564 163.405 210.565 163.404 210.562 163.405C210.558 163.408 210.563 163.405 210.56 163.408C210.557 163.41 210.555 163.412 210.553 163.414L210.524 163.435C210.49 163.461 210.544 163.419 210.51 163.445C210.504 163.45 210.502 163.452 210.496 163.456L210.441 163.497C210.355 163.563 210.315 163.593 210.234 163.654C210.226 163.661 210.194 163.685 210.186 163.691C210.184 163.692 210.181 163.694 210.177 163.697C210.175 163.698 210.174 163.699 210.173 163.7L210.161 163.71L210.149 163.718C210.144 163.722 210.139 163.726 210.138 163.728C210.128 163.735 210.124 163.738 210.114 163.745C210.11 163.748 210.112 163.747 210.108 163.75L210.106 163.751L210.105 163.752L210.1 163.756H210.099C210.097 163.757 210.096 163.758 210.095 163.759H210.097C210.093 163.761 210.088 163.765 210.094 163.761L210.093 163.762L210.091 163.763C210.062 163.785 210.074 163.775 210.046 163.797L210.348 164.196L210.649 164.595C210.653 164.592 210.648 164.596 210.652 164.593C210.665 164.583 210.643 164.6 210.654 164.591H210.653C210.679 164.571 210.638 164.602 210.672 164.577C210.682 164.57 210.673 164.577 210.683 164.569C210.69 164.563 210.687 164.566 210.694 164.561C210.705 164.553 210.69 164.564 210.7 164.556L210.706 164.552L210.741 164.525L210.789 164.489C210.794 164.486 210.832 164.456 210.838 164.452C210.849 164.444 210.833 164.455 210.844 164.447C210.847 164.445 210.847 164.445 210.851 164.442C210.854 164.44 210.859 164.435 210.862 164.433L210.888 164.414C210.889 164.413 210.893 164.41 210.895 164.409C210.904 164.402 210.901 164.403 210.897 164.406C210.899 164.405 210.898 164.406 210.9 164.404C210.901 164.404 210.906 164.4 210.907 164.399L210.91 164.396L210.912 164.396L210.913 164.395C210.919 164.39 210.933 164.38 210.939 164.375C210.944 164.371 210.938 164.377 210.942 164.373C210.945 164.371 210.943 164.372 210.945 164.37L210.947 164.369L210.949 164.367C210.955 164.363 210.946 164.37 210.952 164.365C210.955 164.363 210.956 164.361 210.957 164.36H210.959L210.965 164.355L210.979 164.346L210.981 164.343C210.983 164.341 210.984 164.342 210.985 164.341C210.993 164.335 210.981 164.344 210.988 164.338L210.99 164.337L210.991 164.335C210.995 164.332 211.004 164.326 211.011 164.32C211.391 165.143 211.766 165.969 212.128 166.801L212.586 166.601C213.471 168.633 214.302 170.695 215.078 172.782L214.611 172.956C215.381 175.025 216.095 177.12 216.754 179.239L217.23 179.091C217.888 181.206 218.488 183.346 219.031 185.508L218.549 185.63C219.086 187.768 219.566 189.928 219.988 192.109L220.477 192.015C220.897 194.187 221.259 196.379 221.562 198.591L221.07 198.658C221.369 200.84 221.61 203.04 221.791 205.257L222.287 205.217C222.467 207.419 222.588 209.638 222.648 211.872L222.15 211.886C222.18 212.989 222.195 214.095 222.195 215.205C222.195 216.556 222.173 217.902 222.129 219.243L222.626 219.259C222.537 221.978 222.358 224.676 222.092 227.35L221.597 227.301C221.329 229.995 220.971 232.664 220.529 235.305L221.021 235.387C220.573 238.066 220.034 240.716 219.413 243.334L218.93 243.22C218.305 245.85 217.595 248.448 216.802 251.009L217.278 251.155C216.476 253.747 215.588 256.301 214.619 258.815L214.154 258.637C213.755 259.674 213.339 260.704 212.912 261.728C212.55 260.908 212.182 260.094 211.802 259.288L211.35 259.501H211.348C210.383 257.457 209.36 255.455 208.279 253.493H208.281L208.719 253.252C207.625 251.267 206.474 249.322 205.268 247.42L204.845 247.688L204.843 247.689C203.636 245.786 202.375 243.924 201.061 242.104H201.062L201.467 241.812C200.143 239.979 198.766 238.188 197.339 236.438L196.951 236.754L196.949 236.755C195.528 235.012 194.057 233.311 192.539 231.65L192.541 231.649L192.91 231.312C191.388 229.647 189.818 228.023 188.205 226.439L187.854 226.797C186.251 225.224 184.604 223.692 182.917 222.199L182.919 222.198L183.25 221.824C181.563 220.331 179.834 218.878 178.068 217.465L177.756 217.855H177.755C176.003 216.453 174.213 215.091 172.389 213.767L172.391 213.766L172.685 213.361C170.863 212.039 169.007 210.754 167.119 209.508L166.844 209.926L166.843 209.927C164.97 208.691 163.066 207.492 161.134 206.331H161.135L161.393 205.902C159.463 204.743 157.506 203.621 155.522 202.536L155.282 202.975L155.281 202.976C153.312 201.898 151.317 200.857 149.3 199.853H149.301L149.524 199.405C148.733 199.011 147.938 198.624 147.14 198.241L147.556 197.83H146.327C145.654 197.517 144.98 197.205 144.306 196.897L144.097 197.353C142.649 196.692 141.197 196.043 139.731 195.412L139.93 194.953C139.198 194.638 138.462 194.327 137.723 194.021L134.759 192.78L134.564 193.24C132.607 192.413 130.638 191.563 128.658 190.687L128.86 190.23C126.919 189.371 124.968 188.487 123.011 187.575L122.8 188.026C120.871 187.128 118.936 186.202 116.996 185.246L117.218 184.8C115.312 183.861 113.403 182.892 111.491 181.892L111.259 182.334C109.373 181.347 107.485 180.328 105.598 179.276L105.841 178.842C103.985 177.808 102.13 176.741 100.277 175.64L100.022 176.066C98.1923 174.978 96.3646 173.856 94.541 172.696L94.8086 172.277C93.0164 171.138 91.2281 169.964 89.4463 168.751L89.166 169.161C87.4063 167.964 85.6523 166.73 83.9062 165.456L84.1992 165.055C83.338 164.427 82.4792 163.788 81.6221 163.141C80.669 162.42 79.718 161.687 78.7705 160.941L78.4639 161.332C76.5875 159.856 74.7218 158.332 72.8711 156.755L73.1953 156.377C71.3822 154.832 69.5827 153.237 67.7988 151.59L67.459 151.956C65.7081 150.339 63.9724 148.672 62.2539 146.951L62.6084 146.599C60.927 144.915 59.2615 143.181 57.6152 141.394L57.2471 141.731C55.6342 139.98 54.0393 138.177 52.4639 136.321L52.8447 135.998C51.3059 134.185 49.7856 132.321 48.2861 130.404L47.8926 130.712C46.4276 128.839 44.9827 126.915 43.5586 124.939L43.9639 124.648C42.5753 122.722 41.207 120.745 39.8604 118.716L39.4434 118.991C38.1281 117.01 36.834 114.978 35.5615 112.896L35.9873 112.637C34.7512 110.614 33.5358 108.543 32.3428 106.422L31.9072 106.666C30.7409 104.593 29.5954 102.472 28.4727 100.302L28.917 100.073C27.8259 97.9644 26.7557 95.8086 25.708 93.6055L25.2568 93.8193C24.2375 91.6757 23.2389 89.4871 22.2627 87.252L22.7207 87.0527C21.772 84.8806 20.8444 82.6645 19.9385 80.4033L19.4746 80.5879C18.5907 78.3817 17.7282 76.1326 16.8867 73.8398L17.3555 73.6689C16.5379 71.4413 15.7407 69.172 14.9648 66.8604L14.4912 67.0186C13.7344 64.7637 12.9969 62.469 12.2812 60.1328L12.7598 59.9873C12.0643 57.7171 11.3885 55.4076 10.7334 53.0586L10.2529 53.1924C9.61393 50.9012 8.99393 48.5725 8.39453 46.2051L8.87891 46.083C8.29606 43.781 7.7317 41.4422 7.1875 39.0664L6.70117 39.1777C6.17015 36.8595 5.65818 34.5058 5.16504 32.1162L5.65332 32.0156C5.17337 29.69 4.71159 27.3302 4.26855 24.9355L3.77734 25.0254C3.34469 22.6868 2.92875 20.3154 2.53223 17.9102L3.02637 17.8291C2.63994 15.4851 2.27114 13.1089 1.91992 10.7002L1.4248 10.7715C1.08143 8.41661 0.755211 6.03069 0.446289 3.61328L0.942383 3.55078C0.829657 2.66868 0.71939 1.78214 0.611328 0.891602C1.13795 1.17279 1.90407 1.58359 2.8916 2.11621L3.12695 1.67773C4.70263 2.52757 6.84205 3.68622 9.46875 5.12793L9.22949 5.56641C11.0969 6.59139 13.2114 7.75864 15.5459 9.05762L15.7881 8.62109C17.746 9.71057 19.8587 10.8926 22.1104 12.1611L21.8662 12.5967C23.8471 13.7127 25.9358 14.8951 28.1211 16.1406L28.3672 15.708C30.3829 16.8569 32.4814 18.0584 34.6533 19.3105L34.4043 19.7432C36.4191 20.9048 38.4975 22.1095 40.6328 23.3545L40.8838 22.9238C42.9071 24.1036 44.981 25.3203 47.1006 26.5703L46.8486 26.999C48.8769 28.1951 50.9466 29.4224 53.0527 30.6787L53.3066 30.252C55.3379 31.4636 57.4045 32.6998 59.499 33.9639L59.2412 34.3916C61.2712 35.6168 63.3291 36.8656 65.4102 38.1367L65.6689 37.7109C67.6979 38.9503 69.7495 40.2102 71.8193 41.4902L71.5576 41.915C73.5827 43.1674 75.6256 44.4391 77.6826 45.7275L77.9473 45.3047C79.9695 46.5714 82.0056 47.8544 84.0518 49.1533L83.7842 49.5742C85.8012 50.8546 87.8286 52.1499 89.8623 53.459L90.1318 53.04C92.1445 54.3355 94.1637 55.6447 96.1865 56.9658L95.9141 57.3828C97.92 58.693 99.9297 60.0157 101.939 61.3486L102.214 60.9326C104.214 62.2594 106.215 63.5973 108.213 64.9443L107.936 65.3574C109.927 66.7003 111.917 68.0525 113.9 69.4131L114.182 69.002C116.166 70.3633 118.145 71.7336 120.115 73.1104L119.83 73.5186C121.804 74.8979 123.77 76.2844 125.724 77.6768L126.013 77.2705C127.978 78.6709 129.931 80.077 131.869 81.4883L131.576 81.8926C133.528 83.3137 135.465 84.7394 137.383 86.1689L137.682 85.7686V85.7676C139.621 87.2133 141.542 88.6633 143.441 90.1152L143.139 90.5127C144.093 91.2422 145.042 91.9725 145.984 92.7031C146.908 93.4201 147.827 94.1379 148.739 94.8555L149.047 94.4629C150.896 95.9175 152.719 97.3728 154.515 98.8281L154.2 99.2158C156.028 100.698 157.827 102.18 159.593 103.66L159.913 103.277C161.722 104.793 163.496 106.308 165.232 107.819H165.233L164.905 108.196C166.687 109.747 168.428 111.295 170.125 112.838L170.461 112.468ZM146.36 198.421C146.353 198.418 146.346 198.415 146.339 198.411V198.378L146.36 198.421ZM146.301 198.306L146.285 198.338L146.284 198.316L146.294 198.295L146.301 198.306ZM146.268 198.25V198.258L145.987 197.975C146.008 197.954 146.033 197.933 146.062 197.915L146.268 198.25Z" fill="white" stroke="url(#paint2_linear_604_945)" stroke-dasharray="7.13 7.13"/>
<defs>
<linearGradient id="paint0_linear_604_945" x1="164.243" y1="142.095" x2="58.7916" y2="245.743" gradientUnits="userSpaceOnUse">
<stop stop-color="#F58220"/>
<stop offset="1" stop-color="#F2728C"/>
</linearGradient>
<linearGradient id="paint1_linear_604_945" x1="326.93" y1="-35.2618" x2="155.07" y2="161.348" gradientUnits="userSpaceOnUse">
<stop stop-color="#F58220"/>
<stop offset="1" stop-color="#F2728C"/>
</linearGradient>
<linearGradient id="paint2_linear_604_945" x1="-73.1098" y1="-80.0352" x2="261.871" y2="297.822" gradientUnits="userSpaceOnUse">
<stop stop-color="#0074BC"/>
<stop offset="1" stop-color="#44C8F5"/>
</linearGradient>
</defs>
</svg>
