<svg width="20" height="18" viewBox="0 0 20 18" fill="none" xmlns="http://www.w3.org/2000/svg">
<path fill-rule="evenodd" clip-rule="evenodd" d="M5.40385 10.8667C4.91378 11.9096 4.64099 13.0717 4.64099 14.2981C4.64099 15.4257 4.87255 16.4984 5.29125 17.4755C6.13024 15.5167 7.77967 14.1036 9.71934 13.1815C9.52902 13.0905 9.33553 13.0058 9.13887 12.9243C7.92717 12.4224 6.63141 11.7967 5.40385 10.8683V10.8667Z" fill="url(#paint0_linear_0_44)"/>
<path fill-rule="evenodd" clip-rule="evenodd" d="M19.4381 0C19.4381 0 13.7571 3.00327 9.71912 6.13358C10.8023 6.97261 11.7682 7.82263 12.4724 8.62402C13.1116 9.27486 13.6413 10.0323 14.033 10.8667C16.523 8.9863 18.7387 5.86226 19.4365 0H19.4381Z" fill="url(#paint1_linear_0_44)"/>
<path d="M14.0345 10.8667C13.8811 10.9827 13.8811 10.9827 14.0345 10.8667C13.6427 10.0323 13.113 9.27486 12.4738 8.62559C11.7681 7.82262 10.8038 6.97418 9.72055 6.13358C9.26907 6.48383 9.26907 6.48383 9.72055 6.13358C5.68103 3.00327 0 0 0 0C0.697837 5.8607 2.91506 8.98473 5.40348 10.8667C6.63262 11.7951 7.92679 12.4208 9.13849 12.9227C9.33515 13.0043 9.52706 13.0905 9.71897 13.1799C9.71897 13.1799 9.72214 13.1799 9.72372 13.1783C9.72372 13.1783 9.72055 13.1799 9.71897 13.1815C11.6507 14.0989 13.2922 15.5025 14.136 17.4472C14.1407 17.4582 14.1566 17.4582 14.1597 17.4472C14.5705 16.4796 14.7973 15.4147 14.7973 14.2997C14.7973 13.0733 14.5229 11.9112 14.0345 10.8682V10.8667Z" fill="url(#paint2_linear_0_44)"/>
<defs>
<linearGradient id="paint0_linear_0_44" x1="3.3722" y1="18.3004" x2="8.56977" y2="10.3363" gradientUnits="userSpaceOnUse">
<stop stop-color="#F58220"/>
<stop offset="1" stop-color="#F2728C"/>
</linearGradient>
<linearGradient id="paint1_linear_0_44" x1="21.7235" y1="-2.34302" x2="10.304" y2="10.721" gradientUnits="userSpaceOnUse">
<stop stop-color="#F58220"/>
<stop offset="1" stop-color="#F2728C"/>
</linearGradient>
<linearGradient id="paint2_linear_0_44" x1="-4.8579" y1="-5.31807" x2="17.4005" y2="19.7893" gradientUnits="userSpaceOnUse">
<stop stop-color="#0074BC"/>
<stop offset="1" stop-color="#44C8F5"/>
</linearGradient>
</defs>
</svg>
