<svg width="37" height="26" viewBox="0 0 37 26" fill="none" xmlns="http://www.w3.org/2000/svg">
<path d="M36.3228 12.7342C36.3404 9.77635 36.0912 6.82308 35.5782 3.91111C35.3516 3.14253 34.9301 2.44737 34.3556 1.89476C33.7811 1.34214 33.0737 0.951338 32.3036 0.761201C27.5963 0.203089 22.8584 -0.0485883 18.1193 0.00772296C13.3808 -0.0474096 8.64425 0.209876 3.93853 0.779579C3.17476 0.992914 2.47875 1.40308 1.91849 1.96999C1.35823 2.53691 0.952884 3.24119 0.742054 4.01402C0.22971 6.92541 -0.0183235 9.87812 0.00105318 12.8352C-0.0171086 15.794 0.231708 18.7455 0.74387 21.6565C0.957254 22.4384 1.3672 23.1511 1.93376 23.725C2.50031 24.2989 3.20415 24.7145 3.97667 24.9313C8.6842 25.4882 13.4208 25.7399 18.161 25.683C22.8864 25.7457 27.6108 25.494 32.3036 24.9295C33.0667 24.7164 33.7621 24.3067 34.322 23.7405C34.8819 23.1742 35.2872 22.4707 35.4983 21.6987C36.0558 18.7436 36.3337 15.7407 36.3228 12.7342ZM22.8631 13.8037L15.5893 17.9773C15.4428 18.0586 15.2779 18.1 15.1108 18.0973C14.9438 18.0946 14.7802 18.0479 14.6364 17.9619C14.4925 17.8759 14.3733 17.7534 14.2904 17.6066C14.2075 17.4598 14.1638 17.2936 14.1636 17.1246V8.46506C14.1615 8.29539 14.204 8.1282 14.2869 7.98067C14.3698 7.83315 14.49 7.71061 14.6351 7.62566C14.7803 7.54071 14.9452 7.4964 15.1129 7.49729C15.2806 7.49818 15.445 7.54423 15.5893 7.63072L23.1028 12.0009C23.2477 12.0874 23.3671 12.2114 23.4487 12.3601C23.5303 12.5089 23.5712 12.677 23.5671 12.8471C23.563 13.0172 23.5141 13.1831 23.4255 13.3277C23.3369 13.4723 23.2117 13.5903 23.0629 13.6696L22.8631 13.8037Z" fill="white"/>
</svg>
